<svg xmlns="http://www.w3.org/2000/svg" viewBox="0 0 238 132"><defs><style>.a{fill:#e1d3b3;}.b{fill:#b2362a;}.c{fill:#fff;}</style></defs><title>Artboard 1</title><path d="M112.1006,39.2549c-3.4424,0-5.4268-3.5967-5.4268-8.0928s1.9844-8.0928,5.4268-8.0928a3.9746,3.9746,0,0,1,3.6894,2.45l1.1163-2.1084h1.1162v15.503h-1.1162L115.79,36.8057A3.9752,3.9752,0,0,1,112.1006,39.2549Zm-2.1084-8.0928c0,2.9453.7441,5.333,2.542,5.333,1.7676,0,2.5117-2.3877,2.5117-5.333s-.7441-5.333-2.5117-5.333C110.7363,25.8291,109.9922,28.2168,109.9922,31.1621Z"/><path d="M133.2119,36.2783v2.6358H123.29V36.2783h3.4727V18.45H123.29V15.8145h6.4493V36.2783Z"/><path d="M148.7119,36.2783v2.6358H138.79V36.2783h3.4727V26.0459H138.79V23.4111h6.4493V36.2783ZM143.751,19.5664a1.8929,1.8929,0,0,1-1.8906-1.86,1.8911,1.8911,0,1,1,3.7822,0A1.8932,1.8932,0,0,1,143.751,19.5664Z"/><path d="M158.8174,45.5176a8.0687,8.0687,0,0,1-4.93-1.9844l1.0537-2.0459a6.7856,6.7856,0,0,0,3.752,1.4258c1.55,0,2.8525-.93,2.8525-3.9063V37.9219a3.736,3.736,0,0,1-2.9453,1.333c-3.4424,0-5.4268-3.5967-5.4268-8.0928s1.9844-8.0928,5.4268-8.0928a3.9746,3.9746,0,0,1,3.6894,2.45l1.1163-2.1084h1.1162V39.0068C164.5225,43.2549,162.1973,45.5176,158.8174,45.5176Zm.2168-19.6885c-1.7979,0-2.542,2.3877-2.542,5.333s.7441,5.333,2.542,5.333c1.7676,0,2.5117-2.3877,2.5117-5.333S160.8018,25.8291,159.0342,25.8291Z"/><path d="M172.457,38.9141h-2.9765V23.4111h1.1162l.8369,2.0459a4.6788,4.6788,0,0,1,4.0312-2.3877c2.542,0,4.5577,2.2022,4.5577,5.5508v10.294h-2.9766V28.6816c0-1.8291-.9609-2.8525-2.1709-2.8525a2.5051,2.5051,0,0,0-2.418,2.4189Z"/><path d="M195.2119,36.2783v2.6358H185.29V36.2783h3.4727V26.0459H185.29V23.4111h6.4493V36.2783ZM190.251,19.5664a1.8929,1.8929,0,0,1-1.8906-1.86,1.8911,1.8911,0,1,1,3.7822,0A1.8932,1.8932,0,0,1,190.251,19.5664Z"/><path d="M203.457,38.9141h-2.9765V23.4111h1.1162l.8369,2.0459a4.6788,4.6788,0,0,1,4.0312-2.3877c2.542,0,4.5577,2.2022,4.5577,5.5508v10.294h-2.9766V28.6816c0-1.8291-.9609-2.8525-2.1709-2.8525a2.5051,2.5051,0,0,0-2.418,2.4189Z"/><path d="M220.8174,45.5176a8.0687,8.0687,0,0,1-4.93-1.9844l1.0537-2.0459a6.7856,6.7856,0,0,0,3.752,1.4258c1.55,0,2.8525-.93,2.8525-3.9063V37.9219a3.736,3.736,0,0,1-2.9453,1.333c-3.4424,0-5.4268-3.5967-5.4268-8.0928s1.9844-8.0928,5.4268-8.0928a3.9746,3.9746,0,0,1,3.6894,2.45l1.1163-2.1084h1.1162V39.0068C226.5225,43.2549,224.1973,45.5176,220.8174,45.5176Zm.2168-19.6885c-1.7979,0-2.542,2.3877-2.542,5.333s.7441,5.333,2.542,5.333c1.7676,0,2.5117-2.3877,2.5117-5.333S222.8018,25.8291,221.0342,25.8291Z"/><path d="M159.9023,76.4551a3.9752,3.9752,0,0,1-3.6894-2.4492l-1.1162,2.1084h-1.1162v-23.1h2.9765v8.5889a3.7337,3.7337,0,0,1,2.9453-1.334c3.4415,0,5.4258,3.5967,5.4258,8.0928S163.3438,76.4551,159.9023,76.4551Zm-.4335-13.4258c-1.7676,0-2.5118,2.3877-2.5118,5.333s.7442,5.333,2.5118,5.333c1.7978,0,2.5419-2.3877,2.5419-5.333S161.2666,63.0293,159.4688,63.0293Z"/><path d="M169.6357,82.7178l3.5342-8.7744-5.3642-13.3321h3.1631l3.7822,9.6114,3.7832-9.6114h3.1621l-8.8984,22.1065Z"/><path d="M192.5146,76.4551c-3.1005,0-4.8984-2.2012-4.8984-6.17V63.2461H184.64V60.6113h2.9766V54.999h2.9766v5.6123h4.93v2.6348h-4.93v6.9766c0,2.5117.8369,3.5351,2.7588,3.5351a6.3982,6.3982,0,0,0,2.5429-.59l.62,2.2949A8.1435,8.1435,0,0,1,192.5146,76.4551Z"/><path d="M202.8682,69.0137c0,2.0459,1.1777,4.5888,3.7822,4.5888a4.3015,4.3015,0,0,0,3.2871-1.7988l1.4883,1.83a6.3878,6.3878,0,0,1-5.0547,2.8213c-4.1856,0-6.6973-3.5967-6.6973-8.03,0-4.4961,2.5742-8.1553,6.419-8.1553,3.5654,0,6.2939,3.628,5.7666,8.2168h-8.9912Zm3.2861-5.8916c-1.0234,0-2.2939.62-2.9141,2.7285h5.4873A2.5,2.5,0,0,0,206.1543,63.1221Z"/><path d="M221.2207,76.4863a10.7989,10.7989,0,0,1-5.3643-1.706l.31-2.5733a10.8192,10.8192,0,0,0,4.7754,1.5508c1.5811,0,2.79-.5586,2.79-1.86,0-2.667-7.8437-1.6748-7.8437-7.0391,0-2.7285,2.3252-4.6191,5.3945-4.6191a9.063,9.063,0,0,1,5.209,1.86l-.8994,2.2012a8.9731,8.9731,0,0,0-4.03-1.3955c-1.6748,0-2.5429.7441-2.5429,1.7363,0,2.5117,7.8447,1.86,7.8447,6.9141C226.8633,74.75,224.29,76.4863,221.2207,76.4863Z"/><path d="M148.7119,110.6777v2.6358H138.79v-2.6358h3.4727V100.4463H138.79V97.8105h6.4493v12.8672ZM143.751,93.9658a1.8923,1.8923,0,0,1-1.8906-1.86,1.8911,1.8911,0,1,1,3.7822,0A1.8925,1.8925,0,0,1,143.751,93.9658Z"/><path d="M156.957,113.3135h-2.9765V97.8105h1.1162l.8369,2.0469a4.6788,4.6788,0,0,1,4.0312-2.3877c2.542,0,4.5577,2.2012,4.5577,5.55v10.294h-2.9766V103.082c0-1.83-.9609-2.8525-2.1709-2.8525a2.5049,2.5049,0,0,0-2.418,2.418Z"/><path d="M193.0732,96.3535c-.1552-2.14-.8681-3.4111-2.3261-3.4111-2.3565,0-3.2549,3.8144-3.2549,8.8369,0,4.9922.8984,8.8369,3.2549,8.8369,1.458,0,2.14-1.1474,2.3877-3.7832h2.76c0,4.3408-2.1084,6.8213-5.3017,6.8213-4.5274,0-6.419-5.3945-6.419-11.875,0-6.5107,1.8916-11.875,6.419-11.875,3.1006,0,5.2392,2.2637,5.2392,6.4492Z"/><path d="M199.4883,105.9961V103.02h4.7744V98.2451h2.9766V103.02h4.7753v2.9766h-4.7753v4.7754h-2.9766v-4.7754Z"/><path d="M214.9883,105.9961V103.02h4.7744V98.2451h2.9766V103.02h4.7753v2.9766h-4.7753v4.7754h-2.9766v-4.7754Z"/><path class="a" d="M90.6367,35.4238,68.963,42.4065,22.1917,72.1408l2.0127,8.5856s1.6627.99,2.2789,1.3748c1.0684,1.0943,3.2024,1.5449,5.4585,1.0073,2.9279-.6978,4.9327-2.7905,4.4846-4.6705a2.2874,2.2874,0,0,0-.1558-.42l.0105-.0025-.0462-.1a.5459.5459,0,0,1,.237-.7366.5555.5555,0,0,1,.6823.15l.0362.0583c.0076.0126.014.0262.0206.04l.0463.1.0291-.018a3.85,3.85,0,0,0,4.06,1.4074,4,4,0,0,0,2.5888-1.91,4.1348,4.1348,0,0,0,1.7762-.033,3.6971,3.6971,0,0,0,2.944-4.3033c-.011-.0463-.03-.0892-.0432-.1346l-.005-.0211a1.0458,1.0458,0,0,1-.0463-.3346.1126.1126,0,0,1,.15.02,3.9617,3.9617,0,0,0,4.4455,1.717,3.7965,3.7965,0,0,0,3.1128-4.3435c-.0221-.0927-.0565-.18-.0865-.2693a.5305.5305,0,0,1,.2828-.3573.5572.5572,0,0,1,.5678.0431q.0724.0849.1508.1648c.0055.01.013.0189.018.0291l.0463.1.05-.0231a4.1674,4.1674,0,0,0,3.8047.9,3.8252,3.8252,0,0,0,3.1434-4.2615l.0291-.0181-.0462-.1a.5348.5348,0,0,1,.2395-.7261.5566.5566,0,0,1,.6773.1285l.0026.01a.5608.5608,0,0,1,.0567.098l.0463.1005.0688-.0387a4.8127,4.8127,0,0,0,4.3939.9376,5.0091,5.0091,0,0,0,3.3018-2.3814,3.3278,3.3278,0,0,0,.2134-.508c.0076-.0172.0218-.0449.03-.0628a11.7268,11.7268,0,0,1,1.4641-2.7463c.0836-.0248.1822-.0356.2287.0236a4.337,4.337,0,0,0,4.1493,1.4085,3.9519,3.9519,0,0,0,2.9909-2.8426l.0136-.0366c.0027-.0123.011-.0244.0136-.0367.0528-.1113.3814-.789.469-1.0261l.0186-.0156c.7231.3941,2.5185.2444,4.48-.4321,2.298-.7925,3.97-2.0171,3.8507-2.7909a11.521,11.521,0,0,0,2.8192-.6161c2.3834-.822,3.3248-2.4494,3.11-3.2313-.9339-3.4005-1.7909-6.2053-2.6779-9.2262L90.636,35.424Z"/><path class="b" d="M87.6436,27.9553a1.9365,1.9365,0,0,0-.7887.4333c-.8271.6933-17.2866,9.8309-32.6307,17.6224S4.2587,69.7381,4.2587,69.7381c-.39.2014-.2884.521-.1566,1.0743s1.7546,3.7124,3.4243,7.0228c1.65,3.2713,3.3479,6.529,5.196,9.7783.1887.1411.2907-.02.7416-.21,3.62-1.7308,7.682-3.7619,11.9678-5.9743L24.86,80.2942a3.4082,3.4082,0,0,1,1.5159-4.5874l1.3625-.6927a3.514,3.514,0,0,1,.6552-.2453c1.5365-.4167,2.13.0956,3.5445.8708,1.672.9063,3.2909-.5087,2.7828-1.8324A3.5406,3.5406,0,0,1,36.2371,69.22l2.082-1.0425a3.5465,3.5465,0,0,1,.6527-.2559c1.5364-.4167,2.55.2794,3.5106,1.2941,1.22,1.2888,3.45-.2488,2.7721-1.5537a3.3824,3.3824,0,0,1,2.1395-4.8252,3.5729,3.5729,0,0,1,3.9347,1.7719c.5047.8173,2.859.3568,2.0663-1.2953a3.4115,3.4115,0,0,1,1.4974-4.5715A3.4247,3.4247,0,0,1,59.4692,60.26c.7181,1.223,3.59-.0072,2.2917-2.4083a3.3723,3.3723,0,0,1,1.5053-4.5849l1.1852-.5947a3.4062,3.4062,0,0,1,.6447-.2428A3.4525,3.4525,0,0,1,69.02,54.2039c1.0652,1.97,4.3222.6278,3.1438-2.3884A3.2948,3.2948,0,0,1,73.8851,47.48a2.8435,2.8435,0,0,1,.2984-.1045A3.153,3.153,0,0,1,78.08,49.5025c.4392,1.8426,3.6761.9831,3.1247-.8785l-.9131-3.0829a3.2965,3.2965,0,0,1,2.0823-4.1757c1.6875-.4995,3.1573.6887,4.0122,2.3778,1.42,2.8052,3.198,1.99,2.9079.3393a20.392,20.392,0,0,0-1.0667-4.1232,2.0134,2.0134,0,0,1,1.4043-2.5759c.069-.02.1394-.0477.2085-.0608a2.0737,2.0737,0,0,1,2.3755,1.4521L93.362,42.65c.2905-.1862.62-.39.9008-.5715-1.2328-5.0306-3.5669-9.5525-6.0667-14.0867a.8083.8083,0,0,0-.5547-.0351Z"/><path class="a" d="M101.1987,102.4276c-.1169-.0185-.24-.0283-.3588-.0357l-.9076-.0607a3.442,3.442,0,0,0-3.2694,1.8476,3.4452,3.4452,0,0,0-2.5042-1.3268l-.9084-.0573a3.4392,3.4392,0,0,0-2.7768,1.1353,3.4345,3.4345,0,0,0-1.9787-1.0426l-.9034-.1353a3.4409,3.4409,0,0,0-3.7133,2.0929,3.4327,3.4327,0,0,0-2.8085-2.5507l-.9034-.1353a3.4287,3.4287,0,0,0-2.8776.89l-.0106-.0024a3.5291,3.5291,0,0,0-.4311.4371,3.4381,3.4381,0,0,1-1.2925.5113,2.4708,2.4708,0,0,1-.7735-.4175,3.439,3.439,0,0,0-2.52-2.2527l-.8892-.1988a3.4384,3.4384,0,0,0-3.5736,1.3684,2.4715,2.4715,0,0,1-1.1059.075c-.4573-.0414-1.0761-.6917-1.1861-.81a3.45,3.45,0,0,0-2.3541-1.8489l-1.5666-.35a3.4334,3.4334,0,0,0-4.1163,2.6029l.0378-.1693a3.4333,3.4333,0,0,0-2.6159-4.1081l-1.5666-.35a3.441,3.441,0,0,0-1.939.1222,3.4422,3.4422,0,0,0-1.81-1.0494l-1.5667-.35a3.4408,3.4408,0,0,0-3.7126,1.5929l.05-.2223a2.0483,2.0483,0,0,0-1.564-2.45L34.229,93.2667a2.054,2.054,0,0,0-1.4968.2322A4.1837,4.1837,0,0,0,29.56,89.7442L26.7854,89.06a4.1817,4.1817,0,0,0-5.084,3.0533L20.78,95.7862a4.1906,4.1906,0,0,0,3.0639,5.0863l2.77.686a4.2041,4.2041,0,0,0,4.0061-1.116,2.0481,2.0481,0,0,0,1.5976,1.802l3.2074.7171-2.75,5.7871,21.6177,7.3563,22.4391,6.5173,25.8323-4.7833-.3727-1.9617a3.4462,3.4462,0,0,0,1.4245-2.5935l.4506-7.2347a3.438,3.438,0,0,0-2.5308-3.5445,3.2453,3.2453,0,0,0-.3387-.0758Z"/><path class="b" d="M103.0968,112.6612l-.427,2.2356c-.04.3124-.2129.5566-.5253.5161a.5981.5981,0,0,1-.4921-.6324c-.0462-2.51-.8715-1.49-.9989-.143-.13,1.3694-1.0689,2.1929-1.8024,2.0841l-.2165-.0262c-.7335-.1088-1.1279-1.3389-1.1589-2.08-.059-1.4095-1.2275-1.2579-1.3792.3029-.1206,1.2409-1.3128,2.63-2.5451,2.441a2.435,2.435,0,0,1-1.8826-2.566c-.0488-1.1651-1.4128-1.4359-1.7673.15a2.8893,2.8893,0,0,1-3.2172,2.3594,2.7543,2.7543,0,0,1-2.3593-3.2172c.5124-2.292-1.401-2.25-1.7-1.0469a4.0289,4.0289,0,0,1-4.75,3.15c-2.0725-.5158-2.896-2.6915-2.7252-5.0106.0573-.7773-1.3744-1.3094-1.7534.386a3.9842,3.9842,0,0,1-4.7476,3.14,3.9325,3.9325,0,0,1-2.7275-5c.3059-.96-1.253-1.438-1.5694-.4375-.7036,2.2255-2.7133,3.1047-4.97,2.5433l-.1058-.0237c-2.2566-.5616-2.967-2.7631-3.0639-5.0863a.99.99,0,0,0-1.9017-.4488,3.6963,3.6963,0,0,1-4.7818,2.2555l-2.78-.6883c-2.2565-.5616-3.95-2.9384-3.0534-5.084.724-1.7329-1.1929-2.6829-1.6987-1.4448-.7527,1.8421-2.5229,2.3475-4.7793,1.7859l-2.77-.686a4.202,4.202,0,0,1-3.0639-5.0863c.2688-1.118-1.12-1.8766-1.7309-.7093-1.4628,2.7979-3.7,3.2625-6.7779,1.6531-1.9614-1.0256-2.5145-2.7246-.7793-7.0666,1.3527-3.3851-7.6921-5.0768-7.8679-5.2036s-.299.1444-.299.1444-.8026,5.2725-1.3826,8.2929c-.08.4192.33.6017.3328.9969.0188,2.9084-1.1137,3.4328-1.3577,4.6312-.4114,2.0206-1.2411,5.98.1125,6.7049l1.398.6571a335.1914,335.1914,0,0,0,54.654,15.6871c12.2838,2.3641,20.7553,2.913,31.0212,1.19a10.33,10.33,0,0,0,2.5423-.832.9291.9291,0,0,0,.5668-.6957c.8146-3.78,1.1027-4.4884,1.9692-10.3377.0883-.5956-.5307-.9155-.6874.2462Z"/><path class="c" d="M23.4289,86.3891a5.38,5.38,0,1,1-5.3743-5.3855A5.38,5.38,0,0,1,23.4289,86.3891Z"/><path class="a" d="M90.6367,35.4238,68.963,42.4065,22.1917,72.1408l2.0127,8.5856s1.6627.99,2.2789,1.3748c1.0684,1.0943,3.2024,1.5449,5.4585,1.0073,2.9279-.6978,4.9327-2.7905,4.4846-4.6705a2.2874,2.2874,0,0,0-.1558-.42l.0105-.0025-.0462-.1a.5459.5459,0,0,1,.237-.7366.5555.5555,0,0,1,.6823.15l.0362.0583c.0076.0126.014.0262.0206.04l.0463.1.0291-.018a3.85,3.85,0,0,0,4.06,1.4074,4,4,0,0,0,2.5888-1.91,4.1348,4.1348,0,0,0,1.7762-.033,3.6971,3.6971,0,0,0,2.944-4.3033c-.011-.0463-.03-.0892-.0432-.1346l-.005-.0211a1.0458,1.0458,0,0,1-.0463-.3346.1126.1126,0,0,1,.15.02,3.9617,3.9617,0,0,0,4.4455,1.717,3.7965,3.7965,0,0,0,3.1128-4.3435c-.0221-.0927-.0565-.18-.0865-.2693a.5305.5305,0,0,1,.2828-.3573.5572.5572,0,0,1,.5678.0431q.0724.0849.1508.1648c.0055.01.013.0189.018.0291l.0463.1.05-.0231a4.1674,4.1674,0,0,0,3.8047.9,3.8252,3.8252,0,0,0,3.1434-4.2615l.0291-.0181-.0462-.1a.5348.5348,0,0,1,.2395-.7261.5566.5566,0,0,1,.6773.1285l.0026.01a.5608.5608,0,0,1,.0567.098l.0463.1005.0688-.0387a4.8127,4.8127,0,0,0,4.3939.9376,5.0091,5.0091,0,0,0,3.3018-2.3814,3.3278,3.3278,0,0,0,.2134-.508c.0076-.0172.0218-.0449.03-.0628a11.7268,11.7268,0,0,1,1.4641-2.7463c.0836-.0248.1822-.0356.2287.0236a4.337,4.337,0,0,0,4.1493,1.4085,3.9519,3.9519,0,0,0,2.9909-2.8426l.0136-.0366c.0027-.0123.011-.0244.0136-.0367.0528-.1113.3814-.789.469-1.0261l.0186-.0156c.7231.3941,2.5185.2444,4.48-.4321,2.298-.7925,3.97-2.0171,3.8507-2.7909a11.521,11.521,0,0,0,2.8192-.6161c2.3834-.822,3.3248-2.4494,3.11-3.2313-.9339-3.4005-1.7909-6.2053-2.6779-9.2262L90.636,35.424Z"/><path class="b" d="M87.6436,27.9553a1.9365,1.9365,0,0,0-.7887.4333c-.8271.6933-17.2866,9.8309-32.6307,17.6224S4.2587,69.7381,4.2587,69.7381c-.39.2014-.2884.521-.1566,1.0743s1.7546,3.7124,3.4243,7.0228c1.65,3.2713,3.3479,6.529,5.196,9.7783.1887.1411.2907-.02.7416-.21,3.62-1.7308,7.682-3.7619,11.9678-5.9743L24.86,80.2942a3.4082,3.4082,0,0,1,1.5159-4.5874l1.3625-.6927a3.514,3.514,0,0,1,.6552-.2453c1.5365-.4167,2.13.0956,3.5445.8708,1.672.9063,3.2909-.5087,2.7828-1.8324A3.5406,3.5406,0,0,1,36.2371,69.22l2.082-1.0425a3.5465,3.5465,0,0,1,.6527-.2559c1.5364-.4167,2.55.2794,3.5106,1.2941,1.22,1.2888,3.45-.2488,2.7721-1.5537a3.3824,3.3824,0,0,1,2.1395-4.8252,3.5729,3.5729,0,0,1,3.9347,1.7719c.5047.8173,2.859.3568,2.0663-1.2953a3.4115,3.4115,0,0,1,1.4974-4.5715A3.4247,3.4247,0,0,1,59.4692,60.26c.7181,1.223,3.59-.0072,2.2917-2.4083a3.3723,3.3723,0,0,1,1.5053-4.5849l1.1852-.5947a3.4062,3.4062,0,0,1,.6447-.2428A3.4525,3.4525,0,0,1,69.02,54.2039c1.0652,1.97,4.3222.6278,3.1438-2.3884A3.2948,3.2948,0,0,1,73.8851,47.48a2.8435,2.8435,0,0,1,.2984-.1045A3.153,3.153,0,0,1,78.08,49.5025c.4392,1.8426,3.6761.9831,3.1247-.8785l-.9131-3.0829a3.2965,3.2965,0,0,1,2.0823-4.1757c1.6875-.4995,3.1573.6887,4.0122,2.3778,1.42,2.8052,3.198,1.99,2.9079.3393a20.392,20.392,0,0,0-1.0667-4.1232,2.0134,2.0134,0,0,1,1.4043-2.5759c.069-.02.1394-.0477.2085-.0608a2.0737,2.0737,0,0,1,2.3755,1.4521L93.362,42.65c.2905-.1862.62-.39.9008-.5715-1.2328-5.0306-3.5669-9.5525-6.0667-14.0867a.8083.8083,0,0,0-.5547-.0351Z"/><path class="a" d="M101.1987,102.4276c-.1169-.0185-.24-.0283-.3588-.0357l-.9076-.0607a3.442,3.442,0,0,0-3.2694,1.8476,3.4452,3.4452,0,0,0-2.5042-1.3268l-.9084-.0573a3.4392,3.4392,0,0,0-2.7768,1.1353,3.4345,3.4345,0,0,0-1.9787-1.0426l-.9034-.1353a3.4409,3.4409,0,0,0-3.7133,2.0929,3.4327,3.4327,0,0,0-2.8085-2.5507l-.9034-.1353a3.4287,3.4287,0,0,0-2.8776.89l-.0106-.0024a3.5291,3.5291,0,0,0-.4311.4371,3.4381,3.4381,0,0,1-1.2925.5113,2.4708,2.4708,0,0,1-.7735-.4175,3.439,3.439,0,0,0-2.52-2.2527l-.8892-.1988a3.4384,3.4384,0,0,0-3.5736,1.3684,2.4715,2.4715,0,0,1-1.1059.075c-.4573-.0414-1.0761-.6917-1.1861-.81a3.45,3.45,0,0,0-2.3541-1.8489l-1.5666-.35a3.4334,3.4334,0,0,0-4.1163,2.6029l.0378-.1693a3.4333,3.4333,0,0,0-2.6159-4.1081l-1.5666-.35a3.441,3.441,0,0,0-1.939.1222,3.4422,3.4422,0,0,0-1.81-1.0494l-1.5667-.35a3.4408,3.4408,0,0,0-3.7126,1.5929l.05-.2223a2.0483,2.0483,0,0,0-1.564-2.45L34.229,93.2667a2.054,2.054,0,0,0-1.4968.2322A4.1837,4.1837,0,0,0,29.56,89.7442L26.7854,89.06a4.1817,4.1817,0,0,0-5.084,3.0533L20.78,95.7862a4.1906,4.1906,0,0,0,3.0639,5.0863l2.77.686a4.2041,4.2041,0,0,0,4.0061-1.116,2.0481,2.0481,0,0,0,1.5976,1.802l3.2074.7171-2.75,5.7871,21.6177,7.3563,22.4391,6.5173,25.8323-4.7833-.3727-1.9617a3.4462,3.4462,0,0,0,1.4245-2.5935l.4506-7.2347a3.438,3.438,0,0,0-2.5308-3.5445,3.2453,3.2453,0,0,0-.3387-.0758Z"/><path class="b" d="M103.0968,112.6612l-.427,2.2356c-.04.3124-.2129.5566-.5253.5161a.5981.5981,0,0,1-.4921-.6324c-.0462-2.51-.8715-1.49-.9989-.143-.13,1.3694-1.0689,2.1929-1.8024,2.0841l-.2165-.0262c-.7335-.1088-1.1279-1.3389-1.1589-2.08-.059-1.4095-1.2275-1.2579-1.3792.3029-.1206,1.2409-1.3128,2.63-2.5451,2.441a2.435,2.435,0,0,1-1.8826-2.566c-.0488-1.1651-1.4128-1.4359-1.7673.15a2.8893,2.8893,0,0,1-3.2172,2.3594,2.7543,2.7543,0,0,1-2.3593-3.2172c.5124-2.292-1.401-2.25-1.7-1.0469a4.0289,4.0289,0,0,1-4.75,3.15c-2.0725-.5158-2.896-2.6915-2.7252-5.0106.0573-.7773-1.3744-1.3094-1.7534.386a3.9842,3.9842,0,0,1-4.7476,3.14,3.9325,3.9325,0,0,1-2.7275-5c.3059-.96-1.253-1.438-1.5694-.4375-.7036,2.2255-2.7133,3.1047-4.97,2.5433l-.1058-.0237c-2.2566-.5616-2.967-2.7631-3.0639-5.0863a.99.99,0,0,0-1.9017-.4488,3.6963,3.6963,0,0,1-4.7818,2.2555l-2.78-.6883c-2.2565-.5616-3.95-2.9384-3.0534-5.084.724-1.7329-1.1929-2.6829-1.6987-1.4448-.7527,1.8421-2.5229,2.3475-4.7793,1.7859l-2.77-.686a4.202,4.202,0,0,1-3.0639-5.0863c.2688-1.118-1.12-1.8766-1.7309-.7093-1.4628,2.7979-3.7,3.2625-6.7779,1.6531-1.9614-1.0256-2.5145-2.7246-.7793-7.0666,1.3527-3.3851-7.6921-5.0768-7.8679-5.2036s-.299.1444-.299.1444-.8026,5.2725-1.3826,8.2929c-.08.4192.33.6017.3328.9969.0188,2.9084-1.1137,3.4328-1.3577,4.6312-.4114,2.0206-1.2411,5.98.1125,6.7049l1.398.6571a335.1914,335.1914,0,0,0,54.654,15.6871c12.2838,2.3641,20.7553,2.913,31.0212,1.19a10.33,10.33,0,0,0,2.5423-.832.9291.9291,0,0,0,.5668-.6957c.8146-3.78,1.1027-4.4884,1.9692-10.3377.0883-.5956-.5307-.9155-.6874.2462Z"/><path class="c" d="M23.4289,86.3891a5.38,5.38,0,1,1-5.3743-5.3855A5.38,5.38,0,0,1,23.4289,86.3891Z"/><path class="a" d="M90.6367,35.4238,68.963,42.4065,22.1917,72.1408l2.0127,8.5856s1.6627.99,2.2789,1.3748c1.0684,1.0943,3.2024,1.5449,5.4585,1.0073,2.9279-.6978,4.9327-2.7905,4.4846-4.6705a2.2874,2.2874,0,0,0-.1558-.42l.0105-.0025-.0462-.1a.5459.5459,0,0,1,.237-.7366.5555.5555,0,0,1,.6823.15l.0362.0583c.0076.0126.014.0262.0206.04l.0463.1.0291-.018a3.85,3.85,0,0,0,4.06,1.4074,4,4,0,0,0,2.5888-1.91,4.1348,4.1348,0,0,0,1.7762-.033,3.6971,3.6971,0,0,0,2.944-4.3033c-.011-.0463-.03-.0892-.0432-.1346l-.005-.0211a1.0458,1.0458,0,0,1-.0463-.3346.1126.1126,0,0,1,.15.02,3.9617,3.9617,0,0,0,4.4455,1.717,3.7965,3.7965,0,0,0,3.1128-4.3435c-.0221-.0927-.0565-.18-.0865-.2693a.5305.5305,0,0,1,.2828-.3573.5572.5572,0,0,1,.5678.0431q.0724.0849.1508.1648c.0055.01.013.0189.018.0291l.0463.1.05-.0231a4.1674,4.1674,0,0,0,3.8047.9,3.8252,3.8252,0,0,0,3.1434-4.2615l.0291-.0181-.0462-.1a.5348.5348,0,0,1,.2395-.7261.5566.5566,0,0,1,.6773.1285l.0026.01a.5608.5608,0,0,1,.0567.098l.0463.1005.0688-.0387a4.8127,4.8127,0,0,0,4.3939.9376,5.0091,5.0091,0,0,0,3.3018-2.3814,3.3278,3.3278,0,0,0,.2134-.508c.0076-.0172.0218-.0449.03-.0628a11.7268,11.7268,0,0,1,1.4641-2.7463c.0836-.0248.1822-.0356.2287.0236a4.337,4.337,0,0,0,4.1493,1.4085,3.9519,3.9519,0,0,0,2.9909-2.8426l.0136-.0366c.0027-.0123.011-.0244.0136-.0367.0528-.1113.3814-.789.469-1.0261l.0186-.0156c.7231.3941,2.5185.2444,4.48-.4321,2.298-.7925,3.97-2.0171,3.8507-2.7909a11.521,11.521,0,0,0,2.8192-.6161c2.3834-.822,3.3248-2.4494,3.11-3.2313-.9339-3.4005-1.7909-6.2053-2.6779-9.2262L90.636,35.424Z"/><path class="b" d="M87.6436,27.9553a1.9365,1.9365,0,0,0-.7887.4333c-.8271.6933-17.2866,9.8309-32.6307,17.6224S4.2587,69.7381,4.2587,69.7381c-.39.2014-.2884.521-.1566,1.0743s1.7546,3.7124,3.4243,7.0228c1.65,3.2713,3.3479,6.529,5.196,9.7783.1887.1411.2907-.02.7416-.21,3.62-1.7308,7.682-3.7619,11.9678-5.9743L24.86,80.2942a3.4082,3.4082,0,0,1,1.5159-4.5874l1.3625-.6927a3.514,3.514,0,0,1,.6552-.2453c1.5365-.4167,2.13.0956,3.5445.8708,1.672.9063,3.2909-.5087,2.7828-1.8324A3.5406,3.5406,0,0,1,36.2371,69.22l2.082-1.0425a3.5465,3.5465,0,0,1,.6527-.2559c1.5364-.4167,2.55.2794,3.5106,1.2941,1.22,1.2888,3.45-.2488,2.7721-1.5537a3.3824,3.3824,0,0,1,2.1395-4.8252,3.5729,3.5729,0,0,1,3.9347,1.7719c.5047.8173,2.859.3568,2.0663-1.2953a3.4115,3.4115,0,0,1,1.4974-4.5715A3.4247,3.4247,0,0,1,59.4692,60.26c.7181,1.223,3.59-.0072,2.2917-2.4083a3.3723,3.3723,0,0,1,1.5053-4.5849l1.1852-.5947a3.4062,3.4062,0,0,1,.6447-.2428A3.4525,3.4525,0,0,1,69.02,54.2039c1.0652,1.97,4.3222.6278,3.1438-2.3884A3.2948,3.2948,0,0,1,73.8851,47.48a2.8435,2.8435,0,0,1,.2984-.1045A3.153,3.153,0,0,1,78.08,49.5025c.4392,1.8426,3.6761.9831,3.1247-.8785l-.9131-3.0829a3.2965,3.2965,0,0,1,2.0823-4.1757c1.6875-.4995,3.1573.6887,4.0122,2.3778,1.42,2.8052,3.198,1.99,2.9079.3393a20.392,20.392,0,0,0-1.0667-4.1232,2.0134,2.0134,0,0,1,1.4043-2.5759c.069-.02.1394-.0477.2085-.0608a2.0737,2.0737,0,0,1,2.3755,1.4521L93.362,42.65c.2905-.1862.62-.39.9008-.5715-1.2328-5.0306-3.5669-9.5525-6.0667-14.0867a.8083.8083,0,0,0-.5547-.0351Z"/><path class="a" d="M101.1987,102.4276c-.1169-.0185-.24-.0283-.3588-.0357l-.9076-.0607a3.442,3.442,0,0,0-3.2694,1.8476,3.4452,3.4452,0,0,0-2.5042-1.3268l-.9084-.0573a3.4392,3.4392,0,0,0-2.7768,1.1353,3.4345,3.4345,0,0,0-1.9787-1.0426l-.9034-.1353a3.4409,3.4409,0,0,0-3.7133,2.0929,3.4327,3.4327,0,0,0-2.8085-2.5507l-.9034-.1353a3.4287,3.4287,0,0,0-2.8776.89l-.0106-.0024a3.5291,3.5291,0,0,0-.4311.4371,3.4381,3.4381,0,0,1-1.2925.5113,2.4708,2.4708,0,0,1-.7735-.4175,3.439,3.439,0,0,0-2.52-2.2527l-.8892-.1988a3.4384,3.4384,0,0,0-3.5736,1.3684,2.4715,2.4715,0,0,1-1.1059.075c-.4573-.0414-1.0761-.6917-1.1861-.81a3.45,3.45,0,0,0-2.3541-1.8489l-1.5666-.35a3.4334,3.4334,0,0,0-4.1163,2.6029l.0378-.1693a3.4333,3.4333,0,0,0-2.6159-4.1081l-1.5666-.35a3.441,3.441,0,0,0-1.939.1222,3.4422,3.4422,0,0,0-1.81-1.0494l-1.5667-.35a3.4408,3.4408,0,0,0-3.7126,1.5929l.05-.2223a2.0483,2.0483,0,0,0-1.564-2.45L34.229,93.2667a2.054,2.054,0,0,0-1.4968.2322A4.1837,4.1837,0,0,0,29.56,89.7442L26.7854,89.06a4.1817,4.1817,0,0,0-5.084,3.0533L20.78,95.7862a4.1906,4.1906,0,0,0,3.0639,5.0863l2.77.686a4.2041,4.2041,0,0,0,4.0061-1.116,2.0481,2.0481,0,0,0,1.5976,1.802l3.2074.7171-2.75,5.7871,21.6177,7.3563,22.4391,6.5173,25.8323-4.7833-.3727-1.9617a3.4462,3.4462,0,0,0,1.4245-2.5935l.4506-7.2347a3.438,3.438,0,0,0-2.5308-3.5445,3.2453,3.2453,0,0,0-.3387-.0758Z"/><path class="b" d="M103.0968,112.6612l-.427,2.2356c-.04.3124-.2129.5566-.5253.5161a.5981.5981,0,0,1-.4921-.6324c-.0462-2.51-.8715-1.49-.9989-.143-.13,1.3694-1.0689,2.1929-1.8024,2.0841l-.2165-.0262c-.7335-.1088-1.1279-1.3389-1.1589-2.08-.059-1.4095-1.2275-1.2579-1.3792.3029-.1206,1.2409-1.3128,2.63-2.5451,2.441a2.435,2.435,0,0,1-1.8826-2.566c-.0488-1.1651-1.4128-1.4359-1.7673.15a2.8893,2.8893,0,0,1-3.2172,2.3594,2.7543,2.7543,0,0,1-2.3593-3.2172c.5124-2.292-1.401-2.25-1.7-1.0469a4.0289,4.0289,0,0,1-4.75,3.15c-2.0725-.5158-2.896-2.6915-2.7252-5.0106.0573-.7773-1.3744-1.3094-1.7534.386a3.9842,3.9842,0,0,1-4.7476,3.14,3.9325,3.9325,0,0,1-2.7275-5c.3059-.96-1.253-1.438-1.5694-.4375-.7036,2.2255-2.7133,3.1047-4.97,2.5433l-.1058-.0237c-2.2566-.5616-2.967-2.7631-3.0639-5.0863a.99.99,0,0,0-1.9017-.4488,3.6963,3.6963,0,0,1-4.7818,2.2555l-2.78-.6883c-2.2565-.5616-3.95-2.9384-3.0534-5.084.724-1.7329-1.1929-2.6829-1.6987-1.4448-.7527,1.8421-2.5229,2.3475-4.7793,1.7859l-2.77-.686a4.202,4.202,0,0,1-3.0639-5.0863c.2688-1.118-1.12-1.8766-1.7309-.7093-1.4628,2.7979-3.7,3.2625-6.7779,1.6531-1.9614-1.0256-2.5145-2.7246-.7793-7.0666,1.3527-3.3851-7.6921-5.0768-7.8679-5.2036s-.299.1444-.299.1444-.8026,5.2725-1.3826,8.2929c-.08.4192.33.6017.3328.9969.0188,2.9084-1.1137,3.4328-1.3577,4.6312-.4114,2.0206-1.2411,5.98.1125,6.7049l1.398.6571a335.1914,335.1914,0,0,0,54.654,15.6871c12.2838,2.3641,20.7553,2.913,31.0212,1.19a10.33,10.33,0,0,0,2.5423-.832.9291.9291,0,0,0,.5668-.6957c.8146-3.78,1.1027-4.4884,1.9692-10.3377.0883-.5956-.5307-.9155-.6874.2462Z"/><path class="c" d="M23.4289,86.3891a5.38,5.38,0,1,1-5.3743-5.3855A5.38,5.38,0,0,1,23.4289,86.3891Z"/><path class="a" d="M122.4256,47.9116l-14.1438,4.5568L77.76,71.8724l1.3134,5.6028s1.0851.6464,1.4873.8971a3.8586,3.8586,0,0,0,3.562.6574c1.9107-.4554,3.219-1.821,2.9266-3.0479a1.4935,1.4935,0,0,0-.1017-.274l.0069-.0017-.03-.0656a.3562.3562,0,0,1,.1547-.4807.3627.3627,0,0,1,.4453.0976l.0236.0381.0134.0259.03.0656.019-.0118a2.5124,2.5124,0,0,0,2.6494.9185,2.6106,2.6106,0,0,0,1.6894-1.2467,2.7,2.7,0,0,0,1.1591-.0216,2.4127,2.4127,0,0,0,1.9212-2.8082c-.0072-.03-.02-.0583-.0282-.0879l-.0033-.0138a.6782.6782,0,0,1-.03-.2183.0735.0735,0,0,1,.0977.0131,2.5855,2.5855,0,0,0,2.901,1.12,2.4778,2.4778,0,0,0,2.0314-2.8345c-.0145-.06-.0369-.1179-.0565-.1758a.3457.3457,0,0,1,.1846-.2331.3633.3633,0,0,1,.37.0281c.0315.0369.0643.0726.0984.1075l.0118.019.03.0656.0328-.0151a2.7194,2.7194,0,0,0,2.4828.5871,2.4961,2.4961,0,0,0,2.0513-2.781l.019-.0118-.03-.0656a.3489.3489,0,0,1,.1563-.4738.3632.3632,0,0,1,.442.0838l.0016.0069a.3652.3652,0,0,1,.0371.064l.03.0655.045-.0252a3.14,3.14,0,0,0,2.8673.6119A3.2691,3.2691,0,0,0,110.9267,66.5a2.1689,2.1689,0,0,0,.1393-.3315l.0193-.041a7.6489,7.6489,0,0,1,.9555-1.7922c.0545-.0162.1189-.0232.1491.0154a2.83,2.83,0,0,0,2.7078.9192,2.5789,2.5789,0,0,0,1.9518-1.855l.0089-.024c.0018-.0079.0071-.0159.0088-.0239.0345-.0726.249-.5149.3062-.67l.0121-.01a4.5513,4.5513,0,0,0,2.9235-.2819c1.5-.5172,2.5909-1.3164,2.5129-1.8214a7.5157,7.5157,0,0,0,1.84-.402c1.5554-.5364,2.17-1.5985,2.0295-2.1087-.6094-2.2191-1.1687-4.0494-1.7475-6.0208l-2.3185-4.1408Z"/><path class="b" d="M120.4724,43.0379a1.2647,1.2647,0,0,0-.5147.2827c-.54.4525-11.2809,6.4155-21.2941,11.5S66.0571,70.3045,66.0571,70.3045c-.2542.1314-.1882.34-.1022.701S67.1,73.4281,68.19,75.5885c1.0767,2.1347,2.1848,4.2606,3.3908,6.3811.1232.0921.19-.0131.484-.1372,2.362-1.1294,5.0131-2.4549,7.81-3.8986l-.373-.7407A2.224,2.224,0,0,1,80.4906,74.2l.8891-.452a2.2845,2.2845,0,0,1,.4275-.16c1.0027-.272,1.39.0624,2.3131.5682,1.0911.5915,2.1476-.3319,1.816-1.1957a2.31,2.31,0,0,1,.9893-2.9936l1.3586-.68a2.3153,2.3153,0,0,1,.4259-.167,2.1632,2.1632,0,0,1,2.291.8445c.7961.8411,2.2513-.1623,1.809-1.0139a2.2071,2.2071,0,0,1,1.3962-3.1488A2.3316,2.3316,0,0,1,96.774,66.957c.3294.5333,1.8657.2329,1.3484-.8453A2.2264,2.2264,0,0,1,99.1,63.1284a2.2351,2.2351,0,0,1,2.9867.991c.4687.7981,2.343-.0047,1.4955-1.5717a2.2006,2.2006,0,0,1,.9824-2.9919l.7735-.3881a2.2174,2.2174,0,0,1,.4206-.1585,2.2531,2.2531,0,0,1,2.5608,1.158c.6952,1.2854,2.8206.41,2.0516-1.5586a2.15,2.15,0,0,1,1.1231-2.829,1.856,1.856,0,0,1,.1948-.0683,2.0577,2.0577,0,0,1,2.5428,1.3878c.2866,1.2025,2.3989.6416,2.0391-.5733l-.5959-2.0118a2.1513,2.1513,0,0,1,1.3589-2.725c1.1012-.3259,2.06.4494,2.6182,1.5517.9266,1.8306,2.087,1.2989,1.8977.2215a13.3082,13.3082,0,0,0-.6961-2.6907,1.3138,1.3138,0,0,1,.9164-1.681c.045-.0133.091-.0312.1361-.04a1.3533,1.3533,0,0,1,1.55.9476l.7481,2.5286c.19-.1215.4047-.2547.5878-.373a37.7882,37.7882,0,0,0-3.959-9.1926.5269.5269,0,0,0-.362-.0229Z"/><path class="a" d="M129.3181,91.637c-.0762-.0122-.1563-.0185-.2341-.0234l-.5923-.04a2.2464,2.2464,0,0,0-2.1335,1.2057,2.2482,2.2482,0,0,0-1.6342-.8658l-.5928-.0374a2.2441,2.2441,0,0,0-1.8121.7409,2.2415,2.2415,0,0,0-1.2912-.68l-.59-.0883a2.2453,2.2453,0,0,0-2.4232,1.3658,2.24,2.24,0,0,0-1.8328-1.6645l-.59-.0883a2.2373,2.2373,0,0,0-1.8779.5811l-.0069-.0016a2.3,2.3,0,0,0-.2813.2852,2.2436,2.2436,0,0,1-.8435.3337,1.6119,1.6119,0,0,1-.5048-.2724,2.244,2.244,0,0,0-1.6441-1.47l-.58-.13a2.2435,2.2435,0,0,0-2.332.8929,1.6123,1.6123,0,0,1-.7218.049c-.2984-.027-.7022-.4514-.774-.5284a2.2514,2.2514,0,0,0-1.5362-1.2066l-1.0223-.2286a2.2407,2.2407,0,0,0-2.6863,1.6986l.0247-.1105a2.2406,2.2406,0,0,0-1.7071-2.6809l-1.0223-.2285a2.2453,2.2453,0,0,0-1.2653.08A2.2453,2.2453,0,0,0,95.63,87.84l-1.0223-.2286a2.2456,2.2456,0,0,0-2.4229,1.04l.0325-.1451a1.3367,1.3367,0,0,0-1.0206-1.599l-5.5815-1.2479a1.34,1.34,0,0,0-.9767.1516,2.73,2.73,0,0,0-2.0705-2.45l-1.81-.4465A2.7288,2.7288,0,0,0,77.44,84.9061l-.6012,2.3968a2.7346,2.7346,0,0,0,1.9994,3.3192l1.8075.4477a2.7436,2.7436,0,0,0,2.6143-.7283,1.3365,1.3365,0,0,0,1.0426,1.176l2.093.4679L84.601,95.762l14.1073,4.8005,14.6432,4.2531,16.8577-3.1215-.2432-1.28a2.25,2.25,0,0,0,.93-1.6925L131.19,94a2.2434,2.2434,0,0,0-1.6515-2.313,2.1151,2.1151,0,0,0-.2211-.0494Z"/><path class="b" d="M130.5568,98.3151l-.2787,1.459c-.0264.2039-.1388.3632-.3427.3368a.39.39,0,0,1-.3212-.4127c-.03-1.6379-.5687-.9722-.6518-.0933-.0846.8936-.6976,1.431-1.1763,1.36l-.1412-.0171c-.4787-.071-.736-.8737-.7563-1.3572-.0385-.92-.801-.8209-.9.1977-.0788.81-.8567,1.7164-1.6609,1.5929a1.5892,1.5892,0,0,1-1.2286-1.6745c-.0318-.76-.9219-.9371-1.1532.0975a1.8855,1.8855,0,0,1-2.0995,1.54,1.7974,1.7974,0,0,1-1.54-2.1c.3344-1.4957-.9143-1.468-1.1093-.6831a2.6292,2.6292,0,0,1-3.1,2.0559c-1.3525-.3366-1.89-1.7565-1.7784-3.27.0373-.5073-.8969-.8546-1.1443.2518a2.6,2.6,0,0,1-3.0982,2.0489,2.5663,2.5663,0,0,1-1.78-3.263c.2-.6263-.8177-.9384-1.0241-.2855a2.5163,2.5163,0,0,1-3.2433,1.66l-.0691-.0154c-1.4725-.3665-1.9361-1.8032-1.9994-3.3193a.6461.6461,0,0,0-1.241-.2929,2.4121,2.4121,0,0,1-3.12,1.4719l-1.8144-.4491a2.6032,2.6032,0,0,1-1.9925-3.3177c.4724-1.1309-.7785-1.7508-1.1086-.9429-.4911,1.2021-1.6464,1.5319-3.1188,1.1654l-1.8075-.4476a2.7421,2.7421,0,0,1-1.9994-3.3192c.1754-.73-.7313-1.2247-1.13-.4629-.9546,1.8258-2.4146,2.129-4.4231,1.0788-1.28-.6693-1.6409-1.7781-.5085-4.6116.8827-2.209-5.02-3.313-5.1345-3.3957s-.1951.0942-.1951.0942-.5238,3.4407-.9023,5.4118c-.0525.2736.2156.3927.2172.6506.0123,1.8979-.7268,2.24-.886,3.0222-.2685,1.3186-.81,3.9022.0734,4.3755l.9123.4288a218.7454,218.7454,0,0,0,35.6661,10.2371c8.0161,1.5427,13.5445,1.9009,20.2438.7763a6.7384,6.7384,0,0,0,1.659-.543.6062.6062,0,0,0,.37-.454c.5316-2.4669.72-2.929,1.2851-6.7462.0576-.3886-.3464-.5974-.4486.1607Z"/><path class="c" d="M78.5672,81.1705A3.5108,3.5108,0,1,1,75.06,77.6561,3.5108,3.5108,0,0,1,78.5672,81.1705Z"/><path class="a" d="M122.4256,47.9116l-14.1438,4.5568L77.76,71.8724l1.3134,5.6028s1.0851.6464,1.4873.8971a3.8586,3.8586,0,0,0,3.562.6574c1.9107-.4554,3.219-1.821,2.9266-3.0479a1.4935,1.4935,0,0,0-.1017-.274l.0069-.0017-.03-.0656a.3562.3562,0,0,1,.1547-.4807.3627.3627,0,0,1,.4453.0976l.0236.0381.0134.0259.03.0656.019-.0118a2.5124,2.5124,0,0,0,2.6494.9185,2.6106,2.6106,0,0,0,1.6894-1.2467,2.7,2.7,0,0,0,1.1591-.0216,2.4127,2.4127,0,0,0,1.9212-2.8082c-.0072-.03-.02-.0583-.0282-.0879l-.0033-.0138a.6782.6782,0,0,1-.03-.2183.0735.0735,0,0,1,.0977.0131,2.5855,2.5855,0,0,0,2.901,1.12,2.4778,2.4778,0,0,0,2.0314-2.8345c-.0145-.06-.0369-.1179-.0565-.1758a.3457.3457,0,0,1,.1846-.2331.3633.3633,0,0,1,.37.0281c.0315.0369.0643.0726.0984.1075l.0118.019.03.0656.0328-.0151a2.7194,2.7194,0,0,0,2.4828.5871,2.4961,2.4961,0,0,0,2.0513-2.781l.019-.0118-.03-.0656a.3489.3489,0,0,1,.1563-.4738.3632.3632,0,0,1,.442.0838l.0016.0069a.3652.3652,0,0,1,.0371.064l.03.0655.045-.0252a3.14,3.14,0,0,0,2.8673.6119A3.2691,3.2691,0,0,0,110.9267,66.5a2.1689,2.1689,0,0,0,.1393-.3315l.0193-.041a7.6489,7.6489,0,0,1,.9555-1.7922c.0545-.0162.1189-.0232.1491.0154a2.83,2.83,0,0,0,2.7078.9192,2.5789,2.5789,0,0,0,1.9518-1.855l.0089-.024c.0018-.0079.0071-.0159.0088-.0239.0345-.0726.249-.5149.3062-.67l.0121-.01a4.5513,4.5513,0,0,0,2.9235-.2819c1.5-.5172,2.5909-1.3164,2.5129-1.8214a7.5157,7.5157,0,0,0,1.84-.402c1.5554-.5364,2.17-1.5985,2.0295-2.1087-.6094-2.2191-1.1687-4.0494-1.7475-6.0208l-2.3185-4.1408Z"/><path class="b" d="M120.4724,43.0379a1.2647,1.2647,0,0,0-.5147.2827c-.54.4525-11.2809,6.4155-21.2941,11.5S66.0571,70.3045,66.0571,70.3045c-.2542.1314-.1882.34-.1022.701S67.1,73.4281,68.19,75.5885c1.0767,2.1347,2.1848,4.2606,3.3908,6.3811.1232.0921.19-.0131.484-.1372,2.362-1.1294,5.0131-2.4549,7.81-3.8986l-.373-.7407A2.224,2.224,0,0,1,80.4906,74.2l.8891-.452a2.2845,2.2845,0,0,1,.4275-.16c1.0027-.272,1.39.0624,2.3131.5682,1.0911.5915,2.1476-.3319,1.816-1.1957a2.31,2.31,0,0,1,.9893-2.9936l1.3586-.68a2.3153,2.3153,0,0,1,.4259-.167,2.1632,2.1632,0,0,1,2.291.8445c.7961.8411,2.2513-.1623,1.809-1.0139a2.2071,2.2071,0,0,1,1.3962-3.1488A2.3316,2.3316,0,0,1,96.774,66.957c.3294.5333,1.8657.2329,1.3484-.8453A2.2264,2.2264,0,0,1,99.1,63.1284a2.2351,2.2351,0,0,1,2.9867.991c.4687.7981,2.343-.0047,1.4955-1.5717a2.2006,2.2006,0,0,1,.9824-2.9919l.7735-.3881a2.2174,2.2174,0,0,1,.4206-.1585,2.2531,2.2531,0,0,1,2.5608,1.158c.6952,1.2854,2.8206.41,2.0516-1.5586a2.15,2.15,0,0,1,1.1231-2.829,1.856,1.856,0,0,1,.1948-.0683,2.0577,2.0577,0,0,1,2.5428,1.3878c.2866,1.2025,2.3989.6416,2.0391-.5733l-.5959-2.0118a2.1513,2.1513,0,0,1,1.3589-2.725c1.1012-.3259,2.06.4494,2.6182,1.5517.9266,1.8306,2.087,1.2989,1.8977.2215a13.3082,13.3082,0,0,0-.6961-2.6907,1.3138,1.3138,0,0,1,.9164-1.681c.045-.0133.091-.0312.1361-.04a1.3533,1.3533,0,0,1,1.55.9476l.7481,2.5286c.19-.1215.4047-.2547.5878-.373a37.7882,37.7882,0,0,0-3.959-9.1926.5269.5269,0,0,0-.362-.0229Z"/><path class="a" d="M129.3181,91.637c-.0762-.0122-.1563-.0185-.2341-.0234l-.5923-.04a2.2464,2.2464,0,0,0-2.1335,1.2057,2.2482,2.2482,0,0,0-1.6342-.8658l-.5928-.0374a2.2441,2.2441,0,0,0-1.8121.7409,2.2415,2.2415,0,0,0-1.2912-.68l-.59-.0883a2.2453,2.2453,0,0,0-2.4232,1.3658,2.24,2.24,0,0,0-1.8328-1.6645l-.59-.0883a2.2373,2.2373,0,0,0-1.8779.5811l-.0069-.0016a2.3,2.3,0,0,0-.2813.2852,2.2436,2.2436,0,0,1-.8435.3337,1.6119,1.6119,0,0,1-.5048-.2724,2.244,2.244,0,0,0-1.6441-1.47l-.58-.13a2.2435,2.2435,0,0,0-2.332.8929,1.6123,1.6123,0,0,1-.7218.049c-.2984-.027-.7022-.4514-.774-.5284a2.2514,2.2514,0,0,0-1.5362-1.2066l-1.0223-.2286a2.2407,2.2407,0,0,0-2.6863,1.6986l.0247-.1105a2.2406,2.2406,0,0,0-1.7071-2.6809l-1.0223-.2285a2.2453,2.2453,0,0,0-1.2653.08A2.2453,2.2453,0,0,0,95.63,87.84l-1.0223-.2286a2.2456,2.2456,0,0,0-2.4229,1.04l.0325-.1451a1.3367,1.3367,0,0,0-1.0206-1.599l-5.5815-1.2479a1.34,1.34,0,0,0-.9767.1516,2.73,2.73,0,0,0-2.0705-2.45l-1.81-.4465A2.7288,2.7288,0,0,0,77.44,84.9061l-.6012,2.3968a2.7346,2.7346,0,0,0,1.9994,3.3192l1.8075.4477a2.7436,2.7436,0,0,0,2.6143-.7283,1.3365,1.3365,0,0,0,1.0426,1.176l2.093.4679L84.601,95.762l14.1073,4.8005,14.6432,4.2531,16.8577-3.1215-.2432-1.28a2.25,2.25,0,0,0,.93-1.6925L131.19,94a2.2434,2.2434,0,0,0-1.6515-2.313,2.1151,2.1151,0,0,0-.2211-.0494Z"/><path class="b" d="M130.5568,98.3151l-.2787,1.459c-.0264.2039-.1388.3632-.3427.3368a.39.39,0,0,1-.3212-.4127c-.03-1.6379-.5687-.9722-.6518-.0933-.0846.8936-.6976,1.431-1.1763,1.36l-.1412-.0171c-.4787-.071-.736-.8737-.7563-1.3572-.0385-.92-.801-.8209-.9.1977-.0788.81-.8567,1.7164-1.6609,1.5929a1.5892,1.5892,0,0,1-1.2286-1.6745c-.0318-.76-.9219-.9371-1.1532.0975a1.8855,1.8855,0,0,1-2.0995,1.54,1.7974,1.7974,0,0,1-1.54-2.1c.3344-1.4957-.9143-1.468-1.1093-.6831a2.6292,2.6292,0,0,1-3.1,2.0559c-1.3525-.3366-1.89-1.7565-1.7784-3.27.0373-.5073-.8969-.8546-1.1443.2518a2.6,2.6,0,0,1-3.0982,2.0489,2.5663,2.5663,0,0,1-1.78-3.263c.2-.6263-.8177-.9384-1.0241-.2855a2.5163,2.5163,0,0,1-3.2433,1.66l-.0691-.0154c-1.4725-.3665-1.9361-1.8032-1.9994-3.3193a.6461.6461,0,0,0-1.241-.2929,2.4121,2.4121,0,0,1-3.12,1.4719l-1.8144-.4491a2.6032,2.6032,0,0,1-1.9925-3.3177c.4724-1.1309-.7785-1.7508-1.1086-.9429-.4911,1.2021-1.6464,1.5319-3.1188,1.1654l-1.8075-.4476a2.7421,2.7421,0,0,1-1.9994-3.3192c.1754-.73-.7313-1.2247-1.13-.4629-.9546,1.8258-2.4146,2.129-4.4231,1.0788-1.28-.6693-1.6409-1.7781-.5085-4.6116.8827-2.209-5.02-3.313-5.1345-3.3957s-.1951.0942-.1951.0942-.5238,3.4407-.9023,5.4118c-.0525.2736.2156.3927.2172.6506.0123,1.8979-.7268,2.24-.886,3.0222-.2685,1.3186-.81,3.9022.0734,4.3755l.9123.4288a218.7454,218.7454,0,0,0,35.6661,10.2371c8.0161,1.5427,13.5445,1.9009,20.2438.7763a6.7384,6.7384,0,0,0,1.659-.543.6062.6062,0,0,0,.37-.454c.5316-2.4669.72-2.929,1.2851-6.7462.0576-.3886-.3464-.5974-.4486.1607Z"/><path class="c" d="M78.5672,81.1705A3.5108,3.5108,0,1,1,75.06,77.6561,3.5108,3.5108,0,0,1,78.5672,81.1705Z"/><path class="a" d="M122.4256,47.9116l-14.1438,4.5568L77.76,71.8724l1.3134,5.6028s1.0851.6464,1.4873.8971a3.8586,3.8586,0,0,0,3.562.6574c1.9107-.4554,3.219-1.821,2.9266-3.0479a1.4935,1.4935,0,0,0-.1017-.274l.0069-.0017-.03-.0656a.3562.3562,0,0,1,.1547-.4807.3627.3627,0,0,1,.4453.0976l.0236.0381.0134.0259.03.0656.019-.0118a2.5124,2.5124,0,0,0,2.6494.9185,2.6106,2.6106,0,0,0,1.6894-1.2467,2.7,2.7,0,0,0,1.1591-.0216,2.4127,2.4127,0,0,0,1.9212-2.8082c-.0072-.03-.02-.0583-.0282-.0879l-.0033-.0138a.6782.6782,0,0,1-.03-.2183.0735.0735,0,0,1,.0977.0131,2.5855,2.5855,0,0,0,2.901,1.12,2.4778,2.4778,0,0,0,2.0314-2.8345c-.0145-.06-.0369-.1179-.0565-.1758a.3457.3457,0,0,1,.1846-.2331.3633.3633,0,0,1,.37.0281c.0315.0369.0643.0726.0984.1075l.0118.019.03.0656.0328-.0151a2.7194,2.7194,0,0,0,2.4828.5871,2.4961,2.4961,0,0,0,2.0513-2.781l.019-.0118-.03-.0656a.3489.3489,0,0,1,.1563-.4738.3632.3632,0,0,1,.442.0838l.0016.0069a.3652.3652,0,0,1,.0371.064l.03.0655.045-.0252a3.14,3.14,0,0,0,2.8673.6119A3.2691,3.2691,0,0,0,110.9267,66.5a2.1689,2.1689,0,0,0,.1393-.3315l.0193-.041a7.6489,7.6489,0,0,1,.9555-1.7922c.0545-.0162.1189-.0232.1491.0154a2.83,2.83,0,0,0,2.7078.9192,2.5789,2.5789,0,0,0,1.9518-1.855l.0089-.024c.0018-.0079.0071-.0159.0088-.0239.0345-.0726.249-.5149.3062-.67l.0121-.01a4.5513,4.5513,0,0,0,2.9235-.2819c1.5-.5172,2.5909-1.3164,2.5129-1.8214a7.5157,7.5157,0,0,0,1.84-.402c1.5554-.5364,2.17-1.5985,2.0295-2.1087-.6094-2.2191-1.1687-4.0494-1.7475-6.0208l-2.3185-4.1408Z"/><path class="b" d="M120.4724,43.0379a1.2647,1.2647,0,0,0-.5147.2827c-.54.4525-11.2809,6.4155-21.2941,11.5S66.0571,70.3045,66.0571,70.3045c-.2542.1314-.1882.34-.1022.701S67.1,73.4281,68.19,75.5885c1.0767,2.1347,2.1848,4.2606,3.3908,6.3811.1232.0921.19-.0131.484-.1372,2.362-1.1294,5.0131-2.4549,7.81-3.8986l-.373-.7407A2.224,2.224,0,0,1,80.4906,74.2l.8891-.452a2.2845,2.2845,0,0,1,.4275-.16c1.0027-.272,1.39.0624,2.3131.5682,1.0911.5915,2.1476-.3319,1.816-1.1957a2.31,2.31,0,0,1,.9893-2.9936l1.3586-.68a2.3153,2.3153,0,0,1,.4259-.167,2.1632,2.1632,0,0,1,2.291.8445c.7961.8411,2.2513-.1623,1.809-1.0139a2.2071,2.2071,0,0,1,1.3962-3.1488A2.3316,2.3316,0,0,1,96.774,66.957c.3294.5333,1.8657.2329,1.3484-.8453A2.2264,2.2264,0,0,1,99.1,63.1284a2.2351,2.2351,0,0,1,2.9867.991c.4687.7981,2.343-.0047,1.4955-1.5717a2.2006,2.2006,0,0,1,.9824-2.9919l.7735-.3881a2.2174,2.2174,0,0,1,.4206-.1585,2.2531,2.2531,0,0,1,2.5608,1.158c.6952,1.2854,2.8206.41,2.0516-1.5586a2.15,2.15,0,0,1,1.1231-2.829,1.856,1.856,0,0,1,.1948-.0683,2.0577,2.0577,0,0,1,2.5428,1.3878c.2866,1.2025,2.3989.6416,2.0391-.5733l-.5959-2.0118a2.1513,2.1513,0,0,1,1.3589-2.725c1.1012-.3259,2.06.4494,2.6182,1.5517.9266,1.8306,2.087,1.2989,1.8977.2215a13.3082,13.3082,0,0,0-.6961-2.6907,1.3138,1.3138,0,0,1,.9164-1.681c.045-.0133.091-.0312.1361-.04a1.3533,1.3533,0,0,1,1.55.9476l.7481,2.5286c.19-.1215.4047-.2547.5878-.373a37.7882,37.7882,0,0,0-3.959-9.1926.5269.5269,0,0,0-.362-.0229Z"/><path class="a" d="M129.3181,91.637c-.0762-.0122-.1563-.0185-.2341-.0234l-.5923-.04a2.2464,2.2464,0,0,0-2.1335,1.2057,2.2482,2.2482,0,0,0-1.6342-.8658l-.5928-.0374a2.2441,2.2441,0,0,0-1.8121.7409,2.2415,2.2415,0,0,0-1.2912-.68l-.59-.0883a2.2453,2.2453,0,0,0-2.4232,1.3658,2.24,2.24,0,0,0-1.8328-1.6645l-.59-.0883a2.2373,2.2373,0,0,0-1.8779.5811l-.0069-.0016a2.3,2.3,0,0,0-.2813.2852,2.2436,2.2436,0,0,1-.8435.3337,1.6119,1.6119,0,0,1-.5048-.2724,2.244,2.244,0,0,0-1.6441-1.47l-.58-.13a2.2435,2.2435,0,0,0-2.332.8929,1.6123,1.6123,0,0,1-.7218.049c-.2984-.027-.7022-.4514-.774-.5284a2.2514,2.2514,0,0,0-1.5362-1.2066l-1.0223-.2286a2.2407,2.2407,0,0,0-2.6863,1.6986l.0247-.1105a2.2406,2.2406,0,0,0-1.7071-2.6809l-1.0223-.2285a2.2453,2.2453,0,0,0-1.2653.08A2.2453,2.2453,0,0,0,95.63,87.84l-1.0223-.2286a2.2456,2.2456,0,0,0-2.4229,1.04l.0325-.1451a1.3367,1.3367,0,0,0-1.0206-1.599l-5.5815-1.2479a1.34,1.34,0,0,0-.9767.1516,2.73,2.73,0,0,0-2.0705-2.45l-1.81-.4465A2.7288,2.7288,0,0,0,77.44,84.9061l-.6012,2.3968a2.7346,2.7346,0,0,0,1.9994,3.3192l1.8075.4477a2.7436,2.7436,0,0,0,2.6143-.7283,1.3365,1.3365,0,0,0,1.0426,1.176l2.093.4679L84.601,95.762l14.1073,4.8005,14.6432,4.2531,16.8577-3.1215-.2432-1.28a2.25,2.25,0,0,0,.93-1.6925L131.19,94a2.2434,2.2434,0,0,0-1.6515-2.313,2.1151,2.1151,0,0,0-.2211-.0494Z"/><path class="b" d="M130.5568,98.3151l-.2787,1.459c-.0264.2039-.1388.3632-.3427.3368a.39.39,0,0,1-.3212-.4127c-.03-1.6379-.5687-.9722-.6518-.0933-.0846.8936-.6976,1.431-1.1763,1.36l-.1412-.0171c-.4787-.071-.736-.8737-.7563-1.3572-.0385-.92-.801-.8209-.9.1977-.0788.81-.8567,1.7164-1.6609,1.5929a1.5892,1.5892,0,0,1-1.2286-1.6745c-.0318-.76-.9219-.9371-1.1532.0975a1.8855,1.8855,0,0,1-2.0995,1.54,1.7974,1.7974,0,0,1-1.54-2.1c.3344-1.4957-.9143-1.468-1.1093-.6831a2.6292,2.6292,0,0,1-3.1,2.0559c-1.3525-.3366-1.89-1.7565-1.7784-3.27.0373-.5073-.8969-.8546-1.1443.2518a2.6,2.6,0,0,1-3.0982,2.0489,2.5663,2.5663,0,0,1-1.78-3.263c.2-.6263-.8177-.9384-1.0241-.2855a2.5163,2.5163,0,0,1-3.2433,1.66l-.0691-.0154c-1.4725-.3665-1.9361-1.8032-1.9994-3.3193a.6461.6461,0,0,0-1.241-.2929,2.4121,2.4121,0,0,1-3.12,1.4719l-1.8144-.4491a2.6032,2.6032,0,0,1-1.9925-3.3177c.4724-1.1309-.7785-1.7508-1.1086-.9429-.4911,1.2021-1.6464,1.5319-3.1188,1.1654l-1.8075-.4476a2.7421,2.7421,0,0,1-1.9994-3.3192c.1754-.73-.7313-1.2247-1.13-.4629-.9546,1.8258-2.4146,2.129-4.4231,1.0788-1.28-.6693-1.6409-1.7781-.5085-4.6116.8827-2.209-5.02-3.313-5.1345-3.3957s-.1951.0942-.1951.0942-.5238,3.4407-.9023,5.4118c-.0525.2736.2156.3927.2172.6506.0123,1.8979-.7268,2.24-.886,3.0222-.2685,1.3186-.81,3.9022.0734,4.3755l.9123.4288a218.7454,218.7454,0,0,0,35.6661,10.2371c8.0161,1.5427,13.5445,1.9009,20.2438.7763a6.7384,6.7384,0,0,0,1.659-.543.6062.6062,0,0,0,.37-.454c.5316-2.4669.72-2.929,1.2851-6.7462.0576-.3886-.3464-.5974-.4486.1607Z"/><path class="c" d="M78.5672,81.1705A3.5108,3.5108,0,1,1,75.06,77.6561,3.5108,3.5108,0,0,1,78.5672,81.1705Z"/><path class="a" d="M128.5067,62.0371,121.7929,64.2,107.3044,73.411l.6235,2.66s.5151.3068.706.4258a1.8318,1.8318,0,0,0,1.6908.3121c.907-.2162,1.528-.8644,1.3893-1.4468a.71.71,0,0,0-.0483-.13l.0032-.0008-.0143-.0311a.1692.1692,0,0,1,.0734-.2282.1722.1722,0,0,1,.2114.0463l.0112.0181.0064.0123.0143.0311.009-.0056a1.1926,1.1926,0,0,0,1.2577.436,1.2387,1.2387,0,0,0,.8019-.5918,1.282,1.282,0,0,0,.55-.01,1.1454,1.1454,0,0,0,.912-1.3331c-.0034-.0143-.0094-.0276-.0134-.0417l-.0016-.0065a.3234.3234,0,0,1-.0143-.1037.0349.0349,0,0,1,.0464.0063,1.2272,1.2272,0,0,0,1.3771.5318,1.176,1.176,0,0,0,.9642-1.3455c-.0068-.0287-.0175-.0559-.0268-.0834a.1647.1647,0,0,1,.0876-.1107.1727.1727,0,0,1,.1759.0134q.0225.0262.0467.051l.0056.009.0144.0312.0155-.0072a1.2909,1.2909,0,0,0,1.1786.2787,1.1849,1.1849,0,0,0,.9737-1.32l.0091-.0056-.0144-.0311a.1658.1658,0,0,1,.0742-.225.1725.1725,0,0,1,.21.04l.0008.0033a.1677.1677,0,0,1,.0176.03l.0143.0311.0214-.012a1.4907,1.4907,0,0,0,1.3611.2905,1.5519,1.5519,0,0,0,1.0228-.7377,1.0365,1.0365,0,0,0,.0661-.1574l.0092-.02a3.6294,3.6294,0,0,1,.4535-.8507c.0259-.0077.0564-.011.0708.0073a1.3434,1.3434,0,0,0,1.2853.4363,1.2243,1.2243,0,0,0,.9266-.88l.0042-.0114.0042-.0113c.0163-.0345.1181-.2444.1453-.3179l.0057-.0048a2.16,2.16,0,0,0,1.3878-.1339c.7119-.2455,1.23-.6248,1.1928-.8645a3.5641,3.5641,0,0,0,.8733-.1909c.7384-.2546,1.03-.7587.9634-1.0009-.2893-1.0534-.5548-1.9222-.8295-2.8581l-1.1006-1.9655Z"/><path class="b" d="M127.58,59.7236a.6.6,0,0,0-.2443.1342c-.2563.2148-5.3549,3.0453-10.1081,5.4589s-15.4779,7.35-15.4779,7.35c-.1207.0624-.0893.1614-.0485.3328s.5435,1.15,1.0607,2.1755c.5111,1.0133,1.0371,2.0224,1.61,3.029.0585.0437.09-.0062.23-.0651,1.1213-.5362,2.38-1.1653,3.7073-1.8507l-.177-.3515a1.0559,1.0559,0,0,1,.47-1.4211l.4221-.2145a1.0782,1.0782,0,0,1,.2029-.076c.476-.1291.66.03,1.098.27.5179.2808,1.0194-.1576.862-.5676a1.0968,1.0968,0,0,1,.47-1.421l.645-.323a1.1,1.1,0,0,1,.2021-.0793,1.0269,1.0269,0,0,1,1.0875.4009c.3779.3993,1.0687-.0771.8587-.4813a1.0476,1.0476,0,0,1,.6628-1.4947,1.1066,1.1066,0,0,1,1.2188.5489c.1564.2532.8857.1105.64-.4012a1.0569,1.0569,0,0,1,.4639-1.4162,1.0608,1.0608,0,0,1,1.4177.47c.2225.3789,1.1122-.0022.71-.746a1.0447,1.0447,0,0,1,.4664-1.42l.3671-.1842a1.0562,1.0562,0,0,1,1.4153.4744c.33.61,1.3389.1945.9738-.74a1.0207,1.0207,0,0,1,.5332-1.3429.8745.8745,0,0,1,.0924-.0324.9769.9769,0,0,1,1.2071.6588c.136.5708,1.1387.3045.9679-.2722l-.2829-.955a1.0212,1.0212,0,0,1,.6451-1.2935c.5227-.1547.978.2134,1.2428.7366.44.869.9907.6166.9008.1051a6.3157,6.3157,0,0,0-.33-1.2772.6237.6237,0,0,1,.435-.798c.0214-.0063.0432-.0148.0646-.0188a.6425.6425,0,0,1,.7359.45l.3551,1.2c.09-.0577.1921-.1209.279-.177a17.9382,17.9382,0,0,0-1.8793-4.3637.25.25,0,0,0-.1718-.0108Z"/><path class="a" d="M131.7786,82.793c-.0362-.0058-.0743-.0088-.1112-.0111l-.2811-.0188a1.0664,1.0664,0,0,0-1.0128.5723,1.0676,1.0676,0,0,0-.7757-.411l-.2814-.0177a1.0653,1.0653,0,0,0-.86.3517,1.0635,1.0635,0,0,0-.6129-.323l-.28-.0419a1.0659,1.0659,0,0,0-1.15.6483,1.0633,1.0633,0,0,0-.87-.79l-.28-.0419a1.0624,1.0624,0,0,0-.8914.2758l-.0033-.0007a1.0816,1.0816,0,0,0-.1335.1354,1.0651,1.0651,0,0,1-.4.1584.7635.7635,0,0,1-.24-.1294,1.0654,1.0654,0,0,0-.7805-.6978l-.2754-.0616a1.065,1.065,0,0,0-1.107.4239.7669.7669,0,0,1-.3426.0233c-.1417-.0129-.3333-.2143-.3674-.2509a1.0685,1.0685,0,0,0-.7293-.5727l-.4853-.1085a1.0635,1.0635,0,0,0-1.2751.8063l.0117-.0525a1.0635,1.0635,0,0,0-.81-1.2726l-.4853-.1085a1.0778,1.0778,0,0,1-1.1614-.2872l-.4853-.1085a1.0659,1.0659,0,0,0-1.15.4934l.0154-.0688a.6346.6346,0,0,0-.4845-.7591l-2.6494-.5923a.6365.6365,0,0,0-.4637.0719,1.296,1.296,0,0,0-.9828-1.1631l-.8594-.2119a1.2952,1.2952,0,0,0-1.5748.9458l-.2854,1.1378a1.2981,1.2981,0,0,0,.9491,1.5756l.858.2124a1.302,1.302,0,0,0,1.2409-.3457.6346.6346,0,0,0,.495.5583l.9935.2221-.8518,1.7927,6.6965,2.2787,6.951,2.0189,8.0021-1.4817-.1154-.6077a1.0676,1.0676,0,0,0,.4413-.8034l.1395-2.2411a1.065,1.065,0,0,0-.7839-1.098,1.0023,1.0023,0,0,0-.105-.0234Z"/><path class="b" d="M132.3666,85.963l-.1323.6926c-.0126.0968-.066.1724-.1627.16a.1854.1854,0,0,1-.1525-.196c-.0143-.7774-.27-.4614-.3094-.0443-.04.4243-.3311.6794-.5584.6457l-.067-.0082c-.2272-.0337-.3494-.4147-.359-.6442-.0183-.4366-.38-.39-.4272.0938-.0374.3844-.4067.8148-.7885.7562a.7542.7542,0,0,1-.5831-.7949c-.0151-.3609-.4377-.4448-.5475.0463a.8951.8951,0,0,1-.9966.7309.8531.8531,0,0,1-.7308-.9966c.1587-.71-.434-.6969-.5266-.3243a1.2481,1.2481,0,0,1-1.4714.9759,1.3466,1.3466,0,0,1-.8442-1.5522c.0177-.2407-.4257-.4056-.5432.12a1.2341,1.2341,0,0,1-1.4706.9726,1.2181,1.2181,0,0,1-.8449-1.5489c.0947-.2973-.3882-.4455-.4862-.1355a1.1944,1.1944,0,0,1-1.54.7878l-.0328-.0073c-.699-.174-.9191-.856-.9491-1.5756a.3067.3067,0,0,0-.5891-.1391,1.145,1.145,0,0,1-1.4813.6987l-.8612-.2132a1.2358,1.2358,0,0,1-.9459-1.5749c.2243-.5368-.3695-.8311-.5262-.4475-.2331.5706-.7815.7272-1.4805.5532l-.858-.2125a1.3017,1.3017,0,0,1-.9491-1.5756c.0833-.3463-.3471-.5813-.5362-.22-.4531.8667-1.1461,1.0106-2.1.512-.6076-.3176-.7789-.844-.2414-2.189.4191-1.0486-2.3828-1.5726-2.4372-1.6119s-.0926.0447-.0926.0447-.2487,1.6333-.4283,2.5689c-.025.13.1023.1864.1031.3088.0058.901-.345,1.0634-.4206,1.4347-.1275.6259-.3845,1.8523.0348,2.0769l.4331.2036a103.8291,103.8291,0,0,0,16.93,4.8594,24.9969,24.9969,0,0,0,9.6095.3685,3.1957,3.1957,0,0,0,.7875-.2577.2877.2877,0,0,0,.1755-.2155c.2524-1.1711.3416-1.39.61-3.2023.0273-.1845-.1644-.2837-.213.0762Z"/><path class="c" d="M107.6877,77.8247a1.6666,1.6666,0,1,1-1.6648-1.6683A1.6666,1.6666,0,0,1,107.6877,77.8247Z"/><path class="a" d="M128.5067,62.0371,121.7929,64.2,107.3044,73.411l.6235,2.66s.5151.3068.706.4258a1.8318,1.8318,0,0,0,1.6908.3121c.907-.2162,1.528-.8644,1.3893-1.4468a.71.71,0,0,0-.0483-.13l.0032-.0008-.0143-.0311a.1692.1692,0,0,1,.0734-.2282.1722.1722,0,0,1,.2114.0463l.0112.0181.0064.0123.0143.0311.009-.0056a1.1926,1.1926,0,0,0,1.2577.436,1.2387,1.2387,0,0,0,.8019-.5918,1.282,1.282,0,0,0,.55-.01,1.1454,1.1454,0,0,0,.912-1.3331c-.0034-.0143-.0094-.0276-.0134-.0417l-.0016-.0065a.3234.3234,0,0,1-.0143-.1037.0349.0349,0,0,1,.0464.0063,1.2272,1.2272,0,0,0,1.3771.5318,1.176,1.176,0,0,0,.9642-1.3455c-.0068-.0287-.0175-.0559-.0268-.0834a.1647.1647,0,0,1,.0876-.1107.1727.1727,0,0,1,.1759.0134q.0225.0262.0467.051l.0056.009.0144.0312.0155-.0072a1.2909,1.2909,0,0,0,1.1786.2787,1.1849,1.1849,0,0,0,.9737-1.32l.0091-.0056-.0144-.0311a.1658.1658,0,0,1,.0742-.225.1725.1725,0,0,1,.21.04l.0008.0033a.1677.1677,0,0,1,.0176.03l.0143.0311.0214-.012a1.4907,1.4907,0,0,0,1.3611.2905,1.5519,1.5519,0,0,0,1.0228-.7377,1.0365,1.0365,0,0,0,.0661-.1574l.0092-.02a3.6294,3.6294,0,0,1,.4535-.8507c.0259-.0077.0564-.011.0708.0073a1.3434,1.3434,0,0,0,1.2853.4363,1.2243,1.2243,0,0,0,.9266-.88l.0042-.0114.0042-.0113c.0163-.0345.1181-.2444.1453-.3179l.0057-.0048a2.16,2.16,0,0,0,1.3878-.1339c.7119-.2455,1.23-.6248,1.1928-.8645a3.5641,3.5641,0,0,0,.8733-.1909c.7384-.2546,1.03-.7587.9634-1.0009-.2893-1.0534-.5548-1.9222-.8295-2.8581l-1.1006-1.9655Z"/><path class="b" d="M127.58,59.7236a.6.6,0,0,0-.2443.1342c-.2563.2148-5.3549,3.0453-10.1081,5.4589s-15.4779,7.35-15.4779,7.35c-.1207.0624-.0893.1614-.0485.3328s.5435,1.15,1.0607,2.1755c.5111,1.0133,1.0371,2.0224,1.61,3.029.0585.0437.09-.0062.23-.0651,1.1213-.5362,2.38-1.1653,3.7073-1.8507l-.177-.3515a1.0559,1.0559,0,0,1,.47-1.4211l.4221-.2145a1.0782,1.0782,0,0,1,.2029-.076c.476-.1291.66.03,1.098.27.5179.2808,1.0194-.1576.862-.5676a1.0968,1.0968,0,0,1,.47-1.421l.645-.323a1.1,1.1,0,0,1,.2021-.0793,1.0269,1.0269,0,0,1,1.0875.4009c.3779.3993,1.0687-.0771.8587-.4813a1.0476,1.0476,0,0,1,.6628-1.4947,1.1066,1.1066,0,0,1,1.2188.5489c.1564.2532.8857.1105.64-.4012a1.0569,1.0569,0,0,1,.4639-1.4162,1.0608,1.0608,0,0,1,1.4177.47c.2225.3789,1.1122-.0022.71-.746a1.0447,1.0447,0,0,1,.4664-1.42l.3671-.1842a1.0562,1.0562,0,0,1,1.4153.4744c.33.61,1.3389.1945.9738-.74a1.0207,1.0207,0,0,1,.5332-1.3429.8745.8745,0,0,1,.0924-.0324.9769.9769,0,0,1,1.2071.6588c.136.5708,1.1387.3045.9679-.2722l-.2829-.955a1.0212,1.0212,0,0,1,.6451-1.2935c.5227-.1547.978.2134,1.2428.7366.44.869.9907.6166.9008.1051a6.3157,6.3157,0,0,0-.33-1.2772.6237.6237,0,0,1,.435-.798c.0214-.0063.0432-.0148.0646-.0188a.6425.6425,0,0,1,.7359.45l.3551,1.2c.09-.0577.1921-.1209.279-.177a17.9382,17.9382,0,0,0-1.8793-4.3637.25.25,0,0,0-.1718-.0108Z"/><path class="a" d="M131.7786,82.793c-.0362-.0058-.0743-.0088-.1112-.0111l-.2811-.0188a1.0664,1.0664,0,0,0-1.0128.5723,1.0676,1.0676,0,0,0-.7757-.411l-.2814-.0177a1.0653,1.0653,0,0,0-.86.3517,1.0635,1.0635,0,0,0-.6129-.323l-.28-.0419a1.0659,1.0659,0,0,0-1.15.6483,1.0633,1.0633,0,0,0-.87-.79l-.28-.0419a1.0624,1.0624,0,0,0-.8914.2758l-.0033-.0007a1.0816,1.0816,0,0,0-.1335.1354,1.0651,1.0651,0,0,1-.4.1584.7635.7635,0,0,1-.24-.1294,1.0654,1.0654,0,0,0-.7805-.6978l-.2754-.0616a1.065,1.065,0,0,0-1.107.4239.7669.7669,0,0,1-.3426.0233c-.1417-.0129-.3333-.2143-.3674-.2509a1.0685,1.0685,0,0,0-.7293-.5727l-.4853-.1085a1.0635,1.0635,0,0,0-1.2751.8063l.0117-.0525a1.0635,1.0635,0,0,0-.81-1.2726l-.4853-.1085a1.0778,1.0778,0,0,1-1.1614-.2872l-.4853-.1085a1.0659,1.0659,0,0,0-1.15.4934l.0154-.0688a.6346.6346,0,0,0-.4845-.7591l-2.6494-.5923a.6365.6365,0,0,0-.4637.0719,1.296,1.296,0,0,0-.9828-1.1631l-.8594-.2119a1.2952,1.2952,0,0,0-1.5748.9458l-.2854,1.1378a1.2981,1.2981,0,0,0,.9491,1.5756l.858.2124a1.302,1.302,0,0,0,1.2409-.3457.6346.6346,0,0,0,.495.5583l.9935.2221-.8518,1.7927,6.6965,2.2787,6.951,2.0189,8.0021-1.4817-.1154-.6077a1.0676,1.0676,0,0,0,.4413-.8034l.1395-2.2411a1.065,1.065,0,0,0-.7839-1.098,1.0023,1.0023,0,0,0-.105-.0234Z"/><path class="b" d="M132.3666,85.963l-.1323.6926c-.0126.0968-.066.1724-.1627.16a.1854.1854,0,0,1-.1525-.196c-.0143-.7774-.27-.4614-.3094-.0443-.04.4243-.3311.6794-.5584.6457l-.067-.0082c-.2272-.0337-.3494-.4147-.359-.6442-.0183-.4366-.38-.39-.4272.0938-.0374.3844-.4067.8148-.7885.7562a.7542.7542,0,0,1-.5831-.7949c-.0151-.3609-.4377-.4448-.5475.0463a.8951.8951,0,0,1-.9966.7309.8531.8531,0,0,1-.7308-.9966c.1587-.71-.434-.6969-.5266-.3243a1.2481,1.2481,0,0,1-1.4714.9759,1.3466,1.3466,0,0,1-.8442-1.5522c.0177-.2407-.4257-.4056-.5432.12a1.2341,1.2341,0,0,1-1.4706.9726,1.2181,1.2181,0,0,1-.8449-1.5489c.0947-.2973-.3882-.4455-.4862-.1355a1.1944,1.1944,0,0,1-1.54.7878l-.0328-.0073c-.699-.174-.9191-.856-.9491-1.5756a.3067.3067,0,0,0-.5891-.1391,1.145,1.145,0,0,1-1.4813.6987l-.8612-.2132a1.2358,1.2358,0,0,1-.9459-1.5749c.2243-.5368-.3695-.8311-.5262-.4475-.2331.5706-.7815.7272-1.4805.5532l-.858-.2125a1.3017,1.3017,0,0,1-.9491-1.5756c.0833-.3463-.3471-.5813-.5362-.22-.4531.8667-1.1461,1.0106-2.1.512-.6076-.3176-.7789-.844-.2414-2.189.4191-1.0486-2.3828-1.5726-2.4372-1.6119s-.0926.0447-.0926.0447-.2487,1.6333-.4283,2.5689c-.025.13.1023.1864.1031.3088.0058.901-.345,1.0634-.4206,1.4347-.1275.6259-.3845,1.8523.0348,2.0769l.4331.2036a103.8291,103.8291,0,0,0,16.93,4.8594,24.9969,24.9969,0,0,0,9.6095.3685,3.1957,3.1957,0,0,0,.7875-.2577.2877.2877,0,0,0,.1755-.2155c.2524-1.1711.3416-1.39.61-3.2023.0273-.1845-.1644-.2837-.213.0762Z"/><path class="c" d="M107.6877,77.8247a1.6666,1.6666,0,1,1-1.6648-1.6683A1.6666,1.6666,0,0,1,107.6877,77.8247Z"/><path class="a" d="M128.5067,62.0371,121.7929,64.2,107.3044,73.411l.6235,2.66s.5151.3068.706.4258a1.8318,1.8318,0,0,0,1.6908.3121c.907-.2162,1.528-.8644,1.3893-1.4468a.71.71,0,0,0-.0483-.13l.0032-.0008-.0143-.0311a.1692.1692,0,0,1,.0734-.2282.1722.1722,0,0,1,.2114.0463l.0112.0181.0064.0123.0143.0311.009-.0056a1.1926,1.1926,0,0,0,1.2577.436,1.2387,1.2387,0,0,0,.8019-.5918,1.282,1.282,0,0,0,.55-.01,1.1454,1.1454,0,0,0,.912-1.3331c-.0034-.0143-.0094-.0276-.0134-.0417l-.0016-.0065a.3234.3234,0,0,1-.0143-.1037.0349.0349,0,0,1,.0464.0063,1.2272,1.2272,0,0,0,1.3771.5318,1.176,1.176,0,0,0,.9642-1.3455c-.0068-.0287-.0175-.0559-.0268-.0834a.1647.1647,0,0,1,.0876-.1107.1727.1727,0,0,1,.1759.0134q.0225.0262.0467.051l.0056.009.0144.0312.0155-.0072a1.2909,1.2909,0,0,0,1.1786.2787,1.1849,1.1849,0,0,0,.9737-1.32l.0091-.0056-.0144-.0311a.1658.1658,0,0,1,.0742-.225.1725.1725,0,0,1,.21.04l.0008.0033a.1677.1677,0,0,1,.0176.03l.0143.0311.0214-.012a1.4907,1.4907,0,0,0,1.3611.2905,1.5519,1.5519,0,0,0,1.0228-.7377,1.0365,1.0365,0,0,0,.0661-.1574l.0092-.02a3.6294,3.6294,0,0,1,.4535-.8507c.0259-.0077.0564-.011.0708.0073a1.3434,1.3434,0,0,0,1.2853.4363,1.2243,1.2243,0,0,0,.9266-.88l.0042-.0114.0042-.0113c.0163-.0345.1181-.2444.1453-.3179l.0057-.0048a2.16,2.16,0,0,0,1.3878-.1339c.7119-.2455,1.23-.6248,1.1928-.8645a3.5641,3.5641,0,0,0,.8733-.1909c.7384-.2546,1.03-.7587.9634-1.0009-.2893-1.0534-.5548-1.9222-.8295-2.8581l-1.1006-1.9655Z"/><path class="b" d="M127.58,59.7236a.6.6,0,0,0-.2443.1342c-.2563.2148-5.3549,3.0453-10.1081,5.4589s-15.4779,7.35-15.4779,7.35c-.1207.0624-.0893.1614-.0485.3328s.5435,1.15,1.0607,2.1755c.5111,1.0133,1.0371,2.0224,1.61,3.029.0585.0437.09-.0062.23-.0651,1.1213-.5362,2.38-1.1653,3.7073-1.8507l-.177-.3515a1.0559,1.0559,0,0,1,.47-1.4211l.4221-.2145a1.0782,1.0782,0,0,1,.2029-.076c.476-.1291.66.03,1.098.27.5179.2808,1.0194-.1576.862-.5676a1.0968,1.0968,0,0,1,.47-1.421l.645-.323a1.1,1.1,0,0,1,.2021-.0793,1.0269,1.0269,0,0,1,1.0875.4009c.3779.3993,1.0687-.0771.8587-.4813a1.0476,1.0476,0,0,1,.6628-1.4947,1.1066,1.1066,0,0,1,1.2188.5489c.1564.2532.8857.1105.64-.4012a1.0569,1.0569,0,0,1,.4639-1.4162,1.0608,1.0608,0,0,1,1.4177.47c.2225.3789,1.1122-.0022.71-.746a1.0447,1.0447,0,0,1,.4664-1.42l.3671-.1842a1.0562,1.0562,0,0,1,1.4153.4744c.33.61,1.3389.1945.9738-.74a1.0207,1.0207,0,0,1,.5332-1.3429.8745.8745,0,0,1,.0924-.0324.9769.9769,0,0,1,1.2071.6588c.136.5708,1.1387.3045.9679-.2722l-.2829-.955a1.0212,1.0212,0,0,1,.6451-1.2935c.5227-.1547.978.2134,1.2428.7366.44.869.9907.6166.9008.1051a6.3157,6.3157,0,0,0-.33-1.2772.6237.6237,0,0,1,.435-.798c.0214-.0063.0432-.0148.0646-.0188a.6425.6425,0,0,1,.7359.45l.3551,1.2c.09-.0577.1921-.1209.279-.177a17.9382,17.9382,0,0,0-1.8793-4.3637.25.25,0,0,0-.1718-.0108Z"/><path class="a" d="M131.7786,82.793c-.0362-.0058-.0743-.0088-.1112-.0111l-.2811-.0188a1.0664,1.0664,0,0,0-1.0128.5723,1.0676,1.0676,0,0,0-.7757-.411l-.2814-.0177a1.0653,1.0653,0,0,0-.86.3517,1.0635,1.0635,0,0,0-.6129-.323l-.28-.0419a1.0659,1.0659,0,0,0-1.15.6483,1.0633,1.0633,0,0,0-.87-.79l-.28-.0419a1.0624,1.0624,0,0,0-.8914.2758l-.0033-.0007a1.0816,1.0816,0,0,0-.1335.1354,1.0651,1.0651,0,0,1-.4.1584.7635.7635,0,0,1-.24-.1294,1.0654,1.0654,0,0,0-.7805-.6978l-.2754-.0616a1.065,1.065,0,0,0-1.107.4239.7669.7669,0,0,1-.3426.0233c-.1417-.0129-.3333-.2143-.3674-.2509a1.0685,1.0685,0,0,0-.7293-.5727l-.4853-.1085a1.0635,1.0635,0,0,0-1.2751.8063l.0117-.0525a1.0635,1.0635,0,0,0-.81-1.2726l-.4853-.1085a1.0778,1.0778,0,0,1-1.1614-.2872l-.4853-.1085a1.0659,1.0659,0,0,0-1.15.4934l.0154-.0688a.6346.6346,0,0,0-.4845-.7591l-2.6494-.5923a.6365.6365,0,0,0-.4637.0719,1.296,1.296,0,0,0-.9828-1.1631l-.8594-.2119a1.2952,1.2952,0,0,0-1.5748.9458l-.2854,1.1378a1.2981,1.2981,0,0,0,.9491,1.5756l.858.2124a1.302,1.302,0,0,0,1.2409-.3457.6346.6346,0,0,0,.495.5583l.9935.2221-.8518,1.7927,6.6965,2.2787,6.951,2.0189,8.0021-1.4817-.1154-.6077a1.0676,1.0676,0,0,0,.4413-.8034l.1395-2.2411a1.065,1.065,0,0,0-.7839-1.098,1.0023,1.0023,0,0,0-.105-.0234Z"/><path class="b" d="M132.3666,85.963l-.1323.6926c-.0126.0968-.066.1724-.1627.16a.1854.1854,0,0,1-.1525-.196c-.0143-.7774-.27-.4614-.3094-.0443-.04.4243-.3311.6794-.5584.6457l-.067-.0082c-.2272-.0337-.3494-.4147-.359-.6442-.0183-.4366-.38-.39-.4272.0938-.0374.3844-.4067.8148-.7885.7562a.7542.7542,0,0,1-.5831-.7949c-.0151-.3609-.4377-.4448-.5475.0463a.8951.8951,0,0,1-.9966.7309.8531.8531,0,0,1-.7308-.9966c.1587-.71-.434-.6969-.5266-.3243a1.2481,1.2481,0,0,1-1.4714.9759,1.3466,1.3466,0,0,1-.8442-1.5522c.0177-.2407-.4257-.4056-.5432.12a1.2341,1.2341,0,0,1-1.4706.9726,1.2181,1.2181,0,0,1-.8449-1.5489c.0947-.2973-.3882-.4455-.4862-.1355a1.1944,1.1944,0,0,1-1.54.7878l-.0328-.0073c-.699-.174-.9191-.856-.9491-1.5756a.3067.3067,0,0,0-.5891-.1391,1.145,1.145,0,0,1-1.4813.6987l-.8612-.2132a1.2358,1.2358,0,0,1-.9459-1.5749c.2243-.5368-.3695-.8311-.5262-.4475-.2331.5706-.7815.7272-1.4805.5532l-.858-.2125a1.3017,1.3017,0,0,1-.9491-1.5756c.0833-.3463-.3471-.5813-.5362-.22-.4531.8667-1.1461,1.0106-2.1.512-.6076-.3176-.7789-.844-.2414-2.189.4191-1.0486-2.3828-1.5726-2.4372-1.6119s-.0926.0447-.0926.0447-.2487,1.6333-.4283,2.5689c-.025.13.1023.1864.1031.3088.0058.901-.345,1.0634-.4206,1.4347-.1275.6259-.3845,1.8523.0348,2.0769l.4331.2036a103.8291,103.8291,0,0,0,16.93,4.8594,24.9969,24.9969,0,0,0,9.6095.3685,3.1957,3.1957,0,0,0,.7875-.2577.2877.2877,0,0,0,.1755-.2155c.2524-1.1711.3416-1.39.61-3.2023.0273-.1845-.1644-.2837-.213.0762Z"/><path class="c" d="M107.6877,77.8247a1.6666,1.6666,0,1,1-1.6648-1.6683A1.6666,1.6666,0,0,1,107.6877,77.8247Z"/><path class="a" d="M138.3541,65.9055l-4.3814,1.4115-9.4548,6.0109.4068,1.7355s.3361.2.4607.2779a1.1953,1.1953,0,0,0,1.1035.2037c.5918-.1411.9971-.5641.9065-.9442a.46.46,0,0,0-.0315-.0849l.0022-.0005-.0094-.02a.11.11,0,0,1,.0479-.1489.1123.1123,0,0,1,.138.03l.0073.0118.0041.008.0094.02.0059-.0037a.7781.7781,0,0,0,.8207.2845.8083.8083,0,0,0,.5233-.3862.8359.8359,0,0,0,.3591-.0066.7475.7475,0,0,0,.5951-.87c-.0022-.0093-.0061-.018-.0088-.0272l-.001-.0042a.2112.2112,0,0,1-.0093-.0677.0228.0228,0,0,1,.03.0041.8011.8011,0,0,0,.8987.3471.7676.7676,0,0,0,.6293-.8781c-.0045-.0187-.0115-.0365-.0175-.0544a.107.107,0,0,1,.0571-.0722.1125.1125,0,0,1,.1148.0087c.01.0114.02.0225.03.0333l.0036.0059.0094.02.01-.0047a.8426.8426,0,0,0,.7691.1819.7733.7733,0,0,0,.6354-.8615l.0059-.0037-.0093-.02a.1081.1081,0,0,1,.0484-.1468.1126.1126,0,0,1,.1369.026l.0005.0021a.1111.1111,0,0,1,.0115.02l.0093.02.0139-.0079a.9729.9729,0,0,0,.8883.19,1.0125,1.0125,0,0,0,.6674-.4814.6722.6722,0,0,0,.0432-.1027l.006-.0127a2.3672,2.3672,0,0,1,.2959-.5552c.0169-.005.0369-.0072.0462.0048a.8766.8766,0,0,0,.8388.2847.7989.7989,0,0,0,.6047-.5746l.0027-.0074.0027-.0074c.0107-.0225.0771-.16.0949-.2075l.0037-.0031a1.41,1.41,0,0,0,.9056-.0873c.4646-.16.8026-.4078.7785-.5642a2.3322,2.3322,0,0,0,.57-.1246c.4818-.1662.6721-.4951.6286-.6532-.1887-.6874-.362-1.2544-.5413-1.8651l-.7182-1.2827Z"/><path class="b" d="M137.749,64.3957a.3931.3931,0,0,0-.1594.0876c-.1672.14-3.4945,1.9873-6.5963,3.5624s-10.1006,4.7964-10.1006,4.7964c-.0788.0407-.0583.1054-.0316.2172s.3546.7505.6922,1.42c.3335.6613.6768,1.32,1.05,1.9767.0382.0285.0588-.0041.15-.0425.7316-.35,1.5529-.7605,2.4193-1.2077l-.1156-.23a.689.689,0,0,1,.3065-.9273l.2754-.14a.7063.7063,0,0,1,.1324-.05c.3106-.0842.4306.0193.7166.176.338.1832.6652-.1028.5625-.37a.7157.7157,0,0,1,.3065-.9273l.4208-.2108a.7121.7121,0,0,1,.132-.0517.67.67,0,0,1,.71.2616c.2466.26.6973-.05.56-.3141a.6837.6837,0,0,1,.4325-.9754.7222.7222,0,0,1,.7954.3582c.1021.1652.578.0721.4177-.2619a.69.69,0,0,1,.3027-.9241.6924.6924,0,0,1,.9252.307c.1452.2472.7258-.0015.4633-.4869a.6816.6816,0,0,1,.3043-.9268l.24-.12a.6828.6828,0,0,1,.13-.0491.6979.6979,0,0,1,.7933.3587c.2153.3982.8737.1269.6355-.4828a.6661.6661,0,0,1,.3479-.8764.5758.5758,0,0,1,.06-.0211.6374.6374,0,0,1,.7877.43c.0888.3725.7431.1987.6317-.1776l-.1846-.6232a.6664.6664,0,0,1,.4209-.8441c.3412-.101.6383.1392.8111.4807.287.567.6465.4023.5878.0685a4.12,4.12,0,0,0-.2156-.8335.407.407,0,0,1,.2839-.5207c.0139-.0041.0282-.01.0421-.0123a.4192.4192,0,0,1,.48.2936l.2318.7833c.0587-.0377.1253-.0789.1821-.1156a11.7082,11.7082,0,0,0-1.2264-2.8476.1634.1634,0,0,0-.1121-.0071Z"/><path class="a" d="M140.4892,79.45c-.0237-.0037-.0485-.0057-.0725-.0072l-.1835-.0122a.6957.6957,0,0,1-1.1672.1052l-.1836-.0115a.6275.6275,0,0,1-.9613.0187l-.1826-.0274a.6962.6962,0,0,1-1.3184-.0925l-.1826-.0274a.6935.6935,0,0,0-.5818.18l-.0021,0a.7126.7126,0,0,0-.0872.0883.6948.6948,0,0,1-.2612.1034.5009.5009,0,0,1-.1564-.0844.6953.6953,0,0,0-.5093-.4554l-.18-.04a.6952.6952,0,0,0-.7224.2766.4986.4986,0,0,1-.2235.0152c-.0925-.0084-.2176-.14-.24-.1637a.6978.6978,0,0,0-.4759-.3738l-.3167-.0708a.6942.6942,0,0,0-.8321.5262l.0077-.0342a.6942.6942,0,0,0-.5288-.83l-.3167-.0708a.7037.7037,0,0,1-.758-.1874l-.3167-.0708a.6955.6955,0,0,0-.75.322l.01-.045a.4139.4139,0,0,0-.3161-.4953l-1.729-.3865a.4153.4153,0,0,0-.3026.0469.8456.8456,0,0,0-.6413-.759l-.5608-.1383a.8452.8452,0,0,0-1.0277.6172l-.1863.7425a.8472.8472,0,0,0,.6194,1.0282l.56.1386a.8494.8494,0,0,0,.81-.2256.414.414,0,0,0,.323.3643l.6484.145-.5559,1.17,4.37,1.487,4.5361,1.3175,5.222-.9669-.0753-.3966a.6968.6968,0,0,0,.2879-.5243l.0911-1.4625a.695.695,0,0,0-.5116-.7165.65.65,0,0,0-.0685-.0153Z"/><path class="b" d="M140.8729,81.5191l-.0863.4519c-.0082.0631-.0431.1125-.1062.1043a.1209.1209,0,0,1-.0995-.1278c-.0093-.5074-.1762-.3012-.2019-.0289-.0262.2768-.2161.4433-.3644.4213l-.0437-.0053c-.1483-.022-.2281-.2707-.2343-.42-.0119-.2849-.2482-.2542-.2788.0613-.0244.2508-.2654.5317-.5145.4934a.4922.4922,0,0,1-.3806-.5187c-.01-.2355-.2856-.29-.3573.03a.584.584,0,0,1-.65.477.5569.5569,0,0,1-.477-.65c.1036-.4633-.2832-.4547-.3436-.2116a.8145.8145,0,0,1-.96.6369.8787.8787,0,0,1-.5509-1.0129c.0116-.1572-.2778-.2647-.3545.078a.8054.8054,0,0,1-.96.6347.7951.7951,0,0,1-.5514-1.0108c.0619-.194-.2532-.2907-.3172-.0885a.78.78,0,0,1-1.0047.5142l-.0214-.0048c-.4561-.1135-.6-.5586-.6193-1.0282a.2.2,0,0,0-.3845-.0907.7472.7472,0,0,1-.9666.4559l-.562-.1391a.8065.8065,0,0,1-.6173-1.0278c.1464-.35-.2411-.5423-.3434-.292-.1521.3723-.51.4745-.9661.361l-.56-.1387a.85.85,0,0,1-.6194-1.0282c.0544-.226-.2265-.3793-.35-.1434-.2957.5656-.748.66-1.37.3342-.3965-.2073-.5083-.5508-.1576-1.4285.2735-.6843-1.5549-1.0263-1.5905-1.0519s-.06.0292-.06.0292-.1623,1.0658-.2795,1.6764c-.0163.0847.0668.1216.0673.2015.0038.5879-.2252.6939-.2745.9362-.0832.4085-.2509,1.2088.0227,1.3554l.2826.1328a67.7587,67.7587,0,0,0,11.0484,3.1712,16.3135,16.3135,0,0,0,6.2709.2405,2.0916,2.0916,0,0,0,.514-.1682.1878.1878,0,0,0,.1145-.1407c.1647-.7641.223-.9073.3981-2.09.0179-.12-.1073-.1851-.1389.05Z"/><path class="c" d="M124.768,76.2081a1.0876,1.0876,0,1,1-1.0865-1.0886A1.0876,1.0876,0,0,1,124.768,76.2081Z"/><path class="a" d="M138.3541,65.9055l-4.3814,1.4115-9.4548,6.0109.4068,1.7355s.3361.2.4607.2779a1.1953,1.1953,0,0,0,1.1035.2037c.5918-.1411.9971-.5641.9065-.9442a.46.46,0,0,0-.0315-.0849l.0022-.0005-.0094-.02a.11.11,0,0,1,.0479-.1489.1123.1123,0,0,1,.138.03l.0073.0118.0041.008.0094.02.0059-.0037a.7781.7781,0,0,0,.8207.2845.8083.8083,0,0,0,.5233-.3862.8359.8359,0,0,0,.3591-.0066.7475.7475,0,0,0,.5951-.87c-.0022-.0093-.0061-.018-.0088-.0272l-.001-.0042a.2112.2112,0,0,1-.0093-.0677.0228.0228,0,0,1,.03.0041.8011.8011,0,0,0,.8987.3471.7676.7676,0,0,0,.6293-.8781c-.0045-.0187-.0115-.0365-.0175-.0544a.107.107,0,0,1,.0571-.0722.1125.1125,0,0,1,.1148.0087c.01.0114.02.0225.03.0333l.0036.0059.0094.02.01-.0047a.8426.8426,0,0,0,.7691.1819.7733.7733,0,0,0,.6354-.8615l.0059-.0037-.0093-.02a.1081.1081,0,0,1,.0484-.1468.1126.1126,0,0,1,.1369.026l.0005.0021a.1111.1111,0,0,1,.0115.02l.0093.02.0139-.0079a.9729.9729,0,0,0,.8883.19,1.0125,1.0125,0,0,0,.6674-.4814.6722.6722,0,0,0,.0432-.1027l.006-.0127a2.3672,2.3672,0,0,1,.2959-.5552c.0169-.005.0369-.0072.0462.0048a.8766.8766,0,0,0,.8388.2847.7989.7989,0,0,0,.6047-.5746l.0027-.0074.0027-.0074c.0107-.0225.0771-.16.0949-.2075l.0037-.0031a1.41,1.41,0,0,0,.9056-.0873c.4646-.16.8026-.4078.7785-.5642a2.3322,2.3322,0,0,0,.57-.1246c.4818-.1662.6721-.4951.6286-.6532-.1887-.6874-.362-1.2544-.5413-1.8651l-.7182-1.2827Z"/><path class="b" d="M137.749,64.3957a.3931.3931,0,0,0-.1594.0876c-.1672.14-3.4945,1.9873-6.5963,3.5624s-10.1006,4.7964-10.1006,4.7964c-.0788.0407-.0583.1054-.0316.2172s.3546.7505.6922,1.42c.3335.6613.6768,1.32,1.05,1.9767.0382.0285.0588-.0041.15-.0425.7316-.35,1.5529-.7605,2.4193-1.2077l-.1156-.23a.689.689,0,0,1,.3065-.9273l.2754-.14a.7063.7063,0,0,1,.1324-.05c.3106-.0842.4306.0193.7166.176.338.1832.6652-.1028.5625-.37a.7157.7157,0,0,1,.3065-.9273l.4208-.2108a.7121.7121,0,0,1,.132-.0517.67.67,0,0,1,.71.2616c.2466.26.6973-.05.56-.3141a.6837.6837,0,0,1,.4325-.9754.7222.7222,0,0,1,.7954.3582c.1021.1652.578.0721.4177-.2619a.69.69,0,0,1,.3027-.9241.6924.6924,0,0,1,.9252.307c.1452.2472.7258-.0015.4633-.4869a.6816.6816,0,0,1,.3043-.9268l.24-.12a.6828.6828,0,0,1,.13-.0491.6979.6979,0,0,1,.7933.3587c.2153.3982.8737.1269.6355-.4828a.6661.6661,0,0,1,.3479-.8764.5758.5758,0,0,1,.06-.0211.6374.6374,0,0,1,.7877.43c.0888.3725.7431.1987.6317-.1776l-.1846-.6232a.6664.6664,0,0,1,.4209-.8441c.3412-.101.6383.1392.8111.4807.287.567.6465.4023.5878.0685a4.12,4.12,0,0,0-.2156-.8335.407.407,0,0,1,.2839-.5207c.0139-.0041.0282-.01.0421-.0123a.4192.4192,0,0,1,.48.2936l.2318.7833c.0587-.0377.1253-.0789.1821-.1156a11.7082,11.7082,0,0,0-1.2264-2.8476.1634.1634,0,0,0-.1121-.0071Z"/><path class="a" d="M140.4892,79.45c-.0237-.0037-.0485-.0057-.0725-.0072l-.1835-.0122a.6957.6957,0,0,1-1.1672.1052l-.1836-.0115a.6275.6275,0,0,1-.9613.0187l-.1826-.0274a.6962.6962,0,0,1-1.3184-.0925l-.1826-.0274a.6935.6935,0,0,0-.5818.18l-.0021,0a.7126.7126,0,0,0-.0872.0883.6948.6948,0,0,1-.2612.1034.5009.5009,0,0,1-.1564-.0844.6953.6953,0,0,0-.5093-.4554l-.18-.04a.6952.6952,0,0,0-.7224.2766.4986.4986,0,0,1-.2235.0152c-.0925-.0084-.2176-.14-.24-.1637a.6978.6978,0,0,0-.4759-.3738l-.3167-.0708a.6942.6942,0,0,0-.8321.5262l.0077-.0342a.6942.6942,0,0,0-.5288-.83l-.3167-.0708a.7037.7037,0,0,1-.758-.1874l-.3167-.0708a.6955.6955,0,0,0-.75.322l.01-.045a.4139.4139,0,0,0-.3161-.4953l-1.729-.3865a.4153.4153,0,0,0-.3026.0469.8456.8456,0,0,0-.6413-.759l-.5608-.1383a.8452.8452,0,0,0-1.0277.6172l-.1863.7425a.8472.8472,0,0,0,.6194,1.0282l.56.1386a.8494.8494,0,0,0,.81-.2256.414.414,0,0,0,.323.3643l.6484.145-.5559,1.17,4.37,1.487,4.5361,1.3175,5.222-.9669-.0753-.3966a.6968.6968,0,0,0,.2879-.5243l.0911-1.4625a.695.695,0,0,0-.5116-.7165.65.65,0,0,0-.0685-.0153Z"/><path class="b" d="M140.8729,81.5191l-.0863.4519c-.0082.0631-.0431.1125-.1062.1043a.1209.1209,0,0,1-.0995-.1278c-.0093-.5074-.1762-.3012-.2019-.0289-.0262.2768-.2161.4433-.3644.4213l-.0437-.0053c-.1483-.022-.2281-.2707-.2343-.42-.0119-.2849-.2482-.2542-.2788.0613-.0244.2508-.2654.5317-.5145.4934a.4922.4922,0,0,1-.3806-.5187c-.01-.2355-.2856-.29-.3573.03a.584.584,0,0,1-.65.477.5569.5569,0,0,1-.477-.65c.1036-.4633-.2832-.4547-.3436-.2116a.8145.8145,0,0,1-.96.6369.8787.8787,0,0,1-.5509-1.0129c.0116-.1572-.2778-.2647-.3545.078a.8054.8054,0,0,1-.96.6347.7951.7951,0,0,1-.5514-1.0108c.0619-.194-.2532-.2907-.3172-.0885a.78.78,0,0,1-1.0047.5142l-.0214-.0048c-.4561-.1135-.6-.5586-.6193-1.0282a.2.2,0,0,0-.3845-.0907.7472.7472,0,0,1-.9666.4559l-.562-.1391a.8065.8065,0,0,1-.6173-1.0278c.1464-.35-.2411-.5423-.3434-.292-.1521.3723-.51.4745-.9661.361l-.56-.1387a.85.85,0,0,1-.6194-1.0282c.0544-.226-.2265-.3793-.35-.1434-.2957.5656-.748.66-1.37.3342-.3965-.2073-.5083-.5508-.1576-1.4285.2735-.6843-1.5549-1.0263-1.5905-1.0519s-.06.0292-.06.0292-.1623,1.0658-.2795,1.6764c-.0163.0847.0668.1216.0673.2015.0038.5879-.2252.6939-.2745.9362-.0832.4085-.2509,1.2088.0227,1.3554l.2826.1328a67.7587,67.7587,0,0,0,11.0484,3.1712,16.3135,16.3135,0,0,0,6.2709.2405,2.0916,2.0916,0,0,0,.514-.1682.1878.1878,0,0,0,.1145-.1407c.1647-.7641.223-.9073.3981-2.09.0179-.12-.1073-.1851-.1389.05Z"/><path class="c" d="M124.768,76.2081a1.0876,1.0876,0,1,1-1.0865-1.0886A1.0876,1.0876,0,0,1,124.768,76.2081Z"/><path class="a" d="M138.3541,65.9055l-4.3814,1.4115-9.4548,6.0109.4068,1.7355s.3361.2.4607.2779a1.1953,1.1953,0,0,0,1.1035.2037c.5918-.1411.9971-.5641.9065-.9442a.46.46,0,0,0-.0315-.0849l.0022-.0005-.0094-.02a.11.11,0,0,1,.0479-.1489.1123.1123,0,0,1,.138.03l.0073.0118.0041.008.0094.02.0059-.0037a.7781.7781,0,0,0,.8207.2845.8083.8083,0,0,0,.5233-.3862.8359.8359,0,0,0,.3591-.0066.7475.7475,0,0,0,.5951-.87c-.0022-.0093-.0061-.018-.0088-.0272l-.001-.0042a.2112.2112,0,0,1-.0093-.0677.0228.0228,0,0,1,.03.0041.8011.8011,0,0,0,.8987.3471.7676.7676,0,0,0,.6293-.8781c-.0045-.0187-.0115-.0365-.0175-.0544a.107.107,0,0,1,.0571-.0722.1125.1125,0,0,1,.1148.0087c.01.0114.02.0225.03.0333l.0036.0059.0094.02.01-.0047a.8426.8426,0,0,0,.7691.1819.7733.7733,0,0,0,.6354-.8615l.0059-.0037-.0093-.02a.1081.1081,0,0,1,.0484-.1468.1126.1126,0,0,1,.1369.026l.0005.0021a.1111.1111,0,0,1,.0115.02l.0093.02.0139-.0079a.9729.9729,0,0,0,.8883.19,1.0125,1.0125,0,0,0,.6674-.4814.6722.6722,0,0,0,.0432-.1027l.006-.0127a2.3672,2.3672,0,0,1,.2959-.5552c.0169-.005.0369-.0072.0462.0048a.8766.8766,0,0,0,.8388.2847.7989.7989,0,0,0,.6047-.5746l.0027-.0074.0027-.0074c.0107-.0225.0771-.16.0949-.2075l.0037-.0031a1.41,1.41,0,0,0,.9056-.0873c.4646-.16.8026-.4078.7785-.5642a2.3322,2.3322,0,0,0,.57-.1246c.4818-.1662.6721-.4951.6286-.6532-.1887-.6874-.362-1.2544-.5413-1.8651l-.7182-1.2827Z"/><path class="b" d="M137.749,64.3957a.3931.3931,0,0,0-.1594.0876c-.1672.14-3.4945,1.9873-6.5963,3.5624s-10.1006,4.7964-10.1006,4.7964c-.0788.0407-.0583.1054-.0316.2172s.3546.7505.6922,1.42c.3335.6613.6768,1.32,1.05,1.9767.0382.0285.0588-.0041.15-.0425.7316-.35,1.5529-.7605,2.4193-1.2077l-.1156-.23a.689.689,0,0,1,.3065-.9273l.2754-.14a.7063.7063,0,0,1,.1324-.05c.3106-.0842.4306.0193.7166.176.338.1832.6652-.1028.5625-.37a.7157.7157,0,0,1,.3065-.9273l.4208-.2108a.7121.7121,0,0,1,.132-.0517.67.67,0,0,1,.71.2616c.2466.26.6973-.05.56-.3141a.6837.6837,0,0,1,.4325-.9754.7222.7222,0,0,1,.7954.3582c.1021.1652.578.0721.4177-.2619a.69.69,0,0,1,.3027-.9241.6924.6924,0,0,1,.9252.307c.1452.2472.7258-.0015.4633-.4869a.6816.6816,0,0,1,.3043-.9268l.24-.12a.6828.6828,0,0,1,.13-.0491.6979.6979,0,0,1,.7933.3587c.2153.3982.8737.1269.6355-.4828a.6661.6661,0,0,1,.3479-.8764.5758.5758,0,0,1,.06-.0211.6374.6374,0,0,1,.7877.43c.0888.3725.7431.1987.6317-.1776l-.1846-.6232a.6664.6664,0,0,1,.4209-.8441c.3412-.101.6383.1392.8111.4807.287.567.6465.4023.5878.0685a4.12,4.12,0,0,0-.2156-.8335.407.407,0,0,1,.2839-.5207c.0139-.0041.0282-.01.0421-.0123a.4192.4192,0,0,1,.48.2936l.2318.7833c.0587-.0377.1253-.0789.1821-.1156a11.7082,11.7082,0,0,0-1.2264-2.8476.1634.1634,0,0,0-.1121-.0071Z"/><path class="a" d="M140.4892,79.45c-.0237-.0037-.0485-.0057-.0725-.0072l-.1835-.0122a.6957.6957,0,0,1-1.1672.1052l-.1836-.0115a.6275.6275,0,0,1-.9613.0187l-.1826-.0274a.6962.6962,0,0,1-1.3184-.0925l-.1826-.0274a.6935.6935,0,0,0-.5818.18l-.0021,0a.7126.7126,0,0,0-.0872.0883.6948.6948,0,0,1-.2612.1034.5009.5009,0,0,1-.1564-.0844.6953.6953,0,0,0-.5093-.4554l-.18-.04a.6952.6952,0,0,0-.7224.2766.4986.4986,0,0,1-.2235.0152c-.0925-.0084-.2176-.14-.24-.1637a.6978.6978,0,0,0-.4759-.3738l-.3167-.0708a.6942.6942,0,0,0-.8321.5262l.0077-.0342a.6942.6942,0,0,0-.5288-.83l-.3167-.0708a.7037.7037,0,0,1-.758-.1874l-.3167-.0708a.6955.6955,0,0,0-.75.322l.01-.045a.4139.4139,0,0,0-.3161-.4953l-1.729-.3865a.4153.4153,0,0,0-.3026.0469.8456.8456,0,0,0-.6413-.759l-.5608-.1383a.8452.8452,0,0,0-1.0277.6172l-.1863.7425a.8472.8472,0,0,0,.6194,1.0282l.56.1386a.8494.8494,0,0,0,.81-.2256.414.414,0,0,0,.323.3643l.6484.145-.5559,1.17,4.37,1.487,4.5361,1.3175,5.222-.9669-.0753-.3966a.6968.6968,0,0,0,.2879-.5243l.0911-1.4625a.695.695,0,0,0-.5116-.7165.65.65,0,0,0-.0685-.0153Z"/><path class="b" d="M140.8729,81.5191l-.0863.4519c-.0082.0631-.0431.1125-.1062.1043a.1209.1209,0,0,1-.0995-.1278c-.0093-.5074-.1762-.3012-.2019-.0289-.0262.2768-.2161.4433-.3644.4213l-.0437-.0053c-.1483-.022-.2281-.2707-.2343-.42-.0119-.2849-.2482-.2542-.2788.0613-.0244.2508-.2654.5317-.5145.4934a.4922.4922,0,0,1-.3806-.5187c-.01-.2355-.2856-.29-.3573.03a.584.584,0,0,1-.65.477.5569.5569,0,0,1-.477-.65c.1036-.4633-.2832-.4547-.3436-.2116a.8145.8145,0,0,1-.96.6369.8787.8787,0,0,1-.5509-1.0129c.0116-.1572-.2778-.2647-.3545.078a.8054.8054,0,0,1-.96.6347.7951.7951,0,0,1-.5514-1.0108c.0619-.194-.2532-.2907-.3172-.0885a.78.78,0,0,1-1.0047.5142l-.0214-.0048c-.4561-.1135-.6-.5586-.6193-1.0282a.2.2,0,0,0-.3845-.0907.7472.7472,0,0,1-.9666.4559l-.562-.1391a.8065.8065,0,0,1-.6173-1.0278c.1464-.35-.2411-.5423-.3434-.292-.1521.3723-.51.4745-.9661.361l-.56-.1387a.85.85,0,0,1-.6194-1.0282c.0544-.226-.2265-.3793-.35-.1434-.2957.5656-.748.66-1.37.3342-.3965-.2073-.5083-.5508-.1576-1.4285.2735-.6843-1.5549-1.0263-1.5905-1.0519s-.06.0292-.06.0292-.1623,1.0658-.2795,1.6764c-.0163.0847.0668.1216.0673.2015.0038.5879-.2252.6939-.2745.9362-.0832.4085-.2509,1.2088.0227,1.3554l.2826.1328a67.7587,67.7587,0,0,0,11.0484,3.1712,16.3135,16.3135,0,0,0,6.2709.2405,2.0916,2.0916,0,0,0,.514-.1682.1878.1878,0,0,0,.1145-.1407c.1647-.7641.223-.9073.3981-2.09.0179-.12-.1073-.1851-.1389.05Z"/><path class="c" d="M124.768,76.2081a1.0876,1.0876,0,1,1-1.0865-1.0886A1.0876,1.0876,0,0,1,124.768,76.2081Z"/></svg>