<svg xmlns="http://www.w3.org/2000/svg" viewBox="0 0 274 132"><defs><style>.a{fill:#00a499;}.b{fill:#2fbe90;}.c{fill:#f15a24;}</style></defs><title>Artboard 1</title><path class="a" d="M108.9264,33.7933c1.1381,3.3687-2.0258,18.0045-3.824,20.9863a6.6993,6.6993,0,0,1-3.05,1.2064,12.5616,12.5616,0,0,0-6.51,3.1866c-.7853.7853-3.1639,3.1639-3.107,16.9234.0341,9.07,1.0812,14.6926,3.0956,16.7071a14.5858,14.5858,0,0,0,6.305,3.2776,10.38,10.38,0,0,1,3.9833,1.8437c1.8551,2.629,4.6206,17.8,4.0743,21.874-4.4271,3.7216-12.8489,2.9932-16.3087-.4666C86.2557,112.0026,81.692,95.33,81.6465,75.8,81.6123,57.1923,85.88,40.3828,92.2876,33.9754c3.6418-3.6419,14.2374-2.06,16.6388-.1821m2.7769-2.4127c-3.2322-3.2322-16.73-5.258-21.9878,0-15.3528,15.3527-16.32,72.9057,1.2974,90.5233,4.8482,4.8483,16.0812,5.9067,21.9878,0,2.0258-2.0258-1.6161-23.6039-4.53-26.5174-2.9931-2.9932-7.7617-2.5948-10.3452-5.1783s-2.8338-25.6183,0-28.4521,6.783-1.6161,9.6965-4.53c2.1055-2.0827,7.1131-22.6138,3.8809-25.8459Z"/><path class="b" d="M123.7466,62.9785c0,.874.1562,1.249.9682,1.249a3.2545,3.2545,0,0,0,.9678-.1875l.1245,1.7793a5.1318,5.1318,0,0,1-2.2163.4995,2.2084,2.2084,0,0,1-2.4663-1.9042,6.9132,6.9132,0,0,1-5.1514,1.9667c-4.0585,0-4.7456-2.747-4.7456-4.3081,0-4.2773,3.7779-5.4633,8.3047-5.4633.4995,0,.9678.0312,1.4048.0625V55.1113c0-2.0293-.562-3.2783-3.1846-3.2783-2.2163,0-3.059.8745-3.4028,2.6538l-2.4975-.4682c.5-2.9971,2.435-4.4019,6.15-4.4019,3.9649,0,5.7442,1.53,5.7442,5.5259Zm-2.7783-4.2456a12.3,12.3,0,0,0-1.6236-.0937c-2.2163,0-5.1821.2182-5.1821,2.9658,0,1.3735.4995,2.56,2.6846,2.56a5.9685,5.9685,0,0,0,4.1211-1.811Z"/><path class="b" d="M131.8662,66.0068h-2.8408V42.436h2.8408Z"/><path class="b" d="M139.6411,66.0068H136.8V42.436h2.8408Z"/><path class="b" d="M146.042,46.8691a1.8424,1.8424,0,0,1-1.9981-2.0605,1.8193,1.8193,0,0,1,1.9981-2.0293,1.8421,1.8421,0,0,1,2.0293,2.0293A1.8651,1.8651,0,0,1,146.042,46.8691Zm1.3735,19.1377h-2.8408V49.96h2.8408Z"/><path class="b" d="M165.7114,66.0068h-2.8408V55.5483c0-2.2168-.812-3.434-2.9971-3.434A8.1032,8.1032,0,0,0,155.19,54.05v11.957H152.35V49.96h2.4976l.1562,1.9043a9.3962,9.3962,0,0,1,5.7754-2.2476c3.4341,0,4.9326,1.873,4.9326,5.4946Z"/><path class="b" d="M181.0425,51.084a2.9472,2.9472,0,0,1,2.5288-2.0918,4.2888,4.2888,0,0,1,1.4048.25V51.521a9.7,9.7,0,0,0-3.06.3433,5.3842,5.3842,0,0,1,1.1865,3.4965c0,3.6216-2.8725,5.7447-6.5561,5.7447a9.0328,9.0328,0,0,1-2.8721-.3745c-.4375.4057-.999.8427-.999,1.4985,0,.624.3432,1.0923,2.06,1.2173l4.4644.312c3.3091.2187,5.2446,1.03,5.2446,4.1836,0,3.9336-4.2148,5.12-8.2417,5.12-5.9941,0-7.2119-2.0605-7.2119-3.9648a4.1774,4.1774,0,0,1,2.5913-3.6841v-.0313a2.2822,2.2822,0,0,1-1.7485-2.2163c0-1.374.999-2.2793,2.123-3.1533a4.8831,4.8831,0,0,1-2.3725-4.4956c0-3.5278,2.6533-5.9,6.8056-5.9A6.3746,6.3746,0,0,1,181.0425,51.084ZM178.8257,66.35l-5.2134-.312c-1.2178.8115-1.78,1.4673-1.78,2.5288,0,1.3423,1.0928,2.2476,4.7144,2.2476q4.9637,0,4.9638-2.5289C181.5107,67.1309,181.0112,66.5063,178.8257,66.35Zm-2.3413-14.4546c-2.2481,0-4.0586.9678-4.0586,3.4341,0,2.0918,1.1553,3.4341,3.9961,3.4341,2.3413,0,3.9336-1.2173,3.9336-3.3716C180.3555,52.9883,178.8882,51.8955,176.4844,51.8955Z"/><path class="b" d="M111.0093,95.5151c0-5.1826,2.685-8.4292,7.8047-8.4292,5.0888,0,7.1806,3.2779,7.1806,8.0547,0,5.2759-2.1855,8.71-7.5864,8.71C112.8511,103.8506,111.0093,100.26,111.0093,95.5151Zm12.02-.1875c0-4.4331-1.561-5.9-4.3393-5.9-2.8414,0-4.7457,1.6861-4.7457,5.9629,0,4.2461,1.4986,6.1817,4.6207,6.1817C121.3428,101.5718,123.0288,99.8857,123.0288,95.3276Z"/><path class="b" d="M143.4175,103.4761h-2.8408V93.0176c0-2.2168-.8121-3.4341-2.9971-3.4341a8.1029,8.1029,0,0,0-4.6831,1.9355v11.9571h-2.8408V87.4292h2.4975l.1563,1.9043a9.3965,9.3965,0,0,1,5.7754-2.2476c3.434,0,4.9326,1.8731,4.9326,5.4947Z"/><path class="b" d="M151.3809,103.4761l-6.1187-16.0469h3.09l4.7144,13.2061h.0312L157.75,87.4292h2.9033l-6.0254,16.0469Z"/><path class="b" d="M161.7485,95.4839c0-5.8692,3.4341-8.398,7.5552-8.398,4.4956,0,6.3687,2.9659,6.3687,6.9307a16.9844,16.9844,0,0,1-.125,2.0918H164.7456c.125,4.09,1.9356,5.37,4.4956,5.37,2.2788,0,3.34-1.03,3.7774-2.8408l2.4975.562c-.6553,3.1216-3.1528,4.6514-6.3686,4.6514C163.4658,103.8506,161.7485,99.8857,161.7485,95.4839ZM172.7378,93.86c0-2.8721-1.0928-4.4644-3.6216-4.4644-2.123,0-4.1831,1.28-4.3393,4.4644Z"/><path class="b" d="M193.1577,103.4761h-2.8408V93.0176c0-2.2168-.812-3.4341-2.9971-3.4341a8.1032,8.1032,0,0,0-4.6831,1.9355v11.9571h-2.8408V87.4292h2.4976l.1562,1.9043a9.3965,9.3965,0,0,1,5.7754-2.2476c3.4341,0,4.9326,1.8731,4.9326,5.4947Z"/><path class="b" d="M206.5225,102.7891a7.9618,7.9618,0,0,1-3.9336,1.0615c-2.9971,0-4.5269-1.3735-4.5269-4.5894V89.7085h-2.4663V87.4292h2.4663V82.7773l2.8408-.437v5.0889h4.4331v2.2793h-4.4331v9.1782c0,1.6861.3745,2.6226,2.3106,2.6226a6.5631,6.5631,0,0,0,2.8095-.7808Z"/><path class="b" d="M210.8638,84.3384a1.8424,1.8424,0,0,1-1.9981-2.0606,1.8189,1.8189,0,0,1,1.9981-2.0288,1.8417,1.8417,0,0,1,2.0293,2.0288A1.8652,1.8652,0,0,1,210.8638,84.3384Zm1.3735,19.1377h-2.8408V87.4292h2.8408Z"/><path class="b" d="M216.1719,95.5151c0-5.1826,2.685-8.4292,7.8047-8.4292,5.0888,0,7.1806,3.2779,7.1806,8.0547,0,5.2759-2.1855,8.71-7.5864,8.71C218.0137,103.8506,216.1719,100.26,216.1719,95.5151Zm12.0195-.1875c0-4.4331-1.561-5.9-4.3393-5.9-2.8414,0-4.7457,1.6861-4.7457,5.9629,0,4.2461,1.4986,6.1817,4.6207,6.1817C226.5054,101.5718,228.1914,99.8857,228.1914,95.3276Z"/><path class="b" d="M248.58,103.4761h-2.8408V93.0176c0-2.2168-.8116-3.4341-2.9971-3.4341a8.1029,8.1029,0,0,0-4.6831,1.9355v11.9571h-2.8408V87.4292h2.4975l.1563,1.9043a9.3942,9.3942,0,0,1,5.7754-2.2476c3.434,0,4.9326,1.8731,4.9326,5.4947Z"/><path class="b" d="M264.4736,91.7373l-2.56.562c-.3745-1.8418-.999-2.9658-3.34-2.9658s-3.0908,1.03-3.0908,2.248c0,1.6548,1.3111,2.1231,3.5591,2.5914,2.9346.624,5.7129,1.2172,5.7129,4.8076,0,3.06-2.3726,4.87-6.2749,4.87-3.6841,0-5.9-1.436-6.4-4.6514l2.5288-.687c.437,1.7173,1.1548,3.0908,3.9961,3.0908,1.9355,0,3.34-.5932,3.34-2.31,0-1.7793-1.3115-2.0913-3.4966-2.5288-2.6225-.53-5.7758-1.0923-5.7758-4.8389,0-3.2466,2.685-4.8389,5.9321-4.8389C262.4131,87.0859,263.9741,88.8965,264.4736,91.7373Z"/><path class="c" d="M21.208,47.2476,34.9507,56.84l-4.8,1.8243-10.3633-7.27-2.581,12.1889-4.5088,1.7129,3.5058-16.0347L3.2769,40.3574,8.125,38.5151,17.6787,45.26l2.8584-11.461,4.5083-1.7129Z"/><path class="c" d="M56.8135,38.1577c2.082,5.4785-.7945,11.3423-7.97,14.0689-7.8057,2.9658-12.6807.2133-14.5777-4.7808-1.8423-4.8477.211-8.7905,3.74-12.3511-4.05-.2915-7.8448-1.956-9.4473-6.1748-2.34-6.1572,1.1538-10.98,7.3594-13.3388C42.27,13.168,47.2119,14.7856,49.1094,19.78c1.6025,4.2178.0342,7.9765-3.2276,11.6567C50.751,31.6948,54.7319,32.6792,56.8135,38.1577ZM44.7412,21.7168c-1.1421-3.0059-3.5625-3.9727-7.6836-2.4067-3.7812,1.437-5.4272,4.1152-4.23,7.2666,1.3633,3.5879,5.1661,4.25,8.81,4.6421C44.3691,28.1836,45.92,24.8193,44.7412,21.7168ZM38.6641,45.4414c1.2343,3.249,3.9614,4.876,8.9062,2.9971,5.0425-1.916,5.7979-5.4771,4.6377-8.5308C50.66,35.8345,45.9731,35.6182,42.1,35.6484,39.2358,38.6221,37.19,41.5635,38.6641,45.4414Z"/><path class="c" d="M72.3228,11.5151C69.958,7.9189,67.7954,7.6309,65.1772,8.626c-6.4965,2.4682-5.0688,11.1914-2.7524,17.5786a13.1172,13.1172,0,0,1,7.2119-7.0112c6.1572-2.34,10.8374.4873,13.1406,6.5478,2.91,7.66.1006,13.5532-6.4443,16.04-9.1631,3.4819-14.2324-3.58-17.7143-12.7427-2.9844-7.8545-5.0044-20.1812,5.6132-24.2154C68.7891,3.0918,72.708,3.7676,75.8926,8.937Zm2.7924,26.6241c3.6841-1.4,5.3565-5.0313,3.33-10.3643-1.7134-4.5088-4.3848-5.9917-8.2632-4.5181-2.8608,1.087-5.0024,4.0645-6.0776,6.6377C66.4033,35.0693,69.54,40.2578,75.1152,38.1392Z"/></svg>