<svg xmlns="http://www.w3.org/2000/svg" viewBox="0 0 480 360"><defs><style>.a{fill:none;stroke-width:4px;}.a,.h,.i{stroke:#000;stroke-miterlimit:10;}.b{fill:#202020;}.c{fill:#1463a3;}.d{fill:#044f88;}.e,.i{fill:#5e97d0;}.f{fill:#ce5f5f;}.g,.h{fill:#fff;}.h{stroke-width:2.85px;}.i{stroke-width:0.75px;}</style></defs><title>Artboard 1</title><path class="a" d="M166.19,197.21c-3.44-5-9-8.34-14.87-10.09s-12-2.08-18.13-2.22c-6.58-.16-13.41-.06-19.34,2.78-11,5.24-15.93,18.77-14.77,30.86s7.15,23.11,13.07,33.72"/><path class="a" d="M203.52,265.89a52.1,52.1,0,0,0-34,64.36"/><path class="a" d="M280.4,265.89a52.1,52.1,0,0,1,34,64.36"/><path d="M405.31,194.25l-.16-.16c-.09-.11-.25-.24-.43-.48a7.08,7.08,0,0,1-1.21-2.17,9.52,9.52,0,0,1-.53-3.82,12.43,12.43,0,0,1,1.33-4.84,25.74,25.74,0,0,1,3.25-4.91c1.29-1.62,2.74-3.21,4-5a16.5,16.5,0,0,0,2.93-5.77c.26-1,.43-2.23.73-3.45a8.14,8.14,0,0,1,1.8-3.69,5.57,5.57,0,0,1,4.05-1.89,3.84,3.84,0,0,1,1.29.22,4.34,4.34,0,0,1,.62.28l.29.18.13.1.07.05,0,0,.09.09a4.86,4.86,0,0,1,.36.34,3.7,3.7,0,0,1,.45.59,4.35,4.35,0,0,1,.51,1.18,7.81,7.81,0,0,1-.23,4.21c-.39,1.26-.82,2.25-1.25,3.34a30.27,30.27,0,0,1-1.53,3.07c-.57,1-1.18,1.84-1.46,2.53-.59,1.35-.29,3.19-.1,5,.05.46.09.93.1,1.39,0,.24,0,.44,0,.72s0,.39,0,.64a10.11,10.11,0,0,1-.55,2.5,10.44,10.44,0,0,1-2,3.45,8.85,8.85,0,0,1-1.9,1.65c-.49.31-.76.45-.76.45l-.17-.25s.22-.2.59-.6a10.19,10.19,0,0,0,1.37-1.88,10.52,10.52,0,0,0,1.21-3.29,8.74,8.74,0,0,0,.15-2.05c0-.16,0-.4,0-.6s-.05-.36-.07-.54c-.07-.39-.14-.79-.23-1.22-.18-.85-.41-1.77-.55-2.83a10.45,10.45,0,0,1-.06-1.7,6.24,6.24,0,0,1,.13-1c0-.19.06-.27.09-.4l0-.1,0-.15.07-.24a21.42,21.42,0,0,1,1.5-3c.47-.91.93-1.85,1.35-2.84s.93-2.06,1.25-3a5.78,5.78,0,0,0,.38-2.63,1.83,1.83,0,0,0-.15-.45c0-.08-.06-.08-.07-.12s-.17-.2-.25-.29-.09-.08.05.05h0l0,0a.47.47,0,0,0-.09-.06,1,1,0,0,0-.18-.1,1.42,1.42,0,0,0-.44-.11,3.17,3.17,0,0,0-2.26,1,5.89,5.89,0,0,0-1.37,2.61c-.32,1.06-.53,2.21-.9,3.43A18.41,18.41,0,0,1,413,174c-1.46,1.77-3,3.31-4.33,4.81a25.16,25.16,0,0,0-3.39,4.48,11.62,11.62,0,0,0-1.5,4.41,9.27,9.27,0,0,0,.26,3.6,6.64,6.64,0,0,0,1,2.1,3.82,3.82,0,0,0,.39.5l.14.17Z"/><path d="M419.2,176.6s.69-.47,1.81-1.35a42.52,42.52,0,0,0,4.39-3.93,45.09,45.09,0,0,0,5.18-6.45,41.78,41.78,0,0,1,2.82-4,10,10,0,0,1,4.36-3.25,5.91,5.91,0,0,1,3.06-.33,4.84,4.84,0,0,1,.85.26,3.11,3.11,0,0,1,.41.2l.21.13.09.06.05,0,.11.08.23.19a5,5,0,0,1,.39.41,3.8,3.8,0,0,1,.5.8,5.58,5.58,0,0,1,.38,3.18,9.24,9.24,0,0,1-.8,2.62,17.54,17.54,0,0,1-2.58,4,17.35,17.35,0,0,1-3.09,2.9c-1,.78-2.07,1.35-2.9,1.86s-1.55,1-2.11,1.38a10.2,10.2,0,0,0-1.22,1c-.27.27-.4.43-.4.43l-.26-.15a5.87,5.87,0,0,1,.22-.57,8.17,8.17,0,0,1,.89-1.52,17.11,17.11,0,0,1,1.81-2c.75-.72,1.57-1.44,2.4-2.28a23.49,23.49,0,0,0,4.4-6.42,7.72,7.72,0,0,0,.66-1.82,3.1,3.1,0,0,0,0-1.54c0-.09-.08-.18-.11-.25s0,0,0,0l-.22-.21v0s-.08-.07.06.05h0l0,0-.06,0a.5.5,0,0,0-.12-.08,1.26,1.26,0,0,0-.31-.13,3.46,3.46,0,0,0-1.79.07,8,8,0,0,0-3.55,2.34,41,41,0,0,0-2.93,3.6,41.29,41.29,0,0,1-5.86,6.22,43,43,0,0,1-4.82,3.59c-1.24.77-1.95,1.16-1.95,1.16Z"/><path d="M433,176.32s.51-.5,1.45-1.34,2.32-2,4-3.28,3.77-2.75,6-4.22l1.7-1.13a9.89,9.89,0,0,1,2-1.13,3.64,3.64,0,0,1,1.43-.22,3,3,0,0,1,.77.12,3.41,3.41,0,0,1,.71.29,4.31,4.31,0,0,1,1.92,2.13,4.23,4.23,0,0,1,.35,1.43,4.89,4.89,0,0,1-.1,1.42,6.71,6.71,0,0,1-1.09,2.43,10.35,10.35,0,0,1-3.62,3c-.62.32-1.21.62-1.76.88l-1.63.82c-1.05.55-2,1.08-2.95,1.59-1.82,1-3.31,2-4.38,2.63l-1.69,1-.21-.22a18.62,18.62,0,0,1,1.19-1.63c.39-.5.9-1.08,1.52-1.73a28.1,28.1,0,0,1,2.19-2,27.26,27.26,0,0,1,2.86-2.13c.51-.35,1.11-.72,1.66-1s1.17-.63,1.73-.94a9.77,9.77,0,0,0,2.87-2,2.85,2.85,0,0,0,.83-2.67,2,2,0,0,0-.79-1.07,1.34,1.34,0,0,0-1.18-.16,8.44,8.44,0,0,0-1.67.79l-1.78,1c-2.32,1.3-4.49,2.52-6.31,3.62s-3.28,2.11-4.3,2.82-1.58,1.15-1.58,1.15Z"/><path d="M437.65,183.17s2.19-1.63,5.51-4c1.66-1.2,3.59-2.6,5.69-4.07.53-.36,1-.74,1.64-1.13a5.62,5.62,0,0,1,2.24-.88,3.52,3.52,0,0,1,2.72.76,2.84,2.84,0,0,1,.89,1.4,3.33,3.33,0,0,1,0,1.6,5.81,5.81,0,0,1-.45,1.24l-.07.14,0,.06,0,0,0,.09-.13.22-.27.43-.27.44-.35.47a10,10,0,0,1-.73.91,15.92,15.92,0,0,1-3.21,2.78,26.6,26.6,0,0,1-3.31,1.85c-1.05.52-2.05,1-2.95,1.4s-1.72.83-2.43,1.21-1.32.74-1.8,1.06-.86.6-1.13.78l-.41.29-.23-.19.24-.44a9.08,9.08,0,0,1,.79-1.22,14.86,14.86,0,0,1,1.5-1.69,22.35,22.35,0,0,1,2.23-1.85c.85-.63,1.79-1.25,2.77-1.88l3-1.92a22.7,22.7,0,0,0,2.91-2.14c.25-.2.41-.4.62-.6l.3-.3.3-.4.3-.41.16-.21h0s-.06.11,0,0l0,0,0-.05.05-.08a2.77,2.77,0,0,0,.32-.65,1.34,1.34,0,0,0,.08-.41.5.5,0,0,0-.14-.33,1.38,1.38,0,0,0-1-.36c-.87,0-2,.78-3.12,1.42-2.2,1.3-4.27,2.48-6.05,3.49-3.55,2-5.93,3.37-5.93,3.37Z"/><path d="M438.14,190.24l2.85-.63,3.27-.7a26.69,26.69,0,0,1,4.35-.71,8.13,8.13,0,0,1,2.64.27,4.9,4.9,0,0,1,2.55,1.63,3.11,3.11,0,0,1,.67,1.65,2.48,2.48,0,0,1-.14,1,2.64,2.64,0,0,1-.5.83,3.51,3.51,0,0,1-1.58,1,8,8,0,0,1-1.62.33c-1,.09-2,.18-2.95.35a25,25,0,0,0-2.91.67,26.23,26.23,0,0,0-5.59,2.33,27.5,27.5,0,0,0-4.91,3.55,19.84,19.84,0,0,1-5.42,3.76,14.84,14.84,0,0,1-1.51.5,11.65,11.65,0,0,1-1.64.3,13.82,13.82,0,0,1-3.08,0,23.52,23.52,0,0,1-5.27-1.18c-1.56-.52-2.9-1.09-4.12-1.61a6.39,6.39,0,0,1-3-2.21c-.27-.44-.42-.84-.58-1.14a2.66,2.66,0,0,0-.44-.67.75.75,0,0,0-.55-.25l0-.3a1.16,1.16,0,0,1,.89.12c.54.26,1,1,1.57,1.58A5.53,5.53,0,0,0,413.8,202c1.24.3,2.66.64,4.17,1a28.48,28.48,0,0,0,4.82.6,15,15,0,0,0,2.5-.16c.4-.07.85-.16,1.2-.26a9.68,9.68,0,0,0,1.29-.43s-.11,0,0,0h0l0,0,.07,0,.15-.06.29-.14c.2-.09.39-.2.59-.3.39-.22.79-.46,1.18-.72.79-.53,1.6-1.12,2.44-1.75a31.85,31.85,0,0,1,5.56-3.5,28.49,28.49,0,0,1,6.18-2.2,29,29,0,0,1,3.16-.55c1.07-.13,2.12-.17,3.07-.21a3.57,3.57,0,0,0,2.19-.63,1.05,1.05,0,0,0,.24-.37,1.31,1.31,0,0,0,.06-.35,1.7,1.7,0,0,0-.32-.9c-.84-1.23-2.55-1.63-4-1.66a27.26,27.26,0,0,0-4.23.4l-3.31.47-2.89.39Z"/><path d="M415.06,204.08s-.19.33-.58.91a5.46,5.46,0,0,1-.82,1,3.36,3.36,0,0,1-3.76.74,4.87,4.87,0,0,1-.53-.21l-.28-.15-.22-.12a9,9,0,0,1-1-.59,11.61,11.61,0,0,1-1.86-1.58,16.32,16.32,0,0,1-1.57-1.93,21,21,0,0,1-2.35-4.2,13.77,13.77,0,0,1-.59-2.09,17.18,17.18,0,0,1-.29-1.94,5.71,5.71,0,0,1,.13-1.94,3.18,3.18,0,0,1,.75-1.34,2.08,2.08,0,0,1,.81-.54,1.6,1.6,0,0,1,.32-.08l.14.27a1.8,1.8,0,0,0-.34.88,3.08,3.08,0,0,0,.06,1,8.26,8.26,0,0,0,.47,1.2c.22.47.49,1.07.74,1.66s.5,1.22.73,1.87a30.08,30.08,0,0,0,1.47,4,15.69,15.69,0,0,0,1.12,1.81,11.3,11.3,0,0,0,1.34,1.54,5.75,5.75,0,0,0,.77.66l.2.16a1,1,0,0,0,.17.12l.37.25a2.41,2.41,0,0,0,1.42.4,2.63,2.63,0,0,0,1.26-.46,6.88,6.88,0,0,0,.91-.73c.48-.46.74-.75.74-.75Z"/><path d="M119.6,251.65l.33-.26a5.3,5.3,0,0,1,1-.66,6.87,6.87,0,0,1,1.78-.65,12.6,12.6,0,0,1,2.44-.28,35.83,35.83,0,0,1,6,.55,25.91,25.91,0,0,1,3.38.72,14.73,14.73,0,0,1,3.42,1.44,19.57,19.57,0,0,1,3,2.17,25.81,25.81,0,0,1,2.48,2.4,23,23,0,0,1,2,2.52,11.9,11.9,0,0,1,1.43,2.73l.06.17,0,.11,0,.07.09.32c.06.25.11.48.15.7a7.14,7.14,0,0,1,.1,1.27,6,6,0,0,1-.35,2,4.38,4.38,0,0,1-.62,1.14,4.12,4.12,0,0,1-.29.34l-.26-.14s0-.15.07-.41a6,6,0,0,0,0-1.11,6.74,6.74,0,0,0-.32-1.6c-.11-.29-.22-.6-.37-.91s-.16-.31-.24-.45l-.15-.27,0-.07s0,0,0,0l-.07-.12a16,16,0,0,0-1.56-2c-.62-.68-1.32-1.42-2-2.23s-1.38-1.65-2.09-2.45a15,15,0,0,0-2.34-2.17,16.82,16.82,0,0,0-5.85-2.48l-3-.72a25.14,25.14,0,0,0-2.68-.46,9.18,9.18,0,0,0-4,.34,5.43,5.43,0,0,0-1,.47l-.35.22Z"/><path d="M137.34,261.39l1.13.9c.72.57,1.71,1.43,2.86,2.52a53.51,53.51,0,0,1,3.74,3.91c.65.75,1.31,1.54,1.93,2.37s1.24,1.64,1.87,2.63a6.56,6.56,0,0,1,1.17,3.67,3.85,3.85,0,0,1-.85,2.22,4,4,0,0,1-2,1.25,4.5,4.5,0,0,1-2.06.05,5.76,5.76,0,0,1-1.64-.59,11,11,0,0,1-2.28-1.6,12.58,12.58,0,0,1-1.58-1.65,12.38,12.38,0,0,1-1-1.45,7.28,7.28,0,0,1-.49-1l-.15-.37.24-.18,1.2.83a29.26,29.26,0,0,0,3.12,1.85c.33.17.65.32,1,.48a9.07,9.07,0,0,0,1.06.43,3.08,3.08,0,0,0,1.77.17,3.21,3.21,0,0,0,.52-.19,1,1,0,0,0,.34-.53,3.84,3.84,0,0,0-.47-2.23c-.4-.82-1-1.76-1.5-2.6s-1.06-1.69-1.6-2.49c-1.08-1.59-2.16-3-3.13-4.26s-1.83-2.18-2.43-2.86l-1-1.06Z"/><path d="M144,279.34h0a.2.2,0,0,1-.1-.19A.23.23,0,0,1,144,279a.27.27,0,0,1,.3,0,.52.52,0,0,1,.22.43l.06.4c.1.61.22,1.47.36,2.53a6.68,6.68,0,0,1,0,1.85l0,.14v0l0,.06v0l-.06.23a4.08,4.08,0,0,1-.21.56,4.7,4.7,0,0,1-.61,1,5.22,5.22,0,0,1-1.93,1.49,5.31,5.31,0,0,1-1.26.4l-.26,0-.36,0c-.22,0-.43,0-.65,0a7.37,7.37,0,0,1-2.51-.54,6.15,6.15,0,0,1-2.09-1.36,9.77,9.77,0,0,1-1.23-1.62c-.32-.51-.61-1-.86-1.48s-.45-.92-.63-1.32a8.78,8.78,0,0,1-.39-1,1.36,1.36,0,0,0-.24-.44.21.21,0,0,0-.16-.06l-.16-.25a.54.54,0,0,1,.31-.21,1.34,1.34,0,0,1,1,.18,10.13,10.13,0,0,1,1,.69c.35.26.74.56,1.15.91s.82.73,1.25,1.16.83.88,1.2,1.26a7.38,7.38,0,0,0,1.12,1,3.59,3.59,0,0,0,1.45.65,2.78,2.78,0,0,0,.39.05l.17,0h.25a3,3,0,0,0,.75-.11,3.55,3.55,0,0,0,1.38-.74,3,3,0,0,0,.51-.56c.08-.11.13-.2.19-.29l.09-.2,0-.05s0-.05,0,0v0l0-.09a5.32,5.32,0,0,0,.29-1.49l.18-2.53c0-.29,0-.63.07-.53s.1,0,.11-.06a.1.1,0,0,0-.07-.11h0Z"/><path d="M137.61,285.25l.15.68a5.28,5.28,0,0,1,.05,1.93,2.92,2.92,0,0,1-.63,1.36,3.14,3.14,0,0,1-1.44.95,4.42,4.42,0,0,1-.89.2l-.48,0-.43,0a7.45,7.45,0,0,1-1.69-.39l-.77-.28c-.22-.07-.48-.17-.74-.27a7.05,7.05,0,0,1-1.38-.67,7.26,7.26,0,0,1-1.91-1.93,6,6,0,0,1-1-2.54l.23-.2a7.57,7.57,0,0,1,.73.23,17.78,17.78,0,0,1,1.68.7,16.17,16.17,0,0,1,2.07,1.15c.34.24.68.53,1,.82a6.57,6.57,0,0,0,.55.42c.18.14.37.26.56.38a5.3,5.3,0,0,0,1.08.52l.28.08.23.05a2.13,2.13,0,0,0,.5,0,1.75,1.75,0,0,0,.88-.27,1.79,1.79,0,0,0,.58-.66,5.26,5.26,0,0,0,.44-1.59l.08-.67Z"/><path d="M128.71,287.41a3.35,3.35,0,0,1-.28.4,3.26,3.26,0,0,1-1.13.86,4.37,4.37,0,0,1-2.18.36,6.59,6.59,0,0,1-2.69-.94,23.47,23.47,0,0,1-2.64-1.89c-.91-.72-1.79-1.53-2.69-2.4a41.57,41.57,0,0,1-5.1-6c-.79-1.09-1.51-2.23-2.2-3.37a20.91,20.91,0,0,1-1.77-3.58,11.7,11.7,0,0,1-.52-2c0-.31-.09-.54-.11-.91s0-.69,0-1a11.68,11.68,0,0,1,.55-3.47,11.17,11.17,0,0,1,1.25-2.64,10.21,10.21,0,0,1,1.38-1.72,7.91,7.91,0,0,1,1.07-.9L112,258l.21.21a16,16,0,0,0-.81,1.58,14.41,14.41,0,0,0-1.16,4.26,13.19,13.19,0,0,0,0,2.81c0,.25.07.48.11.7s.11.54.16.81.27,1,.45,1.49c.35,1.05.81,2.17,1.31,3.31a35.64,35.64,0,0,0,1.72,3.37,40.85,40.85,0,0,0,4.35,6.08c.78.91,1.59,1.76,2.36,2.53a22.84,22.84,0,0,0,2.29,2.06,5.59,5.59,0,0,0,2.22,1.07,3.81,3.81,0,0,0,1.87-.09,2.73,2.73,0,0,0,1.06-.6,2.25,2.25,0,0,0,.3-.34Z"/><path d="M123.25,249.58v-.33c0-.2-.24-.51-.32-.87a2.44,2.44,0,0,0-.67-1.11,2.09,2.09,0,0,0-1.42-.5,4.21,4.21,0,0,0-1.86.46,4.36,4.36,0,0,0-.44.24l-.5.33a11,11,0,0,0-.88.73,23.9,23.9,0,0,0-3.19,3.95c-.5.76-1,1.51-1.49,2.27s-1,1.48-1.48,2.16-1,1.29-1.5,1.82a12.82,12.82,0,0,0-1.12,1.54,4.88,4.88,0,0,0-.56,1.28,1,1,0,0,0,.11.84,1,1,0,0,0,.54.38.62.62,0,0,0,.28,0l.16.26a1,1,0,0,1-.33.24,1.51,1.51,0,0,1-1.22,0,2,2,0,0,1-.77-.54,2.79,2.79,0,0,1-.51-1,4.76,4.76,0,0,1,.06-2.34,8.45,8.45,0,0,1,1-2.32,16.88,16.88,0,0,1,1.43-2.1c.53-.66,1.11-1.32,1.72-2s1.21-1.34,1.82-2a23.14,23.14,0,0,1,4-3.86,12.48,12.48,0,0,1,1.16-.72l.56-.27a6.08,6.08,0,0,1,.65-.25,5.28,5.28,0,0,1,2.47-.2,2.79,2.79,0,0,1,1.86,1.09,2.68,2.68,0,0,1,.48,1.52,6.37,6.37,0,0,1-.08,1,.34.34,0,0,0,.16.33Z"/><path class="a" d="M324.78,189.48c4.7-1.18,10.14-1.86,14,1.06,2.29,1.72,3.61,4.41,4.93,7,2,3.92,4.32,7.83,7.77,10.59,4,3.2,9.16,4.54,14.21,5.43,5.84,1,11.9,1.57,17.66.2,8.26-2,15.07-7.61,21.56-13.09"/><path class="b" d="M162.51,333.06l.2,0c.68.15,1.65.3,0,.35h-.24a31,31,0,0,0-5.1.15,13,13,0,0,0-8.27,3.85,8.23,8.23,0,0,0-2,3.95,7.92,7.92,0,0,0,.61,4.31,5.77,5.77,0,0,0,2.58,3.21,14.94,14.94,0,0,0,4.3,1.33,46.8,46.8,0,0,0,9.39.84,63.9,63.9,0,0,0,9.45-.82c3.13-.55,6.4-.85,8.45-2.34a3,3,0,0,0,1-1.13,4.58,4.58,0,0,0,.25-1.77,13.36,13.36,0,0,0-.73-4.28l-.17-.46-.07-.16-.13-.32c-.09-.21-.2-.41-.29-.62a12.8,12.8,0,0,0-.7-1.19,6.91,6.91,0,0,0-.39-.61,9.7,9.7,0,0,0-1.16-1.43,10.26,10.26,0,0,0-4.27-2.6,9,9,0,0,0-2.78-.38c-.52,0-.66,0-.52,0a10.65,10.65,0,0,1,3.53-.17,11.57,11.57,0,0,1,4,1.27,12.49,12.49,0,0,1,2.6,1.84,12.7,12.7,0,0,1,1,1.08,11.49,11.49,0,0,1,.94,1.34c.14.23.27.47.4.71l.09.18.24.49c.18.4.35.8.5,1.21a15.65,15.65,0,0,1,.65,2.53,13.59,13.59,0,0,1,.19,2.68,5.84,5.84,0,0,1-.26,1.54,4.69,4.69,0,0,1-.79,1.52,7.52,7.52,0,0,1-2.27,1.93,14.35,14.35,0,0,1-5,1.64c-1.63.26-3.2.43-4.82.57a78.46,78.46,0,0,1-9.7.24,47.65,47.65,0,0,1-9.64-1.36,14.06,14.06,0,0,1-4.73-1.88,6.84,6.84,0,0,1-1.87-2,10.34,10.34,0,0,1-1-2.37,12,12,0,0,1-.51-2.51,7.88,7.88,0,0,1,.23-2.61,9.63,9.63,0,0,1,2.56-4.37,13.9,13.9,0,0,1,9-3.57A30.05,30.05,0,0,1,162.51,333.06Z"/><path class="b" d="M162.79,335.06a.48.48,0,0,1,0,.18,3.46,3.46,0,0,0,.28.82c0,.06,0,.08-.11,0a2.35,2.35,0,0,1-.61-.58s-.1-.16-.14-.23a3.82,3.82,0,0,1,0-2.86,5.18,5.18,0,0,1,1.86-2.29,8.3,8.3,0,0,1,1.61-.91,11.16,11.16,0,0,1,3-.93,5.58,5.58,0,0,1,1,0,5.22,5.22,0,0,1,2.48.69,4,4,0,0,1,1.28,1.22A3.51,3.51,0,0,1,174,332a7.2,7.2,0,0,1-.6,2.95,4,4,0,0,1-2.13,2.19c-.51.19-.64.19-.51.14a2.29,2.29,0,0,0,.84-.79,3.44,3.44,0,0,0,.49-2c0,.08,0-.33-.11-1a11.11,11.11,0,0,0-.25-1.13,2.07,2.07,0,0,0-.42-.77,2.8,2.8,0,0,0-1.64-.89,4.58,4.58,0,0,0-1.08,0,12.75,12.75,0,0,0-2.21.37,8.36,8.36,0,0,0-1.41.48,4,4,0,0,0-1.68,1.36A3.07,3.07,0,0,0,162.79,335.06Z"/><path class="b" d="M320.52,333.44h-.2c-.69,0-1.68,0-.06-.34l.24,0a31,31,0,0,1,5.19-.16,13.8,13.8,0,0,1,9.11,3.7,9.4,9.4,0,0,1,2.49,4.5,8.19,8.19,0,0,1,.15,2.66,12.2,12.2,0,0,1-.6,2.52,9.47,9.47,0,0,1-1.16,2.4,7,7,0,0,1-2,1.9,17.1,17.1,0,0,1-4.83,1.75,48.54,48.54,0,0,1-9.82,1.25,77,77,0,0,1-9.85-.33c-1.65-.17-3.23-.34-4.93-.67a12.23,12.23,0,0,1-5.06-2.12,5.65,5.65,0,0,1-2-2.56,7.06,7.06,0,0,1-.33-3,14.87,14.87,0,0,1,1.3-5.13l.25-.53.1-.19.2-.36c.13-.25.28-.48.43-.71a14.33,14.33,0,0,1,1-1.33,11.83,11.83,0,0,1,4.8-3.17,12,12,0,0,1,2.69-.62,10.81,10.81,0,0,1,2.88,0c.52.09.66.12.51.12a9.37,9.37,0,0,0-3.38.43,11.15,11.15,0,0,0-3.39,1.82,10.18,10.18,0,0,0-2.54,3,12.32,12.32,0,0,0-.64,1.19c-.1.2-.18.41-.28.61l-.06.16-.16.42c-.11.34-.22.69-.31,1a14,14,0,0,0-.37,2.12,11.93,11.93,0,0,0,0,2.06,2.26,2.26,0,0,0,.52,1.35,4.81,4.81,0,0,0,1.39,1.07,13.2,13.2,0,0,0,4,1.28c1.49.28,3.07.54,4.6.76a60.37,60.37,0,0,0,9.29.72,45.94,45.94,0,0,0,9.22-.95,12.33,12.33,0,0,0,4.14-1.4,6.19,6.19,0,0,0,2.38-3.32,7.48,7.48,0,0,0,.46-4.23,8.23,8.23,0,0,0-2-3.85,13.07,13.07,0,0,0-8.16-3.74A31,31,0,0,0,320.52,333.44Z"/><path class="b" d="M320.77,335.25l-.12.19a2.29,2.29,0,0,1-.69.67c-.07,0-.07,0,0-.11a2.38,2.38,0,0,0,.24-.72l0-.22a3.07,3.07,0,0,0-.48-2.16,4,4,0,0,0-1.68-1.36,8.89,8.89,0,0,0-1.4-.49,10.83,10.83,0,0,0-2.55-.37,3.42,3.42,0,0,0-.62,0,2.87,2.87,0,0,0-1.3.44,3,3,0,0,0-.57.48,1.85,1.85,0,0,0-.41.69,7.55,7.55,0,0,0-.43,2.33,3,3,0,0,0,1.05,2.36c.42.31.58.31.43.29a3.34,3.34,0,0,1-1.18-.45,4.09,4.09,0,0,1-1.65-2,4,4,0,0,1-.39-1.28,6.78,6.78,0,0,1-.13-1.52,3.63,3.63,0,0,1,.73-2.08,4.73,4.73,0,0,1,3.5-1.69,6.29,6.29,0,0,1,1.62.08,12.3,12.3,0,0,1,2.57.85,9.26,9.26,0,0,1,1.61.92,5.09,5.09,0,0,1,1.85,2.29A3.78,3.78,0,0,1,320.77,335.25Z"/><path class="c" d="M326.25,152.46V231.6a16.47,16.47,0,0,1-4.05,11.17L241.42,194l82.73-49.91A17,17,0,0,1,326.25,152.46Z"/><path class="d" d="M318.33,246.05,249.8,285.62a16.7,16.7,0,0,1-16.69,0l-68.54-39.57a16.69,16.69,0,0,1-8.34-14.45V152.46A16.69,16.69,0,0,1,164.57,138l68.54-39.57a16.7,16.7,0,0,1,16.69,0L318.33,138a16.68,16.68,0,0,1,8.35,14.45V231.6A16.68,16.68,0,0,1,318.33,246.05Z"/><path class="e" d="M324.39,144,160.53,242.77a16.68,16.68,0,0,1-4.28-11.17V152.46A16.68,16.68,0,0,1,164.58,138l68.53-39.57a16.7,16.7,0,0,1,16.69,0L318.34,138A16.84,16.84,0,0,1,324.39,144Z"/><path class="c" d="M233.11,98.44a16.78,16.78,0,0,1,7.31-2.2,16.8,16.8,0,0,0-7.26,2.2L164.67,138a16.38,16.38,0,0,0-6,6.06l-.07,0a16.63,16.63,0,0,1,6-6Z"/><path class="f" d="M324.39,144l-.14.09a16.26,16.26,0,0,0-6-6.1L249.77,98.44a16.8,16.8,0,0,0-7.25-2.2,16.78,16.78,0,0,1,7.31,2.2L318.35,138A16.73,16.73,0,0,1,324.39,144Z"/><path class="g" d="M241.46,219.51a25.49,25.49,0,1,1,21.83-38.65l20.95-12.63a49.95,49.95,0,1,0,0,51.6l-20.94-12.64A25.47,25.47,0,0,1,241.46,219.51Z"/><polygon class="h" points="370.41 170.81 361.56 168.16 364.2 159.31 354.4 156.38 351.76 165.24 342.9 162.59 339.98 172.39 348.83 175.03 346.18 183.89 355.98 186.81 358.63 177.96 367.48 180.61 370.41 170.81"/><polygon class="h" points="339.35 161.53 330.49 158.88 333.14 150.03 323.34 147.1 320.69 155.95 311.84 153.31 308.91 163.1 317.76 165.75 315.12 174.6 324.92 177.53 327.56 168.68 336.42 171.32 339.35 161.53"/><path class="b" d="M373,163l-.48-1.8.93-.24c.59-.15,1.45-.35,2.47-.57a70.15,70.15,0,0,1,7.6-1.18,72.31,72.31,0,0,1,7.69-.31l1.43,0,1,.05.75,0a69.07,69.07,0,0,1,7.33,1.89,63.51,63.51,0,0,0-7.68,0l-.72,0c-.49,0-1.4-.05-2.39-.07a69.45,69.45,0,0,0-7.37.33,70.52,70.52,0,0,0-7.29,1.14c-1,.22-1.8.4-2.37.56Z"/><path class="b" d="M366.82,190.47l1-1.56.89.56c.55.37,1.38.84,2.38,1.4a48.76,48.76,0,0,0,7.66,3.37,49.71,49.71,0,0,0,8.13,2c.56.09,1.08.17,1.54.22l1,.12c.46.06.72.07.72.07a48.66,48.66,0,0,0,7.38,1.13,49.15,49.15,0,0,1-7.79.7l-.74-.08-1.14-.14c-.48,0-1-.15-1.58-.24A51.46,51.46,0,0,1,378,196a50.15,50.15,0,0,1-7.84-3.47c-1-.58-1.86-1.06-2.44-1.44Z"/><path class="b" d="M376.7,179l.52-1.79a73.38,73.38,0,0,0,10.08,2.12l1.13.15s1.79.48,3.62.86,3.7.68,3.7.68-1.93.18-3.88.24-3.91,0-3.91,0l-.91-.11A74.36,74.36,0,0,1,376.7,179Z"/><path class="i" d="M21.53,164.3a3.88,3.88,0,0,1-4,3.69,2.7,2.7,0,0,1-.87-.2c-.37,4.44,4.8,8.69,8.9,9.06,5,.44,6.47-3.22,6.84-7.45l.67-7.47c1.85.53,2.2,2.16,2,3.83l-.49,5.47c-.46,5.22-2.37,12.58-9.27,11.91a10.41,10.41,0,0,1-5-2A16.56,16.56,0,0,1,14,166.36l.26-3A3.85,3.85,0,0,1,18.24,160,3.87,3.87,0,0,1,21.53,164.3Z"/><path class="i" d="M31.65,128.88a3.88,3.88,0,0,1-4.82,2.53A3.14,3.14,0,0,1,26,131c-1.49,4.19,2.4,9.64,6.27,11,4.67,1.7,7.08-1.44,8.53-5.42l2.57-7.05c1.66,1,1.57,2.65,1,4.22L42.52,139c-1.79,4.93-5.54,11.55-12,9.12a10.51,10.51,0,0,1-4.33-3.27,16.56,16.56,0,0,1-2.3-15.87l1-2.81a3.84,3.84,0,0,1,4.68-2.25A3.86,3.86,0,0,1,31.65,128.88Z"/><path class="i" d="M49,108.35l-4.43,8.21a3.45,3.45,0,0,1,2.9.35c2.85,1.85,3.12,5.28,1.28,8.76-2.57,4.85-5.89,5.35-8.16,3.57s-2.88-4.94-.75-8.89l8.75-16.27S50.53,105.53,49,108.35ZM41.4,122.5l2.72,3c1.55,1.7,2.93-1.58,2.93-1.58l-4-4.42Z"/><path class="i" d="M63.18,102.49l-3.44,4.85c-1.08,1.51-2,1.48-3,.11l-2-2.77.57,6.68a6.71,6.71,0,0,1-.69,3.14l-1.59,2.24L46.88,108l3.1-4.38,2.91,4.12-.4-5.86a5.49,5.49,0,0,1,1.14-4.09c.61-.8,1.79-1.09,3,.62l3.27,4.67,3.53-5C64.68,99.69,63.75,101.69,63.18,102.49Z"/><path class="i" d="M74.62,89.34l-7.57,8.41c-.9,1-2.36,2.26-3.66,1.1-1.13-1-.79-2.4.13-3.42a9,9,0,0,1,4.23-2.06,3.34,3.34,0,0,0-1-2c-1.7-1.53-4.48-1.54-6-2.82l-.45-5.33c1-.79,2.26-1.29,3.33-.33a3.89,3.89,0,0,1,1,1.8c1.77.78,4.2,1.36,5.63,2.65a3,3,0,0,1,1,2.21l4-4.42C76.29,86.25,75.52,88.34,74.62,89.34Z"/><path class="i" d="M83.69,80.64l-5.55,5.18C77,86.92,75.7,87,75,85.47l-2.28-5.21L71,81.92,70,79.54c1.85-2.89,2.25-4.43,1-9.09l2.12-2,2.54,5.8,2.81-2.62A3.78,3.78,0,0,1,77.35,76l-.71.67,2.3,5.19,5.84-5.45A3.52,3.52,0,0,1,83.69,80.64Z"/><path class="i" d="M97.14,69.51l-4.47,3.54c-1.5,1.2-2.83.65-3.42-1l-1.7-4.84-2.49,2,1.37,4.37a1.59,1.59,0,0,1-.73,2l-1.24,1-1.81-5.41a2.66,2.66,0,0,1-3.24-.75c-1.55-2,0-4.34,1.61-5.63l1.89-1.5,1.27,3.62,6.45-5.11,2.69,7.75,4.9-3.88C99.15,66.79,98.14,68.71,97.14,69.51Z"/><path class="i" d="M113.23,58.61,108,62c-1,.66-2.09.82-2.6,0a4.44,4.44,0,0,1-1.86,2.9l-2.2,1.43c-1.79,1.17-3.28.29-3.7-1.48L96,57.78l4.51-3,1.92,8L105,61.18l-1.92-8,4.47-2.92,2,8,5.08-3.32A3.21,3.21,0,0,1,113.23,58.61Z"/><path class="i" d="M128.7,50.08l-7.9,4.23c-2.58,1.38-6.53,2.36-7.89-1s1.22-6.89,4.37-8.57l3.3-1.77a2.9,2.9,0,0,1,4,1,2.94,2.94,0,0,1-1.36,3.92,2.89,2.89,0,0,1-4-1.08,3.24,3.24,0,0,1-.17-.32l-1.59.85.53,3.45c.22,1.51,1.28,1.67,2.68.92l10.08-5.4A3.52,3.52,0,0,1,128.7,50.08Z"/><path class="i" d="M140.07,44.83l-6.92,3.11c-1.48.66-2.69.34-2.84-1.33l-.48-5.67-2.23,1-.11-2.56c2.68-2.14,3.55-3.47,3.86-8.29L134,29.9l.54,6.32,3.5-1.58a3.81,3.81,0,0,1-2.44,3.71l-.89.4.5,5.66,7.29-3.28A3.53,3.53,0,0,1,140.07,44.83Z"/><path class="i" d="M156.7,38.28l-10.6,4c-1.26.46-3.14.91-3.75-.72-.53-1.43.4-2.49,1.69-3s3.25-.18,4.7.13a3.28,3.28,0,0,0,0-2.25c-.8-2.15-3.27-3.44-4-5.27l2.06-4.94c1.24-.24,2.6-.09,3.1,1.25a3.86,3.86,0,0,1,.1,2.08c1.21,1.5,3.09,3.14,3.76,4.94a3,3,0,0,1-.17,2.41l5.57-2.08C159.61,36.31,158,37.81,156.7,38.28Z"/><path class="i" d="M179.81,31.54l-7.36,1.88c-1.57.39-2.71-.13-2.57-1.81l.51-5.66-2.36.6.33-2.54c3-1.65,4.1-2.81,5.23-7.5l2.81-.72-.57,6.32,3.73-.95a3.8,3.8,0,0,1-3.05,3.23l-.95.24-.47,5.66,7.74-2A3.52,3.52,0,0,1,179.81,31.54Z"/><path class="i" d="M199.58,27.5l-6.23,1.17c-1.59.29-2.12-.38-1.88-2.07l.47-3.32-4.7,5.6a3.52,3.52,0,0,1-2,1.3l-3,.57,3-18.87,5.27-1-2.08,13.27,3.78-4.5a5.59,5.59,0,0,1,3.67-2.14c.3-.06,2.13-.21,1.71,2.5,0,0-.71,4.36-.88,5.6l6-1.13A3.61,3.61,0,0,1,199.58,27.5Z"/><path class="i" d="M218.25,25.2l-5.61.62c-1,.11-2.43,0-2.57-1.28a5.26,5.26,0,0,1-3.77,2.29A3.71,3.71,0,0,1,202,23.42c-.48-4.37,3-6.94,6.95-7.38l8.46-.94-1.93,8,6.15-.68C221.27,24.28,220,25,218.25,25.2ZM208.2,18.52l-.64,3.57c-.37,1.91,1.66,1.72,2.63,1.61l1.29-5.54Z"/><path class="i" d="M231,24.42l-7.58.39c-1.62.08-2.63-.66-2.17-2.27l1.61-5.46-2.43.13.82-2.43c3.27-1,4.57-1.94,6.6-6.33l2.89-.15L229,14.38l3.84-.2a3.79,3.79,0,0,1-3.62,2.57l-1,.05-1.58,5.46,8-.41A3.52,3.52,0,0,1,231,24.42Z"/><path class="i" d="M270.39,17.15c-3.81,5.36-10.82,7.59-17.18,7.2l-4.9-.3,6.32-14.92,5.36.32-5.36,12.6A12.06,12.06,0,0,0,265,16.42a8.78,8.78,0,0,0,1.42-3.82c.22-3.59-1.75-4.78-5.07-5L247,6.74l2.51-3.61,14.4.88c4.36.27,9,2.45,8.71,7.5A11,11,0,0,1,270.39,17.15Z"/><path class="i" d="M294.54,21.06l-9.24-1.32a3.45,3.45,0,0,1,.67,2.83c-.75,3.32-3.88,4.75-7.78,4.22-5.44-.74-7.05-3.69-6.17-6.43s3.65-4.4,8.09-3.77l18.3,2.62S297.71,21.51,294.54,21.06Zm-15.91-2.28-1.87,3.59c-1.06,2,2.49,2.2,2.49,2.2l2.76-5.3Z"/><path class="i" d="M305.38,31.57l-5.81-1.26c-1.82-.39-2.16-1.28-1.29-2.71l1.78-2.89-5.92,3.15a6.61,6.61,0,0,1-3.16.59l-2.68-.58,5.63-9.14,5.25,1.14-2.65,4.29,5.23-2.67a5.49,5.49,0,0,1,4.2-.55c1,.24,1.71,1.21.61,3l-3,4.83,6,1.29C308.53,31.85,306.33,31.78,305.38,31.57Z"/><path class="i" d="M315.08,19.14l-2.44-.67,3.86-5.58L320.71,14Z"/><path class="i" d="M324.39,37.09l-7.24-2.3c-1.54-.49-2.23-1.54-1.23-2.88l3.43-4.55L317,26.62l1.62-2c3.43.19,5-.21,8.41-3.6l2.76.87L326,27l3.66,1.16a3.8,3.8,0,0,1-4.29,1.13l-.93-.29L321,33.53l7.62,2.41A3.53,3.53,0,0,1,324.39,37.09Z"/><path class="i" d="M360.78,50.27a3.28,3.28,0,0,1-3.73.31l-1.68-.8,5.7-12L349.55,45a4.07,4.07,0,0,1-3.93.16l-1.9-.91,8.82-14.85-6.25-3L350,24l5.95,2.84c1.15.55,2.91,2,1.41,4.46L352,39.94l11.28-7.13c1.36-.87,2.33-1.35,4.23-.44l1.32.63-5.69,11.92,12.13-8.85,3.23,1.54Z"/><path class="i" d="M387.59,59.53l-7.94-4.9a3.42,3.42,0,0,1-.52,2.87c-2,2.74-5.45,2.8-8.81.76-4.69-2.85-5-6.19-3.09-8.35s5.1-2.59,8.92-.23l15.73,9.7S390.32,61.21,387.59,59.53Zm-13.68-8.44-3.14,2.54c-1.78,1.45,1.4,3,1.4,3l4.65-3.76Z"/><path class="i" d="M391.15,72.2l-4.59-3.39c-1.54-1.14-1.36-2.57.06-3.56l4.23-2.9-2.55-1.89-3.86,2.45a1.58,1.58,0,0,1-2.1-.19l-1.28-.94,4.77-3.15a2.65,2.65,0,0,1-.13-3.32c1.49-2,4.19-1.15,5.86.08l1.93,1.44L390.33,59,397,63.9l-6.79,4.61,5,3.72C394.3,73.43,392.18,73,391.15,72.2Z"/><path class="i" d="M405.84,85,401.49,81c-1.35-1.23-1.07-2.41.42-3.2l3.92-2c-1.06.07-7.39,0-7.39,0-1.9,0-2.79-.06-4-1.14l-1.66-1.49,16.75-9.08,4,3.6-10.41,5.6,8.38-.4L414,75.2l-4.94.34.83.75c.91.82,1.62,2.17-.5,3.29l-3.79,2,4.55,4.11C408.43,86.78,406.56,85.62,405.84,85Z"/><path class="i" d="M420.81,101.68l-3.71-4.57c-1-1.26-.8-2.65,1-3.3l7.28-2.55,3.39,4.2L421,98.19l3.82,4.72A3.5,3.5,0,0,1,420.81,101.68Zm8.9-9.12a3.58,3.58,0,1,1,5.25.82A3.78,3.78,0,0,1,429.71,92.56Z"/><path class="i" d="M432.07,117.83l-3.26-5c-1-1.56-.65-2.43,1-2.84l3.3-.81-6.44-1.91a6.7,6.7,0,0,1-2.67-1.78l-1.51-2.29,10.43-2.59,2.94,4.49L431,106.34l5.6,1.75a5.49,5.49,0,0,1,3.39,2.56c.53.85.37,2-1.64,2.54l-5.54,1.34,3.35,5.1C434.13,120.23,432.61,118.64,432.07,117.83Z"/><path class="i" d="M458.62,143.86a3.87,3.87,0,0,1,2-5,2.67,2.67,0,0,1,.87-.19c-1.57-4.17-8.06-5.81-11.92-4.39-4.67,1.72-4.48,5.68-3,9.66l2.59,7c-1.9.31-2.9-1-3.48-2.58l-1.9-5.15c-1.81-4.93-3.24-12.4,3.28-14.74a10.5,10.5,0,0,1,5.42-.3,16.58,16.58,0,0,1,12,10.63l1,2.8a3.65,3.65,0,1,1-6.93,2.26Z"/><path class="i" d="M458.18,168.2l-1.3-6.45-7-1.08-.82-4.07,7,1.05-1.31-6.46,4,.6,1.3,6.46,7,1.11.83,4.09-7-1.11,1.3,6.46Z"/><path class="i" d="M459.2,186.9l-.39-6.58-6.78-2-.24-4.14,6.78,2-.39-6.57,3.85,1.14.39,6.58,6.79,2.07.24,4.17-6.78-2.07.39,6.57Z"/><path d="M189.5,93l.83,2.23c.51,1.48,1.23,3.65,2,6.46.39,1.41.73,3,1.06,4.71s.64,3.6.83,5.63a47.27,47.27,0,0,1-.49,13.78,29.27,29.27,0,0,1-2.63,7.66,24.58,24.58,0,0,1-2.39,3.68,20.28,20.28,0,0,1-3.31,3.23,18,18,0,0,1-4.21,2.39c-.36.13-.62.27-1.07.4s-.84.26-1.26.37a22.62,22.62,0,0,1-2.46.44,22.88,22.88,0,0,1-10-1.21c-6.42-2.21-12-6.49-16.58-11.56a64.6,64.6,0,0,1-11.05-17.43,66.45,66.45,0,0,1-5.31-20.11c-.63-6.93,0-14.14,3-20.71a23.92,23.92,0,0,1,6.64-8.6,20.11,20.11,0,0,1,4.71-2.81l.32-.14.15-.06.08,0,.22-.08.52-.17c.36-.11.63-.22,1.16-.35s1-.26,1.41-.34l1.3-.21a21.64,21.64,0,0,1,5.09,0,23.53,23.53,0,0,1,4.63,1.09,29.8,29.8,0,0,1,7.58,4,46.25,46.25,0,0,1,9.9,10.22,73.27,73.27,0,0,1,5.54,9.11c1.34,2.6,2.26,4.71,2.87,6.14l.9,2.22Zm-.74.3-1-2.15a49.92,49.92,0,0,0-3.3-5.78,45,45,0,0,0-2.79-3.82,52.42,52.42,0,0,0-3.74-4.08A40.36,40.36,0,0,0,167.42,70c-4.1-2-8.92-3.17-13.22-2.24l-.8.19c-.25.06-.45.15-.67.21a7.09,7.09,0,0,0-.89.33l-.51.21.09,0,0,0-.1,0-.18.09a11.49,11.49,0,0,0-2.79,1.83A17.36,17.36,0,0,0,144,76.53c-2.27,4.71-3.2,10.63-3.05,16.66a56.83,56.83,0,0,0,3.75,18.16,58.67,58.67,0,0,0,9.36,16.18c3.94,4.71,8.69,8.72,14,10.81a18.38,18.38,0,0,0,8,1.4,17.54,17.54,0,0,0,1.93-.24,15.58,15.58,0,0,0,5.28-2.18,18.71,18.71,0,0,0,5.19-5.41,27.89,27.89,0,0,0,3-6.69,40.67,40.67,0,0,0,1.66-13.12,53.7,53.7,0,0,0-.51-5.58c-.28-1.71-.59-3.27-.94-4.67a51.88,51.88,0,0,0-2-6.37l-.89-2.2Z"/><path d="M290,84.4s-.38.94-1.08,2.72A69.6,69.6,0,0,0,286.48,95c-.44,1.73-.83,3.66-1.18,5.77a63.68,63.68,0,0,0-.66,6.9,50.66,50.66,0,0,0,1.9,16.27,34.61,34.61,0,0,0,3.71,8.38,23.48,23.48,0,0,0,6.47,6.86A19.07,19.07,0,0,0,301,141.3a17.42,17.42,0,0,0,2.37.67l1.22.21c.4.06.82.08,1.23.12a23.36,23.36,0,0,0,10.09-1.68c6.65-2.59,12.63-7.56,17.57-13.44a69,69,0,0,0,6.64-9.56,78.4,78.4,0,0,0,5.05-10.55c.35-.95.73-1.94,1-2.86s.61-1.8.88-2.76c.57-1.86,1-3.76,1.46-5.66A65.63,65.63,0,0,0,350,84.37c.24-7.54-.87-15-3.76-21a22.28,22.28,0,0,0-5.59-7.54A15.71,15.71,0,0,0,337,53.42l-.24-.12-.12-.06-.06,0,.08,0L336,53a11.12,11.12,0,0,0-1.13-.41c-.31-.09-.58-.19-.92-.28l-1-.23a21.78,21.78,0,0,0-8.62.15,34.8,34.8,0,0,0-8.19,3,51,51,0,0,0-12.9,9.49,68,68,0,0,0-4.56,5.13c-1.3,1.68-2.45,3.27-3.39,4.77a66.22,66.22,0,0,0-4,7.19L290,84.4Zm-.74-.3,1.11-2.74c.77-1.76,1.91-4.35,3.6-7.54a86.15,86.15,0,0,1,7-11.1,56.44,56.44,0,0,1,12.29-12.3,35.91,35.91,0,0,1,9.24-4.75,31.84,31.84,0,0,1,5.57-1.27,26.23,26.23,0,0,1,6.07,0l1.55.26c.53.1,1.1.26,1.66.4s1,.29,1.4.43l.64.21.23.09.09,0,.19.08.37.17a23.21,23.21,0,0,1,5.6,3.36,28.71,28.71,0,0,1,7.92,10.29c3.66,7.89,4.44,16.65,3.72,25.1a78.84,78.84,0,0,1-2.21,12.56c-.55,2-1.15,4.1-1.86,6.1-.33,1-.73,2-1.11,3s-.79,1.9-1.18,2.86a84.11,84.11,0,0,1-5.92,11.3,74.28,74.28,0,0,1-7.58,10.09C332,137,325.29,142.25,317.5,145a27.9,27.9,0,0,1-12.06,1.53c-.5-.07-1-.12-1.5-.21l-1.48-.31c-.5-.13-1-.29-1.5-.43s-.88-.32-1.32-.48a21.68,21.68,0,0,1-5.1-2.87,24.87,24.87,0,0,1-4-3.89,30.36,30.36,0,0,1-2.94-4.46,36.07,36.07,0,0,1-3.29-9.35,56.9,56.9,0,0,1-.74-16.93,81.94,81.94,0,0,1,2.27-12.76c.92-3.47,1.78-6.15,2.44-8l1-2.75Z"/><path d="M189.61,62.08l-2.64.23c-.84.09-1.86.14-3.05.18s-2.54.09-4,.06-3-.07-4.72-.17c-.85,0-1.71-.1-2.58-.2l-2.7-.27c-1.82-.25-3.72-.47-5.62-.87s-3.82-.81-5.75-1.25-3.85-.94-5.74-1.47a40.3,40.3,0,0,1-5.47-1.81,33,33,0,0,1-4.71-2.59c-.73-.47-1.4-1-2.07-1.42s-1.26-1-1.83-1.46-1.12-.95-1.63-1.42-1-.94-1.38-1.39-.81-.87-1.17-1.27-.64-.81-.92-1.16c-.55-.71-.95-1.3-1.21-1.7s-.4-.64-.4-.64l.46-.65s.27,0,.74.13,1.16.25,2,.47,1.86.5,3,.84l3.71,1.21c1.33.48,2.76,1,4.25,1.54s3,1.15,4.59,1.91,3.12,1.59,4.75,2.42,3.3,1.63,5,2.37,3.46,1.36,5.21,1.93,3.46,1.14,5.14,1.68,3.33.95,4.9,1.33,3.07.76,4.46,1l2,.42,1.81.32c1.13.2,2.13.37,3,.49l2.62.38Z"/><path d="M282.14,53.08l1.77-1.37c1.13-.88,2.77-2.09,4.75-3.52l3.22-2.29c1.14-.82,2.37-1.63,3.63-2.5s2.57-1.74,3.92-2.59l4.11-2.61c1.38-.86,2.73-1.78,4.07-2.69a35.63,35.63,0,0,1,4-2.48,28.55,28.55,0,0,1,4.07-1.69c1.33-.45,2.62-.82,3.83-1.1s2.35-.5,3.37-.65,1.94-.22,2.7-.26,1.38,0,1.8,0l.65,0,.34.73s-.13.19-.4.52-.65.8-1.17,1.35-1.16,1.22-1.92,1.9-1.62,1.44-2.59,2.2-2.05,1.54-3.21,2.29a29.72,29.72,0,0,1-3.77,2.17A42.42,42.42,0,0,1,311,42.2c-1.5.52-3,1.08-4.51,1.69-3,1.23-5.93,2.52-8.75,3.65l-7.66,3.17-7.54,3.06Z"/><path d="M168.62,105.33l-.46-.21a10,10,0,0,1-1.15-.64l-.72-.48c-.26-.17-.49-.38-.76-.58a11.57,11.57,0,0,1-1.47-1.42c-.42-.53-1.3-.93-1.51-1.52a1.36,1.36,0,0,1,0-.93,3.32,3.32,0,0,1,.45-.93,6.33,6.33,0,0,1,.71-.83l.38-.36.42-.31c.28-.2.44-.33.63-.44l.28-.17.78-.15.32,0c.22,0,.43.09.75.14l.51.1.49.12c.32.1.67.21,1,.33a4.08,4.08,0,0,1,.81.43,1,1,0,0,1,.46.58c.1.46-.42,1.16-.45,1.73s-.12,1.16-.23,1.75l-.24,1.64-.29,1.74Z"/><path d="M316.05,99.65s.26-1,.75-2.33c.25-.67.54-1.46.9-2.27s.74-1.66,1.16-2.48.53-1.93,1.07-2.55a2.83,2.83,0,0,1,1.08-.73,5.82,5.82,0,0,1,1.4-.41,6.35,6.35,0,0,1,1.43-.07l.66.09c.21,0,.41.12.59.18a4.56,4.56,0,0,1,.8.35l.29.19.36.72v.33c0,.23,0,.46,0,.8l.05.54c0,.16,0,.34,0,.53,0,.35.06.73.05,1.09a3.9,3.9,0,0,1-.14,1.08,2.06,2.06,0,0,1-.57,1c-.6.59-1.72.75-2.49,1.24s-1.59.93-2.4,1.31-1.55.74-2.21,1c-1.33.58-2.28.9-2.28.9Z"/></svg>