<svg xmlns="https://www.w3.org/2000/svg" viewBox="0 0 274 132"><defs><style>.a{opacity:0.8;}.b{fill:#51a410;}.c{fill:#a44a29;}.d{fill:#533cf1;}</style></defs><title>Artboard 1</title><g class="a"><path class="b" d="M200.0529,132c0-27.2027-10.0543-41.8636-25.6624-48.9176V132Z"/><path class="b" d="M91.0521,132h24.9194V83.2875C101.2553,90.4222,91.0521,105.2432,91.0521,132Z"/><path class="b" d="M145.404,91.4216a42.9579,42.9579,0,0,1-22.2973-6.2985V132h44.1486V85.3924A42.0261,42.0261,0,0,1,145.404,91.4216Z"/><path class="b" d="M145.5525,36.5676A150.7807,150.7807,0,0,1,187.46,42.81c0-.7992.0009-1.5711.0013-2.2757.0009-2.0041.0018-3.4708.0023-3.5167C187.2841,16.5406,172.1777,0,153.113,0H138.7741C119.71,0,103.83,16.5406,103.6425,37.0184c0,.046.0013,1.5118.0022,3.5136,0,.7051.0009,1.4779.0013,2.2779A150.7988,150.7988,0,0,1,145.5525,36.5676Z"/><path class="b" d="M104.6953,56.7252c1.9408-.5962,3.9-1.142,5.87-1.6527a35.5581,35.5581,0,0,0,69.9966-.119c1.9617.5106,3.9113,1.0573,5.8427,1.6535a3.5664,3.5664,0,0,0,4.0577-5.3295,3.7259,3.7259,0,0,0-2.0255-1.4881,126.2935,126.2935,0,0,0-14.9374-3.7178v4.8211a12.89,12.89,0,0,1-12.8959,12.86A12.73,12.73,0,0,1,148.361,54.784c-1.3423-4.4853.12-9.6743-2.7519-9.8-2.8719.1257-1.419,5.3152-2.7613,9.8005A13.1049,13.1049,0,0,1,117.31,50.8927V46.1933c-4.9054.9824-9.9148,2.2164-14.7831,3.7112a3.4532,3.4532,0,0,0-1.8142,1.3369,3.5791,3.5791,0,0,0,2.9174,5.6408l.0125.0009A3.5864,3.5864,0,0,0,104.6953,56.7252Z"/></g><path class="c" d="M62.9,18.2207a.7967.7967,0,0,1-.72.66l-7.56.45a.9377.9377,0,0,0-.78.66c-.12.63-.48,3.09-.48,3.66a.4652.4652,0,0,0,.51.48c2.88,0,3.6894-.3,6.5693-.3a.6018.6018,0,0,1,.6.6v.03l-.09,3.8995a.7709.7709,0,0,1-.66.72l-6.87.12c-.36,0-.6.6-.6.93l-.27,6.06a.7332.7332,0,0,1-.63.66l-4.89.42h-.06a.5443.5443,0,0,1-.54-.57v-.03l.33-22.7095a.64.64,0,0,1,.63-.66h.03l15.4194.27a.5766.5766,0,0,1,.6.57C63.44,15.041,63.0205,17.2012,62.9,18.2207Z"/><path class="c" d="M80.99,37.42a.5481.5481,0,0,1-.51.51h-.03l-5.28-.18a.5253.5253,0,0,1-.51-.51v-.72a6.1075,6.1075,0,0,1-2.73.66c-6.12,0-8.07-4.29-8.07-11.01a28.5012,28.5012,0,0,1,.51-5.49.3247.3247,0,0,1,.33-.24h.03l6.18.48a.276.276,0,0,1,.3.27v.06a54.2094,54.2094,0,0,0-.6,6.93c0,3.06.78,4.17,2.04,4.17s2.01-.81,2.04-2.91V20.3511a.554.554,0,0,1,.51-.54l5.8794-.3a.0293.0293,0,0,1,.03-.03.4683.4683,0,0,1,.45.48Z"/><path class="c" d="M101.27,37.21a.3666.3666,0,0,1-.39.3h-.03l-6.03-.42a.2365.2365,0,0,1-.24-.24v-.03a36.2121,36.2121,0,0,0,.18-4.77c0-5.43-.21-7.41-2.19-7.41-1.53,0-2.22.99-2.19,3.48l.03,8.49a.4359.4359,0,0,1-.42.45l-5.61-.15a.4614.4614,0,0,1-.45-.45l-.42-16.7393v-.03a.41.41,0,0,1,.42-.42l5.97.09a.5143.5143,0,0,1,.45.48v.93a8.4516,8.4516,0,0,1,3.84-.84c4.44,0,7.29,2.04,7.29,10.68A62.2569,62.2569,0,0,1,101.27,37.21Z"/><path class="c" d="M119.54,30.97c-.45,2.7-2.31,6.63-7.35,6.63-5.3994,0-9.0893-3.12-9.0893-8.7295,0-6.18,3.69-9.9,8.2495-9.9,4.23,0,7.68,2.4,7.68,7.14a5.5341,5.5341,0,0,1-.09,1.2,1.0019,1.0019,0,0,1-1.14.75l-4.02-.15c-.66-.03-.72-.39-.72-.93a1.6857,1.6857,0,0,0-1.68-1.8c-1.23,0-2.34,1.44-2.34,3.96,0,2.7,1.62,3.45,2.79,3.45a1.8388,1.8388,0,0,0,1.92-1.56c.09-.3.27-.42.66-.42,3.15-.09,4.62-.15,4.68-.15.3,0,.45.12.45.39Z"/><path class="c" d="M133.07,25.3008a.4045.4045,0,0,1-.39.42l-2.16-.03a.436.436,0,0,0-.45.42L129.44,37.06a.4226.4226,0,0,1-.42.39h-.03l-5.2495-.33a.4242.4242,0,0,1-.39-.42v-.03l.24-10.62v-.03a.478.478,0,0,0-.42-.42h-1.8a.4814.4814,0,0,1-.45-.42l-.27-4.92v-.03a.3974.3974,0,0,1,.39-.39l2.22.03a.4105.4105,0,0,0,.42-.42l.12-5.58a.41.41,0,0,1,.42-.42l6.06.06a.4042.4042,0,0,1,.39.42l-.3,5.61v.03a.4042.4042,0,0,0,.39.42l1.86.03a.41.41,0,0,1,.42.42Z"/><path class="c" d="M142.28,36.88a.4292.4292,0,0,1-.42.42h-.03l-5.43-.15a.4892.4892,0,0,1-.48-.45l-.39-14.73a.41.41,0,0,1,.42-.42l6.2695.09a.4614.4614,0,0,1,.45.45ZM139.79,20.231a3.5256,3.5256,0,0,1-3.42-3.63,3.4386,3.4386,0,1,1,6.87,0A3.5306,3.5306,0,0,1,139.79,20.231Z"/><path class="c" d="M153.71,37.6a8.616,8.616,0,0,1-8.8794-8.97c0-5.82,3.21-9.33,8.3994-9.33,4.8,0,8.28,3.15,8.28,9.33C161.5093,34.3,158.2393,37.6,153.71,37.6Zm-.6-11.64c-1.4995,0-2.28,1.23-2.28,2.82a2.3938,2.3938,0,0,0,2.37,2.58c1.32,0,2.16-1.11,2.16-2.76A2.4141,2.4141,0,0,0,153.1094,25.96Z"/><path class="c" d="M180.9189,37.21a.3661.3661,0,0,1-.39.3h-.03l-6.03-.42a.2365.2365,0,0,1-.24-.24v-.03a36.2121,36.2121,0,0,0,.18-4.77c0-5.43-.21-7.41-2.19-7.41-1.53,0-2.22.99-2.19,3.48l.03,8.49a.4359.4359,0,0,1-.42.45l-5.61-.15a.4615.4615,0,0,1-.45-.45l-.42-16.7393v-.03a.41.41,0,0,1,.42-.42l5.97.09a.5142.5142,0,0,1,.45.48v.93a8.4517,8.4517,0,0,1,3.84-.84c4.44,0,7.2895,2.04,7.2895,10.68A62.2273,62.2273,0,0,1,180.9189,37.21Z"/><path class="c" d="M199.6987,36.58a.5765.5765,0,0,1-.51.54l-4.92.24h-.03a.4892.4892,0,0,1-.48-.45l-.03-1.62a5.1718,5.1718,0,0,1-3.78,1.47c-4.5,0-7.47-3.33-7.47-8.61,0-4.98,3.57-8.2793,7.56-8.2793a7.1922,7.1922,0,0,1,3.69,1.08l-.03-.78a.52.52,0,0,1,.48-.51l5.64-.09a.4738.4738,0,0,1,.48.48Zm-5.97-9.2393a2.2333,2.2333,0,0,0-2.19-1.74c-1.44,0-2.43,1.17-2.43,2.85a2.4614,2.4614,0,0,0,2.4,2.67,2.5457,2.5457,0,0,0,2.22-2.37Z"/><path class="c" d="M209.209,36.88a.41.41,0,0,1-.42.42h-.03l-5.22-.15a.4613.4613,0,0,1-.45-.45l-.36-22.8589v-.03a.41.41,0,0,1,.42-.42l6.06.09a.4614.4614,0,0,1,.45.45Z"/><path class="c" d="M220.4888,29.38a2.795,2.795,0,0,0,.48,1.32.2928.2928,0,0,1-.33.3.2685.2685,0,0,1-.15-.03l-4.59-1.2c-.39-.09-.75-.78-.75-2.04,0-4.74,6.03-5.4595,6.03-7.68,0-.57-.48-1.02-1.47-1.02-1.8,0-3.33,1.32-4.59,2.7a.3481.3481,0,0,1-.3.12c-.06,0-.15,0-.18-.06l-3.21-3.39a.2255.2255,0,0,1-.03-.15.6035.6035,0,0,1,.09-.33,12.5216,12.5216,0,0,1,9.6-4.59c5.22,0,7.41,3.21,7.41,5.91C228.4985,26.1406,220.4888,25.0308,220.4888,29.38Zm-2.37,8.07c-1.86,0-3.39-1.23-3.39-2.73,0-1.53,1.53-2.76,3.39-2.76,1.89,0,3.42,1.23,3.42,2.76C221.5391,36.22,220.0088,37.45,218.1191,37.45Z"/><path class="d" d="M62.5933,82.2856a.4216.4216,0,0,1-.418.418l-8.1309.0762a1.4615,1.4615,0,0,1-.9116-.4942,107.66,107.66,0,0,1-7.979-12.88.7551.7551,0,0,0-.6079-.418c-.3037,0-.57.2661-.57.7222l-.95,13.2216a.4514.4514,0,0,1-.4561.38L34.44,82.856a.3807.3807,0,0,1-.38-.38c.8359-7.3325,1.5195-19.8706,1.5957-29.0654,0-.2281.19-.3418.4179-.3418l9.9165.4179a1.0126,1.0126,0,0,1,.76.4937c1.4439,3.5718,3.8755,10.5625,6.2691,14.0962.1518.2656.3418.4555.5322.4555.3037,0,.5317-.3037.5317-.7216l.1519-15.1978a.34.34,0,0,1,.3418-.3418,30.7749,30.7749,0,0,0,5.5854.4556c1.14,0,2.09-.1138,3.23-.1519.19-.0381.2661.2661.2661.38Z"/><path class="d" d="M88.89,81.146,67.917,82.8936c-.4561.038-.6841-.3418-.76-.76a95.0809,95.0809,0,0,1-.57-12.7661c0-4.7871.0762-11.36.9878-15.9956a.87.87,0,0,1,.8359-.836l19.5674.3423A.7211.7211,0,0,1,88.7,53.6c0,1.14-.5317,3.8755-.6836,5.1675a.9745.9745,0,0,1-.9121.8354l-9.9165.57a1.0871,1.0871,0,0,0-.9878.8355,31.1761,31.1761,0,0,0-.6079,3.61.6089.6089,0,0,0,.646.6079c3.6475,0,7.3706-.4942,11.0181-.4942a.7959.7959,0,0,1,.76.7979l-.1523,4.37a.974.974,0,0,1-.836.9116L76.1235,72.0654c-.4555.0381-.76.7217-.76,1.1778,0,.57.1137,1.4819.874,1.4438l12.3481-.418a.8942.8942,0,0,1,.836.7979c.0757,1.8237.2275,3.4194.2275,5.2432A.859.859,0,0,1,88.89,81.146Z"/><path class="d" d="M123.7339,54.36,113.3994,82.0957a.9177.9177,0,0,1-.6836.4941l-9.8408,1.1778h-.0762a.5847.5847,0,0,1-.4936-.3418L91.5908,53.9419a.2271.2271,0,0,1-.0381-.1519.4893.4893,0,0,1,.418-.4941l9.5366-.7979a.6212.6212,0,0,1,.5318.418l5.7754,18.4653c.0756.3042.228.418.38.418.1138,0,.2657-.1138.3418-.38l5.1675-19.1489a.3643.3643,0,0,1,.3418-.2661h.0381l9.4985,2.09c.1138.0376.1519.0757.1519.19Z"/><path class="d" d="M147.7134,81.146l-20.9727,1.7476c-.456.038-.6841-.3418-.76-.76a95.1471,95.1471,0,0,1-.57-12.7661c0-4.7871.0762-11.36.9878-15.9956a.87.87,0,0,1,.836-.836l19.5674.3423a.721.721,0,0,1,.7216.7217c0,1.14-.5317,3.8755-.6836,5.1675a.9744.9744,0,0,1-.9121.8354l-9.9165.57a1.0872,1.0872,0,0,0-.9878.8355,31.1761,31.1761,0,0,0-.6079,3.61.6089.6089,0,0,0,.646.6079c3.6475,0,7.3706-.4942,11.0181-.4942a.7958.7958,0,0,1,.76.7979l-.1523,4.37a.9745.9745,0,0,1-.8359.9116l-10.9043,1.2539c-.4561.0381-.76.7217-.76,1.1778,0,.57.1138,1.4819.874,1.4438l12.3482-.418a.8942.8942,0,0,1,.8359.7979c.0757,1.8237.228,3.4194.228,5.2432A.86.86,0,0,1,147.7134,81.146Z"/><path class="d" d="M181.4561,79.4741l-5.1294,4.4453c-.0381.0762-.1519.1143-.3042.1143a.5375.5375,0,0,1-.2276-.0762,56.9648,56.9648,0,0,1-11.9306-8.2065l-3.9131.3037-.3042,6.041a.492.492,0,0,1-.4561.4941l-7.56.418h-.0381a.3834.3834,0,0,1-.418-.3418l.4942-28.8a29.7759,29.7759,0,0,1,10.41-1.748c7.979,0,16.4136,2.8115,16.4136,10.7143,0,4.9014-2.1275,7.1812-5.0532,9.6509,1.5576,1.9756,5.5473,5.0532,7.9028,6.5728a.392.392,0,0,1,.19.2661A.1971.1971,0,0,1,181.4561,79.4741ZM165.8022,61.123a10.4536,10.4536,0,0,0-5.1293,1.482,57.7975,57.7975,0,0,0-.418,6.2309c0,.19.76.3418,1.5957.3418,4.2178,0,8.1308-2.3554,8.1308-5.1294C169.9814,62.2246,168.6519,61.123,165.8022,61.123Z"/><path class="c" d="M215.6182,84.5654c-.3037,6.2691-4.1792,9.0806-9.0044,9.0806a9.1318,9.1318,0,0,1-5.5093-1.71.6231.6231,0,0,1-.228-.5322v-.0376l.1142-6.4214c0-.228.1138-.38.3037-.38a.3473.3473,0,0,1,.19.1143,5.21,5.21,0,0,0,3.4575,1.6338c2.3935,0,3.23-1.2539,3.4956-4.5215l.0757-.7222-.0376-.6455a7.0739,7.0739,0,0,1-4.9395,1.8237c-5.6992,0-9.46-4.2177-9.46-10.9047,0-6.3067,4.521-10.4864,9.5742-10.4864a9.35,9.35,0,0,1,4.5215,1.2539l-.0381-1.102a.6182.6182,0,0,1,.646-.6455l7.2187.2656a.673.673,0,0,1,.646.6841Zm-7.295-14.248c0-1.1016-1.2534-1.9375-2.5454-1.9375-1.71,0-2.85,1.3677-2.85,3.3437A2.8992,2.8992,0,0,0,205.74,74.877a2.7383,2.7383,0,0,0,2.6216-2.8116Z"/><path class="c" d="M230.1738,83.3115a10.9122,10.9122,0,0,1-11.2461-11.36c0-7.3706,4.0655-11.8159,10.6382-11.8159,6.0791,0,10.4863,3.9892,10.4863,11.8159C240.0522,79.1323,235.9111,83.3115,230.1738,83.3115Zm-.76-14.7417c-1.9,0-2.8877,1.5576-2.8877,3.5718a3.0312,3.0312,0,0,0,3.0014,3.2671c1.6719,0,2.7359-1.4058,2.7359-3.4951A3.0574,3.0574,0,0,0,229.4141,68.57Z"/><path class="c" d="M39.0361,101.0205v.03h.03a.3548.3548,0,0,1-.27.27c-.03,0-.03,0-.06-.03a2.33,2.33,0,0,0-1.59-.81c-.81,0-1.44.81-1.44,2.58v1.89l2.37-.15a.2961.2961,0,0,1,.3.27v.03l-.36,4.8594a.35.35,0,0,1-.3.3l-1.98-.09.06,8.16a.5.5,0,0,1-.48.51h-.03l-5.79.27h-.03a.4667.4667,0,0,1-.45-.54l.03-8.61-1.29-.06a.2959.2959,0,0,1-.3-.27v-.03l.21-3.96a.3.3,0,0,1,.3-.3l1.11-.03.03-3.81c.06-3.9,2.61-5.97,5.52-5.97a7.835,7.835,0,0,1,4.98,2.04c.12.15.21.18.18.36Z"/><path class="c" d="M57.2158,119.02a.548.548,0,0,1-.51.51h-.03l-5.28-.18a.5253.5253,0,0,1-.51-.51v-.72a6.1078,6.1078,0,0,1-2.73.66c-6.12,0-8.07-4.29-8.07-11.01a28.5021,28.5021,0,0,1,.51-5.49.3247.3247,0,0,1,.33-.24h.03l6.18.48a.276.276,0,0,1,.3.27v.06a54.2094,54.2094,0,0,0-.6,6.93c0,3.06.78,4.17,2.04,4.17s2.01-.81,2.0395-2.91v-9.0893a.554.554,0,0,1,.51-.54l5.8794-.3a.0293.0293,0,0,1,.03-.03.4684.4684,0,0,1,.45.48Z"/><path class="c" d="M66.7261,118.48a.41.41,0,0,1-.42.42h-.03l-5.22-.15a.4614.4614,0,0,1-.45-.45l-.36-22.8589v-.03a.41.41,0,0,1,.42-.42l6.06.09a.4614.4614,0,0,1,.45.45Z"/><path class="c" d="M76.416,118.48a.41.41,0,0,1-.42.42h-.03l-5.22-.15a.4613.4613,0,0,1-.45-.45l-.36-22.8589v-.03a.41.41,0,0,1,.42-.42l6.06.09a.4613.4613,0,0,1,.45.45Z"/><path class="c" d="M99.2754,101.0205v.03h.03a.3548.3548,0,0,1-.27.27c-.03,0-.03,0-.06-.03a2.3308,2.3308,0,0,0-1.59-.81c-.81,0-1.44.81-1.44,2.58v1.89l2.37-.15a.2961.2961,0,0,1,.3.27v.03l-.36,4.8594a.35.35,0,0,1-.3.3l-1.98-.09.06,8.16a.5.5,0,0,1-.48.51h-.03l-5.79.27h-.03a.4667.4667,0,0,1-.45-.54l.03-8.61-1.29-.06a.2959.2959,0,0,1-.3-.27v-.03l.21-3.96a.3.3,0,0,1,.3-.3l1.11-.03.03-3.81c.06-3.9,2.61-5.97,5.52-5.97a7.8354,7.8354,0,0,1,4.98,2.04c.12.15.21.18.18.36Z"/><path class="c" d="M117.4551,119.02a.5481.5481,0,0,1-.51.51h-.03l-5.28-.18a.5252.5252,0,0,1-.51-.51v-.72a6.1082,6.1082,0,0,1-2.73.66c-6.12,0-8.07-4.29-8.07-11.01a28.5129,28.5129,0,0,1,.51-5.49.3247.3247,0,0,1,.33-.24h.03l6.18.48a.276.276,0,0,1,.3.27v.06a54.1912,54.1912,0,0,0-.6,6.93c0,3.06.78,4.17,2.04,4.17s2.01-.81,2.04-2.91v-9.0893a.5538.5538,0,0,1,.51-.54l5.8794-.3a.0293.0293,0,0,1,.03-.03.4684.4684,0,0,1,.45.48Z"/><path class="c" d="M137.7349,118.81a.3667.3667,0,0,1-.39.3h-.03l-6.03-.42a.2366.2366,0,0,1-.24-.24v-.03a36.2121,36.2121,0,0,0,.18-4.77c0-5.43-.21-7.41-2.19-7.41-1.53,0-2.22.99-2.19,3.48l.03,8.49a.4359.4359,0,0,1-.42.45l-5.61-.15a.4615.4615,0,0,1-.45-.45l-.42-16.7393v-.03a.41.41,0,0,1,.42-.42l5.97.09a.5141.5141,0,0,1,.45.48v.93a8.453,8.453,0,0,1,3.84-.84c4.44,0,7.2895,2.04,7.2895,10.68A62.2694,62.2694,0,0,1,137.7349,118.81Z"/><path class="c" d="M156.0049,112.57c-.45,2.7-2.31,6.63-7.35,6.63-5.3994,0-9.0894-3.12-9.0894-8.73,0-6.18,3.69-9.9,8.2495-9.9,4.23,0,7.68,2.4,7.68,7.14a5.5415,5.5415,0,0,1-.09,1.2,1.0021,1.0021,0,0,1-1.14.75l-4.0195-.15c-.66-.03-.72-.39-.72-.93a1.6857,1.6857,0,0,0-1.68-1.8c-1.23,0-2.34,1.44-2.34,3.96,0,2.7,1.62,3.45,2.79,3.45a1.8388,1.8388,0,0,0,1.92-1.56c.09-.3.27-.42.66-.42,3.15-.09,4.62-.15,4.68-.15.3,0,.45.12.45.39Z"/><path class="c" d="M169.5347,106.9a.4045.4045,0,0,1-.39.42l-2.16-.03a.4359.4359,0,0,0-.45.42l-.63,10.9493a.4227.4227,0,0,1-.42.39h-.03l-5.25-.33a.4242.4242,0,0,1-.39-.42v-.03l.24-10.62v-.03a.4782.4782,0,0,0-.42-.42h-1.8a.4812.4812,0,0,1-.45-.42l-.27-4.92v-.03a.3975.3975,0,0,1,.39-.39l2.22.03a.4105.4105,0,0,0,.42-.42l.12-5.58a.41.41,0,0,1,.42-.42l6.06.06a.4042.4042,0,0,1,.39.42l-.3,5.61v.03a.4041.4041,0,0,0,.39.42l1.86.03a.41.41,0,0,1,.42.42Z"/><path class="c" d="M178.7446,118.48a.4291.4291,0,0,1-.42.42h-.03l-5.43-.15a.489.489,0,0,1-.48-.45l-.39-14.73a.41.41,0,0,1,.42-.42l6.27.09a.4615.4615,0,0,1,.45.45Zm-2.49-16.6494a3.619,3.619,0,1,1,3.45-3.63A3.5255,3.5255,0,0,1,176.2549,101.8306Z"/><path class="c" d="M190.1743,119.2a8.616,8.616,0,0,1-8.8794-8.97c0-5.82,3.21-9.33,8.3994-9.33,4.8,0,8.28,3.15,8.28,9.33C197.9741,115.9,194.7041,119.2,190.1743,119.2Zm-.6-11.64c-1.4995,0-2.28,1.23-2.28,2.82a2.3938,2.3938,0,0,0,2.37,2.58c1.32,0,2.16-1.11,2.16-2.76A2.414,2.414,0,0,0,189.5742,107.56Z"/><path class="c" d="M217.3838,118.81a.3663.3663,0,0,1-.39.3h-.03l-6.03-.42a.2366.2366,0,0,1-.24-.24v-.03a36.2121,36.2121,0,0,0,.18-4.77c0-5.43-.21-7.41-2.19-7.41-1.53,0-2.22.99-2.19,3.48l.03,8.49a.4359.4359,0,0,1-.42.45l-5.61-.15a.4615.4615,0,0,1-.45-.45l-.42-16.7393v-.03a.41.41,0,0,1,.42-.42l5.97.09a.5143.5143,0,0,1,.45.48v.93a8.4526,8.4526,0,0,1,3.84-.84c4.44,0,7.29,2.04,7.29,10.68A62.2569,62.2569,0,0,1,217.3838,118.81Z"/><path class="c" d="M236.1636,118.18a.5766.5766,0,0,1-.51.54l-4.92.24h-.03a.4892.4892,0,0,1-.48-.45l-.03-1.62a5.1714,5.1714,0,0,1-3.78,1.47c-4.5,0-7.47-3.33-7.47-8.61,0-4.98,3.57-8.2793,7.56-8.2793a7.1919,7.1919,0,0,1,3.69,1.08l-.03-.78a.52.52,0,0,1,.48-.51l5.64-.09a.4739.4739,0,0,1,.48.48Zm-5.97-9.2393a2.2333,2.2333,0,0,0-2.19-1.74c-1.44,0-2.43,1.17-2.43,2.85a2.4614,2.4614,0,0,0,2.4,2.67,2.5457,2.5457,0,0,0,2.22-2.37Z"/><path class="c" d="M245.6738,118.48a.41.41,0,0,1-.42.42h-.03l-5.22-.15a.4614.4614,0,0,1-.45-.45l-.36-22.8589v-.03a.41.41,0,0,1,.42-.42l6.06.09a.4613.4613,0,0,1,.45.45Z"/></svg>