<svg xmlns="https://www.w3.org/2000/svg" viewBox="0 0 1000 240"><defs><style>.\33 cf4931a-4048-42c7-90d9-e53cf26ed69a{fill:#c34317;}.\34 a88c8d9-07ca-447d-8f15-1e1019b3a7c5{fill:#8ad22e;}.d70ed1bf-601a-476d-b398-6e18e80a376c{fill:#144b0d;}.\39 0c05c27-eaab-40c0-9328-961b5f05e161{fill:#f2f2f2;}.\32 6917167-e3de-4beb-b315-f5521ab14289,.\39 c2a5672-3ae5-4149-8ac5-bc1f32b738b8{stroke:#000;stroke-miterlimit:10;}.\39 c2a5672-3ae5-4149-8ac5-bc1f32b738b8{stroke-width:1.24px;}.\32 6917167-e3de-4beb-b315-f5521ab14289{stroke-width:1.28px;}.\39 f292107-42f8-421c-8289-7a9dd3e47683{fill:#7b0004;}</style></defs><title>BeamgunAppBannerAlert</title><g id="64ebbce1-86b1-4937-a0f6-8561927b95dd" data-name="Dog Ears"><path class="3cf4931a-4048-42c7-90d9-e53cf26ed69a" d="M335.1,160.39a2.66,2.66,0,0,1-.81-2v-58a2.71,2.71,0,0,1,.81-1.91,2.59,2.59,0,0,1,2-.86h47.43a2.95,2.95,0,0,1,2.76,2.76v5.14a2.55,2.55,0,0,0,.81,1.86,2.66,2.66,0,0,0,2,.81h5a2.65,2.65,0,0,1,1.9.85,2.6,2.6,0,0,1,.86,1.89v5.1A2.6,2.6,0,0,1,397,118a2.65,2.65,0,0,1-1.9.85h-5a2.65,2.65,0,0,0-2,.82,2.59,2.59,0,0,0-.81,1.87v5.19a2.75,2.75,0,0,0,.81,1.92,2.57,2.57,0,0,0,2,.86h5a2.72,2.72,0,0,1,1.9.81,2.59,2.59,0,0,1,.86,2v15.62a2.58,2.58,0,0,1-.86,2,2.71,2.71,0,0,1-1.9.81h-5a2.76,2.76,0,0,0-2.76,2.76v5a2.59,2.59,0,0,1-.86,2,2.71,2.71,0,0,1-1.9.81H337A2.66,2.66,0,0,1,335.1,160.39Zm38.81-41.57a2.65,2.65,0,0,0,1.91-.85,2.6,2.6,0,0,0,.86-1.89V111a2.61,2.61,0,0,0-.86-1.89,2.66,2.66,0,0,0-1.91-.85H358.19a2.66,2.66,0,0,0-1.91.85,2.61,2.61,0,0,0-.86,1.89v5.1a2.6,2.6,0,0,0,.86,1.89,2.65,2.65,0,0,0,1.91.85Zm0,31.81a2.71,2.71,0,0,0,1.91-.81,2.59,2.59,0,0,0,.86-2V132.24a2.59,2.59,0,0,0-.86-2,2.72,2.72,0,0,0-1.91-.81H358.19a2.72,2.72,0,0,0-1.91.81,2.59,2.59,0,0,0-.86,2v15.62a2.59,2.59,0,0,0,.86,2,2.71,2.71,0,0,0,1.91.81Z"/><path class="3cf4931a-4048-42c7-90d9-e53cf26ed69a" d="M430.38,160.39a2.59,2.59,0,0,1-.86-2v-5a2.76,2.76,0,0,0-2.76-2.76h-5a2.77,2.77,0,0,1-2.76-2.77V121.49a2.56,2.56,0,0,1,.81-1.86,2.65,2.65,0,0,1,2-.81h5a2.6,2.6,0,0,0,2-.85,2.68,2.68,0,0,0,.81-1.89V111a2.61,2.61,0,0,1,.86-1.89,2.65,2.65,0,0,1,1.91-.85h36.86a2.66,2.66,0,0,1,1.9.85,2.61,2.61,0,0,1,.86,1.89v5.1a2.67,2.67,0,0,0,.81,1.89,2.6,2.6,0,0,0,2,.85h5a2.71,2.71,0,0,1,1.9.81,2.5,2.5,0,0,1,.86,1.86v15.79a3,3,0,0,1-2.76,2.77H442.86a2.72,2.72,0,0,0-1.91.81,2.59,2.59,0,0,0-.86,2v5a2.59,2.59,0,0,0,.86,2,2.71,2.71,0,0,0,1.91.81h26.29a2.72,2.72,0,0,1,1.9.81,2.59,2.59,0,0,1,.86,2v5a2.59,2.59,0,0,1-.86,2,2.71,2.71,0,0,1-1.9.81H432.29A2.71,2.71,0,0,1,430.38,160.39Zm28.19-30.91a2.63,2.63,0,0,0,1.91-.86,2.67,2.67,0,0,0,.86-1.92V121.5a2.52,2.52,0,0,0-.86-1.87,2.71,2.71,0,0,0-1.91-.82H442.86a2.71,2.71,0,0,0-1.91.82,2.52,2.52,0,0,0-.86,1.87v5.19a2.67,2.67,0,0,0,.86,1.92,2.63,2.63,0,0,0,1.91.86Z"/><path class="3cf4931a-4048-42c7-90d9-e53cf26ed69a" d="M515,160.39a2.59,2.59,0,0,1-.86-2v-5a2.76,2.76,0,0,0-2.76-2.76h-5a2.76,2.76,0,0,1-2.76-2.76v-5a2.76,2.76,0,0,1,2.76-2.76h5a2.59,2.59,0,0,0,2-.86,2.71,2.71,0,0,0,.81-1.91v-5a2.59,2.59,0,0,1,.86-2,2.72,2.72,0,0,1,1.91-.81h26.29a2.63,2.63,0,0,0,1.91-.86,2.67,2.67,0,0,0,.86-1.92V121.5a2.52,2.52,0,0,0-.86-1.87,2.71,2.71,0,0,0-1.91-.82H517A2.65,2.65,0,0,1,515,118a2.6,2.6,0,0,1-.86-1.89V111a2.61,2.61,0,0,1,.86-1.89,2.65,2.65,0,0,1,1.91-.85h36.86a2.66,2.66,0,0,1,1.9.85,2.61,2.61,0,0,1,.86,1.89v5.1a2.67,2.67,0,0,0,.81,1.89,2.6,2.6,0,0,0,2,.85h5a2.71,2.71,0,0,1,1.9.81,2.5,2.5,0,0,1,.86,1.86v36.94a2.59,2.59,0,0,1-.86,2,2.71,2.71,0,0,1-1.9.81H517A2.71,2.71,0,0,1,515,160.39Zm28.19-9.76a2.71,2.71,0,0,0,1.91-.81,2.59,2.59,0,0,0,.86-2v-5a2.59,2.59,0,0,0-.86-2,2.72,2.72,0,0,0-1.91-.81H527.53a2.72,2.72,0,0,0-1.91.81,2.59,2.59,0,0,0-.86,2v5a2.59,2.59,0,0,0,.86,2,2.71,2.71,0,0,0,1.91.81Z"/><path class="3cf4931a-4048-42c7-90d9-e53cf26ed69a" d="M589.1,160.39a2.66,2.66,0,0,1-.81-2V111a2.71,2.71,0,0,1,.81-1.91,2.59,2.59,0,0,1,2-.86h15.62a2.6,2.6,0,0,1,2,.85,2.68,2.68,0,0,1,.81,1.89v5.1a2.6,2.6,0,0,0,.86,1.89,2.65,2.65,0,0,0,1.91.85h5.14a2.5,2.5,0,0,0,1.86-.85,2.68,2.68,0,0,0,.81-1.89V111a2.6,2.6,0,0,1,.86-1.89,2.65,2.65,0,0,1,1.9-.85h26.29a2.65,2.65,0,0,1,1.9.85,2.6,2.6,0,0,1,.86,1.89v5.1a2.67,2.67,0,0,0,.81,1.89,2.6,2.6,0,0,0,2,.85h5a2.6,2.6,0,0,0,2-.85,2.68,2.68,0,0,0,.81-1.89V111a2.68,2.68,0,0,1,.81-1.89,2.6,2.6,0,0,1,2-.85h26.19a2.59,2.59,0,0,1,2,.86,2.72,2.72,0,0,1,.81,1.91v47.43a2.76,2.76,0,0,1-2.76,2.76H675.72a2.76,2.76,0,0,1-2.76-2.77V121.49a2.57,2.57,0,0,0-.81-1.86,2.66,2.66,0,0,0-2-.81h-5a2.66,2.66,0,0,0-2,.81,2.55,2.55,0,0,0-.81,1.86v5.14a2.71,2.71,0,0,1-.81,1.9,2.59,2.59,0,0,1-2,.86h-5a2.77,2.77,0,0,0-2.76,2.77v26.27a2.6,2.6,0,0,1-.86,2,2.71,2.71,0,0,1-1.9.81H633.34a2.54,2.54,0,0,1-1.86-.81,2.66,2.66,0,0,1-.81-2V121.49a2.5,2.5,0,0,0-.86-1.86,2.71,2.71,0,0,0-1.91-.81h-5.14a2.71,2.71,0,0,0-1.9.81,2.49,2.49,0,0,0-.86,1.86v5.14a2.71,2.71,0,0,1-.81,1.9,2.49,2.49,0,0,1-1.86.86h-5.14a2.71,2.71,0,0,0-1.91.81,2.6,2.6,0,0,0-.86,2v26.27a2.77,2.77,0,0,1-2.76,2.77H591A2.66,2.66,0,0,1,589.1,160.39Z"/><path class="3cf4931a-4048-42c7-90d9-e53cf26ed69a" d="M726.67,181.53a2.59,2.59,0,0,1-.86-2v-5a2.59,2.59,0,0,1,.86-2,2.71,2.71,0,0,1,1.91-.81h26.29a2.72,2.72,0,0,0,1.91-.81,2.59,2.59,0,0,0,.86-2v-5a2.59,2.59,0,0,0-.86-2,2.71,2.71,0,0,0-1.91-.81H728.57a2.71,2.71,0,0,1-1.91-.81,2.59,2.59,0,0,1-.86-2v-5a2.76,2.76,0,0,0-2.76-2.76h-5a2.77,2.77,0,0,1-2.76-2.77V121.49a2.56,2.56,0,0,1,.81-1.86,2.65,2.65,0,0,1,2-.81h5a2.6,2.6,0,0,0,2-.85,2.68,2.68,0,0,0,.81-1.89V111a2.61,2.61,0,0,1,.86-1.89,2.65,2.65,0,0,1,1.91-.85h58a2.6,2.6,0,0,1,2,.85,2.68,2.68,0,0,1,.81,1.89v5.1a2.68,2.68,0,0,1-.81,1.89,2.6,2.6,0,0,1-2,.85H771a2.66,2.66,0,0,0-2,.81,2.56,2.56,0,0,0-.81,1.86v5.15a2.72,2.72,0,0,0,.81,1.91,2.58,2.58,0,0,0,2,.86h5a2.71,2.71,0,0,1,1.9.81,2.6,2.6,0,0,1,.86,2V169a2.6,2.6,0,0,1-.86,2,2.71,2.71,0,0,1-1.9.81h-5a2.76,2.76,0,0,0-2.76,2.76v5a2.59,2.59,0,0,1-.86,2,2.72,2.72,0,0,1-1.9.81H728.57A2.71,2.71,0,0,1,726.67,181.53Zm28.19-30.9a2.71,2.71,0,0,0,1.91-.81,2.6,2.6,0,0,0,.86-2V121.49a2.5,2.5,0,0,0-.86-1.86,2.71,2.71,0,0,0-1.91-.81H739.15a2.71,2.71,0,0,0-1.91.81,2.5,2.5,0,0,0-.86,1.86v26.36a2.6,2.6,0,0,0,.86,2,2.71,2.71,0,0,0,1.91.81Z"/><path class="3cf4931a-4048-42c7-90d9-e53cf26ed69a" d="M811.34,160.39a2.59,2.59,0,0,1-.86-2v-5a2.76,2.76,0,0,0-2.76-2.76h-5a2.76,2.76,0,0,1-2.76-2.76V111a2.71,2.71,0,0,1,.81-1.91,2.59,2.59,0,0,1,2-.86h15.62a2.59,2.59,0,0,1,2,.86,2.72,2.72,0,0,1,.81,1.91v36.86a2.59,2.59,0,0,0,.86,2,2.71,2.71,0,0,0,1.91.81h15.71a2.71,2.71,0,0,0,1.91-.81,2.59,2.59,0,0,0,.86-2V111a2.71,2.71,0,0,1,.81-1.91,2.48,2.48,0,0,1,1.86-.86h15.71a2.94,2.94,0,0,1,2.76,2.76v36.86a2.58,2.58,0,0,1-.86,2,2.71,2.71,0,0,1-1.9.81h-5a2.76,2.76,0,0,0-2.76,2.76v5a2.59,2.59,0,0,1-.86,2,2.71,2.71,0,0,1-1.9.81H813.24A2.71,2.71,0,0,1,811.34,160.39Z"/><path class="3cf4931a-4048-42c7-90d9-e53cf26ed69a" d="M885.38,160.39a2.66,2.66,0,0,1-.81-2V111a2.71,2.71,0,0,1,.81-1.91,2.59,2.59,0,0,1,2-.86H903a2.6,2.6,0,0,1,2,.85,2.68,2.68,0,0,1,.81,1.89v5.1a2.6,2.6,0,0,0,.86,1.89,2.65,2.65,0,0,0,1.91.85h5.14a2.5,2.5,0,0,0,1.86-.85,2.68,2.68,0,0,0,.81-1.89V111a2.6,2.6,0,0,1,.86-1.89,2.65,2.65,0,0,1,1.9-.85h26.29A2.94,2.94,0,0,1,948.1,111v47.43a2.58,2.58,0,0,1-.86,2,2.71,2.71,0,0,1-1.9.81H929.62a2.54,2.54,0,0,1-1.86-.81,2.66,2.66,0,0,1-.81-2V121.49a2.5,2.5,0,0,0-.86-1.86,2.71,2.71,0,0,0-1.91-.81H919a2.71,2.71,0,0,0-1.9.81,2.49,2.49,0,0,0-.86,1.86v5.14a2.71,2.71,0,0,1-.81,1.9,2.49,2.49,0,0,1-1.86.86h-5.14a2.71,2.71,0,0,0-1.91.81,2.6,2.6,0,0,0-.86,2v26.27a2.77,2.77,0,0,1-2.76,2.77H887.33A2.66,2.66,0,0,1,885.38,160.39Z"/></g><g id="dc694f43-ddd1-4ca8-bb4a-4bc68cf57607" data-name="Turtle Draw"><path class="4a88c8d9-07ca-447d-8f15-1e1019b3a7c5" d="M164.54,13c-2.79,0-7.23,1.16-10.92,2.27a32,32,0,0,0-9.81,4.39c-2.92,2.12-8,4.6-10.25,7.46a37,37,0,0,0-6,10.41c-.87,2.38-.44,5.6-1.32,8A46.82,46.82,0,0,0,124,54.76c-.53,3.3.45,6.69.06,10-.43,3.65-2.48,7-2.73,10.64s1.26,7.05,2.81,10.3A31.52,31.52,0,0,0,128,92.28c3.09,3.77,7.64,6,12.15,7.85,6.23,2.55,10.59,4.63,16,11.27a7,7,0,0,0,2.86,1.8c.84.34,2.46.39,3.14,1,1.86,1.55-.83,5-2.17,6-2.08,1.47-4.68,2-6.88,3.32-2.49,1.45-4.37,3.73-6.2,6l-7.27,8.91c-.58.7-3.38,4.18-3.59,5.33-1.3,7.08-.33,14.29,1.38,21,.7,2.76,2.36,5.31,2.34,8.16,0,.91-.19,1.82-.11,2.73.23,2.51,2.35,4.35,4.08,6.19,7.18,7.65,9,19.2,7,29.48-.83,4.06-2.21,8-2.42,12.19a6.55,6.55,0,0,0,.29,2.67,6,6,0,0,0,1.69,2.24c5.23,4.71,13.09,4.69,20.09,3.92,5.59-.61,11.26-1.57,16.26-4.15a3.13,3.13,0,0,0,1.76-1.68,3.26,3.26,0,0,0-.2-1.85c-1.89-6-4.17-12-4.93-18.33s.21-13.1,4.2-18c1.29-1.6,2.86-2.95,4.24-4.48,4.53-5,6.77-11.8,7.46-18.54s0-13.53-.76-20.27a11.14,11.14,0,0,0-1-4.15,14.35,14.35,0,0,0-2.87-3.23C190,133.11,187,126.89,181.43,124c-2.15-1.1-4.58-1.64-6.53-3.06a5.7,5.7,0,0,1-2.49-4.65c.15-2.27,2.7-2.28,4.44-3.1,2.58-1.21,5.83-3,7.56-5.34,4.9-6.7,12.87-6.11,17.91-9.8,5.48-4,10.24-9.37,12.06-15.91,1.14-4.09,1.06-8.76-1.33-12.27-1-1.43-2.31-2.66-2.85-4.3-.64-2,0-4.06.34-6.08,1.71-9.93-3.44-19.62-8.42-28.39a34.69,34.69,0,0,0-4.37-6.5,26,26,0,0,0-6.31-4.79A51.78,51.78,0,0,0,164.54,13"/><path class="d70ed1bf-601a-476d-b398-6e18e80a376c" d="M164.54,11.58c-10.19.51-19.24,5.09-27.48,10.73a26.09,26.09,0,0,0-7.77,8.44c-2.73,4.45-3.07,8.22-4.06,13.13s-2.91,9.17-2.79,14.2c.07,3.26.42,6.11-.44,9.37-.64,2.42-1.71,4.67-2,7.18-1,9.06,5.9,19.58,13.52,24,4,2.31,8.53,3.59,12.55,5.89a29.65,29.65,0,0,1,6.26,4.81c1.63,1.63,2.87,3.6,4.94,4.7,2.32,1.24,4.34,1.69,2.36,4.58-1.24,1.82-5.3,2.5-7.23,3.64-4.44,2.62-7.54,7.47-10.73,11.38-2.11,2.59-5.2,5.59-6.61,8.71-2,4.47-1.13,10.8-.46,15.49.81,5.61,3,10.82,3.66,16.37.53,4.53,2.61,6.19,5.47,9.68A29.83,29.83,0,0,1,150,200.67c.48,6.55-1.54,12.45-2.66,18.8-.6,3.39-1,6.61,1.43,9.31,2.76,3,7,4.4,10.89,4.95a51.44,51.44,0,0,0,14.45-.57c4.32-.64,10.92-1.43,14.32-4.55,2.49-2.29,1-5,.09-7.77-2-6.28-4.27-12.73-4-19.43.24-7,3.14-11.22,7.71-16.14a31,31,0,0,0,6.83-12,48.65,48.65,0,0,0,1.84-15.44c-.11-5.22.14-11.86-1.81-16.78-1.39-3.5-5-6.05-7.36-9-3.2-4-6.15-7.66-10.86-9.9-2.65-1.26-8.75-3.73-4.54-7.22,1.23-1,3.38-1.49,4.78-2.36,4.24-2.66,6.6-6.94,11.4-8.91,4.29-1.76,8.38-2.63,12.1-5.54a32.82,32.82,0,0,0,10-12.32c1.94-4.41,2.74-9.63.93-14.22C214.65,69.46,212.93,68,212,66c-1.38-2.86.47-8.52.31-11.76-.28-5.6-2.26-10.92-4.66-15.93-2.61-5.44-5.5-11.69-10-15.87-8.5-8-21.8-11-33.09-10.9a1.44,1.44,0,0,0,0,2.87c10.81-.08,24.54,2.82,32.18,11.18,3.58,3.91,6.13,9.43,8.4,14.17,2.67,5.56,4.8,11.69,4.2,18-.41,4.2-1.59,7,.88,10.79,3.76,5.7,4.42,10.93,1.22,17.23a30.2,30.2,0,0,1-10.82,11.7c-3.2,1.93-7.06,2.51-10.44,4.08-4,1.88-5.93,5.24-9.38,7.79-2.51,1.85-6.37,2.25-8.57,4.31-5.81,5.46,5.39,9.93,8.49,11.59,4.26,2.29,6.89,6.37,9.88,10,1.25,1.51,2.71,2.81,4,4.28,2.73,3.14,2.61,6.95,3,10.88,1,11,.92,23.45-6.85,32.27-2.65,3-5.4,5.37-7.05,9.12a27.3,27.3,0,0,0-2,12.81,59.49,59.49,0,0,0,3,13.7c.53,1.69,2.3,4.83,2.13,6.59-.3,3.11-6,4-8.47,4.57a57.93,57.93,0,0,1-15.64,1.64,23.15,23.15,0,0,1-7-1.25c-5.43-2-6.33-6.1-5.25-11.38,1.8-8.73,3.63-16.75,1.09-25.6a30.51,30.51,0,0,0-4.87-9.92c-1.37-1.83-3.64-3.47-4.72-5.45-1.34-2.44-.59-5.76-1.4-8.43-1.6-5.26-3.19-10.12-3.55-15.7-.17-2.67-.51-6.81.44-9.37a18.79,18.79,0,0,1,3.22-4.7c3.12-3.92,6.19-8,9.62-11.65,3.29-3.49,8-3.92,11.36-7.08,1.44-1.36,3-3.77,2.46-5.85-.84-3-4.87-2.62-6.94-4.36-3.56-3-6-6.41-10.23-8.71s-9.22-3.69-13.39-6.42c-5.24-3.44-9.5-10.5-10.59-16.69-1-5.81,2.71-11.24,2.55-17.14a39.4,39.4,0,0,1,.41-9.45c.5-2.51,1.52-4.85,2-7.34.47-2.23.3-4.53,1-6.72a29.36,29.36,0,0,1,4.45-8.2c3.16-4.34,8.44-7.38,13.07-10a43.59,43.59,0,0,1,18.06-5.23c1.84-.09,1.85-3,0-2.87Z"/><path class="d70ed1bf-601a-476d-b398-6e18e80a376c" d="M138.63,169.54c4.88,4.34,8.57,9.2,12.47,14.4,3.24,4.32,7.9,7.55,10.36,12.42a.72.72,0,0,0,1,.26,41.45,41.45,0,0,0,11-11.8c2.07-3.39,2.5-7.31-.4-10.31-1.62-1.67-3.91-2.54-5.81-3.8-3.22-2.15-5.83-5.14-8.51-7.9-4.31-4.43-7.57-8.27-9.65-14.15-.31-.86-1.69-.49-1.38.38a35.12,35.12,0,0,0,8.76,13.48c2.8,2.88,5.5,6.07,8.73,8.48,1.55,1.16,3.28,2,4.88,3,4.38,2.92,4,7.43,1.27,11.21-1.3,1.79-6.82,9.7-9.23,9.12-.4-.09-2.21-3-2.69-3.54-1.13-1.26-2.39-2.39-3.57-3.6-5.84-6-9.81-13.07-16.15-18.7-.69-.61-1.71.4-1,1Z"/><path class="d70ed1bf-601a-476d-b398-6e18e80a376c" d="M166.9,171.92c12.23-.87,19-17.36,21.38-27.64.21-.9-1.17-1.28-1.38-.38-2.24,9.6-8.71,25.79-20,26.59-.92.07-.92,1.5,0,1.44Z"/><path class="d70ed1bf-601a-476d-b398-6e18e80a376c" d="M167.17,191l6.5,6.48a.73.73,0,0,0,1,0c7-6.1,11.93-14.95,17-22.59a48.86,48.86,0,0,0,7.73-25.73c0-.92-1.41-.92-1.44,0a59.44,59.44,0,0,1-2.75,15.64c-1.69,5.33-5,9.71-8.13,14.27-3,4.35-5.84,8.9-9.18,13-1.36,1.66-2.33,3.64-4.61,3.1-1.45-.35-4.09-4.08-5.18-5.16a.72.72,0,0,0-1,1Z"/><path class="d70ed1bf-601a-476d-b398-6e18e80a376c" d="M165.2,193.16c5.32,5.55,4.77,13.17,5.32,20.35.46,6.12,1.14,12.3,1.2,18.44a.72.72,0,0,0,1.44,0c-.08-8-1-16.14-1.63-24.16-.47-6.14-.85-11-5.3-15.65-.64-.67-1.65.35-1,1Z"/><path class="90c05c27-eaab-40c0-9328-961b5f05e161" d="M138.68,72.13c-3,.92-5.91-1.47-8.41-3.29a37.44,37.44,0,0,1-7.16-6.45,17.47,17.47,0,0,1-4-8.67c-.51-4,.76-8,2.26-11.76a91.88,91.88,0,0,1,6.76-13.52A19.9,19.9,0,0,1,132.5,23a22.28,22.28,0,0,1,5-2.72c3.26-1.45,6.94-2.91,10.28-1.68A9.34,9.34,0,0,1,153,24.51a26.29,26.29,0,0,1,1.05,8c.21,9.32-.07,19.11-4.7,27.21A50,50,0,0,1,139.06,71.9,2.56,2.56,0,0,1,138.68,72.13Z"/><path d="M138.18,70.34c-4.63.64-10.94-5.85-13.58-9.11-4-4.95-4.34-10.42-2.33-16.32,3.2-9.38,7.87-19.85,17.58-23.58,4.11-1.58,8.51-1.57,10.83,2.67,1.28,2.32,1.37,5.14,1.46,7.74a83.08,83.08,0,0,1-.56,15.2,34.34,34.34,0,0,1-4.68,13.25c-2,3.2-5.67,8.46-9.16,10.34-2.1,1.13-.23,4.34,1.87,3.2,4.56-2.45,8.81-8.62,11.32-13,3.43-6,4.6-13,4.91-19.85.28-6.19,1-14.24-2.45-19.73s-9.31-5.43-14.77-3.31A23.5,23.5,0,0,0,125.69,29c-3.62,6.2-7.6,13.6-8.39,20.85-.69,6.34,2.22,11.91,6.67,16.26,4,3.87,9.35,8.66,15.19,7.86C141.52,73.59,140.52,70,138.18,70.34Z"/><path class="90c05c27-eaab-40c0-9328-961b5f05e161" d="M193.89,73.9c-1.9.06-3.33-1.12-4.78-2.34a22.72,22.72,0,0,1-5.18-5.67,20.73,20.73,0,0,1-2-4.94,63.42,63.42,0,0,1-.61-32.12,26.1,26.1,0,0,1,2.53-4.94,10,10,0,0,1,6-4.11,8.37,8.37,0,0,1,3.82-.38c2.21.4,3.91,2.13,5.44,3.78l7.93,8.47a24.41,24.41,0,0,1,4.3,5.59,19.49,19.49,0,0,1,1.59,9.1,47.67,47.67,0,0,1-3.32,16.55,12.6,12.6,0,0,1-2.39,4.16A14.65,14.65,0,0,1,203,69.94S196.37,73.82,193.89,73.9Z"/><path d="M193.89,72c-5.74-.71-9.38-8.66-10.56-13.34a60,60,0,0,1-1.8-16.35c.14-5.1.33-11.68,3.21-16.09,1.67-2.57,4.34-5.06,7.67-5,3.12.09,5.43,3.37,7.35,5.42,3.31,3.54,7.8,7.15,9.94,11.55,2.47,5.07,1.37,12.45.12,17.7-1.3,5.45-3,9.78-8.12,12.55-2.62,1.42-5.33,3.18-8.32,3.59-2.44.33-1.4,4,1,3.71,4.06-.55,9.23-3.46,12.53-5.91,5.22-3.87,6.7-11.86,7.51-17.92.86-6.45.83-13-3.22-18.43a111.84,111.84,0,0,0-8.08-8.85c-2.11-2.25-4.31-5.21-7.21-6.51-4.25-1.91-10,.21-12.85,3.6-4.51,5.3-5.12,13-5.38,19.67-.31,7.66.48,16.3,3.56,23.41,2.14,4.93,7.11,10.32,12.63,11C196.34,76.13,196.32,72.28,193.89,72Z"/><ellipse class="9c2a5672-3ae5-4149-8ac5-bc1f32b738b8" cx="139.28" cy="47.17" rx="4.71" ry="6.58"/><ellipse class="26917167-e3de-4beb-b315-f5521ab14289" cx="195.38" cy="48.5" rx="4.89" ry="6.82"/><path d="M161.08,85.94a34.6,34.6,0,0,1-1.88,4.42,2.2,2.2,0,0,0,.77,2.95,2.18,2.18,0,0,0,2.95-.77,42.85,42.85,0,0,0,2.31-5.45,2.15,2.15,0,0,0-4.15-1.14Z"/><path d="M169.11,88.42c.74,1.21,1.52,2.38,2.36,3.52a2.22,2.22,0,0,0,2.95.77,2.17,2.17,0,0,0,.77-2.95c-.84-1.14-1.62-2.31-2.36-3.52a2.15,2.15,0,1,0-3.72,2.17Z"/><path class="9f292107-42f8-421c-8289-7a9dd3e47683" d="M154.08,105.53c1.57-3.06,6.12-4.92,9.53-5.35a29.63,29.63,0,0,1,11.07.72c3,.76,5.95,2.12,7.62,4.67a86.94,86.94,0,0,0-14.16-2.15,33,33,0,0,0-14.06,2.12"/><path class="9f292107-42f8-421c-8289-7a9dd3e47683" d="M155.09,106.13c5-7.81,21.16-6.25,26.37.28l1.15-2c-9.63-2-19.37-3.55-28.85,0-1.41.52-.8,2.8.63,2.27,9.13-3.38,18.32-1.92,27.59,0a1.19,1.19,0,0,0,1.15-2c-6.31-7.9-24.23-8.86-30.07.2-.82,1.28,1.22,2.46,2,1.19Z"/><path d="M149,169.5a36.06,36.06,0,0,0,3.54-2.93c.67-.64-.34-1.65-1-1a33.18,33.18,0,0,1-3.25,2.71c-.74.54,0,1.78.72,1.24Z"/><path d="M144.86,166.16a6.49,6.49,0,0,1,2.77-2.83c.82-.43.09-1.67-.72-1.24a7.81,7.81,0,0,0-3.29,3.34c-.42.82.82,1.55,1.24.72Z"/><path d="M183,165.63l3.8,3.11c.71.58,1.73-.43,1-1l-3.8-3.11c-.71-.58-1.73.43-1,1Z"/><path d="M185,162.57a5.58,5.58,0,0,1,5.71,3.21c.39.83,1.63.11,1.24-.72a7,7,0,0,0-7-3.92c-.91.09-.92,1.53,0,1.44Z"/><path d="M161.56,202.87a18.54,18.54,0,0,0,4.19,0c.91-.11.92-1.55,0-1.44a18.54,18.54,0,0,1-4.19,0c-.92-.1-.91,1.34,0,1.44Z"/><path d="M159.58,200.42a10.35,10.35,0,0,1,3.81-2.08A.72.72,0,0,0,163,197a12.08,12.08,0,0,0-4.45,2.45c-.7.6.32,1.62,1,1Z"/><path d="M171.59,202.79a25.15,25.15,0,0,1,3.29.61.72.72,0,0,0,.38-1.38,28,28,0,0,0-3.67-.66c-.92-.11-.91,1.33,0,1.44Z"/><path d="M171.24,198.92a7.38,7.38,0,0,1,5.77,2.74c.59.71,1.6-.31,1-1a8.76,8.76,0,0,0-6.78-3.16.72.72,0,0,0,0,1.44Z"/><path class="90c05c27-eaab-40c0-9328-961b5f05e161" d="M154,231.31a18.46,18.46,0,0,1,1.94-4.66,11.72,11.72,0,0,1,2-2.87,4.65,4.65,0,0,1,3.14-1.41,2.94,2.94,0,0,1,2.77,1.81,5.07,5.07,0,0,1,.19,1.62,46.42,46.42,0,0,0,.6,7.12c-.28-2.8-.47-5.54,1-7.91a2.7,2.7,0,0,1,1.85-1.4,2.76,2.76,0,0,1,2.3,1.3,6.92,6.92,0,0,1,1.26,2.73c.36,1.67.12,3.52,1,5a37.59,37.59,0,0,1-18.1-1.31"/><path d="M154.48,231.45a19.94,19.94,0,0,1,1.88-4.54,12.31,12.31,0,0,1,1.94-2.76q5.41-1,5.2,2.25c.49,2.05.28,4.53.6,6.66.09.59,1.11.46,1.06-.14-.17-1.82.13-12.65,4.73-6.9.3.37,1.74,5.34,1.3,6-1,1.39-6.73.68-8.25.57a42.21,42.21,0,0,1-8.84-1.75.54.54,0,0,0-.29,1,40.23,40.23,0,0,0,18.39,1.31c.38-.06.45-.51.32-.79-1-2.33-.62-9.76-5.09-9.27-4,.44-3.59,7.22-3.35,9.84l1.06-.14c-.46-3.11.92-10.68-3.93-10.93-4.44-.23-6.79,5.93-7.77,9.32a.54.54,0,0,0,1,.29Z"/><path class="90c05c27-eaab-40c0-9328-961b5f05e161" d="M172.22,232.73a20.29,20.29,0,0,0,.52-8.72,1.62,1.62,0,0,1,0-.74,1.26,1.26,0,0,1,.89-.73c1.71-.53,3.53.5,4.73,1.82a9.85,9.85,0,0,1,2.28,4.38,2.46,2.46,0,0,1-.43,2.42,2.65,2.65,0,0,1-1.4.5,34.66,34.66,0,0,1-4.12.35,3.35,3.35,0,0,0-2.48.71"/><path d="M172.74,232.87a21,21,0,0,0,.77-6.53,14.42,14.42,0,0,1-.13-1.68,1.14,1.14,0,0,1,.19-.87q-.07-1.06.92-.76c1.62-.43,3.36,1.41,4.18,2.58a8.77,8.77,0,0,1,1.45,3.27c.44,2.28-1.76,2.34-3.36,2.48s-3.52-.15-4.92,1c-.54.44.23,1.19.76.76,2.11-1.7,6.9.63,8.41-2.13,1.2-2.2-1-5.71-2.49-7.21-1.23-1.24-4.42-3-6-1.21-.77.9-.2,2.41-.14,3.45a19.93,19.93,0,0,1-.71,6.58.54.54,0,0,0,1,.29Z"/><path class="90c05c27-eaab-40c0-9328-961b5f05e161" d="M167.65,191.24a14.36,14.36,0,0,1-3.32,3,11.9,11.9,0,0,0-2.12,2.18c-1-.68-1.41-1.91-2.16-2.84a18.34,18.34,0,0,1-2-2.25,6.13,6.13,0,0,1-.54-1.56,6,6,0,0,1-.2-1.1,3.77,3.77,0,0,1,.27-1.55,3,3,0,0,1,1.38-1.66,3.1,3.1,0,0,1,2.89.3,14.71,14.71,0,0,1,2.3,2,30.9,30.9,0,0,1,3.74,3.43l-.23.11"/><path d="M167.19,191c-1.45,2-3.8,3.12-5.36,5.06h.76c-1-.86-1.5-2.08-2.36-3.07-1.17-1.33-2.3-2.4-2.38-4.31a2.52,2.52,0,0,1,3.72-2.45,12.07,12.07,0,0,1,2.19,1.87,38.28,38.28,0,0,1,3.74,3.43l.11-.85-.23.11c-.62.3-.08,1.23.54.93l.23-.11a.54.54,0,0,0,.11-.85,33.61,33.61,0,0,0-3.46-3.19,14.64,14.64,0,0,0-3-2.42,3.26,3.26,0,0,0-4.19.72,5.17,5.17,0,0,0-.3,5.22,9.07,9.07,0,0,0,1.91,2.41c1,1.06,1.47,2.36,2.57,3.29a.54.54,0,0,0,.76,0c1.62-2,4-3.2,5.53-5.28.41-.56-.52-1.1-.93-.54Z"/><path class="90c05c27-eaab-40c0-9328-961b5f05e161" d="M168.72,190a29.37,29.37,0,0,1-2.83-5.42,10,10,0,0,1-.47-1.41,12,12,0,0,1-.22-1.69,5.51,5.51,0,0,1,0-1,3.69,3.69,0,0,1,.93-2,2,2,0,0,1,1.79-.8,4.11,4.11,0,0,1,2.08.5,6.79,6.79,0,0,1,2.32,2.89l.84,1.58a2.24,2.24,0,0,1,.34.95,1.72,1.72,0,0,1-.35,1c-.41.61-1,1.08-1.47,1.65-.59.72-1,1.59-1.61,2.29a14.54,14.54,0,0,0-1.35,1.42"/><path d="M169.19,189.69a25.42,25.42,0,0,1-3-6,6,6,0,0,1-.23-3.57c.88-2.87,3.72-2.07,5.15-.13a8.89,8.89,0,0,1,1.18,2.1c.61,1.74.07,2.43-1,3.73s-1.94,2.49-3,3.71c-.44.53.32,1.29.76.76,1.17-1.4,2.28-2.87,3.46-4.25.63-.74,1.48-1.42,1.48-2.48,0-1.32-1.3-3.09-2-4.11a5.11,5.11,0,0,0-2.54-2.11,3.52,3.52,0,0,0-4.82,3.09c-.36,3.43,1.86,7.07,3.62,9.81.37.58,1.31,0,.93-.54Z"/><path class="90c05c27-eaab-40c0-9328-961b5f05e161" d="M169.71,192.53c.86,1.42,2.64,2.78,3.52,4.19a1.33,1.33,0,0,0,.39.47.84.84,0,0,0,.87-.08,3.55,3.55,0,0,0,.66-.65c.86-1,2-1.59,2.84-2.6a7.1,7.1,0,0,0,.68-1.09,9.7,9.7,0,0,0,1.26-4.68,1.53,1.53,0,0,0-.07-.46,1.34,1.34,0,0,0-.38-.53,5,5,0,0,0-4.85-.77,4.7,4.7,0,0,0-.9.6,11.57,11.57,0,0,0-3,3.72,14.22,14.22,0,0,1-1,1.88"/><path d="M169.25,192.8A42.65,42.65,0,0,0,172.8,197c.62.69,1.11,1,2,.49a13.68,13.68,0,0,0,1.65-1.56,13.92,13.92,0,0,0,1.89-1.73,10.46,10.46,0,0,0,2-4.62c.18-1.06.28-2.14-.54-2.94a5.32,5.32,0,0,0-3.86-1.21c-3.55.24-5.11,4.22-6.7,6.78-.37.59.57,1.13.93.54,1.18-1.91,2-4,3.84-5.38a3.9,3.9,0,0,1,4.23-.43c1.7,1.07,1,3.33.26,4.88a10,10,0,0,1-3.74,4.21c-.52.28-.79.33-1.44-.16a6.86,6.86,0,0,1-.75-.89,28.18,28.18,0,0,1-2.4-2.77c-.39-.57-1.32,0-.93.54Z"/></g></svg>