<svg xmlns="https://www.w3.org/2000/svg" viewBox="0 0 398 298"><defs><style>.a{fill:#86bf88;}.b{fill:#cc52a8;}.c{fill:#591244;opacity:0.49;}</style></defs><title>Artboard 1</title><path class="a" d="M15.5122,56.4238a11.0323,11.0323,0,0,1,5.6519,1.26,6.5123,6.5123,0,0,1,2.916,3.9248,11.8076,11.8076,0,0,1,4.4277-4.4648,12.1979,12.1979,0,0,1,6.1563-1.584,10.5727,10.5727,0,0,1,5.688,1.4765A8.8179,8.8179,0,0,1,43.88,61.32a10.5771,10.5771,0,0,1,4.2842-4.248,12.79,12.79,0,0,1,6.228-1.5127q5.0391,0,7.668,3.0244,2.6271,3.0234,2.6279,8.8564V90.6963a2.4242,2.4242,0,0,1-.54,1.7637A2.6647,2.6647,0,0,1,62.24,93H50a2.6646,2.6646,0,0,1-1.9082-.54,2.4242,2.4242,0,0,1-.54-1.7637V65.9277a2.1829,2.1829,0,0,0-.36-1.2959,1.1708,1.1708,0,0,0-1.0078-.5039,1.3292,1.3292,0,0,0-1.2241.5762V90.6963a2.4242,2.4242,0,0,1-.54,1.7637,2.6649,2.6649,0,0,1-1.9077.54H30.272a2.6655,2.6655,0,0,1-1.9082-.54,2.4242,2.4242,0,0,1-.54-1.7637V65.9277a2.183,2.183,0,0,0-.36-1.2959,1.1709,1.1709,0,0,0-1.0078-.5039,1.33,1.33,0,0,0-1.2242.5762V90.6963a2.4242,2.4242,0,0,1-.54,1.7637,2.665,2.665,0,0,1-1.9077.54h-12.24a2.6634,2.6634,0,0,1-1.9077-.54,2.4224,2.4224,0,0,1-.54-1.7637V65.28a8.2783,8.2783,0,0,0-.72-3.8526,6.9138,6.9138,0,0,0-2.6641-2.4834A1.8082,1.8082,0,0,1,4.1,58.4756a.894.894,0,0,1-.1079-.4678v-.8642c0-.4786.2876-.72.8638-.72Z"/><path class="a" d="M99.8237,93.8643q-7.2729,0-10.3681-5.9766a11.2942,11.2942,0,0,1-4.0679,4.5361,11.4079,11.4079,0,0,1-5.94,1.4405,12.3222,12.3222,0,0,1-7.9922-2.4483,7.92,7.92,0,0,1-3.024-6.48,6.8546,6.8546,0,0,1,2.4839-5.5791q2.4844-2.0521,7.668-2.7724,13.2473-1.7286,13.248-10.0078a8.0136,8.0136,0,0,0-2.3037-5.7246A7.3185,7.3185,0,0,0,84.0557,58.44q-1.5125,0-1.5122,1.0078a1.3854,1.3854,0,0,0,.2163.72,7.0278,7.0278,0,0,1,4.9677,1.8,6.0017,6.0017,0,0,1,1.9439,4.6084,6.6568,6.6568,0,0,1-2.772,5.4717,11.195,11.195,0,0,1-7.0918,2.16,10.4458,10.4458,0,0,1-6.9839-2.1963,7.22,7.22,0,0,1-2.5923-5.7959q0-4.8222,4.68-7.74,4.68-2.9151,12.3838-2.916,9.2161,0,14.0044,4.4648t4.7876,13.1035v9a4.2209,4.2209,0,0,0,.2163,1.6563.7433.7433,0,0,0,.72.4316.9733.9733,0,0,0,.9361-.5762,8.0885,8.0885,0,0,0,.5039-2.2314,5.4709,5.4709,0,0,1,.2881-1.4766.6076.6076,0,0,1,.5761-.2519h1.2242a.6389.6389,0,0,1,.6118.5039,5.445,5.445,0,0,1,.18,1.6562q0,5.7614-2.9883,8.8926T99.8237,93.8643ZM88.2314,78.3115a1.3706,1.3706,0,0,0-1.1518-.5752q-1.2254,0-1.2241,1.4395v4.6084q0,1.4414,1.2241,1.4394a1.3655,1.3655,0,0,0,1.1518-.5752Z"/><path class="a" d="M120.0552,48.6484a3.0552,3.0552,0,0,1,.9-1.8369,3.0017,3.0017,0,0,1,1.8364-.4677h7.8477a2.67,2.67,0,0,1,1.9082.54,2.4269,2.4269,0,0,1,.54,1.7646v7.7754h7.1279c.5762,0,.8638.2412.8638.72V58.44q0,.7193-.8638.72h-7.1279V81.7676a3.3411,3.3411,0,0,0,.396,1.9443,1.7879,1.7879,0,0,0,1.4761.5039,1.4185,1.4185,0,0,0,1.26-.5762,6.2592,6.2592,0,0,0,.6841-2.2314,4.4736,4.4736,0,0,1,.3242-1.44.6647.6647,0,0,1,.6119-.2881h1.1518a.64.64,0,0,1,.6123.5039,5.7849,5.7849,0,0,1,.18,1.7285q0,5.7612-3.168,8.8555-3.1692,3.0966-9,3.0967-6.0476,0-9.396-3.3125-3.3478-3.3106-3.3481-9.2881V59.16h-4.2476q-.8642,0-.8642-.72V57.1436c0-.4786.2881-.72.8642-.72h.2876a14.0566,14.0566,0,0,0,4.9683-.6474,4.9833,4.9833,0,0,0,2.4839-2.2325A19.7779,19.7779,0,0,0,120.0552,48.6484Z"/><path class="a" d="M148.1353,48.6484a3.0552,3.0552,0,0,1,.9-1.8369,3.0017,3.0017,0,0,1,1.8364-.4677h7.8476a2.67,2.67,0,0,1,1.9082.54,2.4265,2.4265,0,0,1,.54,1.7646v7.7754h7.1279c.5762,0,.8638.2412.8638.72V58.44q0,.7193-.8638.72h-7.1279V81.7676a3.34,3.34,0,0,0,.396,1.9443,1.7878,1.7878,0,0,0,1.4761.5039,1.4186,1.4186,0,0,0,1.26-.5762,6.2592,6.2592,0,0,0,.6841-2.2314,4.4736,4.4736,0,0,1,.3242-1.44.6645.6645,0,0,1,.6118-.2881h1.1519a.64.64,0,0,1,.6123.5039,5.7883,5.7883,0,0,1,.18,1.7285q0,5.7612-3.168,8.8555-3.1692,3.0966-9,3.0967-6.0476,0-9.396-3.3125-3.3478-3.3106-3.3481-9.2881V59.16h-4.2476q-.8643,0-.8642-.72V57.1436c0-.4786.288-.72.8642-.72h.2876a14.057,14.057,0,0,0,4.9683-.6474,4.9837,4.9837,0,0,0,2.4839-2.2325A19.782,19.782,0,0,0,148.1353,48.6484Z"/><path class="a" d="M185.7188,76.3682q0,1.6568,2.8081,3.06a13.8023,13.8023,0,0,0,6.2641,1.4043,14.8363,14.8363,0,0,0,11.2319-4.6084,4.122,4.122,0,0,1,.6119-.54,1.0763,1.0763,0,0,1,.54-.1074h.8643a.6943.6943,0,0,1,.684.3593,3.24,3.24,0,0,1,.18,1.2969,15.0276,15.0276,0,0,1-2.4116,8.2432,17.4414,17.4414,0,0,1-6.84,6.084,21.1239,21.1239,0,0,1-9.9,2.3047,22.887,22.887,0,0,1-10.5122-2.376,18.5914,18.5914,0,0,1-7.4517-6.7686,18.3428,18.3428,0,0,1-2.772-10.0078,18.7983,18.7983,0,0,1,2.5918-9.8642,18.0985,18.0985,0,0,1,7.38-6.8038A23.9849,23.9849,0,0,1,190.1831,55.56a23.59,23.59,0,0,1,8.6758,1.5127,14.1883,14.1883,0,0,1,6.084,4.3193,10.1232,10.1232,0,0,1,2.2319,6.4805,9.9844,9.9844,0,0,1-3.3838,7.74,12.29,12.29,0,0,1-8.5679,3.06,11.0211,11.0211,0,0,1-8.4243-3.4561,1.0362,1.0362,0,0,0-.7558.3242A1.1237,1.1237,0,0,0,185.7188,76.3682Zm2.16-4.9678a1.3657,1.3657,0,0,0,1.1519.5752q1.2963,0,1.2963-1.4395V60.3115q0-1.4385-1.2963-1.4394a1.3693,1.3693,0,0,0-1.1519.5761Z"/><path class="a" d="M214.4463,56.4238q6.1918,0,8.4243,3.6719a13.542,13.542,0,0,1,4.68-3.42,15.0075,15.0075,0,0,1,5.9761-1.1162,12.8688,12.8688,0,0,1,8.64,2.8808,9.2174,9.2174,0,0,1,3.3838,7.3438,7.628,7.628,0,0,1-2.7358,6.084,10.4732,10.4732,0,0,1-7.0562,2.34,10.7736,10.7736,0,0,1-6.9478-2.16,6.7163,6.7163,0,0,1-2.7-5.4717,6,6,0,0,1,1.9443-4.6084,7.027,7.027,0,0,1,4.9678-1.8,1.3856,1.3856,0,0,0,.2158-.72q0-1.0077-1.5117-1.0078a7.314,7.314,0,0,0-5.4722,2.4112,8.0941,8.0941,0,0,0-2.3037,5.7968,8.32,8.32,0,0,0,1.62,5.0752,10.966,10.966,0,0,0,4.6441,3.4922,2.7737,2.7737,0,0,1,1.332.9727,3.78,3.78,0,0,1,.3242,1.8359V90.6963q0,2.3042-2.4482,2.3037H214.8066a2.0049,2.0049,0,0,1-2.2319-2.3037V65.28a8.2783,8.2783,0,0,0-.72-3.8526,6.9138,6.9138,0,0,0-2.6641-2.4834,1.8082,1.8082,0,0,1-.6118-.4687.894.894,0,0,1-.1079-.4678v-.8642c0-.4786.2876-.72.8638-.72Z"/><path class="b" d="M248.646,50.0879a8.2737,8.2737,0,0,0-.72-3.8516,6.9218,6.9218,0,0,0-2.6641-2.4843,1.8238,1.8238,0,0,1-.6118-.4678.894.894,0,0,1-.1079-.4678v-.8643q0-.7191.8638-.72h18.6479a2.6666,2.6666,0,0,1,1.9082.54,2.4238,2.4238,0,0,1,.54,1.7636V58.584a11.1884,11.1884,0,0,1,8.28-3.0244,11.9433,11.9433,0,0,1,10.08,4.86q3.6717,4.86,3.6719,13.3565,0,9.6489-5.0039,14.8672-5.0054,5.2221-14.292,5.2207a22.3349,22.3349,0,0,1-8.46-1.4043,19.467,19.467,0,0,1-6.5879-4.7159q-.577,0-.9.8282a33.5492,33.5492,0,0,0-.9721,3.5634,1.07,1.07,0,0,1-.2881.6846,1.1317,1.1317,0,0,1-.72.18h-1.8a.7867.7867,0,0,1-.6841-.252,1.6292,1.6292,0,0,1-.18-.9ZM269.0938,63.624q0-1.7285-1.3682-1.7275a1.4386,1.4386,0,0,0-1.2236.5752V89.9043a1.4369,1.4369,0,0,0,1.2236.5762q1.3674,0,1.3682-1.7285Z"/><path class="b" d="M311.9331,93.8643q-10.1522,0-15.4438-4.8965t-5.292-14.2559q0-9.3588,5.292-14.2558T311.9331,55.56q10.1521,0,15.4439,4.8965t5.2919,14.2558q0,9.36-5.2919,14.2559T311.9331,93.8643Zm0-3.3125q1.2957,0,1.2959-1.9434V60.8164q0-1.9454-1.2959-1.9443t-1.2959,1.9443v27.792Q310.6372,90.5523,311.9331,90.5518Z"/><path class="a" d="M342.605,48.6484a3.0552,3.0552,0,0,1,.9-1.8369,3.0017,3.0017,0,0,1,1.8364-.4677h7.8477a2.67,2.67,0,0,1,1.9082.54,2.4269,2.4269,0,0,1,.54,1.7646v7.7754h7.1279c.5762,0,.8638.2412.8638.72V58.44q0,.7193-.8638.72h-7.1279V81.7676a3.3411,3.3411,0,0,0,.396,1.9443,1.7879,1.7879,0,0,0,1.4761.5039,1.4185,1.4185,0,0,0,1.26-.5762,6.2592,6.2592,0,0,0,.6841-2.2314,4.4736,4.4736,0,0,1,.3242-1.44.6647.6647,0,0,1,.6119-.2881h1.1518a.64.64,0,0,1,.6123.5039,5.7849,5.7849,0,0,1,.18,1.7285q0,5.7612-3.168,8.8555-3.1692,3.0966-9,3.0967-6.0476,0-9.396-3.3125-3.3478-3.3106-3.3481-9.2881V59.16h-4.2476q-.8641,0-.8642-.72V57.1436c0-.4786.2881-.72.8642-.72h.2876a14.0566,14.0566,0,0,0,4.9683-.6474,4.9833,4.9833,0,0,0,2.4839-2.2325A19.7779,19.7779,0,0,0,342.605,48.6484Z"/><path class="c" d="M381.2916,130.8488H364.4248a4.5245,4.5245,0,0,0-4.5249,4.5249v9.4256h-7.693v-9.4256a4.5244,4.5244,0,0,0-4.5249-4.5249H328.9533v-9.3533H347.682a4.5244,4.5244,0,0,0,4.5249-4.5249V44.6434a19.8525,19.8525,0,0,0-19.8305-19.83H295.0037V13.5249a4.5249,4.5249,0,0,0-9.05,0V24.8123H248.5806a19.8529,19.8529,0,0,0-19.83,19.8306v72.3277a4.5244,4.5244,0,0,0,4.5249,4.5249h18.7292v9.3533H233.275a4.5244,4.5244,0,0,0-4.5249,4.5249v9.4256h-7.693v-9.4256a4.5245,4.5245,0,0,0-4.5249-4.5249H199.6649a4.5245,4.5245,0,0,0-4.5249,4.5249v91.1535a4.5245,4.5245,0,0,0,4.5249,4.5249h16.8668a4.5245,4.5245,0,0,0,4.5249-4.5249V172.4521H228.75v36.7658a4.5245,4.5245,0,0,0,4.5249,4.5249h8.0321v40.8141H235.6a4.5244,4.5244,0,0,0-4.5249,4.5249v21.3933A4.5244,4.5244,0,0,0,235.6,285h38.1355a4.5245,4.5245,0,0,0,4.5249-4.5249V259.0818a4.5245,4.5245,0,0,0-4.5249-4.5249H268.03V213.7428h44.898v40.8141H307.221a4.5245,4.5245,0,0,0-4.5249,4.5249v21.3933A4.5244,4.5244,0,0,0,307.221,285h38.1355a4.5244,4.5244,0,0,0,4.5249-4.5249V259.0818a4.5244,4.5244,0,0,0-4.5249-4.5249h-5.706V213.7428h8.0321a4.5245,4.5245,0,0,0,4.5249-4.5249V172.4521h7.693v54.0746a4.5244,4.5244,0,0,0,4.5249,4.5249h16.8667a4.5244,4.5244,0,0,0,4.5249-4.5249V135.3732A4.5258,4.5258,0,0,0,381.2916,130.8488ZM212.0073,222.0023H204.19V139.8986h7.817ZM228.75,163.4029h-7.693v-9.5538h7.693Zm9.0492-50.9566V44.6434a10.7935,10.7935,0,0,1,10.7813-10.7813h83.7958a10.7935,10.7935,0,0,1,10.7813,10.7813v67.8029Zm82.1048,9.0487v9.3533H261.0535V121.495Zm-50.693,142.1122v12.3435H240.1249V263.6072Zm-18.8543-9.05V213.7433h8.624v40.8141Zm90.4754,9.05v12.3435H311.7459V263.6072Zm-18.8543-9.05V213.7433h8.6239v40.8141h-8.6239Zm21.18-49.8644H237.7993V139.8986H343.1571V204.693Zm16.7422-41.29h-7.693v-9.5538H359.9Zm16.8668,58.5994H368.95V139.8986h7.817Z"/><path class="b" d="M290.4793,189.196a29.6722,29.6722,0,0,0,29.6388-29.6388,4.5244,4.5244,0,0,0-4.5249-4.5249H265.3654a4.5245,4.5245,0,0,0-4.5249,4.5249A29.6729,29.6729,0,0,0,290.4793,189.196Zm20.0888-25.1139a20.5922,20.5922,0,0,1-40.1764,0Z"/><circle class="b" cx="328.6143" cy="153.0459" r="4.5249"/><circle class="b" cx="252.3438" cy="153.0459" r="4.5249"/></svg>