<svg xmlns="http://www.w3.org/2000/svg" viewBox="0 0 455.5 353.5"><defs><style>.d3f5be65-dec6-4870-ad67-8c3fa0364187{fill:none;stroke-width:4px;}.\32 85ea6c5-3e8a-48c7-ada0-c21e1ee4e4ee,.\34 69bc04b-ac48-44db-b574-dbcd648ff2be,.d3f5be65-dec6-4870-ad67-8c3fa0364187{stroke:#000;stroke-miterlimit:10;}.\36 9bafd56-b895-4720-9734-c98a9e47767e{fill:#202020;}.\32 0034650-5bfa-489d-8a91-e566d4d84b77{fill:#1463a3;}.\30 30b6058-1b6f-4c6c-9125-5092e94af166{fill:#044f88;}.\37 e706be6-13b5-4257-9cd4-4572810ac7d3{fill:#5e97d0;}.\34 69bc04b-ac48-44db-b574-dbcd648ff2be,.\39 a4e7376-2b92-4778-9f8e-e46f79191f4c{fill:#ce5f5f;}.\30 2479559-e346-4492-9d67-e0bf6f5275a2,.\32 85ea6c5-3e8a-48c7-ada0-c21e1ee4e4ee{fill:#fff;}.\32 85ea6c5-3e8a-48c7-ada0-c21e1ee4e4ee{stroke-width:2.85px;}.\34 69bc04b-ac48-44db-b574-dbcd648ff2be{stroke-width:0.72px;}</style></defs><title>Artboard 1</title><g id="841c85c4-ffa7-44b8-a5c7-463aad8124e8" data-name="Appendages"><path class="d3f5be65-dec6-4870-ad67-8c3fa0364187" d="M153.94,194c-3.44-5-9-8.34-14.87-10.09s-12-2.08-18.14-2.23c-6.58-.16-13.41-.05-19.34,2.78-11,5.24-15.92,18.77-14.76,30.86S94,238.4,99.9,249"/><path class="d3f5be65-dec6-4870-ad67-8c3fa0364187" d="M191.27,262.64a52.11,52.11,0,0,0-34,64.36"/><path class="d3f5be65-dec6-4870-ad67-8c3fa0364187" d="M268.15,262.64a52.11,52.11,0,0,1,34,64.36"/><path d="M393.06,191l-.15-.16a5.06,5.06,0,0,1-.43-.48,7,7,0,0,1-1.22-2.17,9.59,9.59,0,0,1-.52-3.82,12.46,12.46,0,0,1,1.32-4.84,26.38,26.38,0,0,1,3.25-4.91c1.29-1.62,2.75-3.21,4-5a16.5,16.5,0,0,0,2.93-5.77c.26-1,.43-2.22.73-3.45a8.19,8.19,0,0,1,1.8-3.69,5.61,5.61,0,0,1,4.06-1.89,3.88,3.88,0,0,1,1.29.22,4.53,4.53,0,0,1,.62.28l.28.18.14.1.07,0,0,0,.09.08a4.26,4.26,0,0,1,.36.35,3.83,3.83,0,0,1,.45.59,4.26,4.26,0,0,1,.51,1.17,7.78,7.78,0,0,1-.23,4.22c-.39,1.26-.81,2.25-1.25,3.33a31,31,0,0,1-1.52,3.07c-.57,1-1.18,1.85-1.47,2.53-.59,1.35-.28,3.19-.1,5,0,.46.09.92.1,1.38,0,.24,0,.44,0,.72s0,.39,0,.64a9.82,9.82,0,0,1-.55,2.5,10.5,10.5,0,0,1-2,3.45,8.91,8.91,0,0,1-1.9,1.65c-.49.31-.76.45-.76.45l-.17-.25s.22-.2.59-.6a10.19,10.19,0,0,0,1.37-1.88,10.5,10.5,0,0,0,1.21-3.28,9.39,9.39,0,0,0,.15-2.05c0-.16,0-.4,0-.6s0-.36-.07-.55c-.07-.39-.14-.79-.23-1.21-.18-.85-.41-1.77-.55-2.83a10.32,10.32,0,0,1-.06-1.7,7.13,7.13,0,0,1,.12-1c0-.19.06-.27.09-.4l0-.09,0-.16.07-.23a21.3,21.3,0,0,1,1.5-3c.46-.9.92-1.84,1.35-2.84s.93-2.06,1.25-3a5.69,5.69,0,0,0,.38-2.63,1.52,1.52,0,0,0-.15-.45c0-.09-.05-.08-.06-.13a2.33,2.33,0,0,0-.26-.28l.05,0h0l0,0,0,0-.08-.07c-.06,0-.11-.08-.18-.1a1.25,1.25,0,0,0-.45-.11,3.17,3.17,0,0,0-2.26,1,6,6,0,0,0-1.37,2.61c-.32,1.06-.53,2.21-.9,3.44a18.42,18.42,0,0,1-3.54,6.26c-1.45,1.77-3,3.31-4.33,4.81A25.19,25.19,0,0,0,393,180a11.55,11.55,0,0,0-1.5,4.41,9.32,9.32,0,0,0,.26,3.59,6.58,6.58,0,0,0,1,2.1,4.8,4.8,0,0,0,.39.5l.14.17Z"/><path d="M407,173.35s.68-.47,1.81-1.35a43.3,43.3,0,0,0,9.58-10.39,43.75,43.75,0,0,1,2.81-4,10.09,10.09,0,0,1,4.36-3.25,6,6,0,0,1,3.06-.32,4.06,4.06,0,0,1,.85.25,3.61,3.61,0,0,1,.42.21l.2.12.1.07,0,0,.1.08.24.19c.13.13.26.27.38.41a4.12,4.12,0,0,1,.5.8,5.57,5.57,0,0,1,.38,3.18A9.36,9.36,0,0,1,431,162a17.46,17.46,0,0,1-2.58,4,17.81,17.81,0,0,1-3.09,2.91c-1,.78-2.07,1.35-2.9,1.86a24.67,24.67,0,0,0-2.11,1.37,11.11,11.11,0,0,0-1.23,1.06c-.26.27-.4.43-.4.43l-.26-.15s.07-.2.22-.57a7.83,7.83,0,0,1,.89-1.52,15.72,15.72,0,0,1,1.81-2c.75-.72,1.57-1.45,2.4-2.28a23.32,23.32,0,0,0,4.4-6.42,8,8,0,0,0,.67-1.82,3.12,3.12,0,0,0,0-1.54,1.65,1.65,0,0,0-.11-.25s0,0,0-.05l-.22-.21h0l.06,0h0l0,0-.05,0-.12-.08a1.4,1.4,0,0,0-.31-.13,3.48,3.48,0,0,0-1.79.07,7.89,7.89,0,0,0-3.55,2.34,42.27,42.27,0,0,0-2.93,3.59,40.43,40.43,0,0,1-5.86,6.22,41.3,41.3,0,0,1-4.82,3.59c-1.23.77-1.95,1.16-1.95,1.16Z"/><path d="M420.7,173.07s.51-.5,1.45-1.34,2.32-2,4-3.28,3.77-2.75,6-4.22l1.7-1.12a9.65,9.65,0,0,1,2-1.13,3.68,3.68,0,0,1,1.43-.23,3.15,3.15,0,0,1,.77.12,3.31,3.31,0,0,1,.71.29,4.48,4.48,0,0,1,2.27,3.56,5.14,5.14,0,0,1-.1,1.41,6.68,6.68,0,0,1-1.09,2.43,10.31,10.31,0,0,1-3.62,3c-.62.32-1.21.63-1.76.89l-1.63.82c-1.05.55-2,1.08-3,1.6-1.82,1-3.31,2-4.38,2.62l-1.69,1-.21-.21a17.33,17.33,0,0,1,1.18-1.63c.4-.5.91-1.09,1.52-1.74a27.88,27.88,0,0,1,2.19-2.05,28.74,28.74,0,0,1,2.86-2.13c.51-.35,1.11-.71,1.66-1s1.18-.63,1.73-.93a10,10,0,0,0,2.87-2,2.86,2.86,0,0,0,.83-2.67,2.08,2.08,0,0,0-.78-1.07,1.35,1.35,0,0,0-1.18-.16,8,8,0,0,0-1.67.79l-1.78,1c-2.33,1.3-4.49,2.51-6.31,3.62s-3.28,2.1-4.3,2.81-1.58,1.15-1.58,1.15Z"/><path d="M425.4,179.92s2.19-1.63,5.52-4c1.66-1.2,3.59-2.6,5.69-4.06.53-.37,1-.74,1.64-1.13a5.62,5.62,0,0,1,2.24-.88,3.54,3.54,0,0,1,2.72.76,2.81,2.81,0,0,1,.89,1.4,3.31,3.31,0,0,1,0,1.6,5.56,5.56,0,0,1-.45,1.24l-.07.14,0,.07,0,0-.06.09-.13.22-.26.44-.27.44-.36.47a10.16,10.16,0,0,1-.73.91,16,16,0,0,1-3.21,2.79,27.3,27.3,0,0,1-3.31,1.85c-1.06.52-2.05,1-3,1.4s-1.72.83-2.43,1.21-1.32.74-1.8,1.06-.86.59-1.13.78l-.41.29-.23-.19.24-.44a8.13,8.13,0,0,1,.79-1.21,13.61,13.61,0,0,1,1.5-1.69,22.5,22.5,0,0,1,2.23-1.85c.85-.63,1.79-1.25,2.77-1.87l3-1.93a22.33,22.33,0,0,0,2.92-2.14,7.55,7.55,0,0,0,.61-.6l.3-.3.3-.4.3-.41.15-.2h0l0,0v0l0,0,.05-.09a3.29,3.29,0,0,0,.32-.65,1.52,1.52,0,0,0,.08-.42.51.51,0,0,0-.14-.32,1.4,1.4,0,0,0-1-.36,8.3,8.3,0,0,0-3.12,1.42c-2.2,1.3-4.27,2.48-6,3.5-3.55,2-5.93,3.36-5.93,3.36Z"/><path d="M425.89,187l2.85-.62,3.27-.71a27.23,27.23,0,0,1,4.36-.71,8.24,8.24,0,0,1,2.64.27,4.86,4.86,0,0,1,2.55,1.63,3.11,3.11,0,0,1,.67,1.65,2.47,2.47,0,0,1-.14,1,2.73,2.73,0,0,1-.49.84,3.56,3.56,0,0,1-1.59,1,8.17,8.17,0,0,1-1.61.33c-1,.1-2,.18-3,.36a25.24,25.24,0,0,0-2.91.67,26.45,26.45,0,0,0-5.59,2.33,27.18,27.18,0,0,0-4.91,3.55,20,20,0,0,1-5.42,3.76,14,14,0,0,1-1.52.5,10.26,10.26,0,0,1-1.63.31,13.72,13.72,0,0,1-3.09,0A23.11,23.11,0,0,1,405.1,202c-1.56-.52-2.9-1.09-4.12-1.61a6.33,6.33,0,0,1-3-2.2,12.68,12.68,0,0,1-.58-1.14,2.73,2.73,0,0,0-.45-.67.8.8,0,0,0-.55-.25l0-.3a1.19,1.19,0,0,1,.89.12c.55.26,1,1,1.58,1.58a5.61,5.61,0,0,0,2.68,1.21c1.23.3,2.66.64,4.17,1a28.16,28.16,0,0,0,4.82.6,14.66,14.66,0,0,0,2.5-.16,11.93,11.93,0,0,0,1.21-.26,10.75,10.75,0,0,0,1.28-.43l0,0h0l0,0,.07,0,.15-.06.29-.14c.2-.09.39-.2.59-.3.39-.22.79-.46,1.18-.72.79-.53,1.6-1.12,2.44-1.75a31.94,31.94,0,0,1,5.56-3.49,28.68,28.68,0,0,1,6.18-2.2,27.22,27.22,0,0,1,3.16-.55c1.07-.13,2.12-.17,3.07-.21a3.6,3.6,0,0,0,2.19-.64,1,1,0,0,0,.24-.37,1.08,1.08,0,0,0,.06-.35,1.69,1.69,0,0,0-.31-.9c-.84-1.23-2.55-1.64-4-1.66a26.52,26.52,0,0,0-4.23.4l-3.31.47-2.89.4Z"/><path d="M402.81,200.83s-.19.34-.58.92a6,6,0,0,1-.82,1,3.56,3.56,0,0,1-1.55.92,3.61,3.61,0,0,1-2.21-.17l-.53-.22-.28-.14-.23-.13a8.32,8.32,0,0,1-1-.59,11.21,11.21,0,0,1-1.86-1.58,16.45,16.45,0,0,1-1.57-1.93,21.19,21.19,0,0,1-2.36-4.2,13.93,13.93,0,0,1-.58-2.09,17.7,17.7,0,0,1-.29-1.94,5.76,5.76,0,0,1,.13-1.93,3.16,3.16,0,0,1,.75-1.35,2.07,2.07,0,0,1,.81-.54,1.67,1.67,0,0,1,.32-.08l.15.26a1.81,1.81,0,0,0-.34.89,2.74,2.74,0,0,0,.06,1,7.67,7.67,0,0,0,.47,1.2c.22.47.49,1.07.73,1.66s.5,1.23.74,1.88a28.82,28.82,0,0,0,1.47,4,14.23,14.23,0,0,0,1.12,1.82,11.69,11.69,0,0,0,1.34,1.54,6.68,6.68,0,0,0,.77.66l.21.16.16.12.37.24a2.38,2.38,0,0,0,1.42.41,2.64,2.64,0,0,0,1.26-.47,7,7,0,0,0,.91-.73c.48-.46.74-.75.74-.75Z"/><path d="M107.35,248.4l.32-.26a5.83,5.83,0,0,1,1-.66,7.06,7.06,0,0,1,1.78-.64,12.18,12.18,0,0,1,2.44-.28,35.78,35.78,0,0,1,6,.55,27.18,27.18,0,0,1,3.38.72,14.71,14.71,0,0,1,3.41,1.44,20.37,20.37,0,0,1,3,2.17,26,26,0,0,1,2.47,2.4,23.47,23.47,0,0,1,2,2.52,11.71,11.71,0,0,1,1.43,2.73l.06.17,0,.11,0,.08.09.32c.07.25.11.48.15.7a7.17,7.17,0,0,1,.11,1.27,5.87,5.87,0,0,1-.36,2,4.32,4.32,0,0,1-.61,1.14c-.18.23-.29.34-.29.34l-.26-.14s0-.14.07-.41a5.78,5.78,0,0,0,0-1.11,6.45,6.45,0,0,0-.32-1.61A9.53,9.53,0,0,0,133,261c-.08-.16-.16-.31-.24-.45l-.15-.26,0-.07s0,0,0,0l-.08-.12a16.82,16.82,0,0,0-1.55-2c-.63-.67-1.33-1.42-2-2.22s-1.38-1.65-2.09-2.46a15.28,15.28,0,0,0-2.33-2.16,16.78,16.78,0,0,0-5.85-2.48l-3-.72a22.44,22.44,0,0,0-2.68-.46,9.06,9.06,0,0,0-4,.34,5.32,5.32,0,0,0-1,.47l-.36.22Z"/><path d="M125.09,258.14l1.13.89c.72.58,1.71,1.44,2.86,2.52a51.72,51.72,0,0,1,3.74,3.91c.65.75,1.31,1.54,1.93,2.37s1.24,1.63,1.87,2.63a6.57,6.57,0,0,1,1.16,3.67,3.75,3.75,0,0,1-.85,2.22,4,4,0,0,1-2,1.25,4.64,4.64,0,0,1-2.06.05,5.82,5.82,0,0,1-1.65-.59,11.51,11.51,0,0,1-2.28-1.6,12.57,12.57,0,0,1-1.58-1.65,11.28,11.28,0,0,1-1-1.45,8.76,8.76,0,0,1-.5-1l-.15-.37.24-.18,1.2.82a29.91,29.91,0,0,0,3.12,1.85c.33.18.65.32,1,.48a8.61,8.61,0,0,0,1.06.44,3.22,3.22,0,0,0,1.77.17,2.41,2.41,0,0,0,.52-.2,1,1,0,0,0,.34-.52,3.79,3.79,0,0,0-.47-2.23c-.4-.81-1-1.76-1.49-2.59s-1.07-1.69-1.61-2.49c-1.08-1.59-2.16-3-3.13-4.26s-1.83-2.18-2.43-2.86l-1-1.06Z"/><path d="M131.74,276.09h0a.2.2,0,0,1-.1-.19.27.27,0,0,1,.08-.18.26.26,0,0,1,.3,0,.51.51,0,0,1,.22.42l.06.41c.1.61.21,1.47.36,2.52a6.72,6.72,0,0,1,0,1.86l0,.13v0l0,.06v.06l-.05.23a4.79,4.79,0,0,1-.82,1.55,5.19,5.19,0,0,1-1.93,1.5,5.32,5.32,0,0,1-1.26.39l-.26,0-.36,0a6.51,6.51,0,0,1-.65,0,7.43,7.43,0,0,1-2.51-.54,6.14,6.14,0,0,1-2.08-1.36,9.51,9.51,0,0,1-1.23-1.62c-.32-.51-.61-1-.86-1.48s-.46-.92-.63-1.32a9.46,9.46,0,0,1-.39-1,1.37,1.37,0,0,0-.24-.44.23.23,0,0,0-.16-.06l-.17-.25a.6.6,0,0,1,.31-.21,1.35,1.35,0,0,1,1,.18c.4.24.64.42,1,.69s.74.57,1.15.91.83.73,1.25,1.16.83.88,1.2,1.26a7.71,7.71,0,0,0,1.13,1,3.67,3.67,0,0,0,1.45.65l.39.06h.42a3.15,3.15,0,0,0,.74-.12,3.68,3.68,0,0,0,1.38-.73,3.14,3.14,0,0,0,.51-.56c.08-.11.13-.2.18-.29l.09-.2,0-.05s0,0,0,0v0l0-.09a5.49,5.49,0,0,0,.29-1.5l.18-2.53c0-.29,0-.63.07-.53s.09,0,.11-.06a.12.12,0,0,0-.07-.11h0Z"/><path d="M125.36,282l.15.68a5.23,5.23,0,0,1,0,1.93,3,3,0,0,1-.63,1.36,3.18,3.18,0,0,1-1.44,1,4.21,4.21,0,0,1-.89.19,3.25,3.25,0,0,1-.48,0l-.44,0a7.46,7.46,0,0,1-1.69-.4l-.76-.27-.74-.27a7.65,7.65,0,0,1-1.38-.67,7.23,7.23,0,0,1-1.91-1.93,6,6,0,0,1-1-2.54l.23-.2s.29.07.73.23,1,.41,1.68.7a16.12,16.12,0,0,1,2.06,1.14c.34.25.68.53,1,.82.17.14.34.28.55.42s.37.26.56.38a5.41,5.41,0,0,0,1.08.52,1.76,1.76,0,0,0,.28.08l.23.05a2.38,2.38,0,0,0,.5,0,1.76,1.76,0,0,0,.88-.27,1.69,1.69,0,0,0,.58-.66,5.16,5.16,0,0,0,.44-1.59l.08-.67Z"/><path d="M116.46,284.16a3,3,0,0,1-.28.4,3.19,3.19,0,0,1-1.13.86,4.3,4.3,0,0,1-2.18.36,6.62,6.62,0,0,1-2.69-.94,23.49,23.49,0,0,1-2.64-1.89c-.91-.72-1.79-1.53-2.69-2.4a42.5,42.5,0,0,1-5.1-6c-.79-1.09-1.51-2.23-2.2-3.37a20.45,20.45,0,0,1-1.77-3.58,11.94,11.94,0,0,1-.52-2c0-.31-.09-.54-.11-.91a8.68,8.68,0,0,1,0-1,11.33,11.33,0,0,1,.55-3.47,11,11,0,0,1,1.24-2.64,9.74,9.74,0,0,1,1.39-1.72,7.5,7.5,0,0,1,1.07-.9l.41-.28.21.21a16.57,16.57,0,0,0-.81,1.59A14.29,14.29,0,0,0,98,260.78a13.25,13.25,0,0,0,0,2.81c0,.25.07.48.11.7s.11.54.16.81.26,1,.45,1.49c.35,1,.81,2.16,1.31,3.31a35.71,35.71,0,0,0,1.72,3.37,40.44,40.44,0,0,0,4.35,6.09c.78.91,1.59,1.75,2.36,2.53a22.49,22.49,0,0,0,2.29,2.06A5.69,5.69,0,0,0,113,285a3.88,3.88,0,0,0,1.88-.09,2.63,2.63,0,0,0,1.36-.94Z"/><path d="M111,246.33V246c0-.21-.24-.51-.32-.88A2.42,2.42,0,0,0,110,244a2.09,2.09,0,0,0-1.42-.51,4.25,4.25,0,0,0-1.86.46c-.14.07-.33.17-.44.24s-.36.22-.5.33a10.55,10.55,0,0,0-.88.72,24,24,0,0,0-3.19,4c-.5.76-1,1.51-1.49,2.26s-1,1.49-1.48,2.17-1,1.29-1.5,1.82A13.3,13.3,0,0,0,96.13,257a4.6,4.6,0,0,0-.56,1.28,1,1,0,0,0,.11.84.94.94,0,0,0,.54.38.64.64,0,0,0,.27,0l.16.25a1,1,0,0,1-.33.25,1.51,1.51,0,0,1-1.22,0,2,2,0,0,1-.78-.54,2.73,2.73,0,0,1-.51-1,4.79,4.79,0,0,1,.06-2.34,8.63,8.63,0,0,1,1-2.32,16.94,16.94,0,0,1,1.43-2.1c.53-.66,1.11-1.32,1.73-2s1.21-1.34,1.82-2a22.57,22.57,0,0,1,4-3.86,11.9,11.9,0,0,1,1.16-.72c.21-.12.37-.18.56-.28a5.73,5.73,0,0,1,.65-.25,5.35,5.35,0,0,1,2.46-.2,2.83,2.83,0,0,1,1.87,1.1,2.66,2.66,0,0,1,.47,1.51,5.29,5.29,0,0,1-.08,1,.33.33,0,0,0,.16.33Z"/><path class="d3f5be65-dec6-4870-ad67-8c3fa0364187" d="M312.53,186.23c4.71-1.18,10.14-1.86,14,1.06,2.3,1.73,3.61,4.42,4.93,7,2,3.92,4.33,7.83,7.77,10.59,4,3.2,9.17,4.54,14.22,5.43,5.84,1,11.89,1.58,17.66.2,8.26-2,15.07-7.61,21.55-13.09"/><path class="69bafd56-b895-4720-9734-c98a9e47767e" d="M150.26,329.81l.2,0c.68.15,1.66.29,0,.35h-.24a31.34,31.34,0,0,0-5.11.15,13,13,0,0,0-8.26,3.84,8.2,8.2,0,0,0-1.95,4,7.86,7.86,0,0,0,.61,4.31,5.8,5.8,0,0,0,2.57,3.21,15.31,15.31,0,0,0,4.3,1.32,47.25,47.25,0,0,0,9.39.85,64.28,64.28,0,0,0,9.45-.83c3.13-.55,6.4-.85,8.46-2.34a2.89,2.89,0,0,0,1-1.13,4.41,4.41,0,0,0,.25-1.77,13.31,13.31,0,0,0-.73-4.29l-.17-.46-.06-.16-.14-.32c-.09-.21-.2-.41-.29-.62a12.2,12.2,0,0,0-.7-1.19s-.13-.24-.39-.61a10.14,10.14,0,0,0-1.16-1.43,10.25,10.25,0,0,0-4.27-2.6,8.92,8.92,0,0,0-2.78-.38c-.52,0-.66,0-.52,0a10.45,10.45,0,0,1,3.53-.17,11.34,11.34,0,0,1,4,1.27,12.39,12.39,0,0,1,2.6,1.84,13.11,13.11,0,0,1,1,1.07,12.58,12.58,0,0,1,.93,1.34c.15.23.27.47.4.71l.09.18.24.49c.18.4.34.8.49,1.21a15.08,15.08,0,0,1,.65,2.53,13.3,13.3,0,0,1,.19,2.68,6.24,6.24,0,0,1-.26,1.54,5,5,0,0,1-.79,1.52,7.68,7.68,0,0,1-2.27,1.93,14.52,14.52,0,0,1-5,1.64c-1.63.26-3.2.43-4.82.57a77,77,0,0,1-9.7.23,47.57,47.57,0,0,1-9.64-1.36,14,14,0,0,1-4.74-1.88,6.72,6.72,0,0,1-1.87-2,10.23,10.23,0,0,1-1-2.38,11.6,11.6,0,0,1-.51-2.51,7.93,7.93,0,0,1,.24-2.61,9.52,9.52,0,0,1,2.56-4.37,13.92,13.92,0,0,1,9-3.58A31.26,31.26,0,0,1,150.26,329.81Z"/><path class="69bafd56-b895-4720-9734-c98a9e47767e" d="M150.54,331.81a1.31,1.31,0,0,1,0,.18,2.94,2.94,0,0,0,.28.81c0,.06,0,.08-.11,0a2.35,2.35,0,0,1-.61-.59s-.11-.16-.15-.23a3.78,3.78,0,0,1,0-2.85,5.2,5.2,0,0,1,1.86-2.29,8.91,8.91,0,0,1,1.61-.91,11.48,11.48,0,0,1,3-.93,6.18,6.18,0,0,1,1,0,5.21,5.21,0,0,1,2.48.7,3.86,3.86,0,0,1,1.28,1.21,3.49,3.49,0,0,1,.55,1.8,7.3,7.3,0,0,1-.6,3,4,4,0,0,1-2.13,2.19c-.51.19-.64.19-.51.14a2.27,2.27,0,0,0,.84-.79,3.46,3.46,0,0,0,.49-2c0,.07,0-.34-.12-1a9.27,9.27,0,0,0-.25-1.13,1.92,1.92,0,0,0-.42-.77,2.7,2.7,0,0,0-1.64-.89,4.24,4.24,0,0,0-1.08,0,12.12,12.12,0,0,0-2.21.37,8.2,8.2,0,0,0-1.41.49,4,4,0,0,0-1.68,1.36A3.05,3.05,0,0,0,150.54,331.81Z"/><path class="69bafd56-b895-4720-9734-c98a9e47767e" d="M308.27,330.19h-.2c-.69,0-1.68,0-.07-.34l.24,0a31.24,31.24,0,0,1,5.2-.16,13.84,13.84,0,0,1,9.1,3.7,9.51,9.51,0,0,1,2.5,4.51,8.12,8.12,0,0,1,.14,2.66,12.58,12.58,0,0,1-.59,2.52,9.45,9.45,0,0,1-1.17,2.39,6.81,6.81,0,0,1-2,1.9,16.8,16.8,0,0,1-4.83,1.75,48.69,48.69,0,0,1-9.82,1.25,77.44,77.44,0,0,1-9.86-.33c-1.64-.17-3.23-.34-4.93-.67a12.15,12.15,0,0,1-5.06-2.12,5.78,5.78,0,0,1-2-2.56,7.17,7.17,0,0,1-.32-3,14.9,14.9,0,0,1,1.29-5.13l.26-.53.1-.18.2-.36c.13-.24.29-.48.43-.71a13.48,13.48,0,0,1,1-1.33,11.66,11.66,0,0,1,2.31-1.95,12,12,0,0,1,5.18-1.84,10.78,10.78,0,0,1,2.89,0c.52.09.65.12.51.11a9.36,9.36,0,0,0-3.38.43A11,11,0,0,0,292,332a10.25,10.25,0,0,0-1.88,2,11,11,0,0,0-.66,1,11.88,11.88,0,0,0-.64,1.19c-.1.2-.18.41-.27.62l-.06.16-.16.42c-.12.34-.22.68-.31,1a13.31,13.31,0,0,0-.37,2.11,11.27,11.27,0,0,0,0,2.07,2.31,2.31,0,0,0,.51,1.35,5,5,0,0,0,1.39,1.07,13.4,13.4,0,0,0,4,1.28c1.49.28,3.07.54,4.6.76a61.28,61.28,0,0,0,9.29.72,46.35,46.35,0,0,0,9.22-.95,12.36,12.36,0,0,0,4.14-1.4,6.19,6.19,0,0,0,2.38-3.32,7.41,7.41,0,0,0,.46-4.24,8.22,8.22,0,0,0-2-3.85,13.1,13.1,0,0,0-8.16-3.73A31.32,31.32,0,0,0,308.27,330.19Z"/><path class="69bafd56-b895-4720-9734-c98a9e47767e" d="M308.52,332a1.22,1.22,0,0,1-.12.19,2.26,2.26,0,0,1-.69.67c-.07,0-.07,0,0-.11a2.24,2.24,0,0,0,.24-.71l0-.22a3.05,3.05,0,0,0-.48-2.16,4,4,0,0,0-1.68-1.36,8.25,8.25,0,0,0-1.4-.49,10.77,10.77,0,0,0-2.55-.37,3.93,3.93,0,0,0-.62,0,2.86,2.86,0,0,0-1.29.44,3.18,3.18,0,0,0-.57.48,1.94,1.94,0,0,0-.41.69,7.67,7.67,0,0,0-.42,2.33,3,3,0,0,0,1,2.36c.42.31.59.31.43.29a3.34,3.34,0,0,1-1.18-.45,5,5,0,0,1-2-3.27,7.46,7.46,0,0,1-.13-1.53,3.61,3.61,0,0,1,.73-2.08,4.74,4.74,0,0,1,3.5-1.69,6.73,6.73,0,0,1,1.62.08,12.3,12.3,0,0,1,2.57.85,9,9,0,0,1,1.61.92,5.2,5.2,0,0,1,1.86,2.29A3.78,3.78,0,0,1,308.52,332Z"/></g><g id="9d86e798-48ff-4f9b-a7c8-c1d3952e08e8" data-name="C Body"><path class="20034650-5bfa-489d-8a91-e566d4d84b77" d="M314,149.21v79.14a16.46,16.46,0,0,1-4.05,11.17l-80.77-48.75,82.72-49.92A17,17,0,0,1,314,149.21Z"/><path class="030b6058-1b6f-4c6c-9125-5092e94af166" d="M306.08,242.8l-68.53,39.57a16.69,16.69,0,0,1-16.69,0L152.32,242.8A16.69,16.69,0,0,1,144,228.35V149.21a16.69,16.69,0,0,1,8.34-14.45l68.53-39.57a16.69,16.69,0,0,1,16.69,0l68.53,39.57a16.69,16.69,0,0,1,8.34,14.45v79.14A16.69,16.69,0,0,1,306.08,242.8Z"/><path class="7e706be6-13b5-4257-9cd4-4572810ac7d3" d="M312.14,140.77,148.28,239.52A16.67,16.67,0,0,1,144,228.35V149.21a16.68,16.68,0,0,1,8.33-14.45l68.53-39.57a16.7,16.7,0,0,1,16.69,0l68.54,39.57A16.68,16.68,0,0,1,312.14,140.77Z"/><path class="20034650-5bfa-489d-8a91-e566d4d84b77" d="M220.86,95.19a16.7,16.7,0,0,1,7.3-2.2,16.71,16.71,0,0,0-7.26,2.2l-68.48,39.57a16.32,16.32,0,0,0-6,6.06l-.08,0a16.62,16.62,0,0,1,6-6Z"/><path class="9a4e7376-2b92-4778-9f8e-e46f79191f4c" d="M312.14,140.77l-.14.09a16.19,16.19,0,0,0-6-6.09L237.52,95.19a16.71,16.71,0,0,0-7.25-2.2,16.72,16.72,0,0,1,7.31,2.2l68.52,39.57A16.64,16.64,0,0,1,312.14,140.77Z"/><path class="02479559-e346-4492-9d67-e0bf6f5275a2" d="M229.21,216.26A25.49,25.49,0,1,1,251,177.61L272,165a49.95,49.95,0,1,0,0,51.6L251,203.94A25.47,25.47,0,0,1,229.21,216.26Z"/><polygon class="285ea6c5-3e8a-48c7-ada0-c21e1ee4e4ee" points="358.16 167.56 349.31 164.91 351.95 156.06 342.15 153.13 339.51 161.99 330.65 159.34 327.73 169.14 336.58 171.78 333.93 180.64 343.73 183.56 346.38 174.71 355.23 177.36 358.16 167.56"/><polygon class="285ea6c5-3e8a-48c7-ada0-c21e1ee4e4ee" points="327.1 158.28 318.24 155.63 320.89 146.78 311.09 143.85 308.44 152.7 299.59 150.06 296.66 159.85 305.51 162.5 302.87 171.35 312.67 174.28 315.31 165.43 324.17 168.07 327.1 158.28"/><path class="69bafd56-b895-4720-9734-c98a9e47767e" d="M360.78,159.77l-.48-1.8.93-.24c.59-.16,1.44-.35,2.47-.58a70,70,0,0,1,7.6-1.17,70.88,70.88,0,0,1,7.69-.32l1.43,0,1,0,.75,0a67.11,67.11,0,0,1,7.33,1.88,66.57,66.57,0,0,0-7.68,0l-.72,0c-.49,0-1.4,0-2.38-.07A66.85,66.85,0,0,0,364,159c-1,.22-1.8.4-2.37.55Z"/><path class="69bafd56-b895-4720-9734-c98a9e47767e" d="M354.57,187.22l1-1.56.89.56c.56.37,1.38.84,2.38,1.4a48.21,48.21,0,0,0,7.66,3.37,49.72,49.72,0,0,0,8.13,2c.56.1,1.08.17,1.54.22l1,.12c.46.06.72.07.72.07a48,48,0,0,0,7.37,1.13,49,49,0,0,1-7.79.7s-.27,0-.74-.08l-1.14-.14c-.47,0-1-.15-1.58-.24a51.89,51.89,0,0,1-8.31-2.1,50.34,50.34,0,0,1-7.84-3.47c-1-.58-1.86-1.06-2.44-1.44Z"/><path class="69bafd56-b895-4720-9734-c98a9e47767e" d="M364.45,175.79,365,174A72.86,72.86,0,0,0,375,176.12l1.13.15s1.8.48,3.63.86,3.69.68,3.69.68-1.93.18-3.88.24-3.91,0-3.91,0l-.91-.12A74.72,74.72,0,0,1,364.45,175.79Z"/></g><g id="94c86aaf-d6e9-493e-b8a3-8ba07ecf00bf" data-name="marquee"><path class="469bc04b-ac48-44db-b574-dbcd648ff2be" d="M7.43,179.2l-.91-.09.65-6.22,16.47-4.84-15.14-8,.56-5.45.91.09V155a3.7,3.7,0,0,0,.28,2.15,4.75,4.75,0,0,0,2.33.57l14.09,1.46a4.81,4.81,0,0,0,2.4-.08q.42-.29.72-2.05l0-.28.91.09-.86,8.26L29,165v-.27q.07-1.78-.29-2.15a4.91,4.91,0,0,0-2.33-.57l-14.9-1.54,16.26,8.55-.11,1.09-17.9,4.92,15.13,1.57a4.79,4.79,0,0,0,2.4-.08q.42-.29.72-2l0-.28.91.09-.73,7-.91-.09V181q.07-1.78-.29-2.16a4.8,4.8,0,0,0-2.33-.57L10.6,176.79a4.84,4.84,0,0,0-2.4.08q-.41.28-.71,2.06Z"/><path class="469bc04b-ac48-44db-b574-dbcd648ff2be" d="M33.83,148.43a7.18,7.18,0,0,1-3.69,4.76,8.76,8.76,0,0,1-6.45.3,8.73,8.73,0,0,1-5.33-3.64,8.08,8.08,0,0,1,3-10.75,8.75,8.75,0,0,1,6.44-.29,8.75,8.75,0,0,1,5.33,3.64A7.18,7.18,0,0,1,33.83,148.43Zm-.87-.24a3.79,3.79,0,0,0-1.15-3.71A10.08,10.08,0,0,0,27,141.77a10.1,10.1,0,0,0-5.49-.21,3.55,3.55,0,0,0-1.77,6.26,10.1,10.1,0,0,0,4.78,2.7,10.13,10.13,0,0,0,5.5.22A3.77,3.77,0,0,0,33,148.19Z"/><path class="469bc04b-ac48-44db-b574-dbcd648ff2be" d="M41,128.16l-2.74-1.21a7.6,7.6,0,0,1,1.3,3.28,6,6,0,0,1-.51,3.22,5.12,5.12,0,0,1-3.71,3.08,9.38,9.38,0,0,1-5.91-.87,10.3,10.3,0,0,1-5.12-4.29,5.86,5.86,0,0,1-.22-5.45,6.24,6.24,0,0,1,1.55-2.16,6.84,6.84,0,0,1,2.39-1.35l-4.81-2.13a5,5,0,0,0-2.32-.68q-.47.14-1.31,1.75l-.13.25-.83-.37L21,116.07,38.73,124a5,5,0,0,0,2.31.68q.48-.13,1.32-1.74l.13-.25.83.37Zm-11.93-5.29A9.2,9.2,0,0,0,27,124.4a6.13,6.13,0,0,0-1.27,1.83,3.35,3.35,0,0,0,.23,3.42,9.18,9.18,0,0,0,4,2.88,10.51,10.51,0,0,0,5.07,1.18,3.19,3.19,0,0,0,2.75-2,5,5,0,0,0,.43-2.51,6.68,6.68,0,0,0-.88-2.67Z"/><path class="469bc04b-ac48-44db-b574-dbcd648ff2be" d="M50.2,110.39a13.94,13.94,0,0,1-1.68,4.89,7.45,7.45,0,0,1-5,3.67,8.7,8.7,0,0,1-6.41-1.3,8.74,8.74,0,0,1-4-4.74,6.38,6.38,0,0,1,.65-5.53,5.3,5.3,0,0,1,3.92-2.77,8.62,8.62,0,0,1,5.5,1.52l.24.14-5,8.36a10,10,0,0,0,5.51,1.8,4.38,4.38,0,0,0,3.63-2.33,9,9,0,0,0,1.43-4.51Zm-12.58,3.75L41,108.47l-.55-.35a8.37,8.37,0,0,0-3.82-1.46A2.52,2.52,0,0,0,34.4,108a2.93,2.93,0,0,0,0,3.06A8.31,8.31,0,0,0,37.62,114.14Z"/><path class="469bc04b-ac48-44db-b574-dbcd648ff2be" d="M45.74,98,52,102.68a4.67,4.67,0,0,0,2.12,1.15q.53,0,1.66-1.4l.39-.5.73.54-5.2,7-.73-.54.16-.23q1-1.5.85-2T50.28,105l-6.71-5a4.75,4.75,0,0,0-2.1-1.15q-.5,0-1.67,1.39l-.18.22-.73-.54,3.36-4.52,2.41,1.79Q43.13,93.6,45,91a3.49,3.49,0,0,1,.72-.7l3.51,2.61-1,1.31-.22-.15a7.77,7.77,0,0,0-1.48-.74q-.28-.05-.61.38A4.11,4.11,0,0,0,45.74,98Z"/><path class="469bc04b-ac48-44db-b574-dbcd648ff2be" d="M53.44,86.24a7.77,7.77,0,0,1-.15-3.58,6.3,6.3,0,0,1,1.55-2.95A4.07,4.07,0,0,1,58,78.22a5.55,5.55,0,0,1,3.54,1.65l5.51,5a6.89,6.89,0,0,0,2.06,1.42q.37,0,1.73-1.29l.19-.19.67.62-5.63,6.17L65.44,91l.17-.21q1.17-1.48,1.12-1.85a6.91,6.91,0,0,0-1.6-1.92L60,82.33a5.49,5.49,0,0,0-2.48-1.54,2.14,2.14,0,0,0-1.89.88,4.91,4.91,0,0,0-1,2,13.37,13.37,0,0,0-.41,3.2l6.07,5.54q1.48,1.35,2,1.37T64,92.56l.2-.2.67.62-5.63,6.17-.67-.62.18-.22q1.11-1.4,1-1.9t-1.53-1.85l-6.18-5.64q-1.47-1.34-2-1.35T48.31,88.8l-.2.2-.67-.62,3.79-4.16Z"/><path class="469bc04b-ac48-44db-b574-dbcd648ff2be" d="M92.21,66.92a13.55,13.55,0,0,1-4.35,5.61A10.34,10.34,0,0,1,79.74,75q-4.18-.62-7.48-4.81t-3-8.32q.33-4.08,4.27-7.19a28,28,0,0,1,6-3.32L82,54.66l-1.42,1.12-.2-.22-.57-.66a2.56,2.56,0,0,0-2.46-1A6.88,6.88,0,0,0,74,55.55,6.13,6.13,0,0,0,71.62,61a13,13,0,0,0,3.14,7.15q2.94,3.72,6.4,4.38a8.08,8.08,0,0,0,6.7-1.9,12.06,12.06,0,0,0,3.48-4.87Z"/><path class="469bc04b-ac48-44db-b574-dbcd648ff2be" d="M100.59,62l-3.86-6-6,3.86-.88-1.38,6-3.86-3.86-6,1.38-.88,3.86,6,6-3.86.88,1.38-6,3.86,3.86,6Z"/><path class="469bc04b-ac48-44db-b574-dbcd648ff2be" d="M116.09,52.91l-3.33-6.36-6.36,3.33-.76-1.45L112,45.11l-3.33-6.36,1.45-.76,3.33,6.36L119.81,41l.76,1.45-6.36,3.33,3.33,6.36Z"/><path class="469bc04b-ac48-44db-b574-dbcd648ff2be" d="M131.22,30.48l-2.19.86-.47-1.19,2.19-.86-.28-.71q-1.33-3.39-.83-5.32a4.42,4.42,0,0,1,3-2.9,7.65,7.65,0,0,1,4-.41l1.26,3.22-1.7.67-.12-.26q-.36-.81-.54-1.26-.72-1.82-2.7-1a1.58,1.58,0,0,0-1.15,1.38,8.77,8.77,0,0,0,.82,3.23l.92,2.34,3.73-1.46.44,1.11-3.73,1.46,4,10.23q.73,1.85,1.21,2.09a4,4,0,0,0,2.3-.37l.43-.15.33.85-8.12,3.19-.33-.85.25-.12q1.62-.76,1.78-1.25a4.8,4.8,0,0,0-.56-2.34Z"/><path class="469bc04b-ac48-44db-b574-dbcd648ff2be" d="M153,38.66a7.17,7.17,0,0,1-6-.44A8.75,8.75,0,0,1,143.17,33a8.73,8.73,0,0,1,.08-6.45,8.08,8.08,0,0,1,10.64-3.41,8.74,8.74,0,0,1,3.81,5.2,8.75,8.75,0,0,1-.08,6.46A7.17,7.17,0,0,1,153,38.66Zm-.28-.85a3.79,3.79,0,0,0,2.46-3,10.09,10.09,0,0,0-.4-5.49,10.1,10.1,0,0,0-2.87-4.68,3.55,3.55,0,0,0-6.2,2,10.11,10.11,0,0,0,.39,5.48,10.13,10.13,0,0,0,2.86,4.7A3.77,3.77,0,0,0,152.71,37.8Z"/><path class="469bc04b-ac48-44db-b574-dbcd648ff2be" d="M164.37,22.91l1.91,7.59a4.67,4.67,0,0,0,.92,2.23,3.58,3.58,0,0,0,2.17,0l.62-.14.22.89-8.46,2.13-.22-.89.27-.08q1.7-.55,1.93-1a4.8,4.8,0,0,0-.26-2.39l-2-8.11a4.74,4.74,0,0,0-.9-2.22,3.73,3.73,0,0,0-2.18,0l-.27.05-.22-.89,5.46-1.37L164,21.6q1.11-3.76,4.22-4.54a3.5,3.5,0,0,1,1-.08l1.07,4.24-1.59.4-.08-.25a7.74,7.74,0,0,0-.68-1.51q-.18-.22-.71-.09A4.11,4.11,0,0,0,164.37,22.91Z"/><path class="469bc04b-ac48-44db-b574-dbcd648ff2be" d="M193.13,29a5.51,5.51,0,0,1-2,.79,4.81,4.81,0,0,1-3.88-.67,5.93,5.93,0,0,1-1.81-3.84l-1.57-9.68-2.33.38-.19-1.18,2.33-.38-.46-2.86L186,10.33l.58,3.58,4.41-.71.19,1.18-4.41.71,1.63,10.06a5.79,5.79,0,0,0,1,2.81,2,2,0,0,0,2,.56,4.18,4.18,0,0,0,1.59-.72Z"/><path class="469bc04b-ac48-44db-b574-dbcd648ff2be" d="M198.85,15.22a7.77,7.77,0,0,1,2.28-2.77,6.3,6.3,0,0,1,3.12-1.16,4.07,4.07,0,0,1,3.36,1,5.55,5.55,0,0,1,1.54,3.59l.76,7.42a6.9,6.9,0,0,0,.59,2.43,4.47,4.47,0,0,0,2.15.2h.27l.09.91-8.31.85-.09-.91.26,0q1.86-.32,2.07-.63a6.92,6.92,0,0,0,.09-2.5l-.71-7a5.49,5.49,0,0,0-.83-2.8,2.14,2.14,0,0,0-2-.6,4.91,4.91,0,0,0-2.11.83,13.38,13.38,0,0,0-2.44,2.11l.83,8.17a4.92,4.92,0,0,0,.56,2.34q.36.35,2.16.28h.28l.09.91-8.31.85-.09-.91.28,0q1.76-.3,2.05-.72a4.8,4.8,0,0,0,.09-2.4L195.31,9.1a4.8,4.8,0,0,0-.57-2.33q-.37-.36-2.15-.29h-.28l-.09-.91,5.6-.57Z"/><path class="469bc04b-ac48-44db-b574-dbcd648ff2be" d="M227.06,25.69A13.94,13.94,0,0,1,222,27a7.45,7.45,0,0,1-5.8-2.17,8.7,8.7,0,0,1-2.42-6.08,8.73,8.73,0,0,1,1.76-6,6.37,6.37,0,0,1,5-2.48A5.3,5.3,0,0,1,225,12a8.62,8.62,0,0,1,1.73,5.44v.28L217,18.1a10,10,0,0,0,1.5,5.6,4.38,4.38,0,0,0,3.93,1.77A9,9,0,0,0,227,24.2ZM217,17.2l6.62-.24v-.65a8.37,8.37,0,0,0-.87-4,2.52,2.52,0,0,0-2.4-1.15,2.93,2.93,0,0,0-2.54,1.7A8.31,8.31,0,0,0,217,17.2Z"/><path class="469bc04b-ac48-44db-b574-dbcd648ff2be" d="M256.55,26.48a13.54,13.54,0,0,1-7,1.25,10.34,10.34,0,0,1-7.69-3.6q-2.68-3.26-2.33-8.59t3.34-8.2q3-2.81,8-2.47A28,28,0,0,1,257.5,6.4l-.28,4.16-1.81-.12v-.29q0-.44,0-.87a2.56,2.56,0,0,0-1.18-2.36,6.88,6.88,0,0,0-3.59-1.07,6.13,6.13,0,0,0-5.46,2.47,13,13,0,0,0-2.47,7.41q-.32,4.73,1.81,7.54a8.08,8.08,0,0,0,6.25,3.08,12.06,12.06,0,0,0,5.84-1.28Z"/><path class="469bc04b-ac48-44db-b574-dbcd648ff2be" d="M260.35,20.22l.27-2.16,6.58.83L266.93,21Z"/><path class="469bc04b-ac48-44db-b574-dbcd648ff2be" d="M274.56,30.46l-1-18.74a15.11,15.11,0,0,0-.3-2.85q-.14-.26-1.53-.54l-.3-.09.18-.9,7.65,1.54-.18.9-.27-.06A6.6,6.6,0,0,0,277,9.51q-.4.07-.51.59a12,12,0,0,0,0,2.21l.67,13.07,8.15-15,1,.2L287.95,28l6.29-12.12a21.42,21.42,0,0,0,1.11-2.32q.1-.5-2.15-1l-.26-.05.18-.9L299,12.84l-.18.9-.27,0a4.25,4.25,0,0,0-1.76-.08,16.91,16.91,0,0,0-1.45,2.45l-8.81,16.77-1-.19L283.82,15.2l-8.25,15.46Z"/><path class="469bc04b-ac48-44db-b574-dbcd648ff2be" d="M304.49,20.71l-3.28,11.73a4.92,4.92,0,0,0-.33,2.38q.21.46,1.91,1.05l.26.09-.25.88-8-2.25.25-.88.27.06a3.63,3.63,0,0,0,2.17.08,4.8,4.8,0,0,0,1-2.2l2.25-8.06a4.75,4.75,0,0,0,.32-2.37q-.22-.46-1.9-1.06l-.27-.09.25-.88Zm-2-3.58.78-2.79,2.79.78-.78,2.79Z"/><path class="469bc04b-ac48-44db-b574-dbcd648ff2be" d="M316.84,40.69a13.93,13.93,0,0,1-5.14-.58A7.45,7.45,0,0,1,307,36a8.7,8.7,0,0,1-.12-6.54,8.73,8.73,0,0,1,3.75-5,6.37,6.37,0,0,1,5.54-.57,5.3,5.3,0,0,1,3.55,3.23,8.62,8.62,0,0,1-.29,5.7l-.09.27-9.26-3.11a10,10,0,0,0-.56,5.77,4.38,4.38,0,0,0,3.06,3,9,9,0,0,0,4.71.42Zm-6.39-11.47,6.28,2.11.22-.61a8.37,8.37,0,0,0,.6-4,2.52,2.52,0,0,0-1.84-1.92,2.93,2.93,0,0,0-3,.69A8.31,8.31,0,0,0,310.45,29.22Z"/><path class="469bc04b-ac48-44db-b574-dbcd648ff2be" d="M332.11,22.52l-7.17,18.07a4.92,4.92,0,0,0-.58,2.34q.16.48,1.79,1.25l.25.12-.34.85-7.76-3.08.34-.85.27.09q1.7.55,2.15.31a4.8,4.8,0,0,0,1.19-2.09L328,25a4.8,4.8,0,0,0,.57-2.33q-.16-.48-1.78-1.25l-.25-.12.34-.85Z"/><path class="469bc04b-ac48-44db-b574-dbcd648ff2be" d="M338.28,50.7,339.55,48a7.6,7.6,0,0,1-3.31,1.22,6,6,0,0,1-3.21-.58,5.12,5.12,0,0,1-3-3.78A9.38,9.38,0,0,1,331,39a10.3,10.3,0,0,1,4.41-5,5.86,5.86,0,0,1,5.46-.09,6.22,6.22,0,0,1,2.12,1.6,6.84,6.84,0,0,1,1.3,2.42l2.24-4.76a5,5,0,0,0,.74-2.3q-.13-.48-1.71-1.35l-.25-.13.39-.83,5.09,2.4-8.3,17.58a5,5,0,0,0-.73,2.29q.12.48,1.71,1.36l.25.13-.39.83Zm5.57-11.8a9.19,9.19,0,0,0-1.48-2.11,6.12,6.12,0,0,0-1.8-1.31,3.35,3.35,0,0,0-3.43.15,9.18,9.18,0,0,0-3,3.93,10.51,10.51,0,0,0-1.3,5,3.19,3.19,0,0,0,1.94,2.8,5,5,0,0,0,2.5.48,6.69,6.69,0,0,0,2.68-.81Z"/><path class="469bc04b-ac48-44db-b574-dbcd648ff2be" d="M356.63,42.32,350.73,53a4.91,4.91,0,0,0-.87,2.24q.1.49,1.62,1.47l.24.15-.44.8-7.31-4,.44-.8.25.12q1.62.76,2.1.58t1.44-1.92l4.06-7.32A4.75,4.75,0,0,0,353.1,42q-.1-.5-1.6-1.48l-.24-.15.44-.8Zm-1.13-3.94,1.41-2.54,2.54,1.41L358,39.78Z"/><path class="469bc04b-ac48-44db-b574-dbcd648ff2be" d="M363.61,49.91a7.78,7.78,0,0,1,3.51-.73,6.3,6.3,0,0,1,3.17,1,4.07,4.07,0,0,1,2,2.9,5.55,5.55,0,0,1-1,3.77l-4,6.27a6.91,6.91,0,0,0-1.06,2.26q0,.36,1.56,1.5l.21.16-.5.77-7-4.53.5-.77.23.13q1.66.91,2,.8a6.9,6.9,0,0,0,1.63-1.9l3.8-5.89a5.49,5.49,0,0,0,1.1-2.7,2.14,2.14,0,0,0-1.18-1.72,4.91,4.91,0,0,0-2.16-.67,13.37,13.37,0,0,0-3.22.12l-4.46,6.9a4.91,4.91,0,0,0-1,2.18q.06.5,1.51,1.57l.23.16-.5.77-7-4.53.5-.77.24.14q1.56.87,2.05.72t1.57-1.82l4.54-7a4.75,4.75,0,0,0,1-2.17q-.07-.5-1.5-1.58l-.23-.16.5-.77,4.73,3.05Z"/><path class="469bc04b-ac48-44db-b574-dbcd648ff2be" d="M370.67,69.69a2.34,2.34,0,0,1,0-2.67,2.15,2.15,0,0,1,1.46-.73,7.57,7.57,0,0,1,2.53.18,5.39,5.39,0,0,1-.68-3.08,5.68,5.68,0,0,1,1.28-3,5.35,5.35,0,0,1,3.83-2.21,6.18,6.18,0,0,1,4.41,1.51,7.22,7.22,0,0,1,2,2.36l4.69,3.12-1.67.94-2.64-2.86a5.75,5.75,0,0,1-1.16,4.53A5.43,5.43,0,0,1,380.88,70a5.81,5.81,0,0,1-4.31-1.34,7.68,7.68,0,0,1-1.43-1.51,3,3,0,0,0-1.14.18,1.84,1.84,0,0,0-.79.58q-.64.82.8,2l2,1.57q2.89,2.26,3.49,3.73a3,3,0,0,1-.67,3.09,4.26,4.26,0,0,1-3.93,1.62,9.84,9.84,0,0,1-5.22-2.32,12.61,12.61,0,0,1-3.58-4q-1-2,0-3.19a2.61,2.61,0,0,1,1.77-1A7.33,7.33,0,0,1,370.67,69.69Zm.45.67a3.54,3.54,0,0,0-1.38.43,3.73,3.73,0,0,0-1.11,1,2.56,2.56,0,0,0-.52,2.49,6.1,6.1,0,0,0,2.19,2.68,5.63,5.63,0,0,0,3.28,1.37,3,3,0,0,0,2.58-1.22,1.87,1.87,0,0,0,.41-1.76,4,4,0,0,0-1.48-1.86Zm6.48-8.23A6.84,6.84,0,0,0,376,65.48a2.58,2.58,0,0,0,1.08,2.4,2.55,2.55,0,0,0,2.57.47A6.9,6.9,0,0,0,382.46,66q2.86-3.65.45-5.54a2.64,2.64,0,0,0-2.55-.54A6.24,6.24,0,0,0,377.6,62.13Z"/><path class="469bc04b-ac48-44db-b574-dbcd648ff2be" d="M395.55,83.23l-3,1a7.72,7.72,0,0,0-2.18,1q-.46.42.83,1.82l.16.17-.67.62-3.83-4.16.67-.62.22.22q.9.89,1.25.9a16.09,16.09,0,0,0,2.72-.83l18.65-6.71.69.76L402.76,95.5a11.07,11.07,0,0,0-.87,2.52,2.22,2.22,0,0,0,.66,1.36l.22.26-.67.62-5.48-6,.67-.62.18.2q1.4,1.52,1.83,1.12a6.29,6.29,0,0,0,1.28-2l1.31-2.86Zm1.2-.46,5.65,6.15,4.5-9.77Z"/><path class="469bc04b-ac48-44db-b574-dbcd648ff2be" d="M403.42,101.08l3.29-2.39,1,1.32-.21.19a21.63,21.63,0,0,0-1.85,1.69,1.89,1.89,0,0,0-.14,1.06,5.34,5.34,0,0,0,1,2.9,3,3,0,0,0,1.93,1.29,2.74,2.74,0,0,0,2.18-.53,2.69,2.69,0,0,0,1.12-1.5,5.25,5.25,0,0,0-.2-2.35l-.41-1.54a9.25,9.25,0,0,1-.34-4A4.14,4.14,0,0,1,415.94,94a6.05,6.05,0,0,1,3.35,2.46,14.11,14.11,0,0,1,2.1,4.46l-3.09,2.24-1-1.32.21-.16a11.84,11.84,0,0,0,1.48-1.36,1.53,1.53,0,0,0,.39-.86,3.63,3.63,0,0,0-.75-2.31,2.93,2.93,0,0,0-1.92-1.24,2.77,2.77,0,0,0-2.18.53,2.1,2.1,0,0,0-.93,1.53,9.82,9.82,0,0,0,.42,3.08l.34,1.43a8.74,8.74,0,0,1,.3,3.62,3.7,3.7,0,0,1-1.54,2.19,4.25,4.25,0,0,1-3.82.67,6.91,6.91,0,0,1-3.69-2.79A12.83,12.83,0,0,1,403.42,101.08Z"/><path class="469bc04b-ac48-44db-b574-dbcd648ff2be" d="M414.87,116.16,411.54,118q-1.75,1-1.92,1.44t.6,2.1l.12.25-.8.45L405.46,115l.8-.45.15.24q1,1.49,1.48,1.59a4.75,4.75,0,0,0,2.23-.87l12.37-6.94q1.73-1,1.91-1.45t-.59-2.1l-.12-.25.8-.45,2.75,4.91-2.61,1.46a7.66,7.66,0,0,1,3.37.86,5.59,5.59,0,0,1,2.21,2.21,4.86,4.86,0,0,1,.17,4.67,9.64,9.64,0,0,1-4.26,4.16,10.64,10.64,0,0,1-6.47,1.6,5.55,5.55,0,0,1-4.41-2.92,5.82,5.82,0,0,1-.75-2.45A6.56,6.56,0,0,1,414.87,116.16Zm1-.56a9.29,9.29,0,0,0-.06,2.51,5.42,5.42,0,0,0,.63,2,3.12,3.12,0,0,0,2.8,1.71,9.68,9.68,0,0,0,4.67-1.53,11.05,11.05,0,0,0,4-3.31,3,3,0,0,0,.13-3.26,4.53,4.53,0,0,0-1.68-1.72,6.74,6.74,0,0,0-2.62-.82Z"/><path class="469bc04b-ac48-44db-b574-dbcd648ff2be" d="M436.42,127.49l-11.18,4.84a4.93,4.93,0,0,0-2.06,1.24q-.22.45.39,2.15l.1.26-.84.36-3.32-7.66.84-.36.13.25q.82,1.59,1.31,1.74a4.81,4.81,0,0,0,2.31-.64l7.68-3.33q1.83-.79,2-1.25a3.75,3.75,0,0,0-.37-2.14l-.1-.26.84-.36Zm1.51-3.82,2.66-1.15,1.15,2.66-2.66,1.15Z"/><path class="469bc04b-ac48-44db-b574-dbcd648ff2be" d="M435.89,138.39l-7.41,2.49a4.67,4.67,0,0,0-2.15,1.09,3.58,3.58,0,0,0,.2,2.16l.19.6-.87.29-2.78-8.26.87-.29.1.26q.68,1.65,1.16,1.84a4.8,4.8,0,0,0,2.36-.44l7.93-2.67a4.75,4.75,0,0,0,2.14-1.07,3.73,3.73,0,0,0-.19-2.17l-.08-.27.87-.29L440,137l-2.85,1q3.83.81,4.86,3.85a3.51,3.51,0,0,1,.16,1l-4.15,1.4-.52-1.55.25-.1a7.75,7.75,0,0,0,1.45-.79c.14-.13.15-.37,0-.72A4.11,4.11,0,0,0,435.89,138.39Z"/><path class="469bc04b-ac48-44db-b574-dbcd648ff2be" d="M431.57,158.9q-3-2-3.57-4.48a4.73,4.73,0,0,1,.56-3.58,4.28,4.28,0,0,1,2.88-2,4.5,4.5,0,0,1,4,1q2,1.63,3,6.35l.13.59,1.94-.41q3.7-.79,3.1-3.6a3.69,3.69,0,0,0-1.3-2.15,3.06,3.06,0,0,0-2.16-.32l-.28,0-.41-1.93,2.87-.61a14.29,14.29,0,0,1,2.5,5.28q1.09,5.1-3.6,6.1l-7,1.49a7.65,7.65,0,0,0-2.57.89,1.17,1.17,0,0,0-.52,1.29,3.06,3.06,0,0,0,.29.74l-1,.31a5.72,5.72,0,0,1-.75-1.75Q429.19,160,431.57,158.9Zm.18-.72,5.92-1.26-.14-.66a6.64,6.64,0,0,0-1.88-3.7,3.44,3.44,0,0,0-3.17-.8,3.16,3.16,0,0,0-2.07,1.36,3,3,0,0,0-.43,2.38A5.62,5.62,0,0,0,431.75,158.17Z"/><path class="469bc04b-ac48-44db-b574-dbcd648ff2be" d="M443.88,168.79a7.78,7.78,0,0,1,2.69,2.37,6.3,6.3,0,0,1,1.06,3.16,4.07,4.07,0,0,1-1.13,3.33,5.55,5.55,0,0,1-3.64,1.42l-7.44.52a6.9,6.9,0,0,0-2.44.51,4.46,4.46,0,0,0-.26,2.15v.27l-.91.06-.59-8.33.91-.06,0,.26a4.47,4.47,0,0,0,.56,2.09,6.92,6.92,0,0,0,2.49.16l7-.49a5.49,5.49,0,0,0,2.82-.74,2.14,2.14,0,0,0,.67-2,4.91,4.91,0,0,0-.76-2.13,13.37,13.37,0,0,0-2-2.5l-8.2.58a4.91,4.91,0,0,0-2.36.49q-.36.35-.35,2.15v.28l-.91.06-.59-8.33.91-.06,0,.28q.24,1.77.66,2.07a4.81,4.81,0,0,0,2.4.16l8.35-.59a4.75,4.75,0,0,0,2.34-.5,3.73,3.73,0,0,0,.37-2.14V163l.91-.06.39,5.61Z"/><path class="469bc04b-ac48-44db-b574-dbcd648ff2be" d="M431.13,192.59a5.51,5.51,0,0,1-.35-2.13,4.81,4.81,0,0,1,1.47-3.65,5.93,5.93,0,0,1,4.13-1l9.8.51.12-2.35,1.19.06-.12,2.35,2.9.15.57,2.94-3.62-.19-.23,4.46-1.19-.06.23-4.46-10.18-.53a5.79,5.79,0,0,0-3,.4,2,2,0,0,0-1,1.82,4.17,4.17,0,0,0,.37,1.71Z"/></g><g id="5f44656f-66b0-429e-8eae-2ed21bce295e" data-name="C eyes"><path d="M177.25,89.74l.83,2.23c.52,1.48,1.24,3.65,2,6.46.39,1.4.73,3,1.05,4.71s.65,3.6.83,5.64a46.92,46.92,0,0,1-.49,13.77,29.08,29.08,0,0,1-2.63,7.66,24.39,24.39,0,0,1-2.39,3.69,20.33,20.33,0,0,1-3.31,3.23,18.17,18.17,0,0,1-4.21,2.39c-.36.13-.63.27-1.08.4s-.84.26-1.25.37a20.53,20.53,0,0,1-2.46.44,22.88,22.88,0,0,1-10-1.21c-6.42-2.21-12-6.49-16.58-11.56a64.51,64.51,0,0,1-11.05-17.43,66.15,66.15,0,0,1-5.31-20.11c-.63-6.93,0-14.15,3-20.71a23.93,23.93,0,0,1,6.64-8.6,19.85,19.85,0,0,1,4.72-2.81l.31-.14.16-.07.08,0,.22-.08.52-.17c.36-.11.63-.22,1.16-.35s1-.26,1.41-.34l1.3-.21a22.11,22.11,0,0,1,5.08,0A24.45,24.45,0,0,1,150.46,58,29.66,29.66,0,0,1,158,62a45.92,45.92,0,0,1,9.9,10.22,72.7,72.7,0,0,1,5.54,9.1c1.34,2.61,2.26,4.71,2.87,6.15l.89,2.22Zm-.74.3-1-2.14a50.49,50.49,0,0,0-3.3-5.79,47.08,47.08,0,0,0-2.79-3.82,52.7,52.7,0,0,0-3.74-4.08,40.58,40.58,0,0,0-10.51-7.42c-4.1-2-8.92-3.16-13.22-2.24l-.8.19c-.25.07-.44.15-.67.21a8.8,8.8,0,0,0-.89.33l-.51.2.09,0,0,0-.09,0-.18.09a11.76,11.76,0,0,0-2.79,1.83,17.45,17.45,0,0,0-4.3,5.84c-2.27,4.71-3.2,10.63-3.05,16.66a56.7,56.7,0,0,0,3.75,18.15,58.55,58.55,0,0,0,9.35,16.19c3.95,4.7,8.69,8.71,14,10.81a18.44,18.44,0,0,0,8,1.4,16.39,16.39,0,0,0,1.93-.24,14.18,14.18,0,0,0,1.88-.52,14.85,14.85,0,0,0,3.4-1.66,18.69,18.69,0,0,0,5.19-5.41,28,28,0,0,0,3-6.69,40.57,40.57,0,0,0,1.66-13.12,53.33,53.33,0,0,0-.51-5.58c-.28-1.71-.59-3.27-.94-4.67a52.24,52.24,0,0,0-2-6.37L176.5,90Z"/><path d="M277.78,81.15l-1.08,2.73a69.89,69.89,0,0,0-2.47,7.87c-.44,1.72-.82,3.66-1.18,5.77a66.6,66.6,0,0,0-.66,6.89,50.82,50.82,0,0,0,1.91,16.28,34.73,34.73,0,0,0,3.71,8.38,23.31,23.31,0,0,0,6.47,6.86,18.83,18.83,0,0,0,4.29,2.13,18.54,18.54,0,0,0,2.37.67l1.22.21c.41.06.82.08,1.24.12a23.28,23.28,0,0,0,10.08-1.68c6.65-2.59,12.64-7.56,17.57-13.43a69,69,0,0,0,6.64-9.56,78.87,78.87,0,0,0,5.06-10.56c.34-.95.73-1.94,1-2.86s.61-1.81.88-2.76c.58-1.87,1-3.77,1.46-5.66a65.31,65.31,0,0,0,1.46-11.42c.24-7.55-.87-15-3.76-21a22.27,22.27,0,0,0-5.59-7.54,15.47,15.47,0,0,0-3.67-2.37l-.24-.12-.12-.06-.06,0,.08,0-.63-.25a10.86,10.86,0,0,0-1.13-.41c-.31-.08-.58-.19-.92-.28l-1-.24a21.86,21.86,0,0,0-8.62.15,34.64,34.64,0,0,0-8.19,3A50.93,50.93,0,0,0,291,61.41a66,66,0,0,0-4.56,5.13c-1.3,1.68-2.46,3.27-3.4,4.77a65.27,65.27,0,0,0-4,7.19l-1.22,2.66Zm-.74-.3,1.12-2.73c.77-1.77,1.91-4.35,3.6-7.55a85.74,85.74,0,0,1,7-11.1A56.27,56.27,0,0,1,301,47.17a35.75,35.75,0,0,1,9.24-4.75,31.52,31.52,0,0,1,5.57-1.27,26.33,26.33,0,0,1,6.07,0l1.55.26c.53.1,1.1.26,1.65.4s1,.29,1.4.43l.64.21.23.09.09,0,.19.08.37.16a23.56,23.56,0,0,1,5.6,3.36,28.76,28.76,0,0,1,7.93,10.29c3.66,7.89,4.43,16.65,3.71,25.09A78.27,78.27,0,0,1,343,94.16c-.55,2.06-1.15,4.1-1.86,6.1-.33,1-.74,2-1.11,3s-.78,1.9-1.17,2.86a84.64,84.64,0,0,1-5.92,11.3,74.68,74.68,0,0,1-7.58,10.09c-5.61,6.19-12.35,11.46-20.14,14.18a27.69,27.69,0,0,1-12.06,1.53c-.5-.07-1-.12-1.5-.21l-1.48-.31c-.5-.13-1-.29-1.5-.43s-.88-.32-1.32-.48a22,22,0,0,1-5.1-2.86,24.82,24.82,0,0,1-4-3.89,29.78,29.78,0,0,1-2.94-4.47,35.81,35.81,0,0,1-3.3-9.35,57.18,57.18,0,0,1-.74-16.93,82.35,82.35,0,0,1,2.27-12.76c.92-3.47,1.78-6.16,2.44-8l1-2.75Z"/><path d="M177.36,58.83l-2.64.23c-.84.09-1.86.14-3.05.17s-2.54.1-4,.06-3-.07-4.73-.16c-.84,0-1.7-.11-2.58-.2l-2.7-.27c-1.82-.25-3.72-.47-5.62-.87s-3.82-.81-5.76-1.25-3.85-.94-5.74-1.47a39,39,0,0,1-5.47-1.81,32.23,32.23,0,0,1-4.72-2.59c-.72-.46-1.4-1-2.06-1.41s-1.26-1-1.83-1.46-1.12-1-1.63-1.42-1-.94-1.38-1.39-.81-.87-1.17-1.27-.64-.81-.92-1.16c-.55-.71-.95-1.3-1.21-1.71s-.4-.64-.4-.64l.46-.65s.27,0,.74.13,1.16.25,2,.48,1.86.49,3,.84,2.37.76,3.71,1.21,2.76,1,4.25,1.54,3,1.15,4.59,1.9,3.12,1.6,4.75,2.42,3.3,1.63,5,2.37,3.46,1.36,5.21,1.93,3.46,1.14,5.14,1.68,3.33,1,4.9,1.33,3.07.76,4.46,1l2,.42,1.81.32c1.13.21,2.14.38,3,.49l2.62.39Z"/><path d="M269.89,49.83l1.77-1.37c1.12-.87,2.77-2.09,4.75-3.52l3.22-2.29c1.14-.82,2.37-1.63,3.63-2.49s2.57-1.75,3.93-2.6l4.11-2.6c1.38-.86,2.73-1.79,4.07-2.69a37.75,37.75,0,0,1,4-2.48,28.56,28.56,0,0,1,4.07-1.68A39.18,39.18,0,0,1,307.27,27c1.21-.3,2.35-.5,3.37-.64s1.94-.22,2.7-.26,1.37,0,1.8,0,.65,0,.65,0l.34.73s-.13.19-.4.52-.66.8-1.18,1.35-1.15,1.22-1.91,1.9S311,32,310,32.78s-2,1.54-3.21,2.3a30.47,30.47,0,0,1-3.76,2.17,41.83,41.83,0,0,1-4.33,1.7c-1.51.52-3,1.08-4.51,1.69-3,1.23-5.93,2.52-8.75,3.66l-7.67,3.17-7.53,3.06Z"/><path d="M156.37,102.08l-.46-.21a10.08,10.08,0,0,1-1.15-.64l-.72-.48c-.26-.17-.49-.38-.76-.58a11,11,0,0,1-1.47-1.42c-.43-.52-1.3-.93-1.52-1.51a1.38,1.38,0,0,1,0-.93,3.32,3.32,0,0,1,.46-.93,6.12,6.12,0,0,1,.7-.83l.38-.36.42-.32c.27-.19.44-.33.63-.44l.27-.16.79-.15.32,0c.22,0,.43.08.75.14l.51.1.49.13c.32.1.67.2,1,.33a3.79,3.79,0,0,1,.81.43,1,1,0,0,1,.46.58c.1.46-.41,1.15-.45,1.73s-.12,1.16-.22,1.75l-.24,1.64-.29,1.73Z"/><path d="M303.8,96.4s.26-1,.75-2.33c.25-.67.54-1.46.9-2.27s.74-1.66,1.16-2.48.53-1.93,1.08-2.56a2.75,2.75,0,0,1,1.08-.72,5.73,5.73,0,0,1,1.39-.41,6.48,6.48,0,0,1,1.44-.07l.65.09c.21.05.42.12.59.18a4.27,4.27,0,0,1,.8.35l.29.19.36.72v.34c0,.23,0,.46,0,.8l.05.54c0,.16,0,.34,0,.53,0,.36.05.73,0,1.1a3.94,3.94,0,0,1-.15,1.08,2.06,2.06,0,0,1-.57,1c-.59.58-1.71.74-2.49,1.23s-1.59.93-2.4,1.31-1.56.74-2.21,1c-1.33.58-2.28.89-2.28.89Z"/></g></svg>