<svg xmlns="http://www.w3.org/2000/svg" viewBox="0 0 274 132"><defs><style>.a,.b{fill:#933;}.b{opacity:0;}</style></defs><title>Artboard 1</title><path class="a" d="M86.1729,55.62H80.5605L73.9814,42.9688a.4975.4975,0,0,0-.5058-.3682H72.4639a.4118.4118,0,0,0-.4141.414V55.62H66.8965V22.0361h9.3857c7.2686,0,9.8907,2.8067,9.8907,10.4434,0,6.21-2.1163,9.0166-6.9,9.8447ZM74.9014,26.8662H72.7393c-.46,0-.6895.1387-.6895.5527V37.08a.4935.4935,0,0,0,.5059.5517h2.3457c5.0146,0,6.0273-1.38,6.0273-5.1523C80.9287,28.5225,80.376,26.8662,74.9014,26.8662Z"/><path class="a" d="M105.0322,55.62H88.792V21.99h16.24v4.7842H95.1875a1.2806,1.2806,0,0,0-1.15,1.1963v9.0635a1.1524,1.1524,0,0,0,1.0576,1.1494h8.0977v5.2451H95.1416a1.1546,1.1546,0,0,0-1.1045,1.2422v4.5547a1.0551,1.0551,0,0,0,1.0576,1.1494h9.9375Z"/><path class="b" d="M128.125,22.0361,119.3838,55.62h-5.52l-8.2813-33.584h5.3828l5.3829,21.9444c.0459.23.1836.3222.3212.3222s.2764-.1377.3682-.3681l5.7051-21.8985Z"/><path class="a" d="M145.5586,55.62h-16.24V21.99h16.24v4.7842h-9.8457a1.2814,1.2814,0,0,0-1.15,1.1963v9.0635a1.1532,1.1532,0,0,0,1.0586,1.1494h8.0967v5.2451H135.667a1.1552,1.1552,0,0,0-1.1045,1.2422v4.5547a1.0553,1.0553,0,0,0,1.0586,1.1494h9.9375Z"/><path class="a" d="M167.5928,55.62H161.98l-6.5781-12.6513a.5.5,0,0,0-.5069-.3682h-1.0117a.4123.4123,0,0,0-.414.414V55.62h-5.1524V22.0361h9.3848c7.2685,0,9.8916,2.8067,9.8916,10.4434,0,6.21-2.1162,9.0166-6.9014,9.8447ZM156.3213,26.8662h-2.1621c-.46,0-.69.1387-.69.5527V37.08a.4934.4934,0,0,0,.5058.5517h2.3467c5.0146,0,6.0264-1.38,6.0264-5.1523C162.3477,28.5225,161.7959,26.8662,156.3213,26.8662Z"/><path class="a" d="M189.6719,47.5693c0,5.4746-2.8985,8.8789-10.1211,8.8789-7.7744,0-9.8447-2.1621-9.8447-10.1211h5.4287c0,3.7725.414,5.0147,4.416,5.0147,3.6806,0,4.4629-1.3809,4.4629-3.8652,0-1.7022-.2305-2.7139-3.543-5.0147L177.3887,40.3c-3.8643-2.7139-7.6826-4.6924-7.6826-10.4434,0-4.8759,2.4384-8.5107,9.9824-8.5107,7.8213,0,9.6611,2.07,9.6611,9.5234h-5.3359c0-4.1406-1.5645-4.4628-4.4629-4.4628-3.2666,0-4.2783,1.288-4.2783,3.497,0,1.5635.46,2.6221,4.6923,5.3819l3.4961,2.3007c2.9912,1.9786,5.751,4.5547,6.1192,8.0967C189.626,46.3271,189.6719,46.9707,189.6719,47.5693Z"/><path class="a" d="M208.21,55.62H191.97V21.99h16.24v4.7842h-9.8457a1.2814,1.2814,0,0,0-1.15,1.1963v9.0635a1.1532,1.1532,0,0,0,1.0586,1.1494h8.0966v5.2451h-8.0507a1.1552,1.1552,0,0,0-1.1045,1.2422v4.5547a1.0552,1.0552,0,0,0,1.0586,1.1494H208.21Z"/><path class="a" d="M49.7178,110.82h-16.24V77.19h16.24v4.7842H39.873a1.2805,1.2805,0,0,0-1.15,1.1963v9.0635A1.1523,1.1523,0,0,0,39.78,93.3838h8.0976v5.2451H39.8271a1.1546,1.1546,0,0,0-1.1044,1.2422v4.5547a1.055,1.055,0,0,0,1.0576,1.1494h9.9375Z"/><path class="a" d="M71.89,110.82H66.6455L57.9961,90.8535a.246.246,0,0,0-.1836-.1377.1681.1681,0,0,0-.1836.1836V110.82H52.3838V77.2363h5.2451l8.6484,20.1963a.3048.3048,0,0,0,.2305.1836.2049.2049,0,0,0,.1377-.1836V77.2363H71.89Z"/><path class="a" d="M88.8633,86.2529c0-4.0478-1.4258-4.4619-4.2783-4.4619-3.2207,0-4.5547.5518-4.5547,12.2832,0,11.3633,1.38,12.2832,4.5547,12.2832,3.0361,0,4.2324-.8281,4.2324-4.6006V99.3652c0-.4609-.1836-.7363-.6436-.7363H84.585V93.3838h9.5693c.0918,1.334.1836,2.7148.1836,4.1406,0,12.2373-2.2539,14.124-9.7529,14.124-8.1426,0-9.7989-2.4843-9.7989-17.5742,0-13.3418,1.6563-17.5283,9.8907-17.5283,6.8554,0,8.9248,1.6562,9.5234,9.707Z"/><path class="a" d="M100.2236,82.665a3.0366,3.0366,0,0,1,0-6.0732,3.0369,3.0369,0,1,1,0,6.0732Zm2.6221,28.1553H97.6016V84.5967h5.2441Z"/><path class="a" d="M126.3994,110.82h-5.2441l-8.6494-19.9668a.246.246,0,0,0-.1836-.1377.1684.1684,0,0,0-.1846.1836V110.82h-5.2441V77.2363h5.2441l8.6494,20.1963a.305.305,0,0,0,.23.1836.2056.2056,0,0,0,.1387-.1836V77.2363h5.2441Z"/><path class="a" d="M145.8574,110.82h-16.24V77.19h16.24v4.7842h-9.8457a1.2815,1.2815,0,0,0-1.15,1.1963v9.0635a1.1532,1.1532,0,0,0,1.0586,1.1494h8.0967v5.2451h-8.0508a1.1552,1.1552,0,0,0-1.1045,1.2422v4.5547a1.0553,1.0553,0,0,0,1.0586,1.1494h9.9375Z"/><path class="a" d="M164.4873,110.82h-16.24V77.19h16.24v4.7842h-9.8457a1.2814,1.2814,0,0,0-1.15,1.1963v9.0635a1.1532,1.1532,0,0,0,1.0586,1.1494h8.0967v5.2451h-8.0508a1.1552,1.1552,0,0,0-1.1045,1.2422v4.5547a1.0553,1.0553,0,0,0,1.0586,1.1494h9.9375Z"/><path class="a" d="M186.5215,110.82h-5.6133L174.33,98.1689a.5.5,0,0,0-.5069-.3681h-1.0117a.4123.4123,0,0,0-.414.414V110.82h-5.1524V77.2363H176.63c7.2685,0,9.8916,2.8067,9.8916,10.4434,0,6.21-2.1162,9.0166-6.9014,9.8447ZM175.25,82.0664h-2.1621c-.46,0-.69.1387-.69.5527V92.28a.4934.4934,0,0,0,.5058.5517H175.25c5.0146,0,6.0264-1.38,6.0264-5.1523C181.2764,83.7227,180.7246,82.0664,175.25,82.0664Z"/><path class="a" d="M192.4072,82.665a3.0366,3.0366,0,0,1,0-6.0732,3.0369,3.0369,0,1,1,0,6.0732Zm2.6221,28.1553h-5.2451V84.5967h5.2451Z"/><path class="a" d="M218.582,110.82h-5.2441l-8.6494-19.9668a.246.246,0,0,0-.1836-.1377.1681.1681,0,0,0-.1836.1836V110.82h-5.2451V77.2363h5.2451L212.97,97.4326a.3048.3048,0,0,0,.2305.1836.2049.2049,0,0,0,.1377-.1836V77.2363h5.2441Z"/><path class="a" d="M235.5557,86.2529c0-4.0478-1.4258-4.4619-4.2784-4.4619-3.2207,0-4.5546.5518-4.5546,12.2832,0,11.3633,1.38,12.2832,4.5546,12.2832,3.0362,0,4.2325-.8281,4.2325-4.6006V99.3652c0-.4609-.1836-.7363-.6436-.7363h-3.5889V93.3838h9.5694c.0918,1.334.1836,2.7148.1836,4.1406,0,12.2373-2.2539,14.124-9.753,14.124-8.1425,0-9.7988-2.4843-9.7988-17.5742,0-13.3418,1.6563-17.5283,9.8906-17.5283,6.8555,0,8.9248,1.6562,9.5235,9.707Z"/><path class="a" d="M106.9465,38.9532c1.5168,3.1121,2.8322,5.793,2.8322,9.188,0,.1752-.094.283-.47.5928a3.2418,3.2418,0,0,0-1.3825,2.7753,1.8285,1.8285,0,0,0,2,1.9939,5.3451,5.3451,0,0,0,1.6241-.31v2.87l-1.3019,3.0717a.6741.6741,0,0,0-.0269.4581l3.8389,13.2836a.677.677,0,0,0,.6577.4985h4.5636a.677.677,0,0,0,.6577-.4985l3.8523-13.2971a.6747.6747,0,0,0-.0268-.4581L122.463,56.05V53.1664a5.1174,5.1174,0,0,0,1.6241.31,1.8348,1.8348,0,0,0,2-1.9939,3.2816,3.2816,0,0,0-1.3826-2.7753c-.3758-.31-.47-.4177-.47-.5928,0-3.395,1.3154-6.076,2.8321-9.1881,1.8792-3.84,4.0268-8.2315,4.0268-15.0485,0-12.2732-6.9932-17.1367-7.3153-17.3657l-.6309-.4042A.673.673,0,0,0,122.7851,6a2.2068,2.2068,0,0,0-2.2013,2.21.7146.7146,0,0,0,.1208.4041l.3222.4446c1.8389,2.1421,4.8455,6.9652,4.3757,15.318-.3624,6.3724-2.9261,10.414-5.1811,13.9707A28.6661,28.6661,0,0,0,117,44.4094a28.0662,28.0662,0,0,0-3.2214-6.0625c-2.255-3.5567-4.8187-7.5983-5.1811-13.9707-.4832-8.3394,2.5368-13.1759,4.416-15.3584l.2819-.3907a.7152.7152,0,0,0,.1208-.4042,2.2067,2.2067,0,0,0-2.2013-2.2094.6728.6728,0,0,0-.3624.1078l-.6577.4176c-.2953.2021-7.2885,5.0656-7.2885,17.3523C102.9063,30.6947,105.0539,35.0866,106.9465,38.9532Zm9.454,33.0744h-1.1127l-3.7363-12.5831,1.2912-2.9774a.6315.6315,0,0,0,.055-.2694V52.6814l3.5028-1.2529v6.44a3.0682,3.0682,0,0,0,0,6.0086v8.1508Zm1.32-24.1154c.1887-3.3142,1.8188-5.86,3.7049-8.8243,2.3577-3.6914,5.0252-7.8948,5.4159-14.6174.5119-8.8244-2.7484-13.9977-4.6749-16.2341l-.1347-.1886a.8408.8408,0,0,1,.6466-.6332l.4311.2694c.0674.0539,6.7227,4.7153,6.7227,16.2072,0,6.4936-2.0747,10.7374-3.9069,14.4692-1.5224,3.1255-2.9774,6.076-2.9774,9.7808a2.0963,2.0963,0,0,0,.97,1.6571,1.9022,1.9022,0,0,1,.8891,1.6886.64.64,0,0,1-.6109.642,4.4657,4.4657,0,0,1-1.5177-.35l-.31-.1213-4.621-1.6975V47.9122Zm.027,3.5163,3.5028,1.2529v3.5163a.94.94,0,0,0,.0549.2694l1.2912,2.9774L118.86,72.0276h-1.1126V63.8768a3.0682,3.0682,0,0,0,0-6.0086v-6.44Zm.9924,9.4755a1.711,1.711,0,1,1-1.7109-1.711A1.6963,1.6963,0,0,1,118.74,60.904ZM111.0116,7.7289l.4445-.2829a.841.841,0,0,1,.6467.6332l-.0943.1347c-1.98,2.29-5.2272,7.4637-4.7288,16.288.3773,6.7361,3.0582,10.926,5.4159,14.6174,1.8861,2.95,3.5028,5.51,3.7049,8.7839v2.0882l-4.621,1.6841-.3638.1347a4.1682,4.1682,0,0,1-1.4833.3363.6156.6156,0,0,1-.5914-.62,1.9154,1.9154,0,0,1,.8892-1.71,2.0964,2.0964,0,0,0,.97-1.6571c0-3.7049-1.4416-6.6688-2.9774-9.7809-1.8322-3.7318-3.907-7.9755-3.907-14.4692C104.3158,12.4173,110.9577,7.7559,111.0116,7.7289Z"/></svg>