<svg xmlns="http://www.w3.org/2000/svg" viewBox="0 0 264 264"><defs><style>.a{fill:#bbc5a9;}.b{fill:#d0ddd3;}.c{fill:#5f1061;}</style></defs><title>unfurl</title><path class="a" d="M37.5327,259.74C20.0654,259.74,6.15,247.27,4.4409,230.083,1.7065,202.5889,30.0356,164.22,118.4043,145.5938,100.6914,229.6572,65.1636,259.7363,37.5381,259.74Zm188.9292,0c-27.626,0-63.1543-30.0762-80.8691-114.1445,88.3594,18.623,116.6865,56.9922,113.9551,84.4854C257.84,247.2666,243.9248,259.74,226.4619,259.74ZM132.001,178.9346q-1.6494-19.7739-4.3779-37.625l-.3916-2.5654-2.4453.4683.4678-2.4414-2.5654-.3926Q104.8628,133.6523,85.0615,132q19.7747-1.6494,37.6289-4.3779l2.5664-.3926-.4687-2.4438,2.4414.4678.3926-2.5659q2.7261-17.8242,4.377-37.6221,1.6494,19.7739,4.3779,37.6245l.3916,2.5654,2.4453-.4683-.4678,2.4414,2.5654.3926q17.8257,2.7261,37.627,4.3779-19.7739,1.65-37.63,4.3779l-2.5654.3926.4688,2.4438-2.4414-.4678-.3926,2.5659Q133.6519,159.1362,132.001,178.9346Zm13.5938-60.5283C163.31,34.3369,198.8369,4.26,226.4619,4.26c17.47,0,31.39,12.4751,33.0977,29.6631C262.291,61.4146,233.9609,99.7813,145.5947,118.4063Zm-27.1875-.002C30.0479,99.7808,1.72,61.4126,4.4521,33.9185,6.16,16.7329,20.0747,4.26,37.5386,4.26,65.1641,4.26,100.6929,34.3364,118.4072,118.4043Z"/><path class="b" d="M226.4667,1.76v5h.0009c16.1542,0,29.0243,11.5261,30.6023,27.4066,1.4431,14.5227-6.3358,29.9364-21.9038,43.4017-18.8011,16.2618-48.5385,29.19-86.31,37.574,8.0825-36.563,20.0311-64.765,35.5592-83.9,12.81-15.7857,27.7428-24.48,42.0467-24.4826l.0043-5m-188.9282,5c14.3055,0,29.2378,8.6915,42.0464,24.4733C95.1125,50.3649,107.0618,78.57,115.1458,115.14,77.377,106.7569,47.642,93.8288,28.8422,77.5672,13.2754,64.1021,5.4972,48.6885,6.94,34.1657,8.5182,18.2855,21.3866,6.76,37.5385,6.76m94.4607,102.565q.5669,4.5338,1.1977,8.9513-.5925.1064-1.1917.2124-.6051-.107-1.2035-.2145.63-4.4139,1.1975-8.9492m.0062,19.3153q1.4239.246,2.866.4858.2411,1.4507.4881,2.88-.2457,1.422-.4858,2.8661-1.4492.2408-2.8791.4878-1.4239-.246-2.866-.4858-.2411-1.4507-.4881-2.88.2457-1.422.4858-2.8661,1.4492-.2408,2.8791-.4878m13.72,2.1613q4.417.6308,8.9537,1.1981-4.5371.5673-8.9561,1.1983-.1065-.5927-.2123-1.1917.107-.6055.2147-1.2047m-27.4492.0011q.1065.5927.2123,1.1917-.107.6055-.2147,1.2047-4.417-.6308-8.9537-1.1981,4.5371-.5673,8.9561-1.1983m13.7182,14.7093q.6051.107,1.2035.2145-.63,4.4139-1.1975,8.9492-.5669-4.5338-1.1977-8.9513.5925-.1064,1.1917-.2124m-16.8513,3.3464c-8.0827,36.5636-20.0312,64.7662-35.5592,83.9013-12.8109,15.7868-27.743,24.481-42.0458,24.481-16.1586,0-29.032-11.5277-30.61-27.41-1.443-14.522,6.336-29.9349,21.9042-43.3994,18.8013-16.2608,48.5392-29.189,86.311-37.5726m33.7108.0018c37.7688,8.3831,67.5038,21.3113,86.3035,37.5729,15.5668,13.4651,23.3452,28.8788,21.902,43.4016-1.578,15.88-14.4464,27.406-30.5982,27.406-14.3055,0-29.2379-8.6915-42.0465-24.4733-15.5276-19.132-27.4769-47.3373-35.5609-83.9072M226.4615,1.76c-28.3533.0042-66.0956,30.2612-84.08,119.86,153.74-30.8582,132.73-119.8671,84.08-119.86Zm-188.9231,0c-48.638,0-69.6394,89.0036,84.0818,119.858C103.6325,32,65.8938,1.76,37.5385,1.76ZM132,21.2671c0,39.266-2.5155,72.706-6.8492,101.0429,2.2553.4321,4.5256.8479,6.8544,1.255,2.3289-.4071,4.5873-.82,6.8426-1.2527C134.5141,93.9755,132,60.5331,132,21.2671Zm-10.38,100.35c.2338,1.1649.4658,2.3488.6928,3.5338.8238-.126,1.64-.2529,2.455-.382q.1936-1.2226.3827-2.4595c-1.1849-.2271-2.3657-.4586-3.5305-.6924Zm20.7617.0018c-1.1649.2338-2.3492.4659-3.5342.6929.126.8237.2529,1.64.382,2.4553q1.2227.1935,2.46.3828c.2271-1.185.4586-2.3661.6924-3.5309Zm-10.3768,1.9456c-2.3683.414-4.7917.8174-7.2371,1.2045q-.5806,3.6681-1.2025,7.2244c.414,2.3683.8176,4.7932,1.2047,7.2386q3.6681.5807,7.2245,1.2026c2.3683-.414,4.7917-.8174,7.2371-1.2045q.5806-3.6681,1.2025-7.2244c-.414-2.3683-.8176-4.7932-1.2047-7.2386q-3.6681-.5807-7.2245-1.2026ZM141.69,125.15c-.4321,2.2553-.8481,4.5269-1.2551,6.8558.407,2.3289.82,4.5872,1.2526,6.8425,28.3368-4.3337,61.78-6.8486,101.046-6.8486-39.266,0-72.7065-2.516-101.0434-6.85Zm-19.3765.0011C93.9763,129.4851,60.5331,132,21.2671,132c39.266,0,72.7065,2.516,101.0434,6.85.4321-2.2553.8481-4.5269,1.2551-6.8558-.407-2.3289-.82-4.5872-1.2526-6.8425Zm19.3739,13.6972c-.8238.126-1.64.2529-2.455.382q-.1936,1.2226-.3827,2.4595c1.1849.2271,2.3657.4586,3.5305.6924-.2338-1.1649-.4658-2.3488-.6928-3.5338ZM122.31,138.85c-.2271,1.185-.4586,2.3661-.6924,3.5309,1.1649-.2338,2.3492-.4659,3.5342-.6929-.126-.8237-.2529-1.64-.382-2.4553q-1.2227-.1935-2.46-.3828Zm9.6843,1.5854c-2.3289.4071-4.5873.82-6.8426,1.2527C129.4859,170.0245,132,203.4669,132,242.7329c0-39.266,2.5155-72.7061,6.8492-101.0429-2.2553-.4321-4.5256-.8479-6.8544-1.255Zm-10.3768,1.9456c-153.74,30.8582-132.73,119.86-84.08,119.86,28.3533,0,66.0957-30.2611,84.08-119.86Zm20.7617.0018C160.3675,232,198.1062,262.24,226.4615,262.24c48.6381,0,69.6394-89.0036-84.0818-119.858Z"/><path d="M83.5068,131.8115q0,1.2107-7.6318,10.2144-6.3164,7.4773-10.001,7.4775a4.9866,4.9866,0,0,1-3.9219-1.8667,6.6587,6.6587,0,0,1-1.605-4.4951q0-2.0508,2.05-5.731L61.3462,138.83a80.713,80.713,0,0,1-7.0981,8.3071q-2.4719,2.3657-4.6792,2.3662a4.9568,4.9568,0,0,1-3.8906-1.814,6.5348,6.5348,0,0,1-1.5771-4.4429,14.0284,14.0284,0,0,1,2.3657-6.9927l9.5688-16.0884a14.7832,14.7832,0,0,0,2.7866.3682,29.9891,29.9891,0,0,0,3.5752-.3682l-12.5132,20.61a11.2,11.2,0,0,0-1.8926,5.5732q0,2.3657,1.9976,2.3657,5.31,0,17.0352-19.8208l5.1523-8.728a12.793,12.793,0,0,0,2.7339.3682,26.6672,26.6672,0,0,0,3.7329-.3682l-8.4121,13.7227q-5.9941,9.7793-5.9937,12.5654,0,2.2617,2.1587,2.2607,4.2122,0,13.689-13.27l1.6323-2.2642.9473-1.1592c.1758-.35.3506-.5259.5264-.5259A.279.279,0,0,1,83.5068,131.8115Z"/><path d="M125.62,131.8115q0,1.106-7.6318,10.2144-6.2651,7.4773-9.8428,7.4775a5.0681,5.0681,0,0,1-3.9746-1.84,6.6344,6.6344,0,0,1-1.6055-4.5215,10.0026,10.0026,0,0,1,.9727-4.39,80.5794,80.5794,0,0,1,5.0732-8.0181q4.26-6.3091,4.2588-8.0439,0-2.1555-2.2607-2.1558-7.6758,0-23.6592,28.4961-2.5767-.21-3.1021-.21a27.1457,27.1457,0,0,0-3.47.21L88.58,136.0435q6.9917-11.1453,6.9932-13.9326,0-1.5769-1.3174-1.5771-2.688,0-10.59,11.33-.4746.6848-.7378.7368-.2637,0-.3154-.3154a.7946.7946,0,0,1,.21-.4214l1-1.3169q8.0559-10.801,10.8481-10.8013a3.7607,3.7607,0,0,1,3.0537,1.63,6.1555,6.1555,0,0,1,1.2646,3.8906q0,3.3655-3.9434,9.3584,6.2036-8.5686,9.543-11.7246t6.1777-3.1543a4.8766,4.8766,0,0,1,3.8906,1.8926,7.0622,7.0622,0,0,1,1.5771,4.6792q0,3.5229-4.8369,10.7783-4.9424,7.4136-4.9424,9.4639a1.9065,1.9065,0,0,0,2.1592,2.1553q4.6846,0,16.1631-16.6929c.1758-.35.3506-.5259.5264-.5259A.2792.2792,0,0,1,125.62,131.8115Z"/><path d="M161.24,94.1406q0,4.6794-6.627,11.75a88.4908,88.4908,0,0,1-17.3555,13.854h9.043l-.4736.7886h-9.1484l-4.3125,8.36q-7.9424,15.51-13.5693,23.37a75.2633,75.2633,0,0,1-12.9912,14.0117q-10.15,8.4111-18.8809,8.4121-3.8921,0-3.8916-1.1309,0-.5259.5781-.5254a1.4416,1.4416,0,0,1,.6309.1055,12.832,12.832,0,0,0,3.5771.5518q7.1,0,14.3047-6.3623a41.76,41.76,0,0,0,7.7324-9.1479q2.7349-4.207,12.9375-22.9233l8.1-14.7212h-5.626l.4209-.7886H131.42a102.6593,102.6593,0,0,1,14.8838-19.7427q8.1519-8.332,12.57-8.333Q161.24,91.6694,161.24,94.1406Zm-.6309-.1055A1.5338,1.5338,0,0,0,158.874,92.3q-3.9976,0-10.8877,9.1484-3.4189,4.6267-10.3086,17.2446a97.7361,97.7361,0,0,0,15.7793-13.6694Q160.6084,97.3481,160.6094,94.0352Z"/><path class="c" d="M173.6221,131.8115q0,1.2107-7.6318,10.2144-6.3164,7.4773-10.001,7.4775a4.9866,4.9866,0,0,1-3.9219-1.8667,6.6591,6.6591,0,0,1-1.6055-4.4951q0-2.0508,2.0508-5.731l-1.0518,1.4194a80.6012,80.6012,0,0,1-7.0977,8.3071q-2.4712,2.3657-4.6787,2.3662a4.9554,4.9554,0,0,1-3.8906-1.814,6.5332,6.5332,0,0,1-1.5781-4.4429,14.03,14.03,0,0,1,2.3662-6.9927l9.5693-16.0884a14.7694,14.7694,0,0,0,2.7861.3682,29.9987,29.9987,0,0,0,3.5752-.3682L140,140.7754a11.193,11.193,0,0,0-1.8936,5.5732q0,2.3657,1.998,2.3657,5.31,0,17.0352-19.8208l5.1523-8.728a12.7968,12.7968,0,0,0,2.7334.3682,26.66,26.66,0,0,0,3.7334-.3682l-8.4121,13.7227q-5.9941,9.7793-5.9941,12.5654,0,2.2617,2.1592,2.2607,4.2114,0,13.6885-13.27l1.6328-2.2642.9473-1.1592c.1758-.35.3506-.5259.5264-.5259A.2792.2792,0,0,1,173.6221,131.8115Z"/><path class="c" d="M203.5918,131.8115q0,.4226-3.16,3.85-4.0034,4.4312-7.5322,4.4307-4.0034,0-4.0029-4.627a14.4609,14.4609,0,0,1,.6309-3.7329,35.8363,35.8363,0,0,0-5.39,5.731q-2.0771,2.8389-7.1758,11.5664-2.7876-.21-3.26-.21-.2109,0-3.208.21l8.623-13.9849q6.4673-10.5154,6.4668-13.0391,0-1.4714-1.2119-1.4722-2.95,0-10.6953,11.33-.4746.7368-.8428.7368a.2806.2806,0,0,1-.21-.3154.7975.7975,0,0,1,.21-.4214l.9482-1.3169q8.1094-10.801,11.0068-10.8013,4.2114,0,4.2119,5.415,0,4.05-4.3105,10.7256a41.9247,41.9247,0,0,1,5.2051-5.1523,26.4132,26.4132,0,0,1,4.9678-7.834q2.9707-3.1545,5.3369-3.1543,1.6289,0,1.63,1.4194,0,2.5239-7.3086,7.2031-1.1558.7368-3.47,2.1553l-.6309.5259a14.3013,14.3013,0,0,0-.7363,3.9961q0,4.4158,3.3193,4.416,4.1074,0,8.9551-6.8052,1.0518-1.1594,1.3164-1.16A.28.28,0,0,1,203.5918,131.8115Z"/><path class="c" d="M231.1152,94.561q-22.0825,36.7507-25.7363,43.2178t-3.6543,8.57q0,2.3657,2.001,2.3657,4.4224,0,16.2158-16.6929c.1758-.35.3857-.5259.6318-.5259a.2836.2836,0,0,1,.2109.3159,1.4434,1.4434,0,0,1-.5264.8428l-2.2637,3.106q-9.9492,13.7432-14.6865,13.7432a4.6428,4.6428,0,0,1-3.71-1.709,6.4719,6.4719,0,0,1-1.4482-4.3374,12.4826,12.4826,0,0,1,1.3408-5.6q1.3418-2.707,9.1221-15.6411,9.5156-15.8247,16.0361-27.4448a10.9618,10.9618,0,0,0,2.7861.42A10.41,10.41,0,0,0,231.1152,94.561Z"/></svg>