<svg xmlns="https://www.w3.org/2000/svg" viewBox="0 0 238 132"><defs><style>.a{fill:#19953f;}.a,.b{stroke:#000;stroke-width:5px;}.b{fill:#d0d0cf;}</style></defs><title>Artboard 1</title><path class="a" d="M119.1572,13.03,66.3442,66.4716,118.8428,118.97l52.813-53.1274L119.1572,13.03Z"/><path class="b" d="M74.3616,18.14l-2.2,2.2006v8.4878l2.397,2.3184,3.1829.0786.0786,73.9932,3.1436,3.1437h9.7453l77.9621-79.22V20.969L166.47,18.7684l-35.2087-.3143-2.2005,3.1436v6.916l2.2005,2.8293h2.8293L106.741,57.75l.2751-26.2887H110.16l2.5542-2.6327v-6.916l-2.8293-3.1437L74.3616,18.14Z"/><path class="b" d="M123.0664,69.3363l1.8861-1.5719,5.3442.1572,1.729,1.7291L130.14,74.9948,128.5677,76.41l-5.5664-.0651-1.5068-1.8211,1.5719-5.187Z"/><path class="b" d="M116.4647,79.3959l12.5746.1572L122.4376,99.358h2.3578l-1.4147,3.9295-11.7886-.1572,6.4444-19.019-3.1436.1572Z"/><path class="b" d="M132.0257,79.5531l-1.6369,4.2629h3.0055l-6.7128,19.4715h10.374l1.4988-3.8375-2.6911-.1762L139.57,87.7265l6.6017-.1572-4.8727,15.4038,10.19.1572,1.2832-3.6343-2.4486-.0719,4.0216-11.6976h5.6585L155.1314,103.13l10.7074.1112,1.3226-3.641-2.56-.0853,5.1477-16.3469-2.0434-3.3008h-6.4444l-2.5149,2.5149h-2.5149L153.56,79.71h-5.5014l-2.3577,2.3577h-2.6721l-2.6721-2.5149h-8.3306Z"/></svg>