<svg xmlns="http://www.w3.org/2000/svg" viewBox="0 0 238 132"><defs><style>.a{fill:#f03;}.b{fill:#039;}</style></defs><title>Artboard 1</title><path d="M200.1445,15H110.5086c-6.4843,0-10.3661,3.8818-10.3661,10.41V74.6a10.4266,10.4266,0,0,0,10.4266,10.4266h29.5568v9.0215l-10.441,8.6014A3.0267,3.0267,0,0,0,131.6274,108h46.9954a3.0267,3.0267,0,0,0,1.9425-5.351l-10.6176-8.8V85.0261h30.2411c6.5087,0,10.405-3.8854,10.405-10.42v-49.23C210.5274,18.8854,206.6532,15,200.1445,15ZM165.5473,98.2705l4.5172,3.7651h-30.1l5.024-4.2081A3.0833,3.0833,0,0,0,146.09,95.502V85.0261h17.6722V95.502A3.0437,3.0437,0,0,0,165.5473,98.2705Zm38.8613-23.5876c0,3.2289-1.1267,4.3789-4.3076,4.3789H110.4366c-3.181,0-4.33-1.15-4.33-4.3789v-49.34c0-3.2288,1.1266-4.3788,4.33-4.3788H200.101c3.1809,0,4.3076,1.15,4.3076,4.3788v49.34Z"/><path d="M197.76,25.8242H112.0933a2.0161,2.0161,0,0,0-2.01,2.01V72.1917a2.0161,2.0161,0,0,0,2.01,2.01h85.666a2.0161,2.0161,0,0,0,2.01-2.01v-44.33A2.0243,2.0243,0,0,0,197.76,25.8242Zm-1.9449,44.4015H114.0594V30.0214h81.7339V70.2257Z"/><path d="M117.0659,29.93c1.18,0,1.5576,1.5571,1.5576,3.4477,0,1.8819-.3779,3.4483-1.5576,3.4483s-1.5571-1.5664-1.5571-3.4483C115.5088,31.4868,115.8867,29.93,117.0659,29.93Zm0,6.0137c.4951,0,.63-1.1163.63-2.566,0-1.4585-.1353-2.5654-.63-2.5654s-.63,1.1069-.63,2.5654C116.436,34.8271,116.5708,35.9434,117.0659,35.9434Z"/><path d="M123.0063,35.9614v.7652h-2.8808v-.7652h1.0083V31.7031l-1.044.3872-.18-.27,1.8-1.8906h.288v6.0317Z"/><path d="M126.0659,29.93c1.18,0,1.5576,1.5571,1.5576,3.4477,0,1.8819-.3779,3.4483-1.5576,3.4483s-1.5571-1.5664-1.5571-3.4483C124.5088,31.4868,124.8867,29.93,126.0659,29.93Zm0,6.0137c.4951,0,.63-1.1163.63-2.566,0-1.4585-.1353-2.5654-.63-2.5654s-.63,1.1069-.63,2.5654C125.436,34.8271,125.5708,35.9434,126.0659,35.9434Z"/><path d="M132.0063,35.9614v.7652h-2.8808v-.7652h1.0083V31.7031l-1.044.3872-.18-.27,1.8-1.8906h.288v6.0317Z"/><path d="M135.0659,29.93c1.18,0,1.5576,1.5571,1.5576,3.4477,0,1.8819-.3779,3.4483-1.5576,3.4483s-1.5571-1.5664-1.5571-3.4483C133.5088,31.4868,133.8867,29.93,135.0659,29.93Zm0,6.0137c.4951,0,.63-1.1163.63-2.566,0-1.4585-.1353-2.5654-.63-2.5654s-.63,1.1069-.63,2.5654C134.436,34.8271,134.5708,35.9434,135.0659,35.9434Z"/><path d="M139.5659,29.93c1.18,0,1.5576,1.5571,1.5576,3.4477,0,1.8819-.3779,3.4483-1.5576,3.4483s-1.5571-1.5664-1.5571-3.4483C138.0088,31.4868,138.3867,29.93,139.5659,29.93Zm0,6.0137c.4951,0,.63-1.1163.63-2.566,0-1.4585-.1353-2.5654-.63-2.5654s-.63,1.1069-.63,2.5654C138.936,34.8271,139.0708,35.9434,139.5659,35.9434Z"/><path d="M145.5063,35.9614v.7652h-2.8808v-.7652h1.0083V31.7031l-1.044.3872-.18-.27,1.8-1.8906h.288v6.0317Z"/><path d="M148.5659,29.93c1.18,0,1.5576,1.5571,1.5576,3.4477,0,1.8819-.3779,3.4483-1.5576,3.4483s-1.5571-1.5664-1.5571-3.4483C147.0088,31.4868,147.3867,29.93,148.5659,29.93Zm0,6.0137c.4951,0,.63-1.1163.63-2.566,0-1.4585-.1353-2.5654-.63-2.5654s-.63,1.1069-.63,2.5654C147.936,34.8271,148.0708,35.9434,148.5659,35.9434Z"/><path d="M153.0659,29.93c1.18,0,1.5576,1.5571,1.5576,3.4477,0,1.8819-.3779,3.4483-1.5576,3.4483s-1.5571-1.5664-1.5571-3.4483C151.5088,31.4868,151.8867,29.93,153.0659,29.93Zm0,6.0137c.4951,0,.63-1.1163.63-2.566,0-1.4585-.1353-2.5654-.63-2.5654s-.63,1.1069-.63,2.5654C152.436,34.8271,152.5708,35.9434,153.0659,35.9434Z"/><path d="M159.0063,35.9614v.7652h-2.8808v-.7652h1.0083V31.7031l-1.044.3872-.18-.27,1.8-1.8906h.288v6.0317Z"/><path d="M162.0659,29.93c1.18,0,1.5576,1.5571,1.5576,3.4477,0,1.8819-.3779,3.4483-1.5576,3.4483s-1.5571-1.5664-1.5571-3.4483C160.5088,31.4868,160.8867,29.93,162.0659,29.93Zm0,6.0137c.4951,0,.63-1.1163.63-2.566,0-1.4585-.1353-2.5654-.63-2.5654s-.63,1.1069-.63,2.5654C161.436,34.8271,161.5708,35.9434,162.0659,35.9434Z"/><path d="M168.0063,35.9614v.7652h-2.8808v-.7652h1.0083V31.7031l-1.044.3872-.18-.27,1.8-1.8906h.288v6.0317Z"/><path d="M171.0659,29.93c1.18,0,1.5576,1.5571,1.5576,3.4477,0,1.8819-.3779,3.4483-1.5576,3.4483s-1.5571-1.5664-1.5571-3.4483C169.5088,31.4868,169.8867,29.93,171.0659,29.93Zm0,6.0137c.4951,0,.63-1.1163.63-2.566,0-1.4585-.1353-2.5654-.63-2.5654s-.63,1.1069-.63,2.5654C170.436,34.8271,170.5708,35.9434,171.0659,35.9434Z"/><path d="M177.0063,35.9614v.7652h-2.8808v-.7652h1.0083V31.7031l-1.044.3872-.18-.27,1.8-1.8906h.288v6.0317Z"/><path d="M180.0659,29.93c1.18,0,1.5576,1.5571,1.5576,3.4477,0,1.8819-.3779,3.4483-1.5576,3.4483s-1.5571-1.5664-1.5571-3.4483C178.5088,31.4868,178.8867,29.93,180.0659,29.93Zm0,6.0137c.4951,0,.63-1.1163.63-2.566,0-1.4585-.1353-2.5654-.63-2.5654s-.63,1.1069-.63,2.5654C179.436,34.8271,179.5708,35.9434,180.0659,35.9434Z"/><path d="M184.5659,29.93c1.18,0,1.5576,1.5571,1.5576,3.4477,0,1.8819-.3779,3.4483-1.5576,3.4483s-1.5571-1.5664-1.5571-3.4483C183.0088,31.4868,183.3867,29.93,184.5659,29.93Zm0,6.0137c.4951,0,.63-1.1163.63-2.566,0-1.4585-.1353-2.5654-.63-2.5654s-.63,1.1069-.63,2.5654C183.936,34.8271,184.0708,35.9434,184.5659,35.9434Z"/><path d="M190.5063,35.9614v.7652h-2.8808v-.7652h1.0083V31.7031l-1.044.3872-.18-.27,1.8-1.8906h.288v6.0317Z"/><path d="M193.5659,29.93c1.18,0,1.5576,1.5571,1.5576,3.4477,0,1.8819-.3779,3.4483-1.5576,3.4483s-1.5571-1.5664-1.5571-3.4483C192.0088,31.4868,192.3867,29.93,193.5659,29.93Zm0,6.0137c.4951,0,.63-1.1163.63-2.566,0-1.4585-.1353-2.5654-.63-2.5654s-.63,1.1069-.63,2.5654C192.936,34.8271,193.0708,35.9434,193.5659,35.9434Z"/><path d="M118.5063,46.7612v.7652h-2.8808v-.7652h1.0083V42.5029l-1.044.3872-.18-.27,1.8-1.8906h.288v6.0317Z"/><path d="M121.5659,40.73c1.18,0,1.5576,1.5571,1.5576,3.4477,0,1.8819-.3779,3.4483-1.5576,3.4483s-1.5571-1.5664-1.5571-3.4483C120.0088,42.2866,120.3867,40.73,121.5659,40.73Zm0,6.0137c.4951,0,.63-1.1162.63-2.566,0-1.4584-.1353-2.5654-.63-2.5654s-.63,1.107-.63,2.5654C120.936,45.627,121.0708,46.7432,121.5659,46.7432Z"/><path d="M127.5063,46.7612v.7652h-2.8808v-.7652h1.0083V42.5029l-1.044.3872-.18-.27,1.8-1.8906h.288v6.0317Z"/><path d="M130.5659,40.73c1.18,0,1.5576,1.5571,1.5576,3.4477,0,1.8819-.3779,3.4483-1.5576,3.4483s-1.5571-1.5664-1.5571-3.4483C129.0088,42.2866,129.3867,40.73,130.5659,40.73Zm0,6.0137c.4951,0,.63-1.1162.63-2.566,0-1.4584-.1353-2.5654-.63-2.5654s-.63,1.107-.63,2.5654C129.936,45.627,130.0708,46.7432,130.5659,46.7432Z"/><path d="M136.5063,46.7612v.7652h-2.8808v-.7652h1.0083V42.5029l-1.044.3872-.18-.27,1.8-1.8906h.288v6.0317Z"/><path d="M139.5659,40.73c1.18,0,1.5576,1.5571,1.5576,3.4477,0,1.8819-.3779,3.4483-1.5576,3.4483s-1.5571-1.5664-1.5571-3.4483C138.0088,42.2866,138.3867,40.73,139.5659,40.73Zm0,6.0137c.4951,0,.63-1.1162.63-2.566,0-1.4584-.1353-2.5654-.63-2.5654s-.63,1.107-.63,2.5654C138.936,45.627,139.0708,46.7432,139.5659,46.7432Z"/><path d="M144.0659,40.73c1.18,0,1.5576,1.5571,1.5576,3.4477,0,1.8819-.3779,3.4483-1.5576,3.4483s-1.5571-1.5664-1.5571-3.4483C142.5088,42.2866,142.8867,40.73,144.0659,40.73Zm0,6.0137c.4951,0,.63-1.1162.63-2.566,0-1.4584-.1353-2.5654-.63-2.5654s-.63,1.107-.63,2.5654C143.436,45.627,143.5708,46.7432,144.0659,46.7432Z"/><path d="M150.0063,46.7612v.7652h-2.8808v-.7652h1.0083V42.5029l-1.044.3872-.18-.27,1.8-1.8906h.288v6.0317Z"/><path d="M153.0659,40.73c1.18,0,1.5576,1.5571,1.5576,3.4477,0,1.8819-.3779,3.4483-1.5576,3.4483s-1.5571-1.5664-1.5571-3.4483C151.5088,42.2866,151.8867,40.73,153.0659,40.73Zm0,6.0137c.4951,0,.63-1.1162.63-2.566,0-1.4584-.1353-2.5654-.63-2.5654s-.63,1.107-.63,2.5654C152.436,45.627,152.5708,46.7432,153.0659,46.7432Z"/><path d="M159.0063,46.7612v.7652h-2.8808v-.7652h1.0083V42.5029l-1.044.3872-.18-.27,1.8-1.8906h.288v6.0317Z"/><path d="M162.0659,40.73c1.18,0,1.5576,1.5571,1.5576,3.4477,0,1.8819-.3779,3.4483-1.5576,3.4483s-1.5571-1.5664-1.5571-3.4483C160.5088,42.2866,160.8867,40.73,162.0659,40.73Zm0,6.0137c.4951,0,.63-1.1162.63-2.566,0-1.4584-.1353-2.5654-.63-2.5654s-.63,1.107-.63,2.5654C161.436,45.627,161.5708,46.7432,162.0659,46.7432Z"/><path d="M168.0063,46.7612v.7652h-2.8808v-.7652h1.0083V42.5029l-1.044.3872-.18-.27,1.8-1.8906h.288v6.0317Z"/><path d="M171.0659,40.73c1.18,0,1.5576,1.5571,1.5576,3.4477,0,1.8819-.3779,3.4483-1.5576,3.4483s-1.5571-1.5664-1.5571-3.4483C169.5088,42.2866,169.8867,40.73,171.0659,40.73Zm0,6.0137c.4951,0,.63-1.1162.63-2.566,0-1.4584-.1353-2.5654-.63-2.5654s-.63,1.107-.63,2.5654C170.436,45.627,170.5708,46.7432,171.0659,46.7432Z"/><path d="M177.0063,46.7612v.7652h-2.8808v-.7652h1.0083V42.5029l-1.044.3872-.18-.27,1.8-1.8906h.288v6.0317Z"/><path d="M181.5063,46.7612v.7652h-2.8808v-.7652h1.0083V42.5029l-1.044.3872-.18-.27,1.8-1.8906h.288v6.0317Z"/><path d="M186.0063,46.7612v.7652h-2.8808v-.7652h1.0083V42.5029l-1.044.3872-.18-.27,1.8-1.8906h.288v6.0317Z"/><path d="M189.0659,40.73c1.18,0,1.5576,1.5571,1.5576,3.4477,0,1.8819-.3779,3.4483-1.5576,3.4483s-1.5571-1.5664-1.5571-3.4483C187.5088,42.2866,187.8867,40.73,189.0659,40.73Zm0,6.0137c.4951,0,.63-1.1162.63-2.566,0-1.4584-.1353-2.5654-.63-2.5654s-.63,1.107-.63,2.5654C188.436,45.627,188.5708,46.7432,189.0659,46.7432Z"/><path d="M195.0063,46.7612v.7652h-2.8808v-.7652h1.0083V42.5029l-1.044.3872-.18-.27,1.8-1.8906h.288v6.0317Z"/><path d="M117.0659,51.53c1.18,0,1.5576,1.5571,1.5576,3.4477,0,1.8819-.3779,3.4483-1.5576,3.4483s-1.5571-1.5664-1.5571-3.4483C115.5088,53.0869,115.8867,51.53,117.0659,51.53Zm0,6.0137c.4951,0,.63-1.1163.63-2.566,0-1.4585-.1353-2.5654-.63-2.5654s-.63,1.1069-.63,2.5654C116.436,56.4272,116.5708,57.5435,117.0659,57.5435Z"/><path d="M123.0063,57.5615v.7652h-2.8808v-.7652h1.0083V53.3032l-1.044.3872-.18-.27,1.8-1.8906h.288v6.0317Z"/><path d="M127.5063,57.5615v.7652h-2.8808v-.7652h1.0083V53.3032l-1.044.3872-.18-.27,1.8-1.8906h.288v6.0317Z"/><path d="M130.5659,51.53c1.18,0,1.5576,1.5571,1.5576,3.4477,0,1.8819-.3779,3.4483-1.5576,3.4483s-1.5571-1.5664-1.5571-3.4483C129.0088,53.0869,129.3867,51.53,130.5659,51.53Zm0,6.0137c.4951,0,.63-1.1163.63-2.566,0-1.4585-.1353-2.5654-.63-2.5654s-.63,1.1069-.63,2.5654C129.936,56.4272,130.0708,57.5435,130.5659,57.5435Z"/><path d="M136.5063,57.5615v.7652h-2.8808v-.7652h1.0083V53.3032l-1.044.3872-.18-.27,1.8-1.8906h.288v6.0317Z"/><path d="M141.0063,57.5615v.7652h-2.8808v-.7652h1.0083V53.3032l-1.044.3872-.18-.27,1.8-1.8906h.288v6.0317Z"/><path d="M144.0659,51.53c1.18,0,1.5576,1.5571,1.5576,3.4477,0,1.8819-.3779,3.4483-1.5576,3.4483s-1.5571-1.5664-1.5571-3.4483C142.5088,53.0869,142.8867,51.53,144.0659,51.53Zm0,6.0137c.4951,0,.63-1.1163.63-2.566,0-1.4585-.1353-2.5654-.63-2.5654s-.63,1.1069-.63,2.5654C143.436,56.4272,143.5708,57.5435,144.0659,57.5435Z"/><path d="M150.0063,57.5615v.7652h-2.8808v-.7652h1.0083V53.3032l-1.044.3872-.18-.27,1.8-1.8906h.288v6.0317Z"/><path d="M153.0659,51.53c1.18,0,1.5576,1.5571,1.5576,3.4477,0,1.8819-.3779,3.4483-1.5576,3.4483s-1.5571-1.5664-1.5571-3.4483C151.5088,53.0869,151.8867,51.53,153.0659,51.53Zm0,6.0137c.4951,0,.63-1.1163.63-2.566,0-1.4585-.1353-2.5654-.63-2.5654s-.63,1.1069-.63,2.5654C152.436,56.4272,152.5708,57.5435,153.0659,57.5435Z"/><path d="M159.0063,57.5615v.7652h-2.8808v-.7652h1.0083V53.3032l-1.044.3872-.18-.27,1.8-1.8906h.288v6.0317Z"/><path d="M162.0659,51.53c1.18,0,1.5576,1.5571,1.5576,3.4477,0,1.8819-.3779,3.4483-1.5576,3.4483s-1.5571-1.5664-1.5571-3.4483C160.5088,53.0869,160.8867,51.53,162.0659,51.53Zm0,6.0137c.4951,0,.63-1.1163.63-2.566,0-1.4585-.1353-2.5654-.63-2.5654s-.63,1.1069-.63,2.5654C161.436,56.4272,161.5708,57.5435,162.0659,57.5435Z"/><path d="M168.0063,57.5615v.7652h-2.8808v-.7652h1.0083V53.3032l-1.044.3872-.18-.27,1.8-1.8906h.288v6.0317Z"/><path d="M171.0659,51.53c1.18,0,1.5576,1.5571,1.5576,3.4477,0,1.8819-.3779,3.4483-1.5576,3.4483s-1.5571-1.5664-1.5571-3.4483C169.5088,53.0869,169.8867,51.53,171.0659,51.53Zm0,6.0137c.4951,0,.63-1.1163.63-2.566,0-1.4585-.1353-2.5654-.63-2.5654s-.63,1.1069-.63,2.5654C170.436,56.4272,170.5708,57.5435,171.0659,57.5435Z"/><path d="M177.0063,57.5615v.7652h-2.8808v-.7652h1.0083V53.3032l-1.044.3872-.18-.27,1.8-1.8906h.288v6.0317Z"/><path d="M180.0659,51.53c1.18,0,1.5576,1.5571,1.5576,3.4477,0,1.8819-.3779,3.4483-1.5576,3.4483s-1.5571-1.5664-1.5571-3.4483C178.5088,53.0869,178.8867,51.53,180.0659,51.53Zm0,6.0137c.4951,0,.63-1.1163.63-2.566,0-1.4585-.1353-2.5654-.63-2.5654s-.63,1.1069-.63,2.5654C179.436,56.4272,179.5708,57.5435,180.0659,57.5435Z"/><path d="M184.5659,51.53c1.18,0,1.5576,1.5571,1.5576,3.4477,0,1.8819-.3779,3.4483-1.5576,3.4483s-1.5571-1.5664-1.5571-3.4483C183.0088,53.0869,183.3867,51.53,184.5659,51.53Zm0,6.0137c.4951,0,.63-1.1163.63-2.566,0-1.4585-.1353-2.5654-.63-2.5654s-.63,1.1069-.63,2.5654C183.936,56.4272,184.0708,57.5435,184.5659,57.5435Z"/><path d="M190.5063,57.5615v.7652h-2.8808v-.7652h1.0083V53.3032l-1.044.3872-.18-.27,1.8-1.8906h.288v6.0317Z"/><path d="M193.5659,51.53c1.18,0,1.5576,1.5571,1.5576,3.4477,0,1.8819-.3779,3.4483-1.5576,3.4483s-1.5571-1.5664-1.5571-3.4483C192.0088,53.0869,192.3867,51.53,193.5659,51.53Zm0,6.0137c.4951,0,.63-1.1163.63-2.566,0-1.4585-.1353-2.5654-.63-2.5654s-.63,1.1069-.63,2.5654C192.936,56.4272,193.0708,57.5435,193.5659,57.5435Z"/><path d="M118.5063,68.3613v.7652h-2.8808v-.7652h1.0083V64.103l-1.044.3872-.18-.27,1.8-1.8906h.288v6.0317Z"/><path d="M121.5659,62.33c1.18,0,1.5576,1.5571,1.5576,3.4477,0,1.8819-.3779,3.4483-1.5576,3.4483s-1.5571-1.5664-1.5571-3.4483C120.0088,63.8867,120.3867,62.33,121.5659,62.33Zm0,6.0137c.4951,0,.63-1.1162.63-2.566,0-1.4585-.1353-2.5654-.63-2.5654s-.63,1.1069-.63,2.5654C120.936,67.2271,121.0708,68.3433,121.5659,68.3433Z"/><path d="M126.0659,62.33c1.18,0,1.5576,1.5571,1.5576,3.4477,0,1.8819-.3779,3.4483-1.5576,3.4483s-1.5571-1.5664-1.5571-3.4483C124.5088,63.8867,124.8867,62.33,126.0659,62.33Zm0,6.0137c.4951,0,.63-1.1162.63-2.566,0-1.4585-.1353-2.5654-.63-2.5654s-.63,1.1069-.63,2.5654C125.436,67.2271,125.5708,68.3433,126.0659,68.3433Z"/><path d="M132.0063,68.3613v.7652h-2.8808v-.7652h1.0083V64.103l-1.044.3872-.18-.27,1.8-1.8906h.288v6.0317Z"/><path d="M135.0659,62.33c1.18,0,1.5576,1.5571,1.5576,3.4477,0,1.8819-.3779,3.4483-1.5576,3.4483s-1.5571-1.5664-1.5571-3.4483C133.5088,63.8867,133.8867,62.33,135.0659,62.33Zm0,6.0137c.4951,0,.63-1.1162.63-2.566,0-1.4585-.1353-2.5654-.63-2.5654s-.63,1.1069-.63,2.5654C134.436,67.2271,134.5708,68.3433,135.0659,68.3433Z"/><path d="M141.0063,68.3613v.7652h-2.8808v-.7652h1.0083V64.103l-1.044.3872-.18-.27,1.8-1.8906h.288v6.0317Z"/><path d="M144.0659,62.33c1.18,0,1.5576,1.5571,1.5576,3.4477,0,1.8819-.3779,3.4483-1.5576,3.4483s-1.5571-1.5664-1.5571-3.4483C142.5088,63.8867,142.8867,62.33,144.0659,62.33Zm0,6.0137c.4951,0,.63-1.1162.63-2.566,0-1.4585-.1353-2.5654-.63-2.5654s-.63,1.1069-.63,2.5654C143.436,67.2271,143.5708,68.3433,144.0659,68.3433Z"/><path d="M148.5659,62.33c1.18,0,1.5576,1.5571,1.5576,3.4477,0,1.8819-.3779,3.4483-1.5576,3.4483s-1.5571-1.5664-1.5571-3.4483C147.0088,63.8867,147.3867,62.33,148.5659,62.33Zm0,6.0137c.4951,0,.63-1.1162.63-2.566,0-1.4585-.1353-2.5654-.63-2.5654s-.63,1.1069-.63,2.5654C147.936,67.2271,148.0708,68.3433,148.5659,68.3433Z"/><path d="M154.5063,68.3613v.7652h-2.8808v-.7652h1.0083V64.103l-1.044.3872-.18-.27,1.8-1.8906h.288v6.0317Z"/><path d="M157.5659,62.33c1.18,0,1.5576,1.5571,1.5576,3.4477,0,1.8819-.3779,3.4483-1.5576,3.4483s-1.5571-1.5664-1.5571-3.4483C156.0088,63.8867,156.3867,62.33,157.5659,62.33Zm0,6.0137c.4951,0,.63-1.1162.63-2.566,0-1.4585-.1353-2.5654-.63-2.5654s-.63,1.1069-.63,2.5654C156.936,67.2271,157.0708,68.3433,157.5659,68.3433Z"/><path d="M162.0659,62.33c1.18,0,1.5576,1.5571,1.5576,3.4477,0,1.8819-.3779,3.4483-1.5576,3.4483s-1.5571-1.5664-1.5571-3.4483C160.5088,63.8867,160.8867,62.33,162.0659,62.33Zm0,6.0137c.4951,0,.63-1.1162.63-2.566,0-1.4585-.1353-2.5654-.63-2.5654s-.63,1.1069-.63,2.5654C161.436,67.2271,161.5708,68.3433,162.0659,68.3433Z"/><path d="M168.0063,68.3613v.7652h-2.8808v-.7652h1.0083V64.103l-1.044.3872-.18-.27,1.8-1.8906h.288v6.0317Z"/><path d="M171.0659,62.33c1.18,0,1.5576,1.5571,1.5576,3.4477,0,1.8819-.3779,3.4483-1.5576,3.4483s-1.5571-1.5664-1.5571-3.4483C169.5088,63.8867,169.8867,62.33,171.0659,62.33Zm0,6.0137c.4951,0,.63-1.1162.63-2.566,0-1.4585-.1353-2.5654-.63-2.5654s-.63,1.1069-.63,2.5654C170.436,67.2271,170.5708,68.3433,171.0659,68.3433Z"/><path d="M175.5659,62.33c1.18,0,1.5576,1.5571,1.5576,3.4477,0,1.8819-.3779,3.4483-1.5576,3.4483s-1.5571-1.5664-1.5571-3.4483C174.0088,63.8867,174.3867,62.33,175.5659,62.33Zm0,6.0137c.4951,0,.63-1.1162.63-2.566,0-1.4585-.1353-2.5654-.63-2.5654s-.63,1.1069-.63,2.5654C174.936,67.2271,175.0708,68.3433,175.5659,68.3433Z"/><path d="M181.5063,68.3613v.7652h-2.8808v-.7652h1.0083V64.103l-1.044.3872-.18-.27,1.8-1.8906h.288v6.0317Z"/><path d="M184.5659,62.33c1.18,0,1.5576,1.5571,1.5576,3.4477,0,1.8819-.3779,3.4483-1.5576,3.4483s-1.5571-1.5664-1.5571-3.4483C183.0088,63.8867,183.3867,62.33,184.5659,62.33Zm0,6.0137c.4951,0,.63-1.1162.63-2.566,0-1.4585-.1353-2.5654-.63-2.5654s-.63,1.1069-.63,2.5654C183.936,67.2271,184.0708,68.3433,184.5659,68.3433Z"/><path d="M190.5063,68.3613v.7652h-2.8808v-.7652h1.0083V64.103l-1.044.3872-.18-.27,1.8-1.8906h.288v6.0317Z"/><path d="M193.5659,62.33c1.18,0,1.5576,1.5571,1.5576,3.4477,0,1.8819-.3779,3.4483-1.5576,3.4483s-1.5571-1.5664-1.5571-3.4483C192.0088,63.8867,192.3867,62.33,193.5659,62.33Zm0,6.0137c.4951,0,.63-1.1162.63-2.566,0-1.4585-.1353-2.5654-.63-2.5654s-.63,1.1069-.63,2.5654C192.936,67.2271,193.0708,68.3433,193.5659,68.3433Z"/><path class="a" d="M233.3606,112.3221a2.8209,2.8209,0,0,0-.37-.4776c-9.521-9.521-20.7059-19.3655-24.958-23.0476C211.1758,83.99,211.8382,79.8,211.8382,74.5a27.5069,27.5069,0,1,0-27.5,27.5c5.3,0,9.49-.6625,14.297-3.8053,3.6666,4.2367,13.45,15.3753,23.0476,24.958a2.8181,2.8181,0,0,0,.4776.37,3.6055,3.6055,0,0,0,1.8949.4776c1.91,0,4.0364-1.1709,6.332-3.451C234.84,116.0812,233.9461,113.3081,233.3606,112.3221Zm-6.4628,4.6835a8.76,8.76,0,0,1-2.388,1.8487C213.0322,107.3,201.493,93.8039,201,93.2185h0v-.0154a3.1306,3.1306,0,0,0-.4006-.3852,2.4889,2.4889,0,0,0-3.1736.1541c-4.514,3.3893-7.95,4.021-13.0336,4.021a22.5008,22.5008,0,1,1,.356-44.9986,22.8058,22.8058,0,0,1,22.1511,22.89c-.0327,4.8595-.7155,8.219-3.9735,12.5881a2.0009,2.0009,0,0,0-.2773.3543,2.5112,2.5112,0,0,0,.4622,3.2815c.1386.1233,13.9733,11.9244,25.6512,23.5253A10.0506,10.0506,0,0,1,226.8978,117.0056Z"/><path class="a" d="M174.4321,64.6092a2.5056,2.5056,0,0,0-3.5434-3.5434,19.0153,19.0153,0,0,0,0,26.8684,2.4921,2.4921,0,0,0,3.5434,0,2.52,2.52,0,0,0,0-3.5434A14.0036,14.0036,0,0,1,174.4321,64.6092Z"/><path class="b" d="M17.8555,88.0381h3.6128l3.5283,18.6094L28.105,88.0381h3.6128l-5.7129,31.7573H24.03l-3.5283-18.147-3.5289,18.147H14.999L9.2856,88.0381h3.6128l3.1084,18.6094,2.6885-14.3247Z"/><path class="b" d="M48.2231,115.7627v3.5708H34.7808v-3.5708h4.7046V101.9H34.7808V98.33h8.7373v17.4331ZM41.502,93.1211a2.5643,2.5643,0,0,1-2.5625-2.52,2.5625,2.5625,0,0,1,5.125,0A2.5644,2.5644,0,0,1,41.502,93.1211Z"/><path class="b" d="M59.3936,119.3335H55.36V98.33H56.873l1.1338,2.7725a6.34,6.34,0,0,1,5.4615-3.2344c3.4443,0,6.1748,2.9824,6.1748,7.52v13.9463H65.61V105.4712c0-2.4785-1.3023-3.8648-2.94-3.8648a3.3942,3.3942,0,0,0-3.2763,3.2764Z"/><path class="b" d="M76.36,88.0381h4.1171c7.855,0,11.2579,6.9731,11.2579,15.6684,0,8.6539-3.4029,15.627-11.2579,15.627H76.36Zm4.0332,27.0527h.21c5.251,0,6.6372-5.041,6.6372-11.3843s-1.3862-11.4257-6.6372-11.4257h-.21Z"/><path class="b" d="M113.1553,109.7559a9.5645,9.5645,0,0,1-9.5357,9.5776H97.36V88.0381h5.5034a8.2652,8.2652,0,0,1,8.1914,8.2334,7.8538,7.8538,0,0,1-2.2266,5.5029A9.5312,9.5312,0,0,1,113.1553,109.7559Zm-6.3008-13.5684a4.0877,4.0877,0,0,0-4.0747-4.1167h-1.3862v8.2334H102.78A4.088,4.088,0,0,0,106.8545,96.1875Zm2.0581,13.61a5.5133,5.5133,0,0,0-5.5029-5.461h-2.0161v10.9639H103.41A5.5219,5.5219,0,0,0,108.9126,109.7979Z"/><path class="b" d="M129.6606,107.2773h-4.705v-4.0327h8.7378v16.0889h-1.5542l-.8824-2.1426a6.5849,6.5849,0,0,1-5.2929,2.6045c-6.1328,0-8.6953-7.3091-8.6953-16.0889,0-8.8212,2.5625-16.0888,8.6953-16.0888,4.2007,0,7.0991,2.8149,7.0991,8.4858h-3.7383c-.21-2.8984-1.1763-4.3691-3.1509-4.3691-3.1924,0-4.4106,5.167-4.4106,11.9721,0,6.7632,1.2182,11.9722,4.4106,11.9722,1.9746,0,3.4868-1.1343,3.4868-4.8306Z"/></svg>