<svg xmlns="https://www.w3.org/2000/svg" viewBox="0 0 238 132"><defs><style>.a{fill:none;stroke:#000;stroke-linejoin:round;stroke-width:4.2972px;}.b{fill:#e95420;}.c{fill:#fff;}.d{fill:#f03;}</style></defs><title>Artboard 1</title><path d="M18.95,66.0959,12.72,39.9643h3.1873l3.5716,17.13q.5766,2.6916.993,5.3475.8969-4.1889,1.0571-4.8306l4.4685-17.6468h3.7478l3.3634,13.2262a76.9536,76.9536,0,0,1,1.8258,9.2512q.4485-2.4777,1.1692-5.6862l3.6837-16.7912h3.1232L36.472,66.0959H33.477L28.5279,46.1852q-.6246-2.4954-.7367-3.0659-.3684,1.8-.6887,3.0659l-4.981,19.9107Zm27.3718,0V39.9643h3.1071V66.0959Zm8.6167,0V39.9643h10.41a12.5585,12.5585,0,0,1,4.7729.7041,5.4147,5.4147,0,0,1,2.6106,2.4866,8.06,8.06,0,0,1,.977,3.9393,7,7,0,0,1-1.6176,4.688,7.8334,7.8334,0,0,1-4.9971,2.4242,7.9935,7.9935,0,0,1,1.8739,1.3013,17.6847,17.6847,0,0,1,2.5786,3.4759l4.0842,7.1122h-3.908l-3.1071-5.4367q-1.3614-2.3529-2.2423-3.6007a7.4794,7.4794,0,0,0-1.5776-1.7468,4.44,4.44,0,0,0-1.4175-.6952,8.4039,8.4039,0,0,0-1.73-.1248H58.0458V66.0959Zm3.1071-14.5988h6.6788a9.076,9.076,0,0,0,3.3314-.49,3.6268,3.6268,0,0,0,1.8258-1.5686,4.5959,4.5959,0,0,0,.6247-2.344,4.1011,4.1011,0,0,0-1.2093-3.0481,5.2637,5.2637,0,0,0-3.82-1.1943H58.0458ZM78.6587,66.0959V39.9643H95.6359V43.048h-13.87v8.0035H94.755v3.0659H81.7659v8.8947H96.1805v3.0838ZM99.16,57.5933l4.6127-.4991a6.5342,6.5342,0,0,0,1.69,3.7967,4.7761,4.7761,0,0,0,3.4355,1.2121,4.9075,4.9075,0,0,0,3.4515-1.0784,3.341,3.341,0,0,0,1.1611-2.5222,2.5516,2.5516,0,0,0-.4885-1.5775,3.86,3.86,0,0,0-1.7057-1.1319q-.8328-.3209-3.7958-1.1409a12.2936,12.2936,0,0,1-5.3495-2.5846,7.1465,7.1465,0,0,1-2.1621-5.2584,7.27,7.27,0,0,1,1.017-3.7344,6.5631,6.5631,0,0,1,2.9309-2.647,10.7015,10.7015,0,0,1,4.6207-.9091q4.4205,0,6.6548,2.1569a8,8,0,0,1,2.3463,5.7575l-4.7408.2317a4.6655,4.6655,0,0,0-1.3053-2.8966,4.4282,4.4282,0,0,0-3.003-.8823,5.0126,5.0126,0,0,0-3.2353.9447,1.9761,1.9761,0,0,0-.7528,1.6221,2.0953,2.0953,0,0,0,.7048,1.5864q.8969.8379,4.3564,1.7469a21.4349,21.4349,0,0,1,5.1172,1.8805,6.9269,6.9269,0,0,1,2.5946,2.656,8.4631,8.4631,0,0,1,.9369,4.1621,8.3373,8.3373,0,0,1-1.1211,4.2068,6.9409,6.9409,0,0,1-3.1712,2.9144,12.1,12.1,0,0,1-5.1092.9536q-4.4524,0-6.8389-2.29A10.4325,10.4325,0,0,1,99.16,57.5933Zm23.1274,8.5026V39.9643h4.7408v10.285h9.2894V39.9643h4.7408V66.0959h-4.7408V54.67h-9.2894V66.0959Zm44.8615,0h-5.1573l-2.05-5.9358h-9.3855l-1.938,5.9358h-5.0291l9.1453-26.1316h5.013ZM158.42,55.7573,155.1842,46.06l-3.1712,9.6969Zm11.2754,10.3386V39.9643h9.9782a15.4541,15.4541,0,0,1,5.4695.7041,5.5674,5.5674,0,0,1,2.7308,2.5044,8.1749,8.1749,0,0,1,1.025,4.1176,7.4639,7.4639,0,0,1-1.5536,4.8573A7.1835,7.1835,0,0,1,182.7,54.563a11.3178,11.3178,0,0,1,2.5386,2.1925,29.9487,29.9487,0,0,1,2.6987,4.2424l2.8669,5.098h-5.67L181.7071,60.41a36.9893,36.9893,0,0,0-2.4985-3.8414,3.6486,3.6486,0,0,0-1.4255-1.0873,7.0681,7.0681,0,0,0-2.3864-.2941h-.9609v10.909Zm4.7409-15.08h3.5075a16.3258,16.3258,0,0,0,4.26-.3208A2.599,2.599,0,0,0,183.533,49.59a3.6942,3.6942,0,0,0,.4805-1.9607,3.3663,3.3663,0,0,0-.6327-2.13,2.8218,2.8218,0,0,0-1.7858-1.025q-.5766-.0891-3.4595-.0891h-3.7Zm19.0112,15.08V39.9643h4.7408V51.5684l9.5777-11.6041H214.14l-8.841,10.1781,9.3215,15.9535h-6.1343l-6.4545-12.2637-3.8439,4.3671v7.8966Z"/><path class="a" d="M13.0451,35.1957H97.8972S100.0984,9.3588,122.8441,9c-7.3373,11.4831-.4314,26.2322-.4314,26.2322h103.1"/><path d="M33.8118,121.5575q-2.0439.4282-5.3944.9085a55.184,55.184,0,0,1-7.7561.4805,19.3464,19.3464,0,0,1-6.4479-.9344A10.4324,10.4324,0,0,1,10,119.3666a10.1089,10.1089,0,0,1-2.2985-4.0347A17.77,17.77,0,0,1,7,110.1751V94.5718h5.9368v14.5345q0,5.0775,1.9152,7.2677t6.4473,2.1912q.9579,0,1.9793-.0542,1.02-.0523,1.9149-.1335t1.6279-.16a5.6622,5.6622,0,0,0,1.053-.1867V94.5718h5.9371v26.9857Z"/><path d="M48.3022,95.8008A17.6947,17.6947,0,0,1,51.59,94.572a18.1874,18.1874,0,0,1,5.0752-.6412,17.606,17.606,0,0,1,6.3518,1.0683,13.22,13.22,0,0,1,4.6919,2.9931,12.64,12.64,0,0,1,2.9045,4.5955,16.8228,16.8228,0,0,1,.99,5.8776,14.9869,14.9869,0,0,1-1.181,6.0654,12.64,12.64,0,0,1-3.3521,4.5685,15.2346,15.2346,0,0,1-5.2346,2.8854A21.8672,21.8672,0,0,1,54.9405,123a49.7874,49.7874,0,0,1-7.3411-.48q-3.193-.4811-5.2347-.9619V81.7464l5.9369-.8544V95.8008Zm0,22.23a22.3677,22.3677,0,0,0,2.5214.4006,36.3919,36.3919,0,0,0,4.0539.187,10.8673,10.8673,0,0,0,7.6606-2.645q2.8723-2.6451,2.8726-7.5082a15.1864,15.1864,0,0,0-.5108-4.0077,8.3663,8.3663,0,0,0-1.66-3.2328,7.815,7.815,0,0,0-2.9684-2.1379,11.1494,11.1494,0,0,0-4.373-.7745,13.8132,13.8132,0,0,0-4.4686.6947,13.0642,13.0642,0,0,0-3.1281,1.4425Z"/><path d="M104.7338,121.5575q-2.0435.4282-5.3946.9085a55.1885,55.1885,0,0,1-7.7562.4805,19.3427,19.3427,0,0,1-6.4479-.9344,10.4269,10.4269,0,0,1-4.213-2.6455,10.1065,10.1065,0,0,1-2.2985-4.0347,17.78,17.78,0,0,1-.7021-5.1568V94.5718h5.9374v14.5345q0,5.0775,1.9151,7.2677t6.4476,2.1912q.9566,0,1.9785-.0542,1.02-.0523,1.9151-.1335.8935-.08,1.628-.16a5.6645,5.6645,0,0,0,1.0535-.1867V94.5718h5.9369v26.9857Z"/><path d="M113.2871,95.3735q2.0423-.4271,5.4263-.9089a55.947,55.947,0,0,1,7.7878-.4806,19.7941,19.7941,0,0,1,6.5751.9349,10.3358,10.3358,0,0,1,4.1814,2.6185,9.478,9.478,0,0,1,2.2026,4.0347,19.7737,19.7737,0,0,1,.6389,5.1838v15.6028h-5.9374V107.824a19.966,19.966,0,0,0-.4153-4.3818,6.7661,6.7661,0,0,0-1.3721-2.9384,5.4312,5.4312,0,0,0-2.5534-1.63,13.2246,13.2246,0,0,0-3.9578-.5078c-.6383,0-1.2993.0184-1.979.0535q-1.0218.0538-1.9468.1337-.9282.08-1.66.1872-.7342.1077-1.0535.16v23.4586h-5.9363V95.3735Z"/><path d="M153.8235,94.572h12.5758V98.74H153.8235v12.8241a12.9512,12.9512,0,0,0,.383,3.4467,4.8266,4.8266,0,0,0,1.1485,2.1377,4.23,4.23,0,0,0,1.9151,1.0956,10.0269,10.0269,0,0,0,2.6815.3211,14.81,14.81,0,0,0,4.3409-.5078q1.5945-.5073,2.17-.7212l1.2765,4.0614a26.6837,26.6837,0,0,1-3.16.9609,20.5183,20.5183,0,0,1-5.1391.5881,18.2321,18.2321,0,0,1-5.5851-.7213,8.2145,8.2145,0,0,1-3.5431-2.1636,8.0677,8.0677,0,0,1-1.8832-3.5539,19.7456,19.7456,0,0,1-.5431-4.89V86.8235l5.9374-.8545v8.603Z"/><path d="M198.7,121.5575q-2.044.4282-5.3944.9085a55.184,55.184,0,0,1-7.7555.4805,19.3459,19.3459,0,0,1-6.4482-.9344,10.4416,10.4416,0,0,1-4.2143-2.6455,10.12,10.12,0,0,1-2.2981-4.0347,17.7661,17.7661,0,0,1-.7019-5.1568V94.5718h5.9374v14.5345q0,5.0775,1.9146,7.2677t6.4482,2.1912q.9575,0,1.979-.0542,1.02-.0523,1.9146-.1335c.5963-.0532,1.1381-.1064,1.6285-.16a5.65,5.65,0,0,0,1.0527-.1867V94.5718H198.7Z"/><ellipse class="b" cx="217.594" cy="92.112" rx="13.406" ry="11.222"/><path class="c" d="M210.6367,92.112a1.7511,1.7511,0,1,1-1.7244-1.4427A1.6023,1.6023,0,0,1,210.6367,92.112Zm9.8062,7.0154a1.917,1.917,0,0,0,2.354.5281,1.323,1.323,0,0,0,.6309-1.9708,1.9164,1.9164,0,0,0-2.354-.5278A1.3227,1.3227,0,0,0,220.4429,99.1274ZM223.4278,86.54a1.3221,1.3221,0,0,0-.6309-1.97,1.9169,1.9169,0,0,0-2.354.5278,1.3228,1.3228,0,0,0,.6309,1.9706A1.9154,1.9154,0,0,0,223.4278,86.54Zm-5.8335,1.458c2.5685,0,4.6759,1.648,4.8959,3.75l2.4946-.0327a5.7962,5.7962,0,0,0-2.1751-4.0027,2.8415,2.8415,0,0,1-2.0873-.1352,2.06,2.06,0,0,1-1.1837-1.4472,8.7757,8.7757,0,0,0-1.9444-.2164,8.5714,8.5714,0,0,0-3.2846.6418l1.2138,1.8245A5.7154,5.7154,0,0,1,217.5943,87.9975Zm-4.9155,4.1145a3.9627,3.9627,0,0,1,2.09-3.367l-1.2807-1.7918a6.3767,6.3767,0,0,0-3.0548,3.5772,1.8343,1.8343,0,0,1,0,3.1634,6.3773,6.3773,0,0,0,3.0548,3.5777l1.2807-1.7921A3.9626,3.9626,0,0,1,212.6788,92.112Zm4.9155,4.1152a5.7079,5.7079,0,0,1-2.0711-.3826l-1.2138,1.8245a8.5688,8.5688,0,0,0,3.2846.6418,8.7731,8.7731,0,0,0,1.9444-.2162,2.059,2.059,0,0,1,1.1837-1.4471,2.8408,2.8408,0,0,1,2.0873-.1352,5.8,5.8,0,0,0,2.1751-4.003l-2.4946-.0327C222.27,94.5787,220.1628,96.2272,217.5943,96.2272Z"/><path class="d" d="M103.1318,83.09v-7.541H115.229V63.4521h7.541V75.5488h12.0972V83.09H122.77V95.1865h-7.541V83.09Z"/></svg>